<svg width="100%" viewBox="0 0 1655 1517" fill="none" xmlns="http://www.w3.org/2000/svg">
  <path d="M94.2781 1010.09L1 958.22V760.273L458.67 505.758L551.94 558.387" stroke="#26476C" stroke-miterlimit="10" />
  <path d="M458.67 610.496V703.705L94.6201 906.159" stroke="#26476C" stroke-miterlimit="10" />
  <path d="M94.2773 1010.85V812.903L551.94 558.388" stroke="#26476C" stroke-miterlimit="10" />
  <path d="M551.94 558.388V756.335L94.2773 1010.85" stroke="#26476C" stroke-miterlimit="10" />
  <path d="M191.969 758.027L458.328 906.152" stroke="#26476C" stroke-miterlimit="10" />
  <path d="M94.2773 610.496V703.705L98.1124 705.836" stroke="#26476C" stroke-miterlimit="10" />
  <path
    d="M458.67 1010.85L481.99 997.692L528.621 971.377L551.94 958.22V760.273L94.2781 505.758L70.9586 518.915L24.3195 545.23L1 558.387"
    stroke="#26476C" stroke-miterlimit="10" />
  <path d="M458.67 1010.85V812.903L1 558.388" stroke="#26476C" stroke-miterlimit="10" />
  <path d="M98.1133 810.34L458.67 1010.85" stroke="#26476C" stroke-miterlimit="10" />
  <path d="M1 558.388V756.335L3.98822 757.995" stroke="#26476C" stroke-miterlimit="10" />
  <path d="M645.218 1010.09L551.94 958.22V760.273L1009.61 505.758L1102.88 558.387" stroke="#26476C"
    stroke-miterlimit="10" />
  <path d="M1009.61 610.496V703.705L645.56 906.159" stroke="#26476C" stroke-miterlimit="10" />
  <path d="M645.218 1010.85V812.903L1102.88 558.388" stroke="#26476C" stroke-miterlimit="10" />
  <path d="M1102.88 558.388V756.335L645.218 1010.85" stroke="#26476C" stroke-miterlimit="10" />
  <path d="M742.901 758.027L1009.26 906.152" stroke="#26476C" stroke-miterlimit="10" />
  <path d="M645.218 610.496V703.705L649.053 705.836" stroke="#26476C" stroke-miterlimit="10" />
  <path
    d="M1009.61 1010.85L1032.92 997.692L1079.56 971.377L1102.88 958.22V760.273L645.218 505.758L621.899 518.915L575.259 545.23L551.94 558.387"
    stroke="#26476C" stroke-miterlimit="10" />
  <path d="M1009.61 1010.85V812.903L551.94 558.388" stroke="#26476C" stroke-miterlimit="10" />
  <path d="M649.054 810.34L1009.61 1010.85" stroke="#26476C" stroke-miterlimit="10" />
  <path d="M551.94 558.388V756.335L554.928 757.995" stroke="#26476C" stroke-miterlimit="10" />
  <path d="M1196.16 1010.09L1102.88 958.22V760.273L1560.54 505.758L1653.82 558.387" stroke="#26476C"
    stroke-miterlimit="10" />
  <path d="M1560.54 610.496V703.705L1196.5 906.159" stroke="#26476C" stroke-miterlimit="10" />
  <path d="M1196.16 1010.85V812.903L1653.82 558.388" stroke="#26476C" stroke-miterlimit="10" />
  <path d="M1653.82 558.388V756.335L1196.16 1010.85" stroke="#26476C" stroke-miterlimit="10" />
  <path d="M1293.84 758.027L1560.2 906.152" stroke="#26476C" stroke-miterlimit="10" />
  <path d="M1196.16 610.496V703.705L1199.99 705.836" stroke="#26476C" stroke-miterlimit="10" />
  <path
    d="M1560.54 1010.85L1583.86 997.692L1630.5 971.377L1653.82 958.22V760.273L1196.16 505.758L1172.84 518.915L1126.2 545.23L1102.88 558.387"
    stroke="#26476C" stroke-miterlimit="10" />
  <path d="M1560.54 1010.85V812.903L1102.88 558.388" stroke="#26476C" stroke-miterlimit="10" />
  <path d="M1199.98 810.34L1560.54 1010.85" stroke="#26476C" stroke-miterlimit="10" />
  <path d="M1102.88 558.388V756.335L1105.87 757.995" stroke="#26476C" stroke-miterlimit="10" />
  <path d="M94.2783 505.335L1.00012 453.462V255.515L458.67 1L551.94 53.6378" stroke="#26476C" stroke-miterlimit="10" />
  <path d="M458.67 105.746V198.946L94.6201 401.401" stroke="#26476C" stroke-miterlimit="10" />
  <path d="M94.2773 506.091V308.144L551.94 53.6377" stroke="#26476C" stroke-miterlimit="10" />
  <path d="M551.94 53.6377V251.585L94.2773 506.091" stroke="#26476C" stroke-miterlimit="10" />
  <path d="M191.969 253.277L458.328 401.402" stroke="#26476C" stroke-miterlimit="10" />
  <path d="M94.2773 105.746V198.946L98.1124 201.078" stroke="#26476C" stroke-miterlimit="10" />
  <path
    d="M458.67 506.091L481.99 492.934L528.621 466.619L551.94 453.462V255.515L94.2783 1L70.9587 14.1574L24.3197 40.4804L1.00012 53.6378"
    stroke="#26476C" stroke-miterlimit="10" />
  <path d="M458.67 506.091V308.144L1 53.6377" stroke="#26476C" stroke-miterlimit="10" />
  <path d="M98.1133 305.582L458.67 506.092" stroke="#26476C" stroke-miterlimit="10" />
  <path d="M1 53.6377V251.585L3.98822 253.236" stroke="#26476C" stroke-miterlimit="10" />
  <path d="M645.218 505.335L551.94 453.462V255.515L1009.61 1L1102.88 53.6378" stroke="#26476C" stroke-miterlimit="10" />
  <path d="M1009.61 105.746V198.946L645.56 401.401" stroke="#26476C" stroke-miterlimit="10" />
  <path d="M645.218 506.091V308.144L1102.88 53.6377" stroke="#26476C" stroke-miterlimit="10" />
  <path d="M1102.88 53.6377V251.585L645.218 506.091" stroke="#26476C" stroke-miterlimit="10" />
  <path d="M742.901 253.277L1009.26 401.402" stroke="#26476C" stroke-miterlimit="10" />
  <path d="M645.218 105.746V198.946L649.053 201.078" stroke="#26476C" stroke-miterlimit="10" />
  <path
    d="M1009.61 506.091L1032.92 492.934L1079.56 466.619L1102.88 453.462V255.515L645.218 1L621.898 14.1574L575.259 40.4804L551.94 53.6378"
    stroke="#26476C" stroke-miterlimit="10" />
  <path d="M1009.61 506.091V308.144L551.94 53.6377" stroke="#26476C" stroke-miterlimit="10" />
  <path d="M649.054 305.582L1009.61 506.092" stroke="#26476C" stroke-miterlimit="10" />
  <path d="M551.94 53.6377V251.585L554.928 253.236" stroke="#26476C" stroke-miterlimit="10" />
  <path d="M1196.16 505.335L1102.88 453.462V255.515L1560.54 1L1653.82 53.6378" stroke="#26476C"
    stroke-miterlimit="10" />
  <path d="M1560.54 105.746V198.946L1196.5 401.401" stroke="#26476C" stroke-miterlimit="10" />
  <path d="M1196.16 506.091V308.144L1653.82 53.6377" stroke="#26476C" stroke-miterlimit="10" />
  <path d="M1653.82 53.6377V251.585L1196.16 506.091" stroke="#26476C" stroke-miterlimit="10" />
  <path d="M1293.84 253.277L1560.2 401.402" stroke="#26476C" stroke-miterlimit="10" />
  <path d="M1196.16 105.746V198.946L1199.99 201.078" stroke="#26476C" stroke-miterlimit="10" />
  <path
    d="M1560.54 506.091L1583.86 492.934L1630.5 466.619L1653.82 453.462V255.515L1196.16 1L1172.84 14.1574L1126.2 40.4804L1102.88 53.6378"
    stroke="#26476C" stroke-miterlimit="10" />
  <path d="M1560.54 506.091V308.144L1102.88 53.6377" stroke="#26476C" stroke-miterlimit="10" />
  <path d="M1199.98 305.582L1560.54 506.092" stroke="#26476C" stroke-miterlimit="10" />
  <path d="M1102.88 53.6377V251.585L1105.87 253.236" stroke="#26476C" stroke-miterlimit="10" />
  <path d="M94.2781 1515.37L1 1463.5V1265.55L458.67 1011.04L551.94 1063.67" stroke="#26476C" stroke-miterlimit="10" />
  <path d="M458.67 1115.78V1208.98L94.6201 1411.43" stroke="#26476C" stroke-miterlimit="10" />
  <path d="M94.2773 1516.13V1318.18L551.94 1063.67" stroke="#26476C" stroke-miterlimit="10" />
  <path d="M551.94 1063.67V1261.61L94.2773 1516.13" stroke="#26476C" stroke-miterlimit="10" />
  <path d="M191.969 1263.31L458.328 1411.43" stroke="#26476C" stroke-miterlimit="10" />
  <path d="M94.2773 1115.78V1208.98L98.1124 1211.12" stroke="#26476C" stroke-miterlimit="10" />
  <path
    d="M458.67 1516.13L481.99 1502.97L528.621 1476.66L551.94 1463.5V1265.55L94.2781 1011.04L70.9586 1024.19L24.3195 1050.51L1 1063.67"
    stroke="#26476C" stroke-miterlimit="10" />
  <path d="M458.67 1516.13V1318.18L1 1063.67" stroke="#26476C" stroke-miterlimit="10" />
  <path d="M98.1133 1315.62L458.67 1516.13" stroke="#26476C" stroke-miterlimit="10" />
  <path d="M1 1063.67V1261.61L3.98822 1263.27" stroke="#26476C" stroke-miterlimit="10" />
  <path d="M645.218 1515.37L551.94 1463.5V1265.55L1009.61 1011.04L1102.88 1063.67" stroke="#26476C"
    stroke-miterlimit="10" />
  <path d="M1009.61 1115.78V1208.98L645.56 1411.43" stroke="#26476C" stroke-miterlimit="10" />
  <path d="M645.218 1516.13V1318.18L1102.88 1063.67" stroke="#26476C" stroke-miterlimit="10" />
  <path d="M1102.88 1063.67V1261.61L645.218 1516.13" stroke="#26476C" stroke-miterlimit="10" />
  <path d="M742.901 1263.31L1009.26 1411.43" stroke="#26476C" stroke-miterlimit="10" />
  <path d="M645.218 1115.78V1208.98L649.053 1211.12" stroke="#26476C" stroke-miterlimit="10" />
  <path
    d="M1009.61 1516.13L1032.92 1502.97L1079.56 1476.66L1102.88 1463.5V1265.55L645.218 1011.04L621.899 1024.19L575.259 1050.51L551.94 1063.67"
    stroke="#26476C" stroke-miterlimit="10" />
  <path d="M1009.61 1516.13V1318.18L551.94 1063.67" stroke="#26476C" stroke-miterlimit="10" />
  <path d="M649.054 1315.62L1009.61 1516.13" stroke="#26476C" stroke-miterlimit="10" />
  <path d="M551.94 1063.67V1261.61L554.928 1263.27" stroke="#26476C" stroke-miterlimit="10" />
  <path d="M1196.16 1515.37L1102.88 1463.5V1265.55L1560.54 1011.04L1653.82 1063.67" stroke="#26476C"
    stroke-miterlimit="10" />
  <path d="M1560.54 1115.78V1208.98L1196.5 1411.43" stroke="#26476C" stroke-miterlimit="10" />
  <path d="M1196.16 1516.13V1318.18L1653.82 1063.67" stroke="#26476C" stroke-miterlimit="10" />
  <path d="M1653.82 1063.67V1261.61L1196.16 1516.13" stroke="#26476C" stroke-miterlimit="10" />
  <path d="M1293.84 1263.31L1560.2 1411.43" stroke="#26476C" stroke-miterlimit="10" />
  <path d="M1196.16 1115.78V1208.98L1199.99 1211.12" stroke="#26476C" stroke-miterlimit="10" />
  <path
    d="M1560.54 1516.13L1583.86 1502.97L1630.5 1476.66L1653.82 1463.5V1265.55L1196.16 1011.04L1172.84 1024.19L1126.2 1050.51L1102.88 1063.67"
    stroke="#26476C" stroke-miterlimit="10" />
  <path d="M1560.54 1516.13V1318.18L1102.88 1063.67" stroke="#26476C" stroke-miterlimit="10" />
  <path d="M1199.98 1315.62L1560.54 1516.13" stroke="#26476C" stroke-miterlimit="10" />
  <path d="M1102.88 1063.67V1261.61L1105.87 1263.27" stroke="#26476C" stroke-miterlimit="10" />
</svg>