<svg width="100%" viewBox="0 0 1200 545" fill="none" xmlns="http://www.w3.org/2000/svg">
  <rect x="0.5" y="0.5" width="1199" height="544" rx="49.5" stroke="#26476C" />
  <mask id="mask0_494_77" style="mask-type:alpha" maskUnits="userSpaceOnUse" x="0" y="1" width="1200" height="543">
    <rect y="1" width="1200" height="543" rx="56" fill="#091728" />
  </mask>
  <g mask="url(#mask0_494_77)">
    <path
      d="M925.032 26.7844H911.032C909.375 26.7844 908.032 28.1276 908.032 29.7844V43.7844C908.032 45.4413 909.375 46.7844 911.032 46.7844H925.032C926.689 46.7844 928.032 45.4413 928.032 43.7844V29.7844C928.032 28.1276 926.689 26.7844 925.032 26.7844Z"
      fill="#0F95A7" />
    <path
      d="M709.337 372.715H695.337C693.68 372.715 692.337 374.058 692.337 375.715V389.715C692.337 391.372 693.68 392.715 695.337 392.715H709.337C710.994 392.715 712.337 391.372 712.337 389.715V375.715C712.337 374.058 710.994 372.715 709.337 372.715Z"
      fill="#0F95A7" />
    <path
      d="M555.16 183.767H541.16C539.503 183.767 538.16 185.11 538.16 186.767V200.767C538.16 202.424 539.503 203.767 541.16 203.767H555.16C556.817 203.767 558.16 202.424 558.16 200.767V186.767C558.16 185.11 556.817 183.767 555.16 183.767Z"
      fill="#0F95A7" />
    <path
      d="M31.0444 351.573H17.0444C15.3876 351.573 14.0444 352.916 14.0444 354.573V368.573C14.0444 370.229 15.3876 371.573 17.0444 371.573H31.0444C32.7013 371.573 34.0444 370.229 34.0444 368.573V354.573C34.0444 352.916 32.7013 351.573 31.0444 351.573Z"
      fill="#0F95A7" />
    <path
      d="M1143.89 427.869H1129.89C1128.24 427.869 1126.89 429.212 1126.89 430.869V444.869C1126.89 446.526 1128.24 447.869 1129.89 447.869H1143.89C1145.55 447.869 1146.89 446.526 1146.89 444.869V430.869C1146.89 429.212 1145.55 427.869 1143.89 427.869Z"
      fill="#0F95A7" />
    <path
      d="M260.421 68.7493H246.421C244.765 68.7493 243.421 70.0924 243.421 71.7493V85.7493C243.421 87.4061 244.765 88.7493 246.421 88.7493H260.421C262.078 88.7493 263.421 87.4061 263.421 85.7493V71.7493C263.421 70.0924 262.078 68.7493 260.421 68.7493Z"
      fill="#0F95A7" />
    <path
      d="M760.933 509.02H746.933C745.276 509.02 743.933 510.363 743.933 512.02V526.02C743.933 527.677 745.276 529.02 746.933 529.02H760.933C762.589 529.02 763.933 527.677 763.933 526.02V512.02C763.933 510.363 762.589 509.02 760.933 509.02Z"
      fill="#0F95A7" />
    <path d="M253.192 77.9297L548.851 193.868" stroke="#26476C" stroke-miterlimit="10" />
    <path d="M253.192 77.9297L25.6572 360.753" stroke="#26476C" stroke-miterlimit="10" />
    <path d="M754.623 520.043L25.6572 360.753" stroke="#26476C" stroke-miterlimit="10" />
    <path d="M703.029 383.738L25.6572 360.753" stroke="#26476C" stroke-miterlimit="10" />
    <path d="M703.029 383.738L548.852 193.869" stroke="#26476C" stroke-miterlimit="10" />
    <path d="M703.03 383.738L919.646 35.0435" stroke="#26476C" stroke-miterlimit="10" />
    <path d="M703.03 383.738L1137.59 437.971" stroke="#26476C" stroke-miterlimit="10" />
    <path d="M754.624 520.044L1137.59 437.971" stroke="#26476C" stroke-miterlimit="10" />
    <path d="M919.646 35.0435L1137.59 437.97" stroke="#26476C" stroke-miterlimit="10" />
    <path d="M919.645 35.0435L548.852 193.869" stroke="#26476C" stroke-miterlimit="10" />
    <path d="M919.644 35.0435L253.192 77.9299" stroke="#26476C" stroke-miterlimit="10" />
    <path d="M253.192 77.9302L-22.6373 -7.84277" stroke="#26476C" stroke-miterlimit="10" />
    <path d="M1262.34 376.317L1137.58 437.971" stroke="#26476C" stroke-miterlimit="10" />
    <path d="M-54.7029 301.482L25.6577 360.753" stroke="#26476C" stroke-miterlimit="10" />
    <path d="M919.646 35.0435L1262.23 129.644" stroke="#26476C" stroke-miterlimit="10" />
    <path d="M936.945 -7.84277L919.646 35.0437" stroke="#26476C" stroke-miterlimit="10" />
    <path d="M754.624 520.044L557.673 560.944" stroke="#26476C" stroke-miterlimit="10" />
    <path d="M100.291 556.59L25.6572 360.753" stroke="#26476C" stroke-miterlimit="10" />
    <path d="M-54.7029 464.055L25.6577 360.753" stroke="#26476C" stroke-miterlimit="10" />
    <path d="M1199.97 556.591L1137.58 437.971" stroke="#26476C" stroke-miterlimit="10" />
    <path d="M754.624 520.044L1120.29 556.591" stroke="#26476C" stroke-miterlimit="10" />
    <path d="M703.03 383.738L755.461 520.127" stroke="#26476C" stroke-miterlimit="10" />
    <path d="M289.492 288.091H269.492V308.091H289.492V288.091Z" fill="#0F95A7" stroke="#26476C"
      stroke-miterlimit="10" />
    <path d="M278.791 299.272L-65.2656 3.01709" stroke="#26476C" stroke-miterlimit="10" />
    <path d="M278.791 299.272L703.03 383.738" stroke="#26476C" stroke-miterlimit="10" />
    <path d="M278.791 299.272L755.46 520.127" stroke="#26476C" stroke-miterlimit="10" />
    <path d="M278.79 299.272L25.6572 360.753" stroke="#26476C" stroke-miterlimit="10" />
    <path d="M278.791 299.272L548.852 193.869" stroke="#26476C" stroke-miterlimit="10" />
  </g>
  <rect x="73" y="108" width="1054" height="329" rx="30" fill="#001830" />
  <rect x="474.634" y="353.5" width="68.5167" height="32" rx="2.5" stroke="#26A1C8" />
  <path
    d="M150.688 375V364.808H154.104C155.24 364.808 156.114 365.091 156.728 365.656C157.341 366.221 157.648 367.003 157.648 368C157.648 368.987 157.341 369.763 156.728 370.328C156.114 370.888 155.24 371.168 154.104 371.168H152.224V375H150.688ZM152.224 369.84H154.104C154.754 369.84 155.248 369.672 155.584 369.336C155.92 369 156.088 368.555 156.088 368C156.088 367.44 155.92 366.987 155.584 366.64C155.248 366.293 154.754 366.12 154.104 366.12H152.224V369.84Z"
    fill="#1F4551" />
  <path
    d="M159.775 375V367.28H161.295V375H159.775ZM160.879 371.56C160.879 370.573 160.98 369.755 161.183 369.104C161.391 368.448 161.679 367.96 162.047 367.64C162.42 367.32 162.857 367.16 163.359 367.16C163.508 367.16 163.647 367.171 163.775 367.192C163.908 367.213 164.039 367.243 164.167 367.28L164.111 368.792C163.967 368.755 163.809 368.723 163.639 368.696C163.473 368.664 163.321 368.648 163.183 368.648C162.745 368.648 162.388 368.765 162.111 369C161.833 369.229 161.628 369.563 161.495 370C161.361 370.432 161.295 370.952 161.295 371.56H160.879Z"
    fill="#1F4551" />
  <path
    d="M168.655 375.208C167.956 375.208 167.33 375.056 166.775 374.752C166.226 374.448 165.791 373.995 165.471 373.392C165.151 372.789 164.991 372.045 164.991 371.16C164.991 370.259 165.151 369.509 165.471 368.912C165.791 368.309 166.226 367.856 166.775 367.552C167.33 367.248 167.956 367.096 168.655 367.096C169.343 367.096 169.962 367.248 170.511 367.552C171.06 367.856 171.492 368.309 171.807 368.912C172.127 369.509 172.287 370.259 172.287 371.16C172.287 372.045 172.127 372.789 171.807 373.392C171.492 373.995 171.06 374.448 170.511 374.752C169.962 375.056 169.343 375.208 168.655 375.208ZM168.607 373.88C169.05 373.88 169.431 373.773 169.751 373.56C170.076 373.347 170.324 373.037 170.495 372.632C170.671 372.221 170.759 371.731 170.759 371.16C170.759 370.285 170.58 369.608 170.223 369.128C169.871 368.648 169.362 368.408 168.695 368.408C168.247 368.408 167.86 368.517 167.535 368.736C167.215 368.949 166.967 369.261 166.791 369.672C166.62 370.077 166.535 370.573 166.535 371.16C166.535 372.019 166.714 372.688 167.071 373.168C167.428 373.643 167.94 373.88 168.607 373.88Z"
    fill="#1F4551" />
  <path
    d="M177.106 375.208C176.669 375.208 176.274 375.125 175.922 374.96C175.57 374.795 175.29 374.547 175.082 374.216C174.879 373.88 174.778 373.459 174.778 372.952V365.208H176.29V372.904C176.29 373.629 176.629 373.992 177.306 373.992C177.514 373.992 177.717 373.971 177.914 373.928C178.111 373.88 178.335 373.811 178.586 373.72L178.802 374.8C178.519 374.917 178.239 375.013 177.962 375.088C177.69 375.168 177.405 375.208 177.106 375.208ZM173.602 368.336V367.304H178.57V368.336H173.602Z"
    fill="#1F4551" />
  <path
    d="M183.671 375.208C182.972 375.208 182.345 375.056 181.791 374.752C181.241 374.448 180.807 373.995 180.487 373.392C180.167 372.789 180.007 372.045 180.007 371.16C180.007 370.259 180.167 369.509 180.487 368.912C180.807 368.309 181.241 367.856 181.791 367.552C182.345 367.248 182.972 367.096 183.671 367.096C184.359 367.096 184.977 367.248 185.527 367.552C186.076 367.856 186.508 368.309 186.823 368.912C187.143 369.509 187.303 370.259 187.303 371.16C187.303 372.045 187.143 372.789 186.823 373.392C186.508 373.995 186.076 374.448 185.527 374.752C184.977 375.056 184.359 375.208 183.671 375.208ZM183.623 373.88C184.065 373.88 184.447 373.773 184.767 373.56C185.092 373.347 185.34 373.037 185.511 372.632C185.687 372.221 185.775 371.731 185.775 371.16C185.775 370.285 185.596 369.608 185.239 369.128C184.887 368.648 184.377 368.408 183.711 368.408C183.263 368.408 182.876 368.517 182.551 368.736C182.231 368.949 181.983 369.261 181.807 369.672C181.636 370.077 181.551 370.573 181.551 371.16C181.551 372.019 181.729 372.688 182.087 373.168C182.444 373.643 182.956 373.88 183.623 373.88Z"
    fill="#1F4551" />
  <path
    d="M192.45 375.208C191.82 375.208 191.234 375.04 190.69 374.704C190.146 374.368 189.708 373.896 189.378 373.288C189.047 372.68 188.882 371.965 188.882 371.144C188.882 370.28 189.047 369.549 189.378 368.952C189.708 368.349 190.146 367.891 190.69 367.576C191.234 367.256 191.82 367.096 192.45 367.096C192.914 367.096 193.327 367.171 193.69 367.32C194.052 367.464 194.364 367.661 194.626 367.912C194.887 368.157 195.098 368.435 195.258 368.744C195.423 369.053 195.538 369.373 195.602 369.704L194.058 369.784C193.946 369.384 193.748 369.064 193.466 368.824C193.188 368.579 192.844 368.456 192.434 368.456C192.087 368.456 191.759 368.555 191.45 368.752C191.146 368.944 190.898 369.24 190.706 369.64C190.519 370.035 190.426 370.536 190.426 371.144C190.426 371.709 190.514 372.192 190.69 372.592C190.866 372.992 191.106 373.299 191.41 373.512C191.714 373.725 192.055 373.832 192.434 373.832C192.978 373.832 193.383 373.701 193.65 373.44C193.922 373.173 194.058 372.808 194.058 372.344H195.602C195.602 372.883 195.476 373.368 195.226 373.8C194.975 374.232 194.612 374.576 194.138 374.832C193.668 375.083 193.106 375.208 192.45 375.208Z"
    fill="#1F4551" />
  <path
    d="M200.889 375.208C200.191 375.208 199.564 375.056 199.009 374.752C198.46 374.448 198.025 373.995 197.705 373.392C197.385 372.789 197.225 372.045 197.225 371.16C197.225 370.259 197.385 369.509 197.705 368.912C198.025 368.309 198.46 367.856 199.009 367.552C199.564 367.248 200.191 367.096 200.889 367.096C201.577 367.096 202.196 367.248 202.745 367.552C203.295 367.856 203.727 368.309 204.041 368.912C204.361 369.509 204.521 370.259 204.521 371.16C204.521 372.045 204.361 372.789 204.041 373.392C203.727 373.995 203.295 374.448 202.745 374.752C202.196 375.056 201.577 375.208 200.889 375.208ZM200.841 373.88C201.284 373.88 201.665 373.773 201.985 373.56C202.311 373.347 202.559 373.037 202.729 372.632C202.905 372.221 202.993 371.731 202.993 371.16C202.993 370.285 202.815 369.608 202.457 369.128C202.105 368.648 201.596 368.408 200.929 368.408C200.481 368.408 200.095 368.517 199.769 368.736C199.449 368.949 199.201 369.261 199.025 369.672C198.855 370.077 198.769 370.573 198.769 371.16C198.769 372.019 198.948 372.688 199.305 373.168C199.663 373.643 200.175 373.88 200.841 373.88Z"
    fill="#1F4551" />
  <path d="M206.868 375V364.064H208.388V375H206.868Z" fill="#1F4551" />
  <path
    d="M268.729 375.208C268.035 375.208 267.398 375.085 266.817 374.84C266.235 374.589 265.766 374.219 265.409 373.728C265.057 373.237 264.873 372.624 264.857 371.888H266.345C266.345 372.331 266.451 372.693 266.665 372.976C266.883 373.259 267.171 373.469 267.529 373.608C267.886 373.741 268.281 373.808 268.713 373.808C269.15 373.808 269.537 373.741 269.873 373.608C270.209 373.475 270.467 373.296 270.649 373.072C270.835 372.848 270.929 372.592 270.929 372.304C270.929 371.915 270.809 371.603 270.569 371.368C270.329 371.128 269.963 370.925 269.473 370.76L267.577 370.056C266.761 369.752 266.139 369.403 265.713 369.008C265.286 368.608 265.073 368.053 265.073 367.344C265.073 366.539 265.387 365.885 266.017 365.384C266.646 364.877 267.531 364.624 268.673 364.624C269.755 364.624 270.595 364.875 271.193 365.376C271.795 365.877 272.139 366.56 272.225 367.424H270.729C270.654 366.987 270.449 366.64 270.113 366.384C269.782 366.128 269.302 366 268.673 366C268.065 366 267.59 366.133 267.249 366.4C266.907 366.661 266.737 366.992 266.737 367.392C266.737 367.723 266.843 367.987 267.057 368.184C267.275 368.381 267.614 368.56 268.073 368.72L270.233 369.512C270.974 369.773 271.553 370.125 271.969 370.568C272.385 371.011 272.593 371.573 272.593 372.256C272.593 372.832 272.443 373.341 272.145 373.784C271.846 374.227 271.409 374.576 270.833 374.832C270.257 375.083 269.555 375.208 268.729 375.208Z"
    fill="#1F4551" />
  <path d="M276.747 364.808V373.672H281.139V375H275.227V364.808H276.747Z" fill="#1F4551" />
  <path
    d="M282.884 364.808H286.004C287.038 364.808 287.937 365.019 288.7 365.44C289.468 365.856 290.065 366.445 290.492 367.208C290.918 367.971 291.132 368.869 291.132 369.904C291.132 370.933 290.918 371.829 290.492 372.592C290.065 373.355 289.468 373.947 288.7 374.368C287.937 374.789 287.038 375 286.004 375H282.884V364.808ZM284.404 366.176V373.656H286.004C286.729 373.656 287.35 373.493 287.868 373.168C288.39 372.843 288.793 372.397 289.076 371.832C289.358 371.267 289.5 370.624 289.5 369.904C289.5 369.184 289.358 368.544 289.076 367.984C288.793 367.419 288.39 366.976 287.868 366.656C287.35 366.336 286.729 366.176 286.004 366.176H284.404Z"
    fill="#1F4551" />
  <path
    d="M365.597 364.808H368.717C369.752 364.808 370.651 365.019 371.413 365.44C372.181 365.856 372.779 366.445 373.205 367.208C373.632 367.971 373.845 368.869 373.845 369.904C373.845 370.933 373.632 371.829 373.205 372.592C372.779 373.355 372.181 373.947 371.413 374.368C370.651 374.789 369.752 375 368.717 375H365.597V364.808ZM367.117 366.176V373.656H368.717C369.443 373.656 370.064 373.493 370.581 373.168C371.104 372.843 371.507 372.397 371.789 371.832C372.072 371.267 372.213 370.624 372.213 369.904C372.213 369.184 372.072 368.544 371.789 367.984C371.507 367.419 371.104 366.976 370.581 366.656C370.064 366.336 369.443 366.176 368.717 366.176H367.117Z"
    fill="#1F4551" />
  <path
    d="M379.243 375.208C378.545 375.208 377.918 375.056 377.363 374.752C376.814 374.448 376.379 373.995 376.059 373.392C375.739 372.789 375.579 372.045 375.579 371.16C375.579 370.259 375.739 369.509 376.059 368.912C376.379 368.309 376.814 367.856 377.363 367.552C377.918 367.248 378.545 367.096 379.243 367.096C379.931 367.096 380.55 367.248 381.099 367.552C381.649 367.856 382.081 368.309 382.395 368.912C382.715 369.509 382.875 370.259 382.875 371.16C382.875 372.045 382.715 372.789 382.395 373.392C382.081 373.995 381.649 374.448 381.099 374.752C380.55 375.056 379.931 375.208 379.243 375.208ZM379.195 373.88C379.638 373.88 380.019 373.773 380.339 373.56C380.665 373.347 380.913 373.037 381.083 372.632C381.259 372.221 381.347 371.731 381.347 371.16C381.347 370.285 381.169 369.608 380.811 369.128C380.459 368.648 379.95 368.408 379.283 368.408C378.835 368.408 378.449 368.517 378.123 368.736C377.803 368.949 377.555 369.261 377.379 369.672C377.209 370.077 377.123 370.573 377.123 371.16C377.123 372.019 377.302 372.688 377.659 373.168C378.017 373.643 378.529 373.88 379.195 373.88Z"
    fill="#1F4551" />
  <path
    d="M395.886 375V370.488C395.886 369.821 395.726 369.317 395.406 368.976C395.092 368.629 394.668 368.456 394.134 368.456C393.494 368.456 392.998 368.707 392.646 369.208C392.3 369.709 392.126 370.429 392.126 371.368H391.462C391.462 370.627 391.534 369.987 391.678 369.448C391.822 368.909 392.028 368.467 392.294 368.12C392.566 367.773 392.889 367.517 393.262 367.352C393.641 367.181 394.062 367.096 394.526 367.096C395.145 367.096 395.668 367.235 396.094 367.512C396.526 367.789 396.854 368.184 397.078 368.696C397.302 369.203 397.414 369.8 397.414 370.488V375H395.886ZM385.222 375V367.304H386.542L386.71 368.752C386.956 368.213 387.292 367.803 387.718 367.52C388.15 367.237 388.657 367.096 389.238 367.096C389.857 367.096 390.38 367.235 390.806 367.512C391.238 367.789 391.566 368.184 391.79 368.696C392.014 369.203 392.126 369.8 392.126 370.488V375H390.614V370.488C390.614 369.821 390.454 369.317 390.134 368.976C389.82 368.629 389.393 368.456 388.854 368.456C388.428 368.456 388.054 368.573 387.734 368.808C387.42 369.037 387.174 369.376 386.998 369.824C386.828 370.267 386.742 370.808 386.742 371.448V375H385.222Z"
    fill="#1F4551" />
  <path
    d="M405.109 375L404.917 373.232V370.024C404.917 369.395 404.786 368.939 404.525 368.656C404.264 368.368 403.85 368.224 403.285 368.224C402.965 368.224 402.68 368.272 402.429 368.368C402.184 368.459 401.989 368.597 401.845 368.784C401.706 368.971 401.637 369.205 401.637 369.488H399.957C399.957 368.923 400.096 368.464 400.373 368.112C400.65 367.76 401.037 367.504 401.533 367.344C402.034 367.179 402.618 367.096 403.285 367.096C403.909 367.096 404.458 367.2 404.933 367.408C405.408 367.611 405.776 367.931 406.037 368.368C406.304 368.805 406.437 369.371 406.437 370.064V375H405.109ZM402.533 375.208C401.888 375.208 401.352 375.096 400.925 374.872C400.498 374.643 400.178 374.344 399.965 373.976C399.757 373.608 399.653 373.216 399.653 372.8C399.653 372.293 399.781 371.877 400.037 371.552C400.298 371.221 400.658 370.976 401.117 370.816C401.576 370.656 402.104 370.576 402.701 370.576C403.112 370.576 403.512 370.613 403.901 370.688C404.29 370.763 404.674 370.861 405.053 370.984V371.904C404.744 371.792 404.4 371.704 404.021 371.64C403.648 371.571 403.298 371.536 402.973 371.536C402.488 371.536 402.082 371.632 401.757 371.824C401.432 372.016 401.269 372.341 401.269 372.8C401.269 373.136 401.397 373.427 401.653 373.672C401.909 373.912 402.314 374.032 402.869 374.032C403.274 374.032 403.632 373.941 403.941 373.76C404.25 373.573 404.49 373.341 404.661 373.064C404.832 372.787 404.917 372.509 404.917 372.232H405.285C405.285 372.765 405.176 373.259 404.957 373.712C404.744 374.16 404.432 374.523 404.021 374.8C403.61 375.072 403.114 375.208 402.533 375.208Z"
    fill="#1F4551" />
  <path
    d="M410.212 365.664C409.908 365.664 409.668 365.581 409.492 365.416C409.321 365.245 409.236 365.016 409.236 364.728C409.236 364.451 409.321 364.232 409.492 364.072C409.668 363.907 409.908 363.824 410.212 363.824C410.51 363.824 410.745 363.907 410.916 364.072C411.092 364.232 411.18 364.451 411.18 364.728C411.18 365.016 411.092 365.245 410.916 365.416C410.745 365.581 410.51 365.664 410.212 365.664ZM409.452 375V367.28H410.972V375H409.452Z"
    fill="#1F4551" />
  <path
    d="M419.693 375V370.488C419.693 369.821 419.533 369.317 419.213 368.976C418.898 368.629 418.471 368.456 417.933 368.456C417.506 368.456 417.133 368.573 416.813 368.808C416.498 369.037 416.253 369.376 416.077 369.824C415.906 370.267 415.821 370.808 415.821 371.448H415.277C415.277 370.504 415.397 369.709 415.637 369.064C415.882 368.419 416.231 367.931 416.685 367.6C417.138 367.264 417.682 367.096 418.317 367.096C418.935 367.096 419.458 367.235 419.885 367.512C420.317 367.789 420.645 368.184 420.869 368.696C421.093 369.203 421.205 369.8 421.205 370.488V375H419.693ZM414.301 375V367.304H415.621L415.821 368.968V375H414.301Z"
    fill="#1F4551" />
  <path d="M495.05 366.248V364.616H503.37V366.248H499.73L500.154 365.816V375H498.266V365.816L498.69 366.248H495.05Z"
    fill="#C5C5C5" />
  <path d="M506.83 364.616V373.352H511.102V375H504.942V364.616H506.83Z" fill="#C5C5C5" />
  <path
    d="M512.848 364.616H516.208C517.264 364.616 518.19 364.829 518.984 365.256C519.779 365.677 520.398 366.277 520.84 367.056C521.283 367.835 521.504 368.755 521.504 369.816C521.504 370.867 521.283 371.781 520.84 372.56C520.398 373.333 519.779 373.933 518.984 374.36C518.19 374.787 517.264 375 516.208 375H512.848V364.616ZM514.736 366.328V373.304H516.208C516.88 373.304 517.459 373.152 517.944 372.848C518.435 372.544 518.811 372.131 519.072 371.608C519.339 371.08 519.472 370.483 519.472 369.816C519.472 369.139 519.339 368.539 519.072 368.016C518.811 367.493 518.435 367.083 517.944 366.784C517.459 366.48 516.88 366.328 516.208 366.328H514.736Z"
    fill="#C5C5C5" />
  <line x1="509.386" y1="353" x2="509.386" y2="329" stroke="#26A1C8" />
  <path d="M122.579 303V329H230.826V303" stroke="#1F4551" stroke-miterlimit="10" />
  <path d="M230.826 303V329H326.163V303" stroke="#1F4551" stroke-miterlimit="10" />
  <path d="M326.163 303V329H458.245V303" stroke="#1F4551" stroke-miterlimit="10" />
  <path d="M458.245 303V329H554.575V303" stroke="#1F4551" stroke-miterlimit="10" />
  <path
    d="M153.945 299.895V293.187C153.945 291.979 153.653 291.055 153.069 290.415C152.493 289.775 151.697 289.455 150.681 289.455C149.937 289.455 149.293 289.659 148.749 290.067C148.213 290.475 147.801 291.047 147.513 291.783C147.233 292.519 147.093 293.379 147.093 294.363H146.481C146.481 293.115 146.649 292.035 146.985 291.123C147.329 290.203 147.833 289.495 148.497 288.999C149.169 288.495 150.001 288.243 150.993 288.243C151.873 288.243 152.633 288.439 153.273 288.831C153.921 289.223 154.421 289.791 154.773 290.535C155.125 291.271 155.301 292.155 155.301 293.187V299.895H153.945ZM145.701 299.895V283.575H147.093V299.895H145.701Z"
    fill="#1F4551" />
  <path
    d="M163.275 300.159C162.683 300.159 162.155 300.043 161.691 299.811C161.235 299.579 160.875 299.235 160.611 298.779C160.355 298.323 160.227 297.759 160.227 297.087V285.267H161.583V297.063C161.583 298.359 162.183 299.007 163.383 299.007C163.735 299.007 164.071 298.967 164.391 298.887C164.711 298.807 165.071 298.695 165.471 298.551L165.663 299.571C165.271 299.747 164.879 299.887 164.487 299.991C164.095 300.103 163.691 300.159 163.275 300.159ZM158.271 289.515V288.507H165.435V289.515H158.271Z"
    fill="#1F4551" />
  <path
    d="M172.064 300.159C171.472 300.159 170.944 300.043 170.48 299.811C170.024 299.579 169.664 299.235 169.4 298.779C169.144 298.323 169.016 297.759 169.016 297.087V285.267H170.372V297.063C170.372 298.359 170.972 299.007 172.172 299.007C172.524 299.007 172.86 298.967 173.18 298.887C173.5 298.807 173.86 298.695 174.26 298.551L174.452 299.571C174.06 299.747 173.668 299.887 173.276 299.991C172.884 300.103 172.48 300.159 172.064 300.159ZM167.06 289.515V288.507H174.224V289.515H167.06Z"
    fill="#1F4551" />
  <path
    d="M182.425 300.159C181.593 300.159 180.861 299.963 180.229 299.571C179.605 299.179 179.117 298.615 178.765 297.879C178.421 297.143 178.249 296.259 178.249 295.227H178.921C178.921 296.035 179.081 296.715 179.401 297.267C179.729 297.811 180.149 298.223 180.661 298.503C181.181 298.783 181.729 298.923 182.305 298.923C182.937 298.923 183.533 298.739 184.093 298.371C184.653 298.003 185.109 297.467 185.461 296.763C185.813 296.051 185.989 295.187 185.989 294.171C185.989 293.171 185.821 292.323 185.485 291.627C185.149 290.923 184.701 290.387 184.141 290.019C183.589 289.643 182.981 289.455 182.317 289.455C181.741 289.455 181.193 289.599 180.673 289.887C180.153 290.175 179.729 290.599 179.401 291.159C179.081 291.711 178.921 292.399 178.921 293.223H178.249C178.249 292.167 178.429 291.267 178.789 290.523C179.157 289.779 179.657 289.215 180.289 288.831C180.921 288.439 181.637 288.243 182.437 288.243C183.325 288.243 184.149 288.483 184.909 288.963C185.669 289.435 186.281 290.115 186.745 291.003C187.209 291.883 187.441 292.939 187.441 294.171C187.441 295.419 187.205 296.491 186.733 297.387C186.269 298.283 185.653 298.971 184.885 299.451C184.125 299.923 183.305 300.159 182.425 300.159ZM177.529 305.511V288.507H178.705L178.921 291.099V305.511H177.529Z"
    fill="#1F4551" />
  <path
    d="M190.148 298.059C190.148 297.771 190.252 297.515 190.46 297.291C190.676 297.067 190.94 296.955 191.252 296.955C191.572 296.955 191.844 297.067 192.068 297.291C192.292 297.515 192.404 297.771 192.404 298.059C192.404 298.355 192.292 298.607 192.068 298.815C191.844 299.023 191.572 299.127 191.252 299.127C190.94 299.127 190.676 299.023 190.46 298.815C190.252 298.607 190.148 298.355 190.148 298.059ZM190.148 290.619C190.148 290.331 190.252 290.075 190.46 289.851C190.676 289.627 190.94 289.515 191.252 289.515C191.572 289.515 191.844 289.627 192.068 289.851C192.292 290.075 192.404 290.331 192.404 290.619C192.404 290.915 192.292 291.167 192.068 291.375C191.844 291.583 191.572 291.687 191.252 291.687C190.94 291.687 190.676 291.583 190.46 291.375C190.252 291.167 190.148 290.915 190.148 290.619Z"
    fill="#1F4551" />
  <path d="M195.222 301.527L201.174 282.519H202.602L196.602 301.527H195.222Z" fill="#1F4551" />
  <path d="M205.089 301.527L211.041 282.519H212.469L206.469 301.527H205.089Z" fill="#1F4551" />
  <path
    d="M251.719 288.423H253.663L256.591 297.999H256.351L259.207 288.975H260.767L263.599 298.023H263.383L266.311 288.423H268.183L264.415 299.895H262.591L259.807 291.423H260.095L257.335 299.895H255.511L251.719 288.423Z"
    fill="white" />
  <path
    d="M269.109 288.423H271.053L273.981 297.999H273.741L276.597 288.975H278.157L280.989 298.023H280.773L283.701 288.423H285.573L281.805 299.895H279.981L277.197 291.423H277.485L274.725 299.895H272.901L269.109 288.423Z"
    fill="white" />
  <path
    d="M286.5 288.423H288.444L291.372 297.999H291.132L293.988 288.975H295.548L298.38 298.023H298.164L301.092 288.423H302.964L299.196 299.895H297.372L294.588 291.423H294.876L292.116 299.895H290.292L286.5 288.423Z"
    fill="white" />
  <path
    d="M304.178 298.779C304.178 298.403 304.31 298.079 304.574 297.807C304.838 297.535 305.17 297.399 305.57 297.399C305.97 297.399 306.31 297.535 306.59 297.807C306.87 298.079 307.01 298.403 307.01 298.779C307.01 299.155 306.87 299.471 306.59 299.727C306.31 299.983 305.97 300.111 305.57 300.111C305.17 300.111 304.838 299.983 304.574 299.727C304.31 299.463 304.178 299.147 304.178 298.779Z"
    fill="white" />
  <path
    d="M360.478 299.895V293.127C360.478 292.127 360.238 291.371 359.758 290.859C359.286 290.339 358.65 290.079 357.85 290.079C356.89 290.079 356.146 290.455 355.618 291.207C355.098 291.959 354.838 293.039 354.838 294.447H353.842C353.842 293.335 353.95 292.375 354.166 291.567C354.382 290.759 354.69 290.095 355.09 289.575C355.498 289.055 355.982 288.671 356.542 288.423C357.11 288.167 357.742 288.039 358.438 288.039C359.366 288.039 360.15 288.247 360.79 288.663C361.438 289.079 361.93 289.671 362.266 290.439C362.602 291.199 362.77 292.095 362.77 293.127V299.895H360.478ZM344.482 299.895V288.351H346.462L346.714 290.523C347.082 289.715 347.586 289.099 348.226 288.675C348.874 288.251 349.634 288.039 350.506 288.039C351.434 288.039 352.218 288.247 352.858 288.663C353.506 289.079 353.998 289.671 354.334 290.439C354.67 291.199 354.838 292.095 354.838 293.127V299.895H352.57V293.127C352.57 292.127 352.33 291.371 351.85 290.859C351.378 290.339 350.738 290.079 349.93 290.079C349.29 290.079 348.73 290.255 348.25 290.607C347.778 290.951 347.41 291.459 347.146 292.131C346.89 292.795 346.762 293.607 346.762 294.567V299.895H344.482Z"
    fill="white" />
  <path
    d="M365.24 288.351H367.796L371.276 297.903H370.808L373.604 288.351H375.932L371.552 302.115C371.152 303.363 370.636 304.295 370.004 304.911C369.38 305.535 368.596 305.847 367.652 305.847C367.124 305.847 366.616 305.779 366.128 305.643C365.648 305.507 365.156 305.307 364.652 305.043V302.991C365.084 303.295 365.5 303.515 365.9 303.651C366.3 303.787 366.716 303.855 367.148 303.855C367.58 303.855 367.948 303.723 368.252 303.459C368.564 303.203 368.824 302.859 369.032 302.427C369.248 302.003 369.432 301.539 369.584 301.035L369.932 299.895L365.24 288.351Z"
    fill="white" />
  <path
    d="M384.187 300.207C383.435 300.207 382.751 300.007 382.135 299.607C381.527 299.199 381.039 298.599 380.671 297.807C380.311 297.015 380.131 296.043 380.131 294.891H380.911C380.911 295.563 381.055 296.143 381.343 296.631C381.639 297.119 382.015 297.495 382.471 297.759C382.927 298.015 383.403 298.143 383.899 298.143C384.491 298.143 385.023 297.979 385.495 297.651C385.975 297.323 386.355 296.855 386.635 296.247C386.923 295.631 387.067 294.907 387.067 294.075C387.067 293.251 386.927 292.543 386.647 291.951C386.367 291.351 385.987 290.891 385.507 290.571C385.027 290.243 384.483 290.079 383.875 290.079C383.363 290.079 382.879 290.203 382.423 290.451C381.975 290.699 381.611 291.067 381.331 291.555C381.051 292.035 380.911 292.623 380.911 293.319H380.131C380.131 292.191 380.307 291.235 380.659 290.451C381.011 289.667 381.499 289.071 382.123 288.663C382.755 288.247 383.495 288.039 384.343 288.039C385.263 288.039 386.103 288.287 386.863 288.783C387.631 289.271 388.243 289.967 388.699 290.871C389.163 291.775 389.395 292.843 389.395 294.075C389.395 295.315 389.159 296.395 388.687 297.315C388.215 298.227 387.583 298.939 386.791 299.451C386.007 299.955 385.139 300.207 384.187 300.207ZM378.631 299.895V283.491H380.911V297.123L380.179 299.895H378.631Z"
    fill="white" />
  <path
    d="M393.068 299.895V288.315H395.348V299.895H393.068ZM394.724 294.735C394.724 293.255 394.876 292.027 395.18 291.051C395.492 290.067 395.924 289.335 396.476 288.855C397.036 288.375 397.692 288.135 398.444 288.135C398.668 288.135 398.876 288.151 399.068 288.183C399.268 288.215 399.464 288.259 399.656 288.315L399.572 290.583C399.356 290.527 399.12 290.479 398.864 290.439C398.616 290.391 398.388 290.367 398.18 290.367C397.524 290.367 396.988 290.543 396.572 290.895C396.156 291.239 395.848 291.739 395.648 292.395C395.448 293.043 395.348 293.823 395.348 294.735H394.724Z"
    fill="white" />
  <path
    d="M409.281 299.895L408.993 297.243V292.431C408.993 291.487 408.797 290.803 408.405 290.379C408.013 289.947 407.393 289.731 406.545 289.731C406.065 289.731 405.637 289.803 405.261 289.947C404.893 290.083 404.601 290.291 404.385 290.571C404.177 290.851 404.073 291.203 404.073 291.627H401.553C401.553 290.779 401.761 290.091 402.177 289.563C402.593 289.035 403.173 288.651 403.917 288.411C404.669 288.163 405.545 288.039 406.545 288.039C407.481 288.039 408.305 288.195 409.017 288.507C409.729 288.811 410.281 289.291 410.673 289.947C411.073 290.603 411.273 291.451 411.273 292.491V299.895H409.281ZM405.417 300.207C404.449 300.207 403.645 300.039 403.005 299.703C402.365 299.359 401.885 298.911 401.565 298.359C401.253 297.807 401.097 297.219 401.097 296.595C401.097 295.835 401.289 295.211 401.673 294.723C402.065 294.227 402.605 293.859 403.293 293.619C403.981 293.379 404.773 293.259 405.669 293.259C406.285 293.259 406.885 293.315 407.469 293.427C408.053 293.539 408.629 293.687 409.197 293.871V295.251C408.733 295.083 408.217 294.951 407.649 294.855C407.089 294.751 406.565 294.699 406.077 294.699C405.349 294.699 404.741 294.843 404.253 295.131C403.765 295.419 403.521 295.907 403.521 296.595C403.521 297.099 403.713 297.535 404.097 297.903C404.481 298.263 405.089 298.443 405.921 298.443C406.529 298.443 407.065 298.307 407.529 298.035C407.993 297.755 408.353 297.407 408.609 296.991C408.865 296.575 408.993 296.159 408.993 295.743H409.545C409.545 296.543 409.381 297.283 409.053 297.963C408.733 298.635 408.265 299.179 407.649 299.595C407.033 300.003 406.289 300.207 405.417 300.207Z"
    fill="white" />
  <path
    d="M423.703 299.895V293.127C423.703 292.127 423.463 291.371 422.983 290.859C422.511 290.339 421.871 290.079 421.063 290.079C420.423 290.079 419.863 290.255 419.383 290.607C418.911 290.951 418.543 291.459 418.279 292.131C418.023 292.795 417.895 293.607 417.895 294.567H417.079C417.079 293.151 417.259 291.959 417.619 290.991C417.987 290.023 418.511 289.291 419.191 288.795C419.871 288.291 420.687 288.039 421.639 288.039C422.567 288.039 423.351 288.247 423.991 288.663C424.639 289.079 425.131 289.671 425.467 290.439C425.803 291.199 425.971 292.095 425.971 293.127V299.895H423.703ZM415.615 299.895V288.351H417.595L417.895 290.847V299.895H415.615Z"
    fill="white" />
  <path
    d="M434.499 300.207C433.555 300.207 432.687 299.955 431.895 299.451C431.103 298.939 430.471 298.227 429.999 297.315C429.535 296.395 429.303 295.315 429.303 294.075C429.303 292.843 429.531 291.775 429.987 290.871C430.451 289.967 431.063 289.271 431.823 288.783C432.583 288.287 433.427 288.039 434.355 288.039C435.203 288.039 435.943 288.247 436.575 288.663C437.207 289.071 437.695 289.667 438.039 290.451C438.391 291.235 438.567 292.191 438.567 293.319H437.775C437.775 292.623 437.635 292.035 437.355 291.555C437.075 291.067 436.711 290.699 436.263 290.451C435.815 290.203 435.335 290.079 434.823 290.079C434.223 290.079 433.679 290.243 433.191 290.571C432.711 290.891 432.327 291.351 432.039 291.951C431.759 292.543 431.619 293.251 431.619 294.075C431.619 294.907 431.759 295.631 432.039 296.247C432.327 296.855 432.711 297.323 433.191 297.651C433.679 297.979 434.219 298.143 434.811 298.143C435.299 298.143 435.767 298.015 436.215 297.759C436.671 297.495 437.043 297.119 437.331 296.631C437.627 296.143 437.775 295.563 437.775 294.891H438.567C438.567 296.043 438.383 297.015 438.015 297.807C437.655 298.599 437.167 299.199 436.551 299.607C435.935 300.007 435.251 300.207 434.499 300.207ZM438.171 299.895L437.775 297.123V283.491H440.067V299.895H438.171Z"
    fill="white" />
  <path
    d="M477.512 297.551C477.512 297.103 477.664 296.723 477.968 296.411C478.28 296.099 478.672 295.943 479.144 295.943C479.616 295.943 480.016 296.099 480.344 296.411C480.672 296.723 480.836 297.103 480.836 297.551C480.836 297.991 480.672 298.363 480.344 298.667C480.016 298.963 479.616 299.111 479.144 299.111C478.672 299.111 478.28 298.959 477.968 298.655C477.664 298.351 477.512 297.983 477.512 297.551Z"
    fill="white" />
  <path
    d="M488.056 299.207C487.112 299.207 486.232 298.955 485.416 298.451C484.6 297.947 483.944 297.239 483.448 296.327C482.952 295.415 482.704 294.343 482.704 293.111C482.704 291.815 482.952 290.719 483.448 289.823C483.944 288.919 484.6 288.231 485.416 287.759C486.232 287.279 487.112 287.039 488.056 287.039C488.752 287.039 489.372 287.151 489.916 287.375C490.46 287.591 490.928 287.887 491.32 288.263C491.712 288.631 492.028 289.047 492.268 289.511C492.516 289.975 492.688 290.455 492.784 290.951L490.468 291.071C490.3 290.471 490.004 289.991 489.58 289.631C489.164 289.263 488.648 289.079 488.032 289.079C487.512 289.079 487.02 289.227 486.556 289.523C486.1 289.811 485.728 290.255 485.44 290.855C485.16 291.447 485.02 292.199 485.02 293.111C485.02 293.959 485.152 294.683 485.416 295.283C485.68 295.883 486.04 296.343 486.496 296.663C486.952 296.983 487.464 297.143 488.032 297.143C488.848 297.143 489.456 296.947 489.856 296.555C490.264 296.155 490.468 295.607 490.468 294.911H492.784C492.784 295.719 492.596 296.447 492.22 297.095C491.844 297.743 491.3 298.259 490.588 298.643C489.884 299.019 489.04 299.207 488.056 299.207Z"
    fill="white" />
  <path
    d="M500.715 299.207C499.667 299.207 498.727 298.979 497.895 298.523C497.071 298.067 496.419 297.387 495.939 296.483C495.459 295.579 495.219 294.463 495.219 293.135C495.219 291.783 495.459 290.659 495.939 289.763C496.419 288.859 497.071 288.179 497.895 287.723C498.727 287.267 499.667 287.039 500.715 287.039C501.747 287.039 502.675 287.267 503.499 287.723C504.323 288.179 504.971 288.859 505.443 289.763C505.923 290.659 506.163 291.783 506.163 293.135C506.163 294.463 505.923 295.579 505.443 296.483C504.971 297.387 504.323 298.067 503.499 298.523C502.675 298.979 501.747 299.207 500.715 299.207ZM500.643 297.215C501.307 297.215 501.879 297.055 502.359 296.735C502.847 296.415 503.219 295.951 503.475 295.343C503.739 294.727 503.871 293.991 503.871 293.135C503.871 291.823 503.603 290.807 503.067 290.087C502.539 289.367 501.775 289.007 500.775 289.007C500.103 289.007 499.523 289.171 499.035 289.499C498.555 289.819 498.183 290.287 497.919 290.903C497.663 291.511 497.535 292.255 497.535 293.135C497.535 294.423 497.803 295.427 498.339 296.147C498.875 296.859 499.643 297.215 500.643 297.215Z"
    fill="white" />
  <path
    d="M525.68 298.895V292.127C525.68 291.127 525.44 290.371 524.96 289.859C524.488 289.339 523.852 289.079 523.052 289.079C522.092 289.079 521.348 289.455 520.82 290.207C520.3 290.959 520.04 292.039 520.04 293.447H519.044C519.044 292.335 519.152 291.375 519.368 290.567C519.584 289.759 519.892 289.095 520.292 288.575C520.7 288.055 521.184 287.671 521.744 287.423C522.312 287.167 522.944 287.039 523.64 287.039C524.568 287.039 525.352 287.247 525.992 287.663C526.64 288.079 527.132 288.671 527.468 289.439C527.804 290.199 527.972 291.095 527.972 292.127V298.895H525.68ZM509.684 298.895V287.351H511.664L511.916 289.523C512.284 288.715 512.788 288.099 513.428 287.675C514.076 287.251 514.836 287.039 515.708 287.039C516.636 287.039 517.42 287.247 518.06 287.663C518.708 288.079 519.2 288.671 519.536 289.439C519.872 290.199 520.04 291.095 520.04 292.127V298.895H517.772V292.127C517.772 291.127 517.532 290.371 517.052 289.859C516.58 289.339 515.94 289.079 515.132 289.079C514.492 289.079 513.932 289.255 513.452 289.607C512.98 289.951 512.612 290.459 512.348 291.131C512.092 291.795 511.964 292.607 511.964 293.567V298.895H509.684Z"
    fill="white" />
  <path d="M531.27 300.707L537.354 281.207H539.682L533.562 300.707H531.27Z" fill="white" />
  <rect x="119.786" y="187.71" width="273.779" height="56.5954" rx="2.5" stroke="#26A1C8" />
  <path
    d="M188.954 221.26C187.827 221.26 186.854 220.987 186.034 220.44C185.22 219.887 184.59 219.11 184.144 218.11C183.697 217.103 183.474 215.923 183.474 214.57C183.474 213.143 183.71 211.947 184.184 210.98C184.657 210.007 185.307 209.273 186.134 208.78C186.967 208.28 187.907 208.03 188.954 208.03C190.36 208.03 191.48 208.38 192.314 209.08C193.147 209.773 193.7 210.677 193.974 211.79L191.944 212.18C191.704 211.44 191.324 210.85 190.804 210.41C190.284 209.963 189.667 209.74 188.954 209.74C188.327 209.74 187.754 209.92 187.234 210.28C186.714 210.64 186.297 211.18 185.984 211.9C185.67 212.613 185.514 213.503 185.514 214.57C185.514 215.557 185.644 216.423 185.904 217.17C186.164 217.91 186.547 218.487 187.054 218.9C187.56 219.313 188.194 219.52 188.954 219.52C189.88 219.52 190.61 219.273 191.144 218.78C191.677 218.28 191.944 217.63 191.944 216.83H193.994C193.994 217.763 193.784 218.56 193.364 219.22C192.95 219.873 192.367 220.377 191.614 220.73C190.86 221.083 189.974 221.26 188.954 221.26Z"
    fill="#C5C5C5" />
  <path
    d="M200.305 221.26C199.479 221.26 198.732 221.047 198.065 220.62C197.399 220.193 196.869 219.6 196.475 218.84C196.089 218.08 195.895 217.2 195.895 216.2C195.895 215.14 196.089 214.233 196.475 213.48C196.862 212.72 197.389 212.137 198.055 211.73C198.722 211.323 199.472 211.12 200.305 211.12C201.052 211.12 201.692 211.273 202.225 211.58C202.759 211.88 203.189 212.287 203.515 212.8C203.842 213.307 204.065 213.883 204.185 214.53C204.312 215.177 204.335 215.843 204.255 216.53H197.415V215.43H202.955L202.495 215.73C202.515 215.37 202.495 215.01 202.435 214.65C202.382 214.29 202.275 213.96 202.115 213.66C201.955 213.353 201.729 213.11 201.435 212.93C201.149 212.743 200.782 212.65 200.335 212.65C199.775 212.65 199.305 212.79 198.925 213.07C198.552 213.35 198.269 213.727 198.075 214.2C197.882 214.667 197.785 215.18 197.785 215.74V216.51C197.785 217.13 197.879 217.68 198.065 218.16C198.252 218.64 198.529 219.02 198.895 219.3C199.269 219.573 199.739 219.71 200.305 219.71C200.859 219.71 201.315 219.58 201.675 219.32C202.042 219.06 202.269 218.67 202.355 218.15H204.295C204.195 218.777 203.965 219.323 203.605 219.79C203.245 220.257 202.782 220.62 202.215 220.88C201.655 221.133 201.019 221.26 200.305 221.26Z"
    fill="#C5C5C5" />
  <path
    d="M214.006 221V215.36C214.006 214.527 213.806 213.897 213.406 213.47C213.012 213.037 212.479 212.82 211.806 212.82C211.272 212.82 210.806 212.967 210.406 213.26C210.012 213.547 209.706 213.97 209.486 214.53C209.272 215.083 209.166 215.76 209.166 216.56H208.486C208.486 215.38 208.636 214.387 208.936 213.58C209.242 212.773 209.679 212.163 210.246 211.75C210.812 211.33 211.492 211.12 212.286 211.12C213.059 211.12 213.712 211.293 214.246 211.64C214.786 211.987 215.196 212.48 215.476 213.12C215.756 213.753 215.896 214.5 215.896 215.36V221H214.006ZM207.266 221V211.38H208.916L209.166 213.46V221H207.266Z"
    fill="#C5C5C5" />
  <path
    d="M222.602 221.26C222.055 221.26 221.562 221.157 221.122 220.95C220.682 220.743 220.332 220.433 220.072 220.02C219.818 219.6 219.692 219.073 219.692 218.44V208.76H221.582V218.38C221.582 219.287 222.005 219.74 222.852 219.74C223.112 219.74 223.365 219.713 223.612 219.66C223.858 219.6 224.138 219.513 224.452 219.4L224.722 220.75C224.368 220.897 224.018 221.017 223.672 221.11C223.332 221.21 222.975 221.26 222.602 221.26ZM218.222 212.67V211.38H224.432V212.67H218.222Z"
    fill="#C5C5C5" />
  <path
    d="M227.187 221V211.35H229.087V221H227.187ZM228.567 216.7C228.567 215.467 228.694 214.443 228.947 213.63C229.207 212.81 229.567 212.2 230.027 211.8C230.494 211.4 231.041 211.2 231.667 211.2C231.854 211.2 232.027 211.213 232.187 211.24C232.354 211.267 232.517 211.303 232.677 211.35L232.607 213.24C232.427 213.193 232.231 213.153 232.017 213.12C231.811 213.08 231.621 213.06 231.447 213.06C230.901 213.06 230.454 213.207 230.107 213.5C229.761 213.787 229.504 214.203 229.337 214.75C229.171 215.29 229.087 215.94 229.087 216.7H228.567Z"
    fill="#C5C5C5" />
  <path
    d="M240.698 221L240.458 218.79V214.78C240.458 213.993 240.295 213.423 239.968 213.07C239.641 212.71 239.125 212.53 238.418 212.53C238.018 212.53 237.661 212.59 237.348 212.71C237.041 212.823 236.798 212.997 236.618 213.23C236.445 213.463 236.358 213.757 236.358 214.11H234.258C234.258 213.403 234.431 212.83 234.778 212.39C235.125 211.95 235.608 211.63 236.228 211.43C236.855 211.223 237.585 211.12 238.418 211.12C239.198 211.12 239.885 211.25 240.478 211.51C241.071 211.763 241.531 212.163 241.858 212.71C242.191 213.257 242.358 213.963 242.358 214.83V221H240.698ZM237.478 221.26C236.671 221.26 236.001 221.12 235.468 220.84C234.935 220.553 234.535 220.18 234.268 219.72C234.008 219.26 233.878 218.77 233.878 218.25C233.878 217.617 234.038 217.097 234.358 216.69C234.685 216.277 235.135 215.97 235.708 215.77C236.281 215.57 236.941 215.47 237.688 215.47C238.201 215.47 238.701 215.517 239.188 215.61C239.675 215.703 240.155 215.827 240.628 215.98V217.13C240.241 216.99 239.811 216.88 239.338 216.8C238.871 216.713 238.435 216.67 238.028 216.67C237.421 216.67 236.915 216.79 236.508 217.03C236.101 217.27 235.898 217.677 235.898 218.25C235.898 218.67 236.058 219.033 236.378 219.34C236.698 219.64 237.205 219.79 237.898 219.79C238.405 219.79 238.851 219.677 239.238 219.45C239.625 219.217 239.925 218.927 240.138 218.58C240.351 218.233 240.458 217.887 240.458 217.54H240.918C240.918 218.207 240.781 218.823 240.508 219.39C240.241 219.95 239.851 220.403 239.338 220.75C238.825 221.09 238.205 221.26 237.478 221.26Z"
    fill="#C5C5C5" />
  <path d="M245.976 221V207.33H247.876V221H245.976Z" fill="#C5C5C5" />
  <path
    d="M252.877 209.33C252.497 209.33 252.197 209.227 251.977 209.02C251.764 208.807 251.657 208.52 251.657 208.16C251.657 207.813 251.764 207.54 251.977 207.34C252.197 207.133 252.497 207.03 252.877 207.03C253.251 207.03 253.544 207.133 253.757 207.34C253.977 207.54 254.087 207.813 254.087 208.16C254.087 208.52 253.977 208.807 253.757 209.02C253.544 209.227 253.251 209.33 252.877 209.33ZM251.927 221V211.35H253.827V221H251.927Z"
    fill="#C5C5C5" />
  <path d="M257.128 221V219.46L262.518 212.91H257.128V211.38H264.638V212.91L259.368 219.46H264.638V221H257.128Z"
    fill="#C5C5C5" />
  <path
    d="M271.106 221.26C270.28 221.26 269.533 221.047 268.866 220.62C268.199 220.193 267.67 219.6 267.276 218.84C266.89 218.08 266.696 217.2 266.696 216.2C266.696 215.14 266.89 214.233 267.276 213.48C267.663 212.72 268.19 212.137 268.856 211.73C269.523 211.323 270.273 211.12 271.106 211.12C271.853 211.12 272.493 211.273 273.026 211.58C273.56 211.88 273.99 212.287 274.316 212.8C274.643 213.307 274.866 213.883 274.986 214.53C275.113 215.177 275.136 215.843 275.056 216.53H268.216V215.43H273.756L273.296 215.73C273.316 215.37 273.296 215.01 273.236 214.65C273.183 214.29 273.076 213.96 272.916 213.66C272.756 213.353 272.53 213.11 272.236 212.93C271.95 212.743 271.583 212.65 271.136 212.65C270.576 212.65 270.106 212.79 269.726 213.07C269.353 213.35 269.07 213.727 268.876 214.2C268.683 214.667 268.586 215.18 268.586 215.74V216.51C268.586 217.13 268.679 217.68 268.866 218.16C269.053 218.64 269.33 219.02 269.696 219.3C270.07 219.573 270.54 219.71 271.106 219.71C271.66 219.71 272.116 219.58 272.476 219.32C272.843 219.06 273.069 218.67 273.156 218.15H275.096C274.996 218.777 274.766 219.323 274.406 219.79C274.046 220.257 273.583 220.62 273.016 220.88C272.456 221.133 271.82 221.26 271.106 221.26Z"
    fill="#C5C5C5" />
  <path
    d="M281.556 221.26C280.77 221.26 280.046 221.05 279.386 220.63C278.726 220.203 278.2 219.61 277.806 218.85C277.42 218.083 277.226 217.183 277.226 216.15C277.226 215.123 277.416 214.233 277.796 213.48C278.183 212.727 278.693 212.147 279.326 211.74C279.96 211.327 280.663 211.12 281.436 211.12C282.143 211.12 282.76 211.293 283.286 211.64C283.813 211.98 284.22 212.477 284.506 213.13C284.8 213.783 284.946 214.58 284.946 215.52H284.286C284.286 214.94 284.17 214.45 283.936 214.05C283.703 213.643 283.4 213.337 283.026 213.13C282.653 212.923 282.253 212.82 281.826 212.82C281.326 212.82 280.873 212.957 280.466 213.23C280.066 213.497 279.746 213.88 279.506 214.38C279.273 214.873 279.156 215.463 279.156 216.15C279.156 216.843 279.273 217.447 279.506 217.96C279.746 218.467 280.066 218.857 280.466 219.13C280.873 219.403 281.323 219.54 281.816 219.54C282.223 219.54 282.613 219.433 282.986 219.22C283.366 219 283.676 218.687 283.916 218.28C284.163 217.873 284.286 217.39 284.286 216.83H284.946C284.946 217.79 284.793 218.6 284.486 219.26C284.186 219.92 283.78 220.42 283.266 220.76C282.753 221.093 282.183 221.26 281.556 221.26ZM284.616 221L284.286 218.69V207.33H286.196V221H284.616Z"
    fill="#C5C5C5" />
  <path
    d="M294.98 208.26H298.88C300.174 208.26 301.297 208.523 302.25 209.05C303.21 209.57 303.957 210.307 304.49 211.26C305.024 212.213 305.29 213.337 305.29 214.63C305.29 215.917 305.024 217.037 304.49 217.99C303.957 218.943 303.21 219.683 302.25 220.21C301.297 220.737 300.174 221 298.88 221H294.98V208.26ZM296.88 209.97V219.32H298.88C299.787 219.32 300.564 219.117 301.21 218.71C301.864 218.303 302.367 217.747 302.72 217.04C303.074 216.333 303.25 215.53 303.25 214.63C303.25 213.73 303.074 212.93 302.72 212.23C302.367 211.523 301.864 210.97 301.21 210.57C300.564 210.17 299.787 209.97 298.88 209.97H296.88Z"
    fill="#C5C5C5" />
  <path
    d="M308.388 208.26H310.558L316.728 218.14H316.578V208.26H318.478V221H316.458L309.988 210.68H310.288V221H308.388V208.26Z"
    fill="#C5C5C5" />
  <path
    d="M326.623 221.26C325.756 221.26 324.959 221.107 324.233 220.8C323.506 220.487 322.919 220.023 322.473 219.41C322.033 218.797 321.803 218.03 321.783 217.11H323.643C323.643 217.663 323.776 218.117 324.043 218.47C324.316 218.823 324.676 219.087 325.123 219.26C325.569 219.427 326.063 219.51 326.603 219.51C327.149 219.51 327.633 219.427 328.053 219.26C328.473 219.093 328.796 218.87 329.023 218.59C329.256 218.31 329.373 217.99 329.373 217.63C329.373 217.143 329.223 216.753 328.923 216.46C328.623 216.16 328.166 215.907 327.553 215.7L325.183 214.82C324.163 214.44 323.386 214.003 322.853 213.51C322.319 213.01 322.053 212.317 322.053 211.43C322.053 210.423 322.446 209.607 323.233 208.98C324.019 208.347 325.126 208.03 326.553 208.03C327.906 208.03 328.956 208.343 329.703 208.97C330.456 209.597 330.886 210.45 330.993 211.53H329.123C329.029 210.983 328.773 210.55 328.353 210.23C327.939 209.91 327.339 209.75 326.553 209.75C325.793 209.75 325.199 209.917 324.773 210.25C324.346 210.577 324.133 210.99 324.133 211.49C324.133 211.903 324.266 212.233 324.533 212.48C324.806 212.727 325.229 212.95 325.803 213.15L328.503 214.14C329.429 214.467 330.153 214.907 330.673 215.46C331.193 216.013 331.453 216.717 331.453 217.57C331.453 218.29 331.266 218.927 330.893 219.48C330.519 220.033 329.973 220.47 329.253 220.79C328.533 221.103 327.656 221.26 326.623 221.26Z"
    fill="#C5C5C5" />
  <path
    d="M509.036 250.354C509.231 250.549 509.548 250.549 509.743 250.354L512.925 247.172C513.12 246.976 513.12 246.66 512.925 246.464C512.73 246.269 512.413 246.269 512.218 246.464L509.389 249.293L506.561 246.464C506.366 246.269 506.049 246.269 505.854 246.464C505.658 246.66 505.658 246.976 505.854 247.172L509.036 250.354ZM508.889 216V250H509.889V216H508.889Z"
    fill="#26A1C8" />
  <line x1="508.893" y1="216.5" x2="393.694" y2="216.5" stroke="#26A1C8" />
  <line x1="165.282" y1="213.5" x2="138.468" y2="213.5" stroke="#C5C5C5" />
  <line x1="151.879" y1="214" x2="151.879" y2="226" stroke="#C5C5C5" />
  <rect x="154.358" y="227.344" width="4.96548" height="5" transform="rotate(-180 154.358 227.344)" fill="#C5C5C5" />
  <line x1="138.968" y1="214" x2="138.968" y2="226" stroke="#C5C5C5" />
  <line x1="151.879" y1="205" x2="151.879" y2="217" stroke="#C5C5C5" />
  <rect x="155.351" y="209" width="6.95167" height="7" transform="rotate(-180 155.351 209)" fill="#C5C5C5" />
  <rect x="141.448" y="227.344" width="4.96548" height="5" transform="rotate(-180 141.448 227.344)" fill="#C5C5C5" />
  <line x1="164.789" y1="214" x2="164.789" y2="226" stroke="#C5C5C5" />
  <rect x="167.211" y="227.344" width="4.96548" height="5" transform="rotate(-180 167.211 227.344)" fill="#C5C5C5" />
  <rect x="419.021" y="199.5" width="68.5167" height="32" rx="2.5" fill="#001830" stroke="#26A1C8" />
  <path
    d="M437.236 221V210.616H441.076C442.319 210.616 443.271 210.907 443.932 211.488C444.599 212.069 444.932 212.84 444.932 213.8C444.932 214.744 444.599 215.507 443.932 216.088C443.271 216.664 442.319 216.952 441.076 216.952H439.124V221H437.236ZM442.852 221L440.1 216.136H442.116L445.316 221H442.852ZM439.124 215.688H440.884C441.578 215.688 442.103 215.531 442.46 215.216C442.818 214.896 442.996 214.483 442.996 213.976C442.996 213.459 442.834 213.043 442.508 212.728C442.183 212.408 441.706 212.248 441.076 212.248H439.124V215.688Z"
    fill="#C5C5C5" />
  <path
    d="M450.429 221.224C449.768 221.224 449.162 221.053 448.613 220.712C448.064 220.371 447.624 219.893 447.293 219.28C446.962 218.661 446.797 217.939 446.797 217.112C446.797 216.259 446.96 215.525 447.285 214.912C447.616 214.299 448.056 213.829 448.605 213.504C449.154 213.179 449.762 213.016 450.429 213.016C451.048 213.016 451.581 213.141 452.029 213.392C452.482 213.637 452.845 213.973 453.117 214.4C453.394 214.821 453.581 215.299 453.677 215.832C453.773 216.365 453.778 216.915 453.693 217.48H448.301V216.456H452.357L451.989 216.696C452.005 216.445 451.992 216.192 451.949 215.936C451.912 215.68 451.837 215.445 451.725 215.232C451.613 215.019 451.453 214.848 451.245 214.72C451.042 214.587 450.781 214.52 450.461 214.52C450.077 214.52 449.752 214.616 449.485 214.808C449.218 215 449.016 215.261 448.877 215.592C448.738 215.923 448.669 216.296 448.669 216.712V217.464C448.669 217.901 448.733 218.288 448.861 218.624C448.994 218.96 449.189 219.224 449.445 219.416C449.706 219.608 450.034 219.704 450.429 219.704C450.797 219.704 451.106 219.619 451.357 219.448C451.608 219.277 451.768 219.021 451.837 218.68H453.741C453.661 219.181 453.472 219.624 453.173 220.008C452.88 220.387 452.498 220.685 452.029 220.904C451.56 221.117 451.026 221.224 450.429 221.224Z"
    fill="#C5C5C5" />
  <path
    d="M461.346 221V216.456C461.346 215.88 461.207 215.445 460.93 215.152C460.652 214.859 460.29 214.712 459.842 214.712C459.463 214.712 459.127 214.816 458.834 215.024C458.546 215.232 458.319 215.547 458.154 215.968C457.988 216.384 457.906 216.904 457.906 217.528H457.282C457.282 216.52 457.407 215.683 457.658 215.016C457.908 214.344 458.263 213.843 458.722 213.512C459.18 213.181 459.719 213.016 460.338 213.016C460.978 213.016 461.511 213.16 461.938 213.448C462.37 213.731 462.692 214.131 462.906 214.648C463.124 215.165 463.234 215.768 463.234 216.456V221H461.346ZM456.018 221V213.24H457.666L457.906 214.776V221H456.018Z"
    fill="#C5C5C5" />
  <path
    d="M468.61 221.224C468.152 221.224 467.73 221.139 467.346 220.968C466.968 220.797 466.664 220.536 466.434 220.184C466.21 219.832 466.098 219.384 466.098 218.84V211.176H467.986V218.776C467.986 219.416 468.29 219.736 468.898 219.736C469.085 219.736 469.272 219.715 469.458 219.672C469.645 219.629 469.858 219.565 470.098 219.48L470.37 220.808C470.072 220.925 469.781 221.024 469.498 221.104C469.216 221.184 468.92 221.224 468.61 221.224ZM465.01 214.488V213.24H470.098V214.488H465.01Z"
    fill="#C5C5C5" />
  <rect x="968.044" y="353" width="65.868" height="33" rx="3" fill="#025373" />
  <line x1="1001.5" y1="353" x2="1001.5" y2="329" stroke="#26A1C8" />
  <path
    d="M679.152 375.211V365.019H682.568C683.704 365.019 684.578 365.301 685.192 365.867C685.805 366.432 686.112 367.213 686.112 368.211C686.112 369.197 685.805 369.973 685.192 370.539C684.578 371.099 683.704 371.379 682.568 371.379H680.688V375.211H679.152ZM680.688 370.051H682.568C683.218 370.051 683.712 369.883 684.048 369.547C684.384 369.211 684.552 368.765 684.552 368.211C684.552 367.651 684.384 367.197 684.048 366.851C683.712 366.504 683.218 366.331 682.568 366.331H680.688V370.051Z"
    fill="#1F4551" />
  <path
    d="M688.238 375.211V367.491H689.758V375.211H688.238ZM689.342 371.771C689.342 370.784 689.444 369.965 689.646 369.315C689.854 368.659 690.142 368.171 690.51 367.851C690.884 367.531 691.321 367.371 691.822 367.371C691.972 367.371 692.11 367.381 692.238 367.403C692.372 367.424 692.502 367.453 692.63 367.491L692.574 369.003C692.43 368.965 692.273 368.933 692.102 368.907C691.937 368.875 691.785 368.859 691.646 368.859C691.209 368.859 690.852 368.976 690.574 369.211C690.297 369.44 690.092 369.773 689.958 370.211C689.825 370.643 689.758 371.163 689.758 371.771H689.342Z"
    fill="#1F4551" />
  <path
    d="M697.119 375.419C696.42 375.419 695.794 375.267 695.239 374.963C694.69 374.659 694.255 374.205 693.935 373.603C693.615 373 693.455 372.256 693.455 371.371C693.455 370.469 693.615 369.72 693.935 369.123C694.255 368.52 694.69 368.067 695.239 367.763C695.794 367.459 696.42 367.307 697.119 367.307C697.807 367.307 698.426 367.459 698.975 367.763C699.524 368.067 699.956 368.52 700.271 369.123C700.591 369.72 700.751 370.469 700.751 371.371C700.751 372.256 700.591 373 700.271 373.603C699.956 374.205 699.524 374.659 698.975 374.963C698.426 375.267 697.807 375.419 697.119 375.419ZM697.071 374.091C697.514 374.091 697.895 373.984 698.215 373.771C698.54 373.557 698.788 373.248 698.959 372.843C699.135 372.432 699.223 371.941 699.223 371.371C699.223 370.496 699.044 369.819 698.687 369.339C698.335 368.859 697.826 368.619 697.159 368.619C696.711 368.619 696.324 368.728 695.999 368.947C695.679 369.16 695.431 369.472 695.255 369.883C695.084 370.288 694.999 370.784 694.999 371.371C694.999 372.229 695.178 372.899 695.535 373.379C695.892 373.853 696.404 374.091 697.071 374.091Z"
    fill="#1F4551" />
  <path
    d="M705.57 375.419C705.133 375.419 704.738 375.336 704.386 375.171C704.034 375.005 703.754 374.757 703.546 374.427C703.343 374.091 703.242 373.669 703.242 373.163V365.419H704.754V373.115C704.754 373.84 705.093 374.203 705.77 374.203C705.978 374.203 706.181 374.181 706.378 374.139C706.575 374.091 706.799 374.021 707.05 373.931L707.266 375.011C706.983 375.128 706.703 375.224 706.426 375.299C706.154 375.379 705.869 375.419 705.57 375.419ZM702.066 368.547V367.515H707.034V368.547H702.066Z"
    fill="#1F4551" />
  <path
    d="M712.134 375.419C711.436 375.419 710.809 375.267 710.254 374.963C709.705 374.659 709.27 374.205 708.95 373.603C708.63 373 708.47 372.256 708.47 371.371C708.47 370.469 708.63 369.72 708.95 369.123C709.27 368.52 709.705 368.067 710.254 367.763C710.809 367.459 711.436 367.307 712.134 367.307C712.822 367.307 713.441 367.459 713.99 367.763C714.54 368.067 714.972 368.52 715.286 369.123C715.606 369.72 715.766 370.469 715.766 371.371C715.766 372.256 715.606 373 715.286 373.603C714.972 374.205 714.54 374.659 713.99 374.963C713.441 375.267 712.822 375.419 712.134 375.419ZM712.086 374.091C712.529 374.091 712.91 373.984 713.23 373.771C713.556 373.557 713.804 373.248 713.974 372.843C714.15 372.432 714.238 371.941 714.238 371.371C714.238 370.496 714.06 369.819 713.702 369.339C713.35 368.859 712.841 368.619 712.174 368.619C711.726 368.619 711.34 368.728 711.014 368.947C710.694 369.16 710.446 369.472 710.27 369.883C710.1 370.288 710.014 370.784 710.014 371.371C710.014 372.229 710.193 372.899 710.55 373.379C710.908 373.853 711.42 374.091 712.086 374.091Z"
    fill="#1F4551" />
  <path
    d="M720.913 375.419C720.284 375.419 719.697 375.251 719.153 374.915C718.609 374.579 718.172 374.107 717.841 373.499C717.511 372.891 717.345 372.176 717.345 371.355C717.345 370.491 717.511 369.76 717.841 369.163C718.172 368.56 718.609 368.101 719.153 367.787C719.697 367.467 720.284 367.307 720.913 367.307C721.377 367.307 721.791 367.381 722.153 367.531C722.516 367.675 722.828 367.872 723.089 368.123C723.351 368.368 723.561 368.645 723.721 368.955C723.887 369.264 724.001 369.584 724.065 369.915L722.521 369.995C722.409 369.595 722.212 369.275 721.929 369.035C721.652 368.789 721.308 368.667 720.897 368.667C720.551 368.667 720.223 368.765 719.913 368.963C719.609 369.155 719.361 369.451 719.169 369.851C718.983 370.245 718.889 370.747 718.889 371.355C718.889 371.92 718.977 372.403 719.153 372.803C719.329 373.203 719.569 373.509 719.873 373.723C720.177 373.936 720.519 374.043 720.897 374.043C721.441 374.043 721.847 373.912 722.113 373.651C722.385 373.384 722.521 373.019 722.521 372.555H724.065C724.065 373.093 723.94 373.579 723.689 374.011C723.439 374.443 723.076 374.787 722.601 375.043C722.132 375.293 721.569 375.419 720.913 375.419Z"
    fill="#1F4551" />
  <path
    d="M729.353 375.419C728.655 375.419 728.028 375.267 727.473 374.963C726.924 374.659 726.489 374.205 726.169 373.603C725.849 373 725.689 372.256 725.689 371.371C725.689 370.469 725.849 369.72 726.169 369.123C726.489 368.52 726.924 368.067 727.473 367.763C728.028 367.459 728.655 367.307 729.353 367.307C730.041 367.307 730.66 367.459 731.209 367.763C731.759 368.067 732.191 368.52 732.505 369.123C732.825 369.72 732.985 370.469 732.985 371.371C732.985 372.256 732.825 373 732.505 373.603C732.191 374.205 731.759 374.659 731.209 374.963C730.66 375.267 730.041 375.419 729.353 375.419ZM729.305 374.091C729.748 374.091 730.129 373.984 730.449 373.771C730.775 373.557 731.023 373.248 731.193 372.843C731.369 372.432 731.457 371.941 731.457 371.371C731.457 370.496 731.279 369.819 730.921 369.339C730.569 368.859 730.06 368.619 729.393 368.619C728.945 368.619 728.559 368.728 728.233 368.947C727.913 369.16 727.665 369.472 727.489 369.883C727.319 370.288 727.233 370.784 727.233 371.371C727.233 372.229 727.412 372.899 727.769 373.379C728.127 373.853 728.639 374.091 729.305 374.091Z"
    fill="#1F4551" />
  <path d="M735.332 375.211V364.275H736.852V375.211H735.332Z" fill="#1F4551" />
  <path
    d="M831.371 375.419C830.678 375.419 830.04 375.296 829.459 375.051C828.878 374.8 828.408 374.429 828.051 373.939C827.699 373.448 827.515 372.835 827.499 372.099H828.987C828.987 372.541 829.094 372.904 829.307 373.187C829.526 373.469 829.814 373.68 830.171 373.819C830.528 373.952 830.923 374.019 831.355 374.019C831.792 374.019 832.179 373.952 832.515 373.819C832.851 373.685 833.11 373.507 833.291 373.283C833.478 373.059 833.571 372.803 833.571 372.515C833.571 372.125 833.451 371.813 833.211 371.579C832.971 371.339 832.606 371.136 832.115 370.971L830.219 370.267C829.403 369.963 828.782 369.613 828.355 369.219C827.928 368.819 827.715 368.264 827.715 367.555C827.715 366.749 828.03 366.096 828.659 365.595C829.288 365.088 830.174 364.835 831.315 364.835C832.398 364.835 833.238 365.085 833.835 365.587C834.438 366.088 834.782 366.771 834.867 367.635H833.371C833.296 367.197 833.091 366.851 832.755 366.595C832.424 366.339 831.944 366.211 831.315 366.211C830.707 366.211 830.232 366.344 829.891 366.611C829.55 366.872 829.379 367.203 829.379 367.603C829.379 367.933 829.486 368.197 829.699 368.395C829.918 368.592 830.256 368.771 830.715 368.931L832.875 369.723C833.616 369.984 834.195 370.336 834.611 370.779C835.027 371.221 835.235 371.784 835.235 372.467C835.235 373.043 835.086 373.552 834.787 373.995C834.488 374.437 834.051 374.787 833.475 375.043C832.899 375.293 832.198 375.419 831.371 375.419Z"
    fill="#1F4551" />
  <path d="M839.39 365.019V373.883H843.782V375.211H837.87V365.019H839.39Z" fill="#1F4551" />
  <path
    d="M845.526 365.019H848.646C849.681 365.019 850.579 365.229 851.342 365.651C852.11 366.067 852.707 366.656 853.134 367.419C853.561 368.181 853.774 369.08 853.774 370.115C853.774 371.144 853.561 372.04 853.134 372.803C852.707 373.565 852.11 374.157 851.342 374.579C850.579 375 849.681 375.211 848.646 375.211H845.526V365.019ZM847.046 366.387V373.867H848.646C849.371 373.867 849.993 373.704 850.51 373.379C851.033 373.053 851.435 372.608 851.718 372.043C852.001 371.477 852.142 370.835 852.142 370.115C852.142 369.395 852.001 368.755 851.718 368.195C851.435 367.629 851.033 367.187 850.51 366.867C849.993 366.547 849.371 366.387 848.646 366.387H847.046Z"
    fill="#1F4551" />
  <path d="M987.42 366.459V364.827H995.74V366.459H992.1L992.524 366.027V375.211H990.636V366.027L991.06 366.459H987.42Z"
    fill="white" />
  <path d="M999.2 364.827V373.563H1003.47V375.211H997.312V364.827H999.2Z" fill="white" />
  <path
    d="M1005.22 364.827H1008.58C1009.63 364.827 1010.56 365.04 1011.35 365.467C1012.15 365.888 1012.77 366.488 1013.21 367.267C1013.65 368.045 1013.87 368.965 1013.87 370.027C1013.87 371.077 1013.65 371.992 1013.21 372.771C1012.77 373.544 1012.15 374.144 1011.35 374.571C1010.56 374.997 1009.63 375.211 1008.58 375.211H1005.22V364.827ZM1007.11 366.539V373.515H1008.58C1009.25 373.515 1009.83 373.363 1010.31 373.059C1010.8 372.755 1011.18 372.341 1011.44 371.819C1011.71 371.291 1011.84 370.693 1011.84 370.027C1011.84 369.349 1011.71 368.749 1011.44 368.227C1011.18 367.704 1010.8 367.293 1010.31 366.995C1009.83 366.691 1009.25 366.539 1008.58 366.539H1007.11Z"
    fill="white" />
  <path d="M649.055 303V329H765.735V303" stroke="#1F4551" stroke-miterlimit="10" />
  <path d="M765.735 303V329H914.409V303" stroke="#1F4551" stroke-miterlimit="10" />
  <path d="M1084 303V329H914V303" stroke="#1F4551" stroke-miterlimit="10" />
  <path
    d="M684.856 300.684V293.976C684.856 292.768 684.564 291.844 683.98 291.204C683.404 290.564 682.608 290.244 681.592 290.244C680.848 290.244 680.204 290.448 679.66 290.856C679.124 291.264 678.712 291.836 678.424 292.572C678.144 293.308 678.004 294.168 678.004 295.152H677.392C677.392 293.904 677.56 292.824 677.896 291.912C678.24 290.992 678.744 290.284 679.408 289.788C680.08 289.284 680.912 289.032 681.904 289.032C682.784 289.032 683.544 289.228 684.184 289.62C684.832 290.012 685.332 290.58 685.684 291.324C686.036 292.06 686.212 292.944 686.212 293.976V300.684H684.856ZM676.612 300.684V284.364H678.004V300.684H676.612Z"
    fill="#1F4551" />
  <path
    d="M694.186 300.948C693.594 300.948 693.066 300.832 692.602 300.6C692.146 300.368 691.786 300.024 691.522 299.568C691.266 299.112 691.138 298.548 691.138 297.876V286.056H692.494V297.852C692.494 299.148 693.094 299.796 694.294 299.796C694.646 299.796 694.982 299.756 695.302 299.676C695.622 299.596 695.982 299.484 696.382 299.34L696.574 300.36C696.182 300.536 695.79 300.676 695.398 300.78C695.006 300.892 694.602 300.948 694.186 300.948ZM689.182 290.304V289.296H696.346V290.304H689.182Z"
    fill="#1F4551" />
  <path
    d="M702.975 300.948C702.383 300.948 701.855 300.832 701.391 300.6C700.935 300.368 700.575 300.024 700.311 299.568C700.055 299.112 699.927 298.548 699.927 297.876V286.056H701.283V297.852C701.283 299.148 701.883 299.796 703.083 299.796C703.435 299.796 703.771 299.756 704.091 299.676C704.411 299.596 704.771 299.484 705.171 299.34L705.363 300.36C704.971 300.536 704.579 300.676 704.187 300.78C703.795 300.892 703.391 300.948 702.975 300.948ZM697.971 290.304V289.296H705.135V290.304H697.971Z"
    fill="#1F4551" />
  <path
    d="M713.336 300.948C712.504 300.948 711.772 300.752 711.14 300.36C710.516 299.968 710.028 299.404 709.676 298.668C709.332 297.932 709.16 297.048 709.16 296.016H709.832C709.832 296.824 709.992 297.504 710.312 298.056C710.64 298.6 711.06 299.012 711.572 299.292C712.092 299.572 712.64 299.712 713.216 299.712C713.848 299.712 714.444 299.528 715.004 299.16C715.564 298.792 716.02 298.256 716.372 297.552C716.724 296.84 716.9 295.976 716.9 294.96C716.9 293.96 716.732 293.112 716.396 292.416C716.06 291.712 715.612 291.176 715.052 290.808C714.5 290.432 713.892 290.244 713.228 290.244C712.652 290.244 712.104 290.388 711.584 290.676C711.064 290.964 710.64 291.388 710.312 291.948C709.992 292.5 709.832 293.188 709.832 294.012H709.16C709.16 292.956 709.34 292.056 709.7 291.312C710.068 290.568 710.568 290.004 711.2 289.62C711.832 289.228 712.548 289.032 713.348 289.032C714.236 289.032 715.06 289.272 715.82 289.752C716.58 290.224 717.192 290.904 717.656 291.792C718.12 292.672 718.352 293.728 718.352 294.96C718.352 296.208 718.116 297.28 717.644 298.176C717.18 299.072 716.564 299.76 715.796 300.24C715.036 300.712 714.216 300.948 713.336 300.948ZM708.44 306.3V289.296H709.616L709.832 291.888V306.3H708.44Z"
    fill="#1F4551" />
  <path
    d="M721.058 298.848C721.058 298.56 721.162 298.304 721.37 298.08C721.586 297.856 721.85 297.744 722.162 297.744C722.482 297.744 722.754 297.856 722.978 298.08C723.202 298.304 723.314 298.56 723.314 298.848C723.314 299.144 723.202 299.396 722.978 299.604C722.754 299.812 722.482 299.916 722.162 299.916C721.85 299.916 721.586 299.812 721.37 299.604C721.162 299.396 721.058 299.144 721.058 298.848ZM721.058 291.408C721.058 291.12 721.162 290.864 721.37 290.64C721.586 290.416 721.85 290.304 722.162 290.304C722.482 290.304 722.754 290.416 722.978 290.64C723.202 290.864 723.314 291.12 723.314 291.408C723.314 291.704 723.202 291.956 722.978 292.164C722.754 292.372 722.482 292.476 722.162 292.476C721.85 292.476 721.586 292.372 721.37 292.164C721.162 291.956 721.058 291.704 721.058 291.408Z"
    fill="#1F4551" />
  <path d="M726.133 302.316L732.085 283.308H733.513L727.513 302.316H726.133Z" fill="#1F4551" />
  <path d="M736 302.316L741.952 283.308H743.38L737.38 302.316H736Z" fill="#1F4551" />
  <path
    d="M800.163 301.041L799.875 298.389V293.577C799.875 292.633 799.679 291.949 799.287 291.525C798.895 291.093 798.275 290.877 797.427 290.877C796.947 290.877 796.519 290.949 796.143 291.093C795.775 291.229 795.483 291.437 795.267 291.717C795.059 291.997 794.955 292.349 794.955 292.773H792.435C792.435 291.925 792.643 291.237 793.059 290.709C793.475 290.181 794.055 289.797 794.799 289.557C795.551 289.309 796.427 289.185 797.427 289.185C798.363 289.185 799.187 289.341 799.899 289.653C800.611 289.957 801.163 290.437 801.555 291.093C801.955 291.749 802.155 292.597 802.155 293.637V301.041H800.163ZM796.299 301.353C795.331 301.353 794.527 301.185 793.887 300.849C793.247 300.505 792.767 300.057 792.447 299.505C792.135 298.953 791.979 298.365 791.979 297.741C791.979 296.981 792.171 296.357 792.555 295.869C792.947 295.373 793.487 295.005 794.175 294.765C794.863 294.525 795.655 294.405 796.551 294.405C797.167 294.405 797.767 294.461 798.351 294.573C798.935 294.685 799.511 294.833 800.079 295.017V296.397C799.615 296.229 799.099 296.097 798.531 296.001C797.971 295.897 797.447 295.845 796.959 295.845C796.231 295.845 795.623 295.989 795.135 296.277C794.647 296.565 794.403 297.053 794.403 297.741C794.403 298.245 794.595 298.681 794.979 299.049C795.363 299.409 795.971 299.589 796.803 299.589C797.411 299.589 797.947 299.453 798.411 299.181C798.875 298.901 799.235 298.553 799.491 298.137C799.747 297.721 799.875 297.305 799.875 296.889H800.427C800.427 297.689 800.263 298.429 799.935 299.109C799.615 299.781 799.147 300.325 798.531 300.741C797.915 301.149 797.171 301.353 796.299 301.353Z"
    fill="white" />
  <path
    d="M814.586 301.041V294.273C814.586 293.273 814.346 292.517 813.866 292.005C813.394 291.485 812.754 291.225 811.946 291.225C811.306 291.225 810.746 291.401 810.266 291.753C809.794 292.097 809.426 292.605 809.162 293.277C808.906 293.941 808.778 294.753 808.778 295.713H807.962C807.962 294.297 808.142 293.105 808.502 292.137C808.87 291.169 809.394 290.437 810.074 289.941C810.754 289.437 811.57 289.185 812.522 289.185C813.45 289.185 814.234 289.393 814.874 289.809C815.522 290.225 816.014 290.817 816.35 291.585C816.686 292.345 816.854 293.241 816.854 294.273V301.041H814.586ZM806.498 301.041V289.497H808.478L808.778 291.993V301.041H806.498Z"
    fill="white" />
  <path
    d="M819.357 289.497H821.913L825.393 299.049H824.925L827.721 289.497H830.049L825.669 303.261C825.269 304.509 824.753 305.441 824.121 306.057C823.497 306.681 822.713 306.993 821.769 306.993C821.241 306.993 820.733 306.925 820.245 306.789C819.765 306.653 819.273 306.453 818.769 306.189V304.137C819.201 304.441 819.617 304.661 820.017 304.797C820.417 304.933 820.833 305.001 821.265 305.001C821.697 305.001 822.065 304.869 822.369 304.605C822.681 304.349 822.941 304.005 823.149 303.573C823.365 303.149 823.549 302.685 823.701 302.181L824.049 301.041L819.357 289.497Z"
    fill="white" />
  <path
    d="M836.456 301.353C835.8 301.353 835.208 301.229 834.68 300.981C834.152 300.733 833.732 300.361 833.42 299.865C833.116 299.361 832.964 298.729 832.964 297.969V286.353H835.232V297.897C835.232 298.985 835.74 299.529 836.756 299.529C837.068 299.529 837.372 299.497 837.668 299.433C837.964 299.361 838.3 299.257 838.676 299.121L839 300.741C838.576 300.917 838.156 301.061 837.74 301.173C837.332 301.293 836.904 301.353 836.456 301.353ZM831.2 291.045V289.497H838.652V291.045H831.2Z"
    fill="white" />
  <path
    d="M850.046 301.041V294.273C850.046 293.273 849.806 292.517 849.326 292.005C848.855 291.485 848.214 291.225 847.406 291.225C846.766 291.225 846.206 291.401 845.726 291.753C845.254 292.097 844.886 292.605 844.622 293.277C844.366 293.941 844.238 294.753 844.238 295.713H843.422C843.422 294.297 843.602 293.105 843.962 292.137C844.33 291.169 844.855 290.437 845.535 289.941C846.214 289.437 847.03 289.185 847.982 289.185C848.91 289.185 849.694 289.393 850.334 289.809C850.982 290.225 851.474 290.817 851.81 291.585C852.146 292.345 852.314 293.241 852.314 294.273V301.041H850.046ZM841.958 301.041V284.637H844.238V301.041H841.958Z"
    fill="white" />
  <path
    d="M857.974 287.037C857.518 287.037 857.158 286.913 856.894 286.665C856.638 286.409 856.51 286.065 856.51 285.633C856.51 285.217 856.638 284.889 856.894 284.649C857.158 284.401 857.518 284.277 857.974 284.277C858.422 284.277 858.774 284.401 859.03 284.649C859.294 284.889 859.426 285.217 859.426 285.633C859.426 286.065 859.294 286.409 859.03 286.665C858.774 286.913 858.422 287.037 857.974 287.037ZM856.834 301.041V289.461H859.114V301.041H856.834Z"
    fill="white" />
  <path
    d="M872.195 301.041V294.273C872.195 293.273 871.955 292.517 871.475 292.005C871.003 291.485 870.363 291.225 869.555 291.225C868.915 291.225 868.355 291.401 867.875 291.753C867.403 292.097 867.035 292.605 866.771 293.277C866.515 293.941 866.387 294.753 866.387 295.713H865.571C865.571 294.297 865.751 293.105 866.111 292.137C866.479 291.169 867.003 290.437 867.683 289.941C868.363 289.437 869.179 289.185 870.131 289.185C871.059 289.185 871.843 289.393 872.483 289.809C873.131 290.225 873.623 290.817 873.959 291.585C874.295 292.345 874.463 293.241 874.463 294.273V301.041H872.195ZM864.107 301.041V289.497H866.087L866.387 291.993V301.041H864.107Z"
    fill="white" />
  <path
    d="M883.05 306.993C881.802 306.993 880.726 306.821 879.822 306.477C878.926 306.133 878.234 305.673 877.746 305.097C877.258 304.521 877.014 303.893 877.014 303.213C877.014 302.349 877.33 301.685 877.962 301.221C878.594 300.765 879.398 300.537 880.374 300.537L881.85 301.233C881.018 301.233 880.374 301.401 879.918 301.737C879.47 302.073 879.246 302.529 879.246 303.105C879.246 303.705 879.574 304.197 880.23 304.581C880.886 304.973 881.826 305.169 883.05 305.169C883.938 305.169 884.718 305.037 885.39 304.773C886.062 304.517 886.582 304.177 886.95 303.753C887.318 303.337 887.502 302.889 887.502 302.409C887.502 302.081 887.382 301.801 887.142 301.569C886.91 301.345 886.554 301.233 886.074 301.233H881.85C881.066 301.233 880.374 301.113 879.774 300.873C879.182 300.625 878.718 300.301 878.382 299.901C878.046 299.501 877.878 299.057 877.878 298.569C877.878 298.089 878.014 297.677 878.286 297.333C878.558 296.981 878.918 296.717 879.366 296.541C879.814 296.357 880.306 296.265 880.842 296.265L881.358 297.057C881.126 297.057 880.894 297.109 880.662 297.213C880.43 297.309 880.238 297.457 880.086 297.657C879.934 297.857 879.858 298.105 879.858 298.401C879.858 298.745 880.002 299.033 880.29 299.265C880.586 299.489 881.106 299.601 881.85 299.601H886.074C887.226 299.601 888.13 299.829 888.786 300.285C889.442 300.741 889.77 301.405 889.77 302.277C889.77 303.069 889.498 303.825 888.954 304.545C888.41 305.265 887.634 305.853 886.626 306.309C885.626 306.765 884.434 306.993 883.05 306.993ZM883.302 297.573C882.406 297.573 881.59 297.401 880.854 297.057C880.126 296.705 879.546 296.217 879.114 295.593C878.682 294.961 878.466 294.225 878.466 293.385C878.466 292.537 878.682 291.801 879.114 291.177C879.546 290.545 880.126 290.057 880.854 289.713C881.59 289.361 882.406 289.185 883.302 289.185C884.174 289.185 884.97 289.361 885.69 289.713C886.418 290.057 886.998 290.545 887.43 291.177C887.87 291.801 888.09 292.537 888.09 293.385C888.09 294.225 887.87 294.961 887.43 295.593C886.998 296.217 886.418 296.705 885.69 297.057C884.97 297.401 884.174 297.573 883.302 297.573ZM883.302 295.965C884.126 295.965 884.754 295.721 885.186 295.233C885.626 294.737 885.846 294.121 885.846 293.385C885.846 292.617 885.626 291.997 885.186 291.525C884.754 291.053 884.126 290.817 883.302 290.817C882.494 290.817 881.862 291.053 881.406 291.525C880.958 291.997 880.734 292.617 880.734 293.385C880.734 294.121 880.958 294.737 881.406 295.233C881.862 295.721 882.494 295.965 883.302 295.965ZM887.226 291.033L886.158 290.517C886.158 289.829 886.302 289.229 886.59 288.717C886.878 288.205 887.278 287.805 887.79 287.517C888.302 287.229 888.89 287.085 889.554 287.085L889.41 289.305C888.698 289.305 888.154 289.445 887.778 289.725C887.41 290.005 887.226 290.441 887.226 291.033Z"
    fill="white" />
  <path
    d="M941.764 299.43C941.764 298.982 941.916 298.602 942.22 298.29C942.532 297.978 942.924 297.822 943.396 297.822C943.868 297.822 944.268 297.978 944.596 298.29C944.924 298.602 945.088 298.982 945.088 299.43C945.088 299.87 944.924 300.242 944.596 300.546C944.268 300.842 943.868 300.99 943.396 300.99C942.924 300.99 942.532 300.838 942.22 300.534C941.916 300.23 941.764 299.862 941.764 299.43Z"
    fill="white" />
  <path
    d="M964.104 300.774V294.006C964.104 293.006 963.864 292.25 963.384 291.738C962.912 291.218 962.276 290.958 961.476 290.958C960.516 290.958 959.772 291.334 959.244 292.086C958.724 292.838 958.464 293.918 958.464 295.326H957.468C957.468 294.214 957.576 293.254 957.792 292.446C958.008 291.638 958.316 290.974 958.716 290.454C959.124 289.934 959.608 289.55 960.168 289.302C960.736 289.046 961.368 288.918 962.064 288.918C962.992 288.918 963.776 289.126 964.416 289.542C965.064 289.958 965.556 290.55 965.892 291.318C966.228 292.078 966.396 292.974 966.396 294.006V300.774H964.104ZM948.108 300.774V289.23H950.088L950.34 291.402C950.708 290.594 951.212 289.978 951.852 289.554C952.5 289.13 953.26 288.918 954.132 288.918C955.06 288.918 955.844 289.126 956.484 289.542C957.132 289.958 957.624 290.55 957.96 291.318C958.296 292.078 958.464 292.974 958.464 294.006V300.774H956.196V294.006C956.196 293.006 955.956 292.25 955.476 291.738C955.004 291.218 954.364 290.958 953.556 290.958C952.916 290.958 952.356 291.134 951.876 291.486C951.404 291.83 951.036 292.338 950.772 293.01C950.516 293.674 950.388 294.486 950.388 295.446V300.774H948.108Z"
    fill="white" />
  <path
    d="M968.866 289.23H971.422L974.902 298.782H974.434L977.23 289.23H979.558L975.178 302.994C974.778 304.242 974.262 305.174 973.63 305.79C973.006 306.414 972.222 306.726 971.278 306.726C970.75 306.726 970.242 306.658 969.754 306.522C969.274 306.386 968.782 306.186 968.278 305.922V303.87C968.71 304.174 969.126 304.394 969.526 304.53C969.926 304.666 970.342 304.734 970.774 304.734C971.206 304.734 971.574 304.602 971.878 304.338C972.19 304.082 972.45 303.738 972.658 303.306C972.874 302.882 973.058 302.418 973.21 301.914L973.558 300.774L968.866 289.23Z"
    fill="white" />
  <path
    d="M987.812 301.086C987.06 301.086 986.376 300.886 985.76 300.486C985.152 300.078 984.664 299.478 984.296 298.686C983.936 297.894 983.756 296.922 983.756 295.77H984.536C984.536 296.442 984.68 297.022 984.968 297.51C985.264 297.998 985.64 298.374 986.096 298.638C986.552 298.894 987.028 299.022 987.524 299.022C988.116 299.022 988.648 298.858 989.12 298.53C989.6 298.202 989.98 297.734 990.26 297.126C990.548 296.51 990.692 295.786 990.692 294.954C990.692 294.13 990.552 293.422 990.272 292.83C989.992 292.23 989.612 291.77 989.132 291.45C988.652 291.122 988.108 290.958 987.5 290.958C986.988 290.958 986.504 291.082 986.048 291.33C985.6 291.578 985.236 291.946 984.956 292.434C984.676 292.914 984.536 293.502 984.536 294.198H983.756C983.756 293.07 983.932 292.114 984.284 291.33C984.636 290.546 985.124 289.95 985.748 289.542C986.38 289.126 987.12 288.918 987.968 288.918C988.888 288.918 989.728 289.166 990.488 289.662C991.256 290.15 991.868 290.846 992.324 291.75C992.788 292.654 993.02 293.722 993.02 294.954C993.02 296.194 992.784 297.274 992.312 298.194C991.84 299.106 991.208 299.818 990.416 300.33C989.632 300.834 988.764 301.086 987.812 301.086ZM982.256 300.774V284.37H984.536V298.002L983.804 300.774H982.256Z"
    fill="white" />
  <path
    d="M996.694 300.774V289.194H998.974V300.774H996.694ZM998.35 295.614C998.35 294.134 998.502 292.906 998.806 291.93C999.118 290.946 999.55 290.214 1000.1 289.734C1000.66 289.254 1001.32 289.014 1002.07 289.014C1002.29 289.014 1002.5 289.03 1002.69 289.062C1002.89 289.094 1003.09 289.138 1003.28 289.194L1003.2 291.462C1002.98 291.406 1002.75 291.358 1002.49 291.318C1002.24 291.27 1002.01 291.246 1001.81 291.246C1001.15 291.246 1000.61 291.422 1000.2 291.774C999.782 292.118 999.474 292.618 999.274 293.274C999.074 293.922 998.974 294.702 998.974 295.614H998.35Z"
    fill="white" />
  <path
    d="M1012.91 300.774L1012.62 298.122V293.31C1012.62 292.366 1012.42 291.682 1012.03 291.258C1011.64 290.826 1011.02 290.61 1010.17 290.61C1009.69 290.61 1009.26 290.682 1008.89 290.826C1008.52 290.962 1008.23 291.17 1008.01 291.45C1007.8 291.73 1007.7 292.082 1007.7 292.506H1005.18C1005.18 291.658 1005.39 290.97 1005.8 290.442C1006.22 289.914 1006.8 289.53 1007.54 289.29C1008.29 289.042 1009.17 288.918 1010.17 288.918C1011.11 288.918 1011.93 289.074 1012.64 289.386C1013.35 289.69 1013.91 290.17 1014.3 290.826C1014.7 291.482 1014.9 292.33 1014.9 293.37V300.774H1012.91ZM1009.04 301.086C1008.07 301.086 1007.27 300.918 1006.63 300.582C1005.99 300.238 1005.51 299.79 1005.19 299.238C1004.88 298.686 1004.72 298.098 1004.72 297.474C1004.72 296.714 1004.91 296.09 1005.3 295.602C1005.69 295.106 1006.23 294.738 1006.92 294.498C1007.61 294.258 1008.4 294.138 1009.29 294.138C1009.91 294.138 1010.51 294.194 1011.09 294.306C1011.68 294.418 1012.25 294.566 1012.82 294.75V296.13C1012.36 295.962 1011.84 295.83 1011.27 295.734C1010.71 295.63 1010.19 295.578 1009.7 295.578C1008.97 295.578 1008.37 295.722 1007.88 296.01C1007.39 296.298 1007.15 296.786 1007.15 297.474C1007.15 297.978 1007.34 298.414 1007.72 298.782C1008.11 299.142 1008.71 299.322 1009.55 299.322C1010.15 299.322 1010.69 299.186 1011.15 298.914C1011.62 298.634 1011.98 298.286 1012.23 297.87C1012.49 297.454 1012.62 297.038 1012.62 296.622H1013.17C1013.17 297.422 1013.01 298.162 1012.68 298.842C1012.36 299.514 1011.89 300.058 1011.27 300.474C1010.66 300.882 1009.91 301.086 1009.04 301.086Z"
    fill="white" />
  <path
    d="M1027.33 300.774V294.006C1027.33 293.006 1027.09 292.25 1026.61 291.738C1026.14 291.218 1025.5 290.958 1024.69 290.958C1024.05 290.958 1023.49 291.134 1023.01 291.486C1022.54 291.83 1022.17 292.338 1021.9 293.01C1021.65 293.674 1021.52 294.486 1021.52 295.446H1020.7C1020.7 294.03 1020.88 292.838 1021.24 291.87C1021.61 290.902 1022.14 290.17 1022.82 289.674C1023.5 289.17 1024.31 288.918 1025.26 288.918C1026.19 288.918 1026.98 289.126 1027.62 289.542C1028.26 289.958 1028.76 290.55 1029.09 291.318C1029.43 292.078 1029.6 292.974 1029.6 294.006V300.774H1027.33ZM1019.24 300.774V289.23H1021.22L1021.52 291.726V300.774H1019.24Z"
    fill="white" />
  <path
    d="M1038.12 301.086C1037.18 301.086 1036.31 300.834 1035.52 300.33C1034.73 299.818 1034.1 299.106 1033.62 298.194C1033.16 297.274 1032.93 296.194 1032.93 294.954C1032.93 293.722 1033.16 292.654 1033.61 291.75C1034.08 290.846 1034.69 290.15 1035.45 289.662C1036.21 289.166 1037.05 288.918 1037.98 288.918C1038.83 288.918 1039.57 289.126 1040.2 289.542C1040.83 289.95 1041.32 290.546 1041.66 291.33C1042.02 292.114 1042.19 293.07 1042.19 294.198H1041.4C1041.4 293.502 1041.26 292.914 1040.98 292.434C1040.7 291.946 1040.34 291.578 1039.89 291.33C1039.44 291.082 1038.96 290.958 1038.45 290.958C1037.85 290.958 1037.3 291.122 1036.82 291.45C1036.34 291.77 1035.95 292.23 1035.66 292.83C1035.38 293.422 1035.24 294.13 1035.24 294.954C1035.24 295.786 1035.38 296.51 1035.66 297.126C1035.95 297.734 1036.34 298.202 1036.82 298.53C1037.3 298.858 1037.84 299.022 1038.44 299.022C1038.92 299.022 1039.39 298.894 1039.84 298.638C1040.3 298.374 1040.67 297.998 1040.96 297.51C1041.25 297.022 1041.4 296.442 1041.4 295.77H1042.19C1042.19 296.922 1042.01 297.894 1041.64 298.686C1041.28 299.478 1040.79 300.078 1040.18 300.486C1039.56 300.886 1038.88 301.086 1038.12 301.086ZM1041.8 300.774L1041.4 298.002V284.37H1043.69V300.774H1041.8Z"
    fill="white" />
  <path d="M1047.37 302.586L1053.45 283.086H1055.78L1049.66 302.586H1047.37Z" fill="white" />
  <rect x="649.055" y="187" width="258.767" height="58" rx="3" fill="white" />
  <path
    d="M717.379 209.26H721.279C722.573 209.26 723.696 209.523 724.649 210.05C725.609 210.57 726.356 211.307 726.889 212.26C727.423 213.213 727.689 214.337 727.689 215.63C727.689 216.917 727.423 218.037 726.889 218.99C726.356 219.943 725.609 220.683 724.649 221.21C723.696 221.737 722.573 222 721.279 222H717.379V209.26ZM719.279 210.97V220.32H721.279C722.186 220.32 722.963 220.117 723.609 219.71C724.263 219.303 724.766 218.747 725.119 218.04C725.473 217.333 725.649 216.53 725.649 215.63C725.649 214.73 725.473 213.93 725.119 213.23C724.766 212.523 724.263 211.97 723.609 211.57C722.963 211.17 722.186 210.97 721.279 210.97H719.279Z"
    fill="#001830" />
  <path
    d="M734.267 222.26C733.44 222.26 732.693 222.047 732.027 221.62C731.36 221.193 730.83 220.6 730.437 219.84C730.05 219.08 729.857 218.2 729.857 217.2C729.857 216.14 730.05 215.233 730.437 214.48C730.823 213.72 731.35 213.137 732.017 212.73C732.683 212.323 733.433 212.12 734.267 212.12C735.013 212.12 735.653 212.273 736.187 212.58C736.72 212.88 737.15 213.287 737.477 213.8C737.803 214.307 738.027 214.883 738.147 215.53C738.273 216.177 738.297 216.843 738.217 217.53H731.377V216.43H736.917L736.457 216.73C736.477 216.37 736.457 216.01 736.397 215.65C736.343 215.29 736.237 214.96 736.077 214.66C735.917 214.353 735.69 214.11 735.397 213.93C735.11 213.743 734.743 213.65 734.297 213.65C733.737 213.65 733.267 213.79 732.887 214.07C732.513 214.35 732.23 214.727 732.037 215.2C731.843 215.667 731.747 216.18 731.747 216.74V217.51C731.747 218.13 731.84 218.68 732.027 219.16C732.213 219.64 732.49 220.02 732.857 220.3C733.23 220.573 733.7 220.71 734.267 220.71C734.82 220.71 735.277 220.58 735.637 220.32C736.003 220.06 736.23 219.67 736.317 219.15H738.257C738.157 219.777 737.927 220.323 737.567 220.79C737.207 221.257 736.743 221.62 736.177 221.88C735.617 222.133 734.98 222.26 734.267 222.26Z"
    fill="#001830" />
  <path
    d="M744.727 222.26C743.94 222.26 743.207 222.05 742.527 221.63C741.847 221.21 741.3 220.62 740.887 219.86C740.474 219.1 740.267 218.207 740.267 217.18C740.267 216.1 740.474 215.187 740.887 214.44C741.3 213.687 741.847 213.113 742.527 212.72C743.207 212.32 743.94 212.12 744.727 212.12C745.307 212.12 745.824 212.213 746.277 212.4C746.73 212.58 747.12 212.827 747.447 213.14C747.774 213.447 748.037 213.793 748.237 214.18C748.444 214.567 748.587 214.967 748.667 215.38L746.737 215.48C746.597 214.98 746.35 214.58 745.997 214.28C745.65 213.973 745.22 213.82 744.707 213.82C744.274 213.82 743.864 213.943 743.477 214.19C743.097 214.43 742.787 214.8 742.547 215.3C742.314 215.793 742.197 216.42 742.197 217.18C742.197 217.887 742.307 218.49 742.527 218.99C742.747 219.49 743.047 219.873 743.427 220.14C743.807 220.407 744.234 220.54 744.707 220.54C745.387 220.54 745.894 220.377 746.227 220.05C746.567 219.717 746.737 219.26 746.737 218.68H748.667C748.667 219.353 748.51 219.96 748.197 220.5C747.884 221.04 747.43 221.47 746.837 221.79C746.25 222.103 745.547 222.26 744.727 222.26Z"
    fill="#001830" />
  <path
    d="M755.107 222.26C754.28 222.26 753.533 222.047 752.867 221.62C752.2 221.193 751.67 220.6 751.277 219.84C750.89 219.08 750.697 218.2 750.697 217.2C750.697 216.14 750.89 215.233 751.277 214.48C751.663 213.72 752.19 213.137 752.857 212.73C753.523 212.323 754.273 212.12 755.107 212.12C755.853 212.12 756.493 212.273 757.027 212.58C757.56 212.88 757.99 213.287 758.317 213.8C758.643 214.307 758.867 214.883 758.987 215.53C759.113 216.177 759.137 216.843 759.057 217.53H752.217V216.43H757.757L757.297 216.73C757.317 216.37 757.297 216.01 757.237 215.65C757.183 215.29 757.077 214.96 756.917 214.66C756.757 214.353 756.53 214.11 756.237 213.93C755.95 213.743 755.583 213.65 755.137 213.65C754.577 213.65 754.107 213.79 753.727 214.07C753.353 214.35 753.07 214.727 752.877 215.2C752.683 215.667 752.587 216.18 752.587 216.74V217.51C752.587 218.13 752.68 218.68 752.867 219.16C753.053 219.64 753.33 220.02 753.697 220.3C754.07 220.573 754.54 220.71 755.107 220.71C755.66 220.71 756.117 220.58 756.477 220.32C756.843 220.06 757.07 219.67 757.157 219.15H759.097C758.997 219.777 758.767 220.323 758.407 220.79C758.047 221.257 757.583 221.62 757.017 221.88C756.457 222.133 755.82 222.26 755.107 222.26Z"
    fill="#001830" />
  <path
    d="M768.807 222V216.36C768.807 215.527 768.607 214.897 768.207 214.47C767.813 214.037 767.28 213.82 766.607 213.82C766.073 213.82 765.607 213.967 765.207 214.26C764.813 214.547 764.507 214.97 764.287 215.53C764.073 216.083 763.967 216.76 763.967 217.56H763.287C763.287 216.38 763.437 215.387 763.737 214.58C764.043 213.773 764.48 213.163 765.047 212.75C765.613 212.33 766.293 212.12 767.087 212.12C767.86 212.12 768.513 212.293 769.047 212.64C769.587 212.987 769.997 213.48 770.277 214.12C770.557 214.753 770.697 215.5 770.697 216.36V222H768.807ZM762.067 222V212.38H763.717L763.967 214.46V222H762.067Z"
    fill="#001830" />
  <path
    d="M777.403 222.26C776.856 222.26 776.363 222.157 775.923 221.95C775.483 221.743 775.133 221.433 774.873 221.02C774.62 220.6 774.493 220.073 774.493 219.44V209.76H776.383V219.38C776.383 220.287 776.806 220.74 777.653 220.74C777.913 220.74 778.166 220.713 778.413 220.66C778.66 220.6 778.94 220.513 779.253 220.4L779.523 221.75C779.17 221.897 778.82 222.017 778.473 222.11C778.133 222.21 777.776 222.26 777.403 222.26ZM773.023 213.67V212.38H779.233V213.67H773.023Z"
    fill="#001830" />
  <path
    d="M781.989 222V212.35H783.889V222H781.989ZM783.369 217.7C783.369 216.467 783.495 215.443 783.749 214.63C784.009 213.81 784.369 213.2 784.829 212.8C785.295 212.4 785.842 212.2 786.469 212.2C786.655 212.2 786.829 212.213 786.989 212.24C787.155 212.267 787.319 212.303 787.479 212.35L787.409 214.24C787.229 214.193 787.032 214.153 786.819 214.12C786.612 214.08 786.422 214.06 786.249 214.06C785.702 214.06 785.255 214.207 784.909 214.5C784.562 214.787 784.305 215.203 784.139 215.75C783.972 216.29 783.889 216.94 783.889 217.7H783.369Z"
    fill="#001830" />
  <path
    d="M795.499 222L795.259 219.79V215.78C795.259 214.993 795.096 214.423 794.769 214.07C794.442 213.71 793.926 213.53 793.219 213.53C792.819 213.53 792.462 213.59 792.149 213.71C791.842 213.823 791.599 213.997 791.419 214.23C791.246 214.463 791.159 214.757 791.159 215.11H789.059C789.059 214.403 789.232 213.83 789.579 213.39C789.926 212.95 790.409 212.63 791.029 212.43C791.656 212.223 792.386 212.12 793.219 212.12C793.999 212.12 794.686 212.25 795.279 212.51C795.872 212.763 796.332 213.163 796.659 213.71C796.992 214.257 797.159 214.963 797.159 215.83V222H795.499ZM792.279 222.26C791.472 222.26 790.802 222.12 790.269 221.84C789.736 221.553 789.336 221.18 789.069 220.72C788.809 220.26 788.679 219.77 788.679 219.25C788.679 218.617 788.839 218.097 789.159 217.69C789.486 217.277 789.936 216.97 790.509 216.77C791.082 216.57 791.742 216.47 792.489 216.47C793.002 216.47 793.502 216.517 793.989 216.61C794.476 216.703 794.956 216.827 795.429 216.98V218.13C795.042 217.99 794.612 217.88 794.139 217.8C793.672 217.713 793.236 217.67 792.829 217.67C792.222 217.67 791.716 217.79 791.309 218.03C790.902 218.27 790.699 218.677 790.699 219.25C790.699 219.67 790.859 220.033 791.179 220.34C791.499 220.64 792.006 220.79 792.699 220.79C793.206 220.79 793.652 220.677 794.039 220.45C794.426 220.217 794.726 219.927 794.939 219.58C795.152 219.233 795.259 218.887 795.259 218.54H795.719C795.719 219.207 795.582 219.823 795.309 220.39C795.042 220.95 794.652 221.403 794.139 221.75C793.626 222.09 793.006 222.26 792.279 222.26Z"
    fill="#001830" />
  <path d="M800.778 222V208.33H802.678V222H800.778Z" fill="#001830" />
  <path
    d="M807.678 210.33C807.298 210.33 806.998 210.227 806.778 210.02C806.565 209.807 806.458 209.52 806.458 209.16C806.458 208.813 806.565 208.54 806.778 208.34C806.998 208.133 807.298 208.03 807.678 208.03C808.052 208.03 808.345 208.133 808.558 208.34C808.778 208.54 808.888 208.813 808.888 209.16C808.888 209.52 808.778 209.807 808.558 210.02C808.345 210.227 808.052 210.33 807.678 210.33ZM806.728 222V212.35H808.628V222H806.728Z"
    fill="#001830" />
  <path d="M811.929 222V220.46L817.319 213.91H811.929V212.38H819.439V213.91L814.169 220.46H819.439V222H811.929Z"
    fill="#001830" />
  <path
    d="M825.907 222.26C825.081 222.26 824.334 222.047 823.667 221.62C823.001 221.193 822.471 220.6 822.077 219.84C821.691 219.08 821.497 218.2 821.497 217.2C821.497 216.14 821.691 215.233 822.077 214.48C822.464 213.72 822.991 213.137 823.657 212.73C824.324 212.323 825.074 212.12 825.907 212.12C826.654 212.12 827.294 212.273 827.827 212.58C828.361 212.88 828.791 213.287 829.117 213.8C829.444 214.307 829.667 214.883 829.787 215.53C829.914 216.177 829.937 216.843 829.857 217.53H823.017V216.43H828.557L828.097 216.73C828.117 216.37 828.097 216.01 828.037 215.65C827.984 215.29 827.877 214.96 827.717 214.66C827.557 214.353 827.331 214.11 827.037 213.93C826.751 213.743 826.384 213.65 825.937 213.65C825.377 213.65 824.907 213.79 824.527 214.07C824.154 214.35 823.871 214.727 823.677 215.2C823.484 215.667 823.387 216.18 823.387 216.74V217.51C823.387 218.13 823.481 218.68 823.667 219.16C823.854 219.64 824.131 220.02 824.497 220.3C824.871 220.573 825.341 220.71 825.907 220.71C826.461 220.71 826.917 220.58 827.277 220.32C827.644 220.06 827.871 219.67 827.957 219.15H829.897C829.797 219.777 829.567 220.323 829.207 220.79C828.847 221.257 828.384 221.62 827.817 221.88C827.257 222.133 826.621 222.26 825.907 222.26Z"
    fill="#001830" />
  <path
    d="M836.358 222.26C835.571 222.26 834.848 222.05 834.188 221.63C833.528 221.203 833.001 220.61 832.608 219.85C832.221 219.083 832.028 218.183 832.028 217.15C832.028 216.123 832.218 215.233 832.598 214.48C832.984 213.727 833.494 213.147 834.128 212.74C834.761 212.327 835.464 212.12 836.238 212.12C836.944 212.12 837.561 212.293 838.088 212.64C838.614 212.98 839.021 213.477 839.308 214.13C839.601 214.783 839.748 215.58 839.748 216.52H839.088C839.088 215.94 838.971 215.45 838.738 215.05C838.504 214.643 838.201 214.337 837.828 214.13C837.454 213.923 837.054 213.82 836.628 213.82C836.128 213.82 835.674 213.957 835.268 214.23C834.868 214.497 834.548 214.88 834.308 215.38C834.074 215.873 833.958 216.463 833.958 217.15C833.958 217.843 834.074 218.447 834.308 218.96C834.548 219.467 834.868 219.857 835.268 220.13C835.674 220.403 836.124 220.54 836.618 220.54C837.024 220.54 837.414 220.433 837.788 220.22C838.168 220 838.478 219.687 838.718 219.28C838.964 218.873 839.088 218.39 839.088 217.83H839.748C839.748 218.79 839.594 219.6 839.288 220.26C838.988 220.92 838.581 221.42 838.068 221.76C837.554 222.093 836.984 222.26 836.358 222.26ZM839.418 222L839.088 219.69V208.33H840.998V222H839.418Z"
    fill="#001830" />
  <path
    d="M849.782 209.26H853.682C854.975 209.26 856.098 209.523 857.052 210.05C858.012 210.57 858.758 211.307 859.292 212.26C859.825 213.213 860.092 214.337 860.092 215.63C860.092 216.917 859.825 218.037 859.292 218.99C858.758 219.943 858.012 220.683 857.052 221.21C856.098 221.737 854.975 222 853.682 222H849.782V209.26ZM851.682 210.97V220.32H853.682C854.588 220.32 855.365 220.117 856.012 219.71C856.665 219.303 857.168 218.747 857.522 218.04C857.875 217.333 858.052 216.53 858.052 215.63C858.052 214.73 857.875 213.93 857.522 213.23C857.168 212.523 856.665 211.97 856.012 211.57C855.365 211.17 854.588 210.97 853.682 210.97H851.682Z"
    fill="#001830" />
  <path
    d="M863.189 209.26H865.359L871.529 219.14H871.379V209.26H873.279V222H871.259L864.789 211.68H865.089V222H863.189V209.26Z"
    fill="#001830" />
  <path
    d="M881.424 222.26C880.557 222.26 879.761 222.107 879.034 221.8C878.307 221.487 877.721 221.023 877.274 220.41C876.834 219.797 876.604 219.03 876.584 218.11H878.444C878.444 218.663 878.577 219.117 878.844 219.47C879.117 219.823 879.477 220.087 879.924 220.26C880.371 220.427 880.864 220.51 881.404 220.51C881.951 220.51 882.434 220.427 882.854 220.26C883.274 220.093 883.597 219.87 883.824 219.59C884.057 219.31 884.174 218.99 884.174 218.63C884.174 218.143 884.024 217.753 883.724 217.46C883.424 217.16 882.967 216.907 882.354 216.7L879.984 215.82C878.964 215.44 878.187 215.003 877.654 214.51C877.121 214.01 876.854 213.317 876.854 212.43C876.854 211.423 877.247 210.607 878.034 209.98C878.821 209.347 879.927 209.03 881.354 209.03C882.707 209.03 883.757 209.343 884.504 209.97C885.257 210.597 885.687 211.45 885.794 212.53H883.924C883.831 211.983 883.574 211.55 883.154 211.23C882.741 210.91 882.141 210.75 881.354 210.75C880.594 210.75 880.001 210.917 879.574 211.25C879.147 211.577 878.934 211.99 878.934 212.49C878.934 212.903 879.067 213.233 879.334 213.48C879.607 213.727 880.031 213.95 880.604 214.15L883.304 215.14C884.231 215.467 884.954 215.907 885.474 216.46C885.994 217.013 886.254 217.717 886.254 218.57C886.254 219.29 886.067 219.927 885.694 220.48C885.321 221.033 884.774 221.47 884.054 221.79C883.334 222.103 882.457 222.26 881.424 222.26Z"
    fill="#001830" />
  <path
    d="M1000.62 250.354C1000.82 250.549 1001.14 250.549 1001.33 250.354L1004.51 247.172C1004.71 246.976 1004.71 246.66 1004.51 246.464C1004.32 246.269 1004 246.269 1003.81 246.464L1000.98 249.293L998.15 246.464C997.954 246.269 997.638 246.269 997.442 246.464C997.247 246.66 997.247 246.976 997.442 247.172L1000.62 250.354ZM1000.48 216V250H1001.48V216H1000.48Z"
    fill="#26A1C8" />
  <line x1="1000.98" y1="216.5" x2="907.822" y2="216.5" stroke="#26A1C8" />
  <g filter="url(#filter0_f_494_77)">
    <rect x="921.877" y="199" width="65.868" height="33" rx="3" fill="#31CFE4" />
  </g>
  <rect x="921.877" y="199" width="65.868" height="33" rx="3" fill="#0F95A7" />
  <path
    d="M943.759 221.224C942.837 221.224 942.021 221.021 941.311 220.616C940.607 220.211 940.055 219.605 939.655 218.8C939.255 217.995 939.055 216.995 939.055 215.8C939.055 214.584 939.255 213.579 939.655 212.784C940.055 211.984 940.607 211.389 941.311 211C942.021 210.605 942.837 210.408 943.759 210.408C944.687 210.408 945.506 210.611 946.215 211.016C946.925 211.416 947.479 212.016 947.879 212.816C948.279 213.616 948.479 214.611 948.479 215.8C948.479 217.011 948.279 218.019 947.879 218.824C947.479 219.629 946.925 220.232 946.215 220.632C945.506 221.027 944.687 221.224 943.759 221.224ZM943.759 219.512C944.607 219.512 945.279 219.192 945.775 218.552C946.277 217.912 946.527 216.989 946.527 215.784C946.527 214.621 946.277 213.717 945.775 213.072C945.279 212.427 944.607 212.104 943.759 212.104C942.927 212.104 942.261 212.429 941.759 213.08C941.258 213.725 941.007 214.632 941.007 215.8C941.007 217 941.258 217.92 941.759 218.56C942.261 219.195 942.927 219.512 943.759 219.512Z"
    fill="white" />
  <path
    d="M949.417 213.24H951.385L953.065 219.128H952.873L954.457 213.656H956.169L957.753 219.144H957.561L959.241 213.24H961.129L958.569 221H956.713L955.129 215.848H955.417L953.865 221H951.993L949.417 213.24Z"
    fill="white" />
  <path
    d="M968.166 221V216.456C968.166 215.88 968.028 215.445 967.75 215.152C967.473 214.859 967.11 214.712 966.662 214.712C966.284 214.712 965.948 214.816 965.654 215.024C965.366 215.232 965.14 215.547 964.974 215.968C964.809 216.384 964.726 216.904 964.726 217.528H964.102C964.102 216.52 964.228 215.683 964.478 215.016C964.729 214.344 965.084 213.843 965.542 213.512C966.001 213.181 966.54 213.016 967.158 213.016C967.798 213.016 968.332 213.16 968.758 213.448C969.19 213.731 969.513 214.131 969.726 214.648C969.945 215.165 970.054 215.768 970.054 216.456V221H968.166ZM962.838 221V213.24H964.486L964.726 214.776V221H962.838Z"
    fill="white" />
  <path d="M665.038 202.095L669.637 229.405L695.391 228.995L674.993 217.269L665.038 202.095Z" stroke="#00284F"
    stroke-linejoin="round" />
  <path d="M696.999 205.134L695.391 228.995L699.625 219.152L696.999 205.134Z" stroke="#00284F"
    stroke-linejoin="round" />
  <path d="M696.999 205.134L674.993 217.269L669.637 229.405" stroke="#00284F" stroke-linejoin="round" />
  <path d="M695.391 228.997L665.038 202.095" stroke="#00284F" stroke-linejoin="round" />
  <path d="M699.625 219.649L674.993 217.269" stroke="#00284F" stroke-linejoin="round" />
  <path d="M702.764 218H699V222H702.764V218Z" fill="#00284F" />
  <path d="M672.157 227.72H668.393V231.72H672.157V227.72Z" fill="#00284F" />
  <path d="M667.812 200.934H664.048V204.934H667.812V200.934Z" fill="#00284F" />
  <path d="M696.764 227H693V231H696.764V227Z" fill="#00284F" />
  <path d="M676.343 215H672.579V219H676.343V215Z" fill="#00284F" />
  <path d="M698.764 203H695V207H698.764V203Z" fill="#00284F" />
  <path d="M591.233 293.739H616.292" stroke="white" stroke-width="1.11" stroke-miterlimit="10" />
  <path d="M614.908 285.053L620.84 293.739L614.908 302.432H614.842V285.053H614.908Z" fill="white" />
  <defs>
    <filter id="filter0_f_494_77" x="901.877" y="179" width="105.868" height="73" filterUnits="userSpaceOnUse"
      color-interpolation-filters="sRGB">
      <feFlood flood-opacity="0" result="BackgroundImageFix" />
      <feBlend mode="normal" in="SourceGraphic" in2="BackgroundImageFix" result="shape" />
      <feGaussianBlur stdDeviation="10" result="effect1_foregroundBlur_494_77" />
    </filter>
  </defs>
</svg>