<svg width="100%" viewBox="0 0 548 384" fill="none" xmlns="http://www.w3.org/2000/svg">
  <mask id="mask0_500_3" style="mask-type:alpha" maskUnits="userSpaceOnUse" x="220" y="0" width="308" height="140">
    <rect x="220" width="308" height="140" fill="url(#paint0_linear_500_3)" />
  </mask>
  <g mask="url(#mask0_500_3)">
    <path
      d="M467.274 603.418C492.782 603.418 505.699 592.84 505.699 568.972V47.8945C505.73 22.7441 492.315 12.415 470.453 12.415H446.064C445.077 12.4232 444.132 12.8218 443.438 13.5237C442.743 14.2255 442.355 15.1737 442.357 16.1612V17.5368C442.357 27.3529 435.245 33.4229 426.471 33.4229H312.299C303.524 33.4229 296.413 27.3529 296.413 17.5368V16.1612C296.415 15.1737 296.026 14.2255 295.332 13.5237C294.637 12.8218 293.693 12.4232 292.706 12.415H267.835C245.988 12.415 232.612 22.7441 232.612 47.8945V568.956C232.604 592.824 245.522 603.418 271.014 603.418H467.274Z"
      fill="#1A324E" />
    <path
      d="M486.976 46.1691H250.418C247.044 46.1691 244.309 48.9041 244.309 52.2779V75.5008C244.309 78.8746 247.044 81.6096 250.418 81.6096H486.976C490.35 81.6096 493.085 78.8746 493.085 75.5008V52.2779C493.085 48.9041 490.35 46.1691 486.976 46.1691Z"
      fill="#101623" />
    <path
      d="M253.34 66.7417L255.128 61.5422H255.905L257.646 66.7417H256.97L256.535 65.4049H254.467L254.016 66.7417H253.34ZM254.638 64.8998H256.371L255.509 62.3272L254.638 64.8998Z"
      fill="white" />
    <path
      d="M258.182 66.7418L260.739 59.3195H261.858L264.353 66.7418H263.382L262.76 64.8143H259.806L259.154 66.7185L258.182 66.7418ZM260.04 64.1148H262.519L261.283 60.4386L260.04 64.1148Z"
      fill="white" />
    <path
      d="M476.196 58.0914C474.889 57.8336 473.537 57.9479 472.292 58.4213C471.047 58.8946 469.96 59.708 469.155 60.7688C468.35 61.8295 467.859 63.0951 467.737 64.4213C467.616 65.7476 467.87 67.0812 468.47 68.2703C469.069 69.4595 469.991 70.4563 471.129 71.1474C472.268 71.8384 473.577 72.196 474.909 72.1792C476.24 72.1625 477.541 71.7721 478.661 71.0526C479.782 70.3331 480.678 69.3134 481.248 68.1096C481.895 66.7304 482.088 65.1814 481.799 63.6856C481.51 62.1898 480.754 60.8243 479.639 59.7857"
      stroke="white" stroke-miterlimit="10" />
    <path d="M472.069 61.892L476.631 58.3401L472.753 54.0577" stroke="white" stroke-miterlimit="10" />
    <path
      d="M353.458 68.9093V63.8513C353.458 63.0293 353.26 62.4053 352.864 61.9793C352.474 61.5473 351.946 61.3313 351.28 61.3313C350.5 61.3313 349.903 61.6343 349.489 62.2403C349.075 62.8403 348.868 63.6713 348.868 64.7333H348.22C348.22 63.9593 348.295 63.2813 348.445 62.6993C348.601 62.1173 348.826 61.6343 349.12 61.2503C349.414 60.8603 349.771 60.5693 350.191 60.3773C350.611 60.1853 351.088 60.0893 351.622 60.0893C352.3 60.0893 352.879 60.2423 353.359 60.5483C353.845 60.8483 354.217 61.2803 354.475 61.8443C354.733 62.4083 354.862 63.0773 354.862 63.8513V68.9093H353.458ZM341.362 68.9093V60.3053H342.568L342.73 62.0333C343 61.4093 343.378 60.9293 343.864 60.5933C344.356 60.2573 344.944 60.0893 345.628 60.0893C346.306 60.0893 346.885 60.2423 347.365 60.5483C347.851 60.8483 348.223 61.2803 348.481 61.8443C348.739 62.4083 348.868 63.0773 348.868 63.8513V68.9093H347.482V63.8513C347.482 63.0293 347.284 62.4053 346.888 61.9793C346.498 61.5473 345.964 61.3313 345.286 61.3313C344.77 61.3313 344.323 61.4723 343.945 61.7543C343.567 62.0363 343.276 62.4413 343.072 62.9693C342.868 63.4913 342.766 64.1153 342.766 64.8413V68.9093H341.362Z"
      fill="white" />
    <path
      d="M356.78 60.3053H358.346L361.154 67.6853H360.83L363.008 60.3053H364.448L361.208 70.6373C360.938 71.5013 360.578 72.1673 360.128 72.6353C359.678 73.1033 359.102 73.3373 358.4 73.3373C358.022 73.3373 357.662 73.2833 357.32 73.1753C356.984 73.0673 356.636 72.9113 356.276 72.7073V71.4113C356.594 71.6633 356.9 71.8433 357.194 71.9513C357.494 72.0593 357.806 72.1133 358.13 72.1133C358.49 72.1133 358.79 71.9993 359.03 71.7713C359.276 71.5433 359.48 71.2493 359.642 70.8893C359.804 70.5353 359.942 70.1633 360.056 69.7733L360.308 68.9093L356.78 60.3053Z"
      fill="white" />
    <path
      d="M370.528 69.1253C369.952 69.1253 369.43 68.9753 368.962 68.6753C368.5 68.3753 368.131 67.9373 367.855 67.3613C367.585 66.7793 367.45 66.0713 367.45 65.2373H367.99C367.99 65.7953 368.104 66.2723 368.332 66.6683C368.566 67.0583 368.866 67.3553 369.232 67.5593C369.598 67.7633 369.982 67.8653 370.384 67.8653C370.846 67.8653 371.269 67.7333 371.653 67.4693C372.037 67.2053 372.343 66.8273 372.571 66.3353C372.805 65.8433 372.922 65.2553 372.922 64.5713C372.922 63.8993 372.808 63.3233 372.58 62.8433C372.352 62.3573 372.043 61.9853 371.653 61.7273C371.269 61.4633 370.84 61.3313 370.366 61.3313C369.958 61.3313 369.571 61.4333 369.205 61.6373C368.845 61.8353 368.551 62.1293 368.323 62.5193C368.101 62.9093 367.99 63.3893 367.99 63.9593H367.45C367.45 63.1433 367.582 62.4473 367.846 61.8713C368.116 61.2953 368.488 60.8543 368.962 60.5483C369.436 60.2423 369.988 60.0893 370.618 60.0893C371.296 60.0893 371.917 60.2723 372.481 60.6383C373.051 60.9983 373.507 61.5143 373.849 62.1863C374.191 62.8583 374.362 63.6533 374.362 64.5713C374.362 65.4953 374.188 66.2993 373.84 66.9833C373.492 67.6613 373.027 68.1893 372.445 68.5673C371.863 68.9393 371.224 69.1253 370.528 69.1253ZM366.586 68.9093V56.6333H367.99V66.8933L367.576 68.9093H366.586Z"
      fill="white" />
    <path
      d="M377.256 68.9093V60.2873H378.66V68.9093H377.256ZM378.228 65.0213C378.228 63.9293 378.333 63.0233 378.543 62.3033C378.753 61.5773 379.059 61.0373 379.461 60.6833C379.869 60.3233 380.364 60.1433 380.946 60.1433C381.138 60.1433 381.312 60.1583 381.468 60.1883C381.63 60.2123 381.792 60.2513 381.954 60.3053L381.864 61.6913C381.696 61.6373 381.513 61.5923 381.315 61.5563C381.117 61.5143 380.94 61.4933 380.784 61.4933C380.274 61.4933 379.863 61.6403 379.551 61.9343C379.239 62.2223 379.011 62.6303 378.867 63.1583C378.729 63.6863 378.66 64.3073 378.66 65.0213H378.228Z"
      fill="white" />
    <path
      d="M389.088 68.9093L388.908 67.0193V63.3293C388.908 62.5553 388.743 62.0003 388.413 61.6643C388.083 61.3223 387.588 61.1513 386.928 61.1513C386.556 61.1513 386.217 61.2053 385.911 61.3133C385.611 61.4213 385.371 61.5893 385.191 61.8173C385.017 62.0393 384.93 62.3273 384.93 62.6813H383.364C383.364 62.0573 383.517 61.5563 383.823 61.1783C384.129 60.7943 384.549 60.5183 385.083 60.3503C385.623 60.1763 386.238 60.0893 386.928 60.0893C387.588 60.0893 388.173 60.2003 388.683 60.4223C389.193 60.6443 389.592 60.9983 389.88 61.4843C390.168 61.9643 390.312 62.5913 390.312 63.3653V68.9093H389.088ZM386.154 69.1253C385.446 69.1253 384.861 68.9993 384.399 68.7473C383.937 68.4953 383.592 68.1683 383.364 67.7663C383.136 67.3643 383.022 66.9413 383.022 66.4973C383.022 65.9153 383.166 65.4413 383.454 65.0753C383.748 64.7093 384.147 64.4423 384.651 64.2743C385.155 64.1003 385.722 64.0133 386.352 64.0133C386.802 64.0133 387.252 64.0583 387.702 64.1483C388.158 64.2383 388.602 64.3613 389.034 64.5173V65.3993C388.674 65.2553 388.266 65.1413 387.81 65.0573C387.36 64.9733 386.946 64.9313 386.568 64.9313C385.992 64.9313 385.506 65.0513 385.11 65.2913C384.714 65.5253 384.516 65.9273 384.516 66.4973C384.516 66.9173 384.666 67.2773 384.966 67.5773C385.272 67.8773 385.758 68.0273 386.424 68.0273C386.892 68.0273 387.312 67.9193 387.684 67.7033C388.062 67.4813 388.359 67.2053 388.575 66.8753C388.797 66.5453 388.908 66.2153 388.908 65.8853H389.25C389.25 66.4613 389.124 66.9953 388.872 67.4873C388.626 67.9793 388.272 68.3753 387.81 68.6753C387.348 68.9753 386.796 69.1253 386.154 69.1253Z"
      fill="white" />
    <path
      d="M399.794 68.9093V63.8513C399.794 63.0293 399.596 62.4053 399.2 61.9793C398.81 61.5473 398.276 61.3313 397.598 61.3313C397.082 61.3313 396.635 61.4723 396.257 61.7543C395.879 62.0363 395.588 62.4413 395.384 62.9693C395.18 63.4913 395.078 64.1153 395.078 64.8413H394.538C394.538 63.8393 394.67 62.9843 394.934 62.2763C395.198 61.5683 395.582 61.0283 396.086 60.6563C396.596 60.2783 397.214 60.0893 397.94 60.0893C398.618 60.0893 399.197 60.2423 399.677 60.5483C400.163 60.8483 400.535 61.2803 400.793 61.8443C401.051 62.4083 401.18 63.0773 401.18 63.8513V68.9093H399.794ZM393.674 68.9093V60.3053H394.88L395.078 62.2853V68.9093H393.674Z"
      fill="white" />
    <path
      d="M407.616 69.1253C406.92 69.1253 406.281 68.9393 405.699 68.5673C405.117 68.1893 404.652 67.6613 404.304 66.9833C403.956 66.2993 403.782 65.4953 403.782 64.5713C403.782 63.6533 403.953 62.8583 404.295 62.1863C404.637 61.5143 405.09 60.9983 405.654 60.6383C406.224 60.2723 406.848 60.0893 407.526 60.0893C408.156 60.0893 408.708 60.2423 409.182 60.5483C409.662 60.8543 410.034 61.2953 410.298 61.8713C410.562 62.4473 410.694 63.1433 410.694 63.9593H410.154C410.154 63.3893 410.04 62.9093 409.812 62.5193C409.59 62.1293 409.299 61.8353 408.939 61.6373C408.579 61.4333 408.192 61.3313 407.778 61.3313C407.31 61.3313 406.881 61.4633 406.491 61.7273C406.107 61.9853 405.798 62.3573 405.564 62.8433C405.336 63.3233 405.222 63.8993 405.222 64.5713C405.222 65.2553 405.336 65.8433 405.564 66.3353C405.798 66.8273 406.107 67.2053 406.491 67.4693C406.881 67.7333 407.31 67.8653 407.778 67.8653C408.168 67.8653 408.543 67.7633 408.903 67.5593C409.269 67.3553 409.569 67.0583 409.803 66.6683C410.037 66.2723 410.154 65.7953 410.154 65.2373H410.694C410.694 66.0713 410.556 66.7793 410.28 67.3613C410.01 67.9373 409.641 68.3753 409.173 68.6753C408.711 68.9753 408.192 69.1253 407.616 69.1253ZM410.388 68.9093L410.154 66.8933V56.6333H411.558V68.9093H410.388Z"
      fill="white" />
    <path d="M414.415 70.2053L418.933 55.7513H420.373L415.819 70.2053H414.415Z" fill="white" />
    <path
      d="M327.899 62.5992H317.117C316.568 62.5992 316.123 62.9785 316.123 63.4464V69.7884C316.123 70.2563 316.568 70.6355 317.117 70.6355H327.899C328.448 70.6355 328.893 70.2563 328.893 69.7884V63.4464C328.893 62.9785 328.448 62.5992 327.899 62.5992Z"
      fill="#D9D9D9" />
    <path fill-rule="evenodd" clip-rule="evenodd"
      d="M323.192 66.7884C323.428 66.6619 323.61 66.4734 323.709 66.2513C323.809 66.0292 323.821 65.7855 323.744 65.5571C323.667 65.3286 323.504 65.1278 323.281 64.9848C323.058 64.8418 322.787 64.7645 322.508 64.7645C322.229 64.7645 321.957 64.8418 321.734 64.9848C321.512 65.1278 321.349 65.3286 321.272 65.5571C321.195 65.7855 321.207 66.0292 321.306 66.2513C321.406 66.4734 321.587 66.6619 321.824 66.7884L321.377 68.4594H323.621L323.192 66.7884Z"
      fill="black" />
    <path
      d="M327.688 62.5992V59.6459C327.688 58.5422 326.94 57.6484 325.791 57.6484H319.104C317.955 57.6484 317.207 58.5422 317.207 59.6459V62.5992"
      stroke="#D9D9D9" stroke-miterlimit="10" />
    <line x1="245.925" y1="105.904" x2="306.885" y2="105.904" stroke="#19202D" stroke-width="12" />
  </g>
  <rect x="-6.10352e-05" y="128" width="365.332" height="95.2715" rx="16" fill="#007181" />
  <line x1="17.254" y1="191.766" x2="105.024" y2="191.766" stroke="#18565F" stroke-width="12" />
  <path
    d="M305.571 136.252H91.269C86.8507 136.252 83.269 139.834 83.269 144.252V161.259C83.269 165.678 86.8507 169.259 91.269 169.259H305.571C309.989 169.259 313.571 165.678 313.571 161.259V144.252C313.571 139.834 309.989 136.252 305.571 136.252Z"
    fill="#134147" />
  <path
    d="M298.165 146.496C296.842 146.235 295.472 146.35 294.211 146.829C292.95 147.308 291.848 148.131 291.033 149.206C290.217 150.28 289.719 151.562 289.596 152.905C289.473 154.248 289.73 155.599 290.337 156.804C290.944 158.008 291.877 159.018 293.03 159.718C294.183 160.419 295.51 160.781 296.859 160.764C298.207 160.747 299.524 160.352 300.66 159.623C301.795 158.894 302.702 157.861 303.279 156.642C303.935 155.245 304.131 153.676 303.839 152.161C303.547 150.645 302.781 149.262 301.653 148.209"
    stroke="white" stroke-miterlimit="10" />
  <path
    d="M295.264 142.406L294.541 143.054L297.765 146.624L293.968 149.579L294.566 150.343L299.189 146.748L295.264 142.406Z"
    fill="white" />
  <circle cx="338.702" cy="152.38" r="9.62729" stroke="#C4C4C4" />
  <path
    d="M338.37 158.339C338.76 158.729 339.394 158.729 339.784 158.339L346.148 151.975C346.539 151.584 346.539 150.951 346.148 150.561C345.758 150.17 345.124 150.17 344.734 150.561L339.077 156.218L333.42 150.561C333.03 150.17 332.396 150.17 332.006 150.561C331.615 150.951 331.615 151.584 332.006 151.975L338.37 158.339ZM338.077 146.754L338.077 157.632L340.077 157.632L340.077 146.754L338.077 146.754Z"
    fill="#C4C4C4" />
  <path
    d="M255.508 151.752H246.7C246.251 151.752 245.887 152.116 245.887 152.565V158.645C245.887 159.094 246.251 159.458 246.7 159.458H255.508C255.957 159.458 256.321 159.094 256.321 158.645V152.565C256.321 152.116 255.957 151.752 255.508 151.752Z"
    fill="#D9D9D9" />
  <path fill-rule="evenodd" clip-rule="evenodd"
    d="M251.657 155.772C251.833 155.662 251.973 155.501 252.058 155.312C252.143 155.122 252.17 154.911 252.135 154.706C252.101 154.501 252.006 154.31 251.863 154.159C251.72 154.008 251.536 153.902 251.333 153.855C251.131 153.809 250.919 153.823 250.724 153.897C250.53 153.971 250.361 154.101 250.241 154.27C250.12 154.439 250.052 154.641 250.045 154.848C250.039 155.056 250.094 155.262 250.204 155.438C250.29 155.573 250.404 155.687 250.539 155.772L250.171 157.374H252.004L251.657 155.772Z"
    fill="black" />
  <path
    d="M255.334 151.752V148.904C255.334 147.848 254.719 146.993 253.786 146.993H248.326C247.389 146.993 246.778 147.848 246.778 148.904V151.736"
    stroke="#D9D9D9" stroke-width="1.94" stroke-miterlimit="10" />
  <path
    d="M136.07 159.343V154.285C136.07 153.463 135.872 152.839 135.476 152.413C135.086 151.981 134.552 151.765 133.874 151.765C133.358 151.765 132.911 151.906 132.533 152.188C132.155 152.47 131.864 152.875 131.66 153.403C131.456 153.925 131.354 154.549 131.354 155.275H130.814C130.814 154.273 130.946 153.418 131.21 152.71C131.474 152.002 131.858 151.462 132.362 151.09C132.872 150.712 133.49 150.523 134.216 150.523C134.894 150.523 135.473 150.676 135.953 150.982C136.439 151.282 136.811 151.714 137.069 152.278C137.327 152.842 137.456 153.511 137.456 154.285V159.343H136.07ZM129.95 159.343V150.739H131.156L131.354 152.719V159.343H129.95Z"
    fill="white" />
  <path
    d="M141.281 159.343V149.407C141.281 148.837 141.389 148.372 141.605 148.012C141.827 147.646 142.121 147.376 142.487 147.202C142.859 147.028 143.273 146.941 143.729 146.941C143.975 146.941 144.224 146.959 144.476 146.995C144.734 147.031 144.989 147.085 145.241 147.157L144.971 148.273C144.791 148.201 144.611 148.147 144.431 148.111C144.257 148.075 144.089 148.057 143.927 148.057C143.735 148.057 143.543 148.093 143.351 148.165C143.159 148.237 143 148.372 142.874 148.57C142.748 148.768 142.685 149.053 142.685 149.425V159.343H141.281ZM139.877 151.711V150.739H144.467V151.711H139.877Z"
    fill="white" />
  <path
    d="M149.629 159.559C149.161 159.559 148.741 159.469 148.369 159.289C147.997 159.109 147.703 158.839 147.487 158.479C147.271 158.119 147.163 157.669 147.163 157.129V148.345H148.549V157.093C148.549 157.981 148.963 158.425 149.791 158.425C150.037 158.425 150.274 158.398 150.502 158.344C150.736 158.29 150.997 158.209 151.285 158.101L151.483 159.109C151.177 159.241 150.871 159.349 150.565 159.433C150.265 159.517 149.953 159.559 149.629 159.559ZM145.777 151.711V150.739H151.267V151.711H145.777Z"
    fill="white" />
  <path
    d="M152.473 158.506C152.473 158.224 152.572 157.981 152.77 157.777C152.968 157.573 153.217 157.471 153.517 157.471C153.817 157.471 154.072 157.573 154.282 157.777C154.492 157.981 154.597 158.224 154.597 158.506C154.597 158.788 154.492 159.025 154.282 159.217C154.072 159.409 153.817 159.505 153.517 159.505C153.217 159.505 152.968 159.409 152.77 159.217C152.572 159.019 152.473 158.782 152.473 158.506Z"
    fill="white" />
  <path
    d="M169.063 159.343V154.285C169.063 153.463 168.865 152.839 168.469 152.413C168.079 151.981 167.551 151.765 166.885 151.765C166.105 151.765 165.508 152.068 165.094 152.674C164.68 153.274 164.473 154.105 164.473 155.167H163.825C163.825 154.393 163.9 153.715 164.05 153.133C164.206 152.551 164.431 152.068 164.725 151.684C165.019 151.294 165.376 151.003 165.796 150.811C166.216 150.619 166.693 150.523 167.227 150.523C167.905 150.523 168.484 150.676 168.964 150.982C169.45 151.282 169.822 151.714 170.08 152.278C170.338 152.842 170.467 153.511 170.467 154.285V159.343H169.063ZM156.967 159.343V150.739H158.173L158.335 152.467C158.605 151.843 158.983 151.363 159.469 151.027C159.961 150.691 160.549 150.523 161.233 150.523C161.911 150.523 162.49 150.676 162.97 150.982C163.456 151.282 163.828 151.714 164.086 152.278C164.344 152.842 164.473 153.511 164.473 154.285V159.343H163.087V154.285C163.087 153.463 162.889 152.839 162.493 152.413C162.103 151.981 161.569 151.765 160.891 151.765C160.375 151.765 159.928 151.906 159.55 152.188C159.172 152.47 158.881 152.875 158.677 153.403C158.473 153.925 158.371 154.549 158.371 155.275V159.343H156.967Z"
    fill="white" />
  <path
    d="M172.385 150.739H173.951L176.759 158.119H176.435L178.613 150.739H180.053L176.813 161.071C176.543 161.935 176.183 162.601 175.733 163.069C175.283 163.537 174.707 163.771 174.005 163.771C173.627 163.771 173.267 163.717 172.925 163.609C172.589 163.501 172.241 163.345 171.881 163.141V161.845C172.199 162.097 172.505 162.277 172.799 162.385C173.099 162.493 173.411 162.547 173.735 162.547C174.095 162.547 174.395 162.433 174.635 162.205C174.881 161.977 175.085 161.683 175.247 161.323C175.409 160.969 175.547 160.597 175.661 160.207L175.913 159.343L172.385 150.739Z"
    fill="white" />
  <path
    d="M186.134 159.559C185.558 159.559 185.036 159.409 184.568 159.109C184.106 158.809 183.737 158.371 183.461 157.795C183.191 157.213 183.056 156.505 183.056 155.671H183.596C183.596 156.229 183.71 156.706 183.938 157.102C184.172 157.492 184.472 157.789 184.838 157.993C185.204 158.197 185.588 158.299 185.99 158.299C186.452 158.299 186.875 158.167 187.259 157.903C187.643 157.639 187.949 157.261 188.177 156.769C188.411 156.277 188.528 155.689 188.528 155.005C188.528 154.333 188.414 153.757 188.186 153.277C187.958 152.791 187.649 152.419 187.259 152.161C186.875 151.897 186.446 151.765 185.972 151.765C185.564 151.765 185.177 151.867 184.811 152.071C184.451 152.269 184.157 152.563 183.929 152.953C183.707 153.343 183.596 153.823 183.596 154.393H183.056C183.056 153.577 183.188 152.881 183.452 152.305C183.722 151.729 184.094 151.288 184.568 150.982C185.042 150.676 185.594 150.523 186.224 150.523C186.902 150.523 187.523 150.706 188.087 151.072C188.657 151.432 189.113 151.948 189.455 152.62C189.797 153.292 189.968 154.087 189.968 155.005C189.968 155.929 189.794 156.733 189.446 157.417C189.098 158.095 188.633 158.623 188.051 159.001C187.469 159.373 186.83 159.559 186.134 159.559ZM182.192 159.343V147.067H183.596V157.327L183.182 159.343H182.192Z"
    fill="white" />
  <path
    d="M192.862 159.343V150.721H194.266V159.343H192.862ZM193.834 155.455C193.834 154.363 193.939 153.457 194.149 152.737C194.359 152.011 194.665 151.471 195.067 151.117C195.475 150.757 195.97 150.577 196.552 150.577C196.744 150.577 196.918 150.592 197.074 150.622C197.236 150.646 197.398 150.685 197.56 150.739L197.47 152.125C197.302 152.071 197.119 152.026 196.921 151.99C196.723 151.948 196.546 151.927 196.39 151.927C195.88 151.927 195.469 152.074 195.157 152.368C194.845 152.656 194.617 153.064 194.473 153.592C194.335 154.12 194.266 154.741 194.266 155.455H193.834Z"
    fill="white" />
  <path
    d="M204.694 159.343L204.514 157.453V153.763C204.514 152.989 204.349 152.434 204.019 152.098C203.689 151.756 203.194 151.585 202.534 151.585C202.162 151.585 201.823 151.639 201.517 151.747C201.217 151.855 200.977 152.023 200.797 152.251C200.623 152.473 200.536 152.761 200.536 153.115H198.97C198.97 152.491 199.123 151.99 199.429 151.612C199.735 151.228 200.155 150.952 200.689 150.784C201.229 150.61 201.844 150.523 202.534 150.523C203.194 150.523 203.779 150.634 204.289 150.856C204.799 151.078 205.198 151.432 205.486 151.918C205.774 152.398 205.918 153.025 205.918 153.799V159.343H204.694ZM201.76 159.559C201.052 159.559 200.467 159.433 200.005 159.181C199.543 158.929 199.198 158.602 198.97 158.2C198.742 157.798 198.628 157.375 198.628 156.931C198.628 156.349 198.772 155.875 199.06 155.509C199.354 155.143 199.753 154.876 200.257 154.708C200.761 154.534 201.328 154.447 201.958 154.447C202.408 154.447 202.858 154.492 203.308 154.582C203.764 154.672 204.208 154.795 204.64 154.951V155.833C204.28 155.689 203.872 155.575 203.416 155.491C202.966 155.407 202.552 155.365 202.174 155.365C201.598 155.365 201.112 155.485 200.716 155.725C200.32 155.959 200.122 156.361 200.122 156.931C200.122 157.351 200.272 157.711 200.572 158.011C200.878 158.311 201.364 158.461 202.03 158.461C202.498 158.461 202.918 158.353 203.29 158.137C203.668 157.915 203.965 157.639 204.181 157.309C204.403 156.979 204.514 156.649 204.514 156.319H204.856C204.856 156.895 204.73 157.429 204.478 157.921C204.232 158.413 203.878 158.809 203.416 159.109C202.954 159.409 202.402 159.559 201.76 159.559Z"
    fill="white" />
  <path
    d="M215.4 159.343V154.285C215.4 153.463 215.202 152.839 214.806 152.413C214.416 151.981 213.882 151.765 213.204 151.765C212.688 151.765 212.241 151.906 211.863 152.188C211.485 152.47 211.194 152.875 210.99 153.403C210.786 153.925 210.684 154.549 210.684 155.275H210.144C210.144 154.273 210.276 153.418 210.54 152.71C210.804 152.002 211.188 151.462 211.692 151.09C212.202 150.712 212.82 150.523 213.546 150.523C214.224 150.523 214.803 150.676 215.283 150.982C215.769 151.282 216.141 151.714 216.399 152.278C216.657 152.842 216.786 153.511 216.786 154.285V159.343H215.4ZM209.28 159.343V150.739H210.486L210.684 152.719V159.343H209.28Z"
    fill="white" />
  <path
    d="M223.221 159.559C222.525 159.559 221.886 159.373 221.304 159.001C220.722 158.623 220.257 158.095 219.909 157.417C219.561 156.733 219.387 155.929 219.387 155.005C219.387 154.087 219.558 153.292 219.9 152.62C220.242 151.948 220.695 151.432 221.259 151.072C221.829 150.706 222.453 150.523 223.131 150.523C223.761 150.523 224.313 150.676 224.787 150.982C225.267 151.288 225.639 151.729 225.903 152.305C226.167 152.881 226.299 153.577 226.299 154.393H225.759C225.759 153.823 225.645 153.343 225.417 152.953C225.195 152.563 224.904 152.269 224.544 152.071C224.184 151.867 223.797 151.765 223.383 151.765C222.915 151.765 222.486 151.897 222.096 152.161C221.712 152.419 221.403 152.791 221.169 153.277C220.941 153.757 220.827 154.333 220.827 155.005C220.827 155.689 220.941 156.277 221.169 156.769C221.403 157.261 221.712 157.639 222.096 157.903C222.486 158.167 222.915 158.299 223.383 158.299C223.773 158.299 224.148 158.197 224.508 157.993C224.874 157.789 225.174 157.492 225.408 157.102C225.642 156.706 225.759 156.229 225.759 155.671H226.299C226.299 156.505 226.161 157.213 225.885 157.795C225.615 158.371 225.246 158.809 224.778 159.109C224.316 159.409 223.797 159.559 223.221 159.559ZM225.993 159.343L225.759 157.327V147.067H227.163V159.343H225.993Z"
    fill="white" />
  <path d="M230.021 160.639L234.539 146.185H235.979L231.425 160.639H230.021Z" fill="white" />
  <circle cx="25.5059" cy="152.005" r="5.50135" stroke="#C4C4C4" />
  <circle cx="42.7597" cy="152.005" r="5.50135" stroke="#C4C4C4" />
  <circle cx="60.0135" cy="152.005" r="5.50135" stroke="#C4C4C4" />
  <rect x="143.001" y="236" width="404.341" height="147.783" rx="16" fill="#202734" />
  <line x1="160.254" y1="356.029" x2="248.024" y2="356.029" stroke="#19202D" stroke-width="12" />
  <path d="M143 287.011L227.769 287.056" stroke="#15283E" stroke-width="0.96" stroke-miterlimit="10" />
  <path d="M542.84 332.022L143 332.022" stroke="#15283E" stroke-width="0.96" stroke-miterlimit="10" />
  <path
    d="M500.023 287.012C500.039 287.012 500.053 287.005 500.064 286.993C500.075 286.982 500.081 286.966 500.081 286.95V252.864C500.081 251.177 499.459 249.559 498.351 248.366C497.243 247.173 495.741 246.503 494.175 246.503H233.641C232.874 246.499 232.113 246.658 231.402 246.971C230.692 247.284 230.046 247.744 229.5 248.326C228.955 248.908 228.522 249.6 228.225 250.362C227.928 251.125 227.773 251.943 227.769 252.77V286.95C227.769 286.965 227.775 286.981 227.785 286.992C227.795 287.004 227.809 287.011 227.823 287.012"
    fill="#025373" />
  <path d="M500.081 287.011H542.09" stroke="#15283E" stroke-miterlimit="10" />
  <path
    d="M522.655 259.529H525.858V264.808H531.166V267.602H525.858V272.886H522.643V267.602H517.335V264.808H522.643L522.655 259.529Z"
    fill="#999999" />
  <path
    d="M248.634 261.49H252.811C253.429 261.478 254.047 261.513 254.66 261.593C255.05 261.65 255.423 261.791 255.754 262.006C256.082 262.233 256.355 262.531 256.555 262.876C256.774 263.252 256.885 263.68 256.877 264.115C256.875 264.594 256.731 265.062 256.464 265.46C256.203 265.865 255.83 266.185 255.391 266.381C255.971 266.528 256.487 266.862 256.86 267.33C257.205 267.782 257.385 268.338 257.372 268.907C257.376 269.385 257.27 269.858 257.063 270.289C256.855 270.718 256.543 271.087 256.155 271.363C255.733 271.647 255.246 271.818 254.739 271.858C254.388 271.899 253.542 271.92 252.196 271.932H248.638L248.634 261.49ZM250.743 263.231V265.646H252.11C252.935 265.646 253.443 265.646 253.641 265.613C253.96 265.588 254.261 265.456 254.495 265.237C254.601 265.128 254.683 264.999 254.736 264.857C254.789 264.715 254.813 264.563 254.805 264.412C254.818 264.125 254.723 263.843 254.537 263.624C254.329 263.417 254.053 263.292 253.761 263.273C253.55 263.273 252.935 263.24 251.957 263.24L250.743 263.231ZM250.743 267.388V270.182H252.696C253.179 270.197 253.664 270.176 254.144 270.12C254.44 270.074 254.711 269.928 254.912 269.707C255.117 269.459 255.222 269.142 255.205 268.82C255.215 268.537 255.135 268.259 254.978 268.023C254.816 267.796 254.584 267.628 254.318 267.545C253.704 267.414 253.075 267.364 252.448 267.396L250.743 267.388Z"
    fill="#999999" />
  <path
    d="M525.587 292.263H260.027C250.912 292.263 243.523 299.652 243.523 308.767C243.523 317.881 250.912 325.27 260.027 325.27H525.587C534.701 325.27 542.09 317.881 542.09 308.767C542.09 299.652 534.701 292.263 525.587 292.263Z"
    fill="#00284F" />
  <path
    d="M525.716 306.702C524.891 307.313 523.215 308.594 520.689 310.544C520.904 311.217 521.217 312.228 521.626 313.599C522.034 314.969 522.348 315.956 522.55 316.62L517.321 313.013C517.354 313.013 515.623 314.207 512.129 316.595C513.328 312.683 513.94 310.679 513.965 310.586C514.002 310.445 512.277 309.29 508.901 306.739L514.679 306.59H515.241C515.653 305.352 516.363 303.383 517.304 300.61C518.13 302.932 518.83 304.915 519.405 306.557C519.529 306.582 519.649 306.603 519.773 306.615C521.231 306.612 523.212 306.641 525.716 306.702Z"
    fill="#0080FF" />
  <path d="M474.019 261.483L473.155 262.347L481.478 270.671L482.342 269.807L474.019 261.483Z" fill="#999999" />
  <path d="M481.483 261.474L473.16 269.798L474.024 270.662L482.347 262.338L481.483 261.474Z" fill="#999999" />
  <path
    d="M220.794 302.459C219.471 302.197 218.101 302.312 216.84 302.791C215.579 303.27 214.477 304.094 213.661 305.168C212.846 306.242 212.348 307.524 212.225 308.868C212.102 310.211 212.358 311.562 212.966 312.766C213.573 313.971 214.506 314.981 215.659 315.681C216.812 316.381 218.139 316.743 219.488 316.726C220.836 316.709 222.153 316.314 223.289 315.585C224.424 314.856 225.331 313.823 225.908 312.604C226.564 311.207 226.76 309.638 226.468 308.123C226.175 306.608 225.41 305.224 224.282 304.172"
    stroke="#999999" stroke-width="2.36" stroke-miterlimit="10" />
  <path
    d="M217.892 298.368L217.17 299.016L220.393 302.587L216.596 305.542L217.195 306.306L221.817 302.711L217.892 298.368Z"
    fill="#999999" />
  <path
    d="M272.057 308.633H263.249C262.8 308.633 262.436 308.997 262.436 309.446V315.526C262.436 315.975 262.8 316.339 263.249 316.339H272.057C272.506 316.339 272.87 315.975 272.87 315.526V309.446C272.87 308.997 272.506 308.633 272.057 308.633Z"
    fill="#D9D9D9" />
  <path fill-rule="evenodd" clip-rule="evenodd"
    d="M268.206 312.654C268.382 312.543 268.522 312.383 268.607 312.193C268.692 312.003 268.719 311.792 268.684 311.587C268.649 311.382 268.555 311.192 268.412 311.041C268.269 310.889 268.085 310.784 267.882 310.737C267.68 310.69 267.467 310.705 267.273 310.778C267.078 310.852 266.91 310.982 266.789 311.151C266.669 311.321 266.601 311.522 266.594 311.73C266.588 311.938 266.643 312.143 266.753 312.32C266.838 312.454 266.953 312.569 267.087 312.654L266.72 314.255H268.553L268.206 312.654Z"
    fill="black" />
  <path
    d="M271.884 308.634V305.786C271.884 304.729 271.269 303.875 270.336 303.875H264.875C263.938 303.875 263.328 304.729 263.328 305.786V308.617"
    stroke="#D9D9D9" stroke-width="1.94" stroke-miterlimit="10" />
  <path
    d="M291.747 274.616V263.248H296.099C298.184 263.248 299.461 264.343 299.461 266.085C299.462 266.656 299.267 267.21 298.911 267.655C298.554 268.1 298.056 268.411 297.5 268.535V268.686C298.199 268.726 298.855 269.037 299.329 269.553C299.803 270.07 300.056 270.75 300.036 271.45C300.036 273.453 298.604 274.644 296.186 274.644L291.747 274.616ZM293.166 268.147H295.447C297.167 268.147 298.043 267.532 298.043 266.323C298.043 265.114 297.221 264.498 295.812 264.498H293.179L293.166 268.147ZM295.985 273.366C297.696 273.366 298.595 272.673 298.595 271.359C298.595 270.045 297.682 269.37 295.857 269.37H293.184V273.366H295.985Z"
    fill="#A7A7A7" />
  <path
    d="M302.18 266.128H303.476V267.387H303.599C303.854 266.561 304.831 265.977 305.957 265.977C306.183 265.976 306.409 265.99 306.633 266.018V267.387C306.346 267.336 306.057 267.308 305.766 267.305C305.481 267.284 305.196 267.322 304.927 267.417C304.658 267.511 304.411 267.66 304.202 267.854C303.992 268.047 303.825 268.282 303.711 268.543C303.596 268.804 303.536 269.086 303.535 269.371V274.618H302.166L302.18 266.128Z"
    fill="#A7A7A7" />
  <path
    d="M307.846 272.241C307.846 270.722 308.968 269.846 310.944 269.727L313.393 269.577V268.806C313.393 267.757 312.741 267.182 311.473 267.182C310.456 267.182 309.748 267.569 309.557 268.24H308.188C308.366 266.871 309.707 265.959 311.519 265.959C313.594 265.959 314.748 267.022 314.748 268.788V274.618H313.457V273.363H313.32C313.048 273.809 312.662 274.174 312.202 274.421C311.742 274.668 311.224 274.788 310.702 274.768C309.046 274.773 307.846 273.792 307.846 272.241ZM313.393 271.452V270.672L311.112 270.822C309.817 270.909 309.251 271.36 309.251 272.191C309.251 273.021 309.981 273.559 310.967 273.559C312.34 273.582 313.371 272.665 313.371 271.452H313.393Z"
    fill="#A7A7A7" />
  <path
    d="M317.235 266.128H318.526V267.465H318.654C319.078 266.552 319.908 265.978 321.208 265.978C323.115 265.978 324.178 267.104 324.178 269.121V274.618H322.81V269.454C322.81 267.925 322.162 267.2 320.807 267.2C319.452 267.2 318.576 268.113 318.576 269.595V274.613H317.207L317.235 266.128Z"
    fill="#A7A7A7" />
  <path
    d="M326.226 270.375C326.226 267.711 327.636 265.977 329.798 265.977C330.336 265.955 330.87 266.082 331.34 266.345C331.811 266.607 332.199 266.995 332.462 267.465H332.576V262.757H333.945V274.618H332.649V273.249H332.526C332.248 273.723 331.847 274.114 331.365 274.379C330.883 274.644 330.338 274.774 329.789 274.755C327.622 274.773 326.226 273.044 326.226 270.375ZM327.631 270.375C327.631 272.36 328.543 273.568 330.113 273.568C331.682 273.568 332.608 272.355 332.608 270.375C332.608 268.395 331.65 267.182 330.113 267.182C328.575 267.182 327.631 268.395 327.631 270.375Z"
    fill="#A7A7A7" />
  <path d="M341.956 277.04V262.757H343.106V277.045L341.956 277.04Z" fill="#A7A7A7" />
  <path
    d="M354.921 274.618H353.58L350.487 263.245H351.965L354.246 272.487H354.342L356.887 263.245H358.32L360.865 272.487H360.961L363.242 263.245H364.72L361.586 274.618H360.249L357.631 265.64H357.54L354.921 274.618Z"
    fill="#A7A7A7" />
  <path
    d="M372.868 272.424C372.457 273.879 371.148 274.773 369.291 274.773C366.932 274.773 365.459 273.067 365.459 270.38C365.459 267.693 366.955 265.978 369.291 265.978C371.627 265.978 372.977 267.606 372.977 270.248V270.768H366.869V270.831C366.942 272.51 367.877 273.569 369.318 273.569C370.413 273.569 371.143 273.167 371.513 272.419L372.868 272.424ZM366.869 269.686H371.549C371.517 268.181 370.637 267.186 369.268 267.186C367.9 267.186 366.973 268.167 366.869 269.673V269.686Z"
    fill="#A7A7A7" />
  <path d="M375.185 262.757H376.554V274.618H375.185V262.757Z" fill="#A7A7A7" />
  <path
    d="M384.829 268.728C384.697 268.259 384.407 267.851 384.008 267.572C383.608 267.293 383.125 267.162 382.639 267.2C381.111 267.2 380.148 268.418 380.148 270.343C380.148 272.268 381.124 273.536 382.639 273.536C383.78 273.536 384.578 273.007 384.829 272.045H386.197C385.951 273.605 384.683 274.782 382.644 274.782C380.262 274.782 378.743 273.053 378.743 270.352C378.743 267.651 380.253 265.986 382.634 265.986C384.696 265.986 385.96 267.223 386.197 268.724L384.829 268.728Z"
    fill="#A7A7A7" />
  <path
    d="M387.776 270.375C387.776 267.638 389.277 265.978 391.695 265.978C394.113 265.978 395.609 267.638 395.609 270.375C395.609 273.112 394.113 274.773 391.695 274.773C389.277 274.773 387.776 273.099 387.776 270.375ZM394.209 270.375C394.209 268.359 393.296 267.182 391.695 267.182C390.094 267.182 389.181 268.341 389.181 270.375C389.181 272.41 390.094 273.569 391.695 273.569C393.296 273.569 394.209 272.383 394.209 270.375Z"
    fill="#A7A7A7" />
  <path
    d="M397.739 266.128H399.03V267.464H399.158C399.349 267 399.68 266.607 400.105 266.34C400.531 266.073 401.029 265.946 401.53 265.977C402.026 265.959 402.516 266.091 402.935 266.357C403.355 266.622 403.684 267.008 403.88 267.464H404.003C404.255 266.999 404.632 266.614 405.092 266.351C405.551 266.088 406.074 265.959 406.603 265.977C408.337 265.977 409.308 266.972 409.308 268.751V274.618H407.94V269.066C407.94 267.811 407.347 267.2 406.151 267.2C405.891 267.191 405.632 267.236 405.389 267.331C405.147 267.426 404.926 267.57 404.742 267.754C404.557 267.938 404.412 268.158 404.315 268.4C404.219 268.642 404.173 268.901 404.181 269.161V274.636H402.812V268.851C402.812 267.843 402.11 267.2 401.038 267.2C400.766 267.21 400.499 267.274 400.252 267.388C400.005 267.502 399.783 267.665 399.6 267.865C399.416 268.066 399.275 268.302 399.183 268.558C399.092 268.814 399.052 269.086 399.067 269.358V274.618H397.698L397.739 266.128Z"
    fill="#A7A7A7" />
  <path
    d="M418.766 272.424C418.355 273.879 417.046 274.773 415.189 274.773C412.83 274.773 411.357 273.067 411.357 270.38C411.357 267.693 412.858 265.978 415.189 265.978C417.52 265.978 418.875 267.606 418.875 270.248V270.768H412.771V270.831C412.84 272.51 413.779 273.569 415.221 273.569C416.316 273.569 417.046 273.167 417.411 272.419L418.766 272.424ZM412.771 269.686H417.447C417.42 268.181 416.535 267.186 415.166 267.186C413.798 267.186 412.871 268.167 412.771 269.673V269.686Z"
    fill="#A7A7A7" />
  <path
    d="M160.694 308.456C160.108 309.042 160.108 309.991 160.694 310.577L170.239 320.123C170.825 320.709 171.775 320.709 172.361 320.123C172.947 319.537 172.947 318.588 172.361 318.002L163.876 309.517L172.361 301.031C172.947 300.446 172.947 299.496 172.361 298.91C171.775 298.324 170.825 298.324 170.239 298.91L160.694 308.456ZM177.508 308.017H161.754V311.017H177.508V308.017Z"
    fill="#999999" />
  <path
    d="M202.949 310.577C203.535 309.991 203.535 309.042 202.949 308.456L193.403 298.91C192.818 298.324 191.868 298.324 191.282 298.91C190.696 299.496 190.696 300.446 191.282 301.031L199.767 309.517L191.282 318.002C190.696 318.588 190.696 319.537 191.282 320.123C191.868 320.709 192.818 320.709 193.403 320.123L202.949 310.577ZM186.135 311.017L201.889 311.017L201.889 308.017L186.135 308.017L186.135 311.017Z"
    fill="#999999" />
  <path
    d="M292.809 316.219C291.975 316.219 291.279 316.102 290.721 315.868C290.163 315.628 289.74 315.301 289.452 314.887C289.164 314.467 289.011 313.987 288.993 313.447H290.343C290.373 313.993 290.592 314.404 291 314.68C291.414 314.95 291.975 315.085 292.683 315.085C293.055 315.085 293.397 315.025 293.709 314.905C294.021 314.785 294.27 314.62 294.456 314.41C294.642 314.2 294.735 313.963 294.735 313.699C294.735 313.363 294.612 313.099 294.366 312.907C294.12 312.715 293.727 312.547 293.187 312.403L291.513 311.863C290.787 311.635 290.229 311.323 289.839 310.927C289.455 310.525 289.263 310.045 289.263 309.487C289.263 308.791 289.569 308.233 290.181 307.813C290.793 307.393 291.597 307.183 292.593 307.183C293.649 307.183 294.468 307.399 295.05 307.831C295.632 308.263 295.935 308.803 295.959 309.451H294.573C294.519 309.073 294.327 308.788 293.997 308.596C293.667 308.398 293.199 308.299 292.593 308.299C292.011 308.299 291.555 308.431 291.225 308.695C290.901 308.953 290.739 309.241 290.739 309.559C290.739 310.153 291.249 310.591 292.269 310.873L293.979 311.449C294.717 311.671 295.281 311.962 295.671 312.322C296.067 312.682 296.265 313.141 296.265 313.699C296.265 314.131 296.124 314.539 295.842 314.923C295.56 315.307 295.161 315.619 294.645 315.859C294.129 316.099 293.517 316.219 292.809 316.219Z"
    fill="white" />
  <path
    d="M305.29 316.003V310.945C305.29 310.123 305.092 309.499 304.696 309.073C304.306 308.641 303.772 308.425 303.094 308.425C302.578 308.425 302.131 308.566 301.753 308.848C301.375 309.13 301.084 309.535 300.88 310.063C300.676 310.585 300.574 311.209 300.574 311.935H300.034C300.034 310.933 300.166 310.078 300.43 309.37C300.694 308.662 301.078 308.122 301.582 307.75C302.092 307.372 302.71 307.183 303.436 307.183C304.114 307.183 304.693 307.336 305.173 307.642C305.659 307.942 306.031 308.374 306.289 308.938C306.547 309.502 306.676 310.171 306.676 310.945V316.003H305.29ZM299.17 316.003V303.727H300.574V316.003H299.17Z"
    fill="white" />
  <path
    d="M313.147 316.219C312.373 316.219 311.683 316.048 311.077 315.706C310.477 315.364 310.003 314.857 309.655 314.185C309.307 313.513 309.133 312.685 309.133 311.701C309.133 310.711 309.307 309.883 309.655 309.217C310.003 308.545 310.477 308.038 311.077 307.696C311.683 307.354 312.373 307.183 313.147 307.183C313.915 307.183 314.599 307.354 315.199 307.696C315.805 308.038 316.279 308.545 316.621 309.217C316.969 309.883 317.143 310.711 317.143 311.701C317.143 312.685 316.969 313.513 316.621 314.185C316.279 314.857 315.805 315.364 315.199 315.706C314.599 316.048 313.915 316.219 313.147 316.219ZM313.111 314.995C313.669 314.995 314.143 314.863 314.533 314.599C314.923 314.329 315.217 313.948 315.415 313.456C315.619 312.964 315.721 312.379 315.721 311.701C315.721 310.675 315.508 309.868 315.082 309.28C314.656 308.686 314.023 308.389 313.183 308.389C312.619 308.389 312.142 308.524 311.752 308.794C311.368 309.058 311.074 309.439 310.87 309.937C310.672 310.429 310.573 311.017 310.573 311.701C310.573 312.715 310.786 313.519 311.212 314.113C311.644 314.701 312.277 314.995 313.111 314.995Z"
    fill="white" />
  <path
    d="M323.783 316.219C323.153 316.219 322.604 316.075 322.136 315.787C321.674 315.499 321.317 315.079 321.065 314.527C320.813 313.969 320.687 313.291 320.687 312.493H321.281C321.281 313.027 321.392 313.477 321.614 313.843C321.836 314.209 322.124 314.488 322.478 314.68C322.838 314.866 323.219 314.959 323.621 314.959C324.053 314.959 324.467 314.836 324.863 314.59C325.259 314.338 325.583 313.969 325.835 313.483C326.087 312.997 326.213 312.397 326.213 311.683C326.213 310.999 326.096 310.414 325.862 309.928C325.634 309.442 325.325 309.07 324.935 308.812C324.545 308.554 324.113 308.425 323.639 308.425C323.231 308.425 322.847 308.524 322.487 308.722C322.127 308.92 321.836 309.211 321.614 309.595C321.392 309.973 321.281 310.441 321.281 310.999H320.687C320.687 310.165 320.825 309.466 321.101 308.902C321.377 308.332 321.752 307.903 322.226 307.615C322.7 307.327 323.231 307.183 323.819 307.183C324.491 307.183 325.118 307.363 325.7 307.723C326.282 308.083 326.753 308.599 327.113 309.271C327.473 309.943 327.653 310.747 327.653 311.683C327.653 312.631 327.47 313.444 327.104 314.122C326.744 314.8 326.27 315.319 325.682 315.679C325.094 316.039 324.461 316.219 323.783 316.219ZM319.877 320.233V307.399H321.047L321.281 309.415V320.233H319.877Z"
    fill="white" />
  <path
    d="M329.128 315.166C329.128 314.884 329.227 314.641 329.425 314.437C329.623 314.233 329.872 314.131 330.172 314.131C330.472 314.131 330.727 314.233 330.937 314.437C331.147 314.641 331.252 314.884 331.252 315.166C331.252 315.448 331.147 315.685 330.937 315.877C330.727 316.069 330.472 316.165 330.172 316.165C329.872 316.165 329.623 316.069 329.425 315.877C329.227 315.679 329.128 315.442 329.128 315.166Z"
    fill="white" />
  <path
    d="M345.719 316.003V310.945C345.719 310.123 345.521 309.499 345.125 309.073C344.735 308.641 344.207 308.425 343.541 308.425C342.761 308.425 342.164 308.728 341.75 309.334C341.336 309.934 341.129 310.765 341.129 311.827H340.481C340.481 311.053 340.556 310.375 340.706 309.793C340.862 309.211 341.087 308.728 341.381 308.344C341.675 307.954 342.032 307.663 342.452 307.471C342.872 307.279 343.349 307.183 343.883 307.183C344.561 307.183 345.14 307.336 345.62 307.642C346.106 307.942 346.478 308.374 346.736 308.938C346.994 309.502 347.123 310.171 347.123 310.945V316.003H345.719ZM333.623 316.003V307.399H334.829L334.991 309.127C335.261 308.503 335.639 308.023 336.125 307.687C336.617 307.351 337.205 307.183 337.889 307.183C338.567 307.183 339.146 307.336 339.626 307.642C340.112 307.942 340.484 308.374 340.742 308.938C341 309.502 341.129 310.171 341.129 310.945V316.003H339.743V310.945C339.743 310.123 339.545 309.499 339.149 309.073C338.759 308.641 338.225 308.425 337.547 308.425C337.031 308.425 336.584 308.566 336.206 308.848C335.828 309.13 335.537 309.535 335.333 310.063C335.129 310.585 335.027 311.209 335.027 311.935V316.003H333.623Z"
    fill="white" />
  <path
    d="M349.041 307.399H350.607L353.415 314.779H353.091L355.269 307.399H356.709L353.469 317.731C353.199 318.595 352.839 319.261 352.389 319.729C351.939 320.197 351.363 320.431 350.661 320.431C350.283 320.431 349.923 320.377 349.581 320.269C349.245 320.161 348.897 320.005 348.537 319.801V318.505C348.855 318.757 349.161 318.937 349.455 319.045C349.755 319.153 350.067 319.207 350.391 319.207C350.751 319.207 351.051 319.093 351.291 318.865C351.537 318.637 351.741 318.343 351.903 317.983C352.065 317.629 352.203 317.257 352.317 316.867L352.569 316.003L349.041 307.399Z"
    fill="white" />
  <path
    d="M362.79 316.219C362.214 316.219 361.692 316.069 361.224 315.769C360.762 315.469 360.393 315.031 360.117 314.455C359.847 313.873 359.712 313.165 359.712 312.331H360.252C360.252 312.889 360.366 313.366 360.594 313.762C360.828 314.152 361.128 314.449 361.494 314.653C361.86 314.857 362.244 314.959 362.646 314.959C363.108 314.959 363.531 314.827 363.915 314.563C364.299 314.299 364.605 313.921 364.833 313.429C365.067 312.937 365.184 312.349 365.184 311.665C365.184 310.993 365.07 310.417 364.842 309.937C364.614 309.451 364.305 309.079 363.915 308.821C363.531 308.557 363.102 308.425 362.628 308.425C362.22 308.425 361.833 308.527 361.467 308.731C361.107 308.929 360.813 309.223 360.585 309.613C360.363 310.003 360.252 310.483 360.252 311.053H359.712C359.712 310.237 359.844 309.541 360.108 308.965C360.378 308.389 360.75 307.948 361.224 307.642C361.698 307.336 362.25 307.183 362.88 307.183C363.558 307.183 364.179 307.366 364.743 307.732C365.313 308.092 365.769 308.608 366.111 309.28C366.453 309.952 366.624 310.747 366.624 311.665C366.624 312.589 366.45 313.393 366.102 314.077C365.754 314.755 365.289 315.283 364.707 315.661C364.125 316.033 363.486 316.219 362.79 316.219ZM358.848 316.003V303.727H360.252V313.987L359.838 316.003H358.848Z"
    fill="white" />
  <path
    d="M369.518 316.003V307.381H370.922V316.003H369.518ZM370.49 312.115C370.49 311.023 370.595 310.117 370.805 309.397C371.015 308.671 371.321 308.131 371.723 307.777C372.131 307.417 372.626 307.237 373.208 307.237C373.4 307.237 373.574 307.252 373.73 307.282C373.892 307.306 374.054 307.345 374.216 307.399L374.126 308.785C373.958 308.731 373.775 308.686 373.577 308.65C373.379 308.608 373.202 308.587 373.046 308.587C372.536 308.587 372.125 308.734 371.813 309.028C371.501 309.316 371.273 309.724 371.129 310.252C370.991 310.78 370.922 311.401 370.922 312.115H370.49Z"
    fill="white" />
  <path
    d="M381.35 316.003L381.17 314.113V310.423C381.17 309.649 381.005 309.094 380.675 308.758C380.345 308.416 379.85 308.245 379.19 308.245C378.818 308.245 378.479 308.299 378.173 308.407C377.873 308.515 377.633 308.683 377.453 308.911C377.279 309.133 377.192 309.421 377.192 309.775H375.626C375.626 309.151 375.779 308.65 376.085 308.272C376.391 307.888 376.811 307.612 377.345 307.444C377.885 307.27 378.5 307.183 379.19 307.183C379.85 307.183 380.435 307.294 380.945 307.516C381.455 307.738 381.854 308.092 382.142 308.578C382.43 309.058 382.574 309.685 382.574 310.459V316.003H381.35ZM378.416 316.219C377.708 316.219 377.123 316.093 376.661 315.841C376.199 315.589 375.854 315.262 375.626 314.86C375.398 314.458 375.284 314.035 375.284 313.591C375.284 313.009 375.428 312.535 375.716 312.169C376.01 311.803 376.409 311.536 376.913 311.368C377.417 311.194 377.984 311.107 378.614 311.107C379.064 311.107 379.514 311.152 379.964 311.242C380.42 311.332 380.864 311.455 381.296 311.611V312.493C380.936 312.349 380.528 312.235 380.072 312.151C379.622 312.067 379.208 312.025 378.83 312.025C378.254 312.025 377.768 312.145 377.372 312.385C376.976 312.619 376.778 313.021 376.778 313.591C376.778 314.011 376.928 314.371 377.228 314.671C377.534 314.971 378.02 315.121 378.686 315.121C379.154 315.121 379.574 315.013 379.946 314.797C380.324 314.575 380.621 314.299 380.837 313.969C381.059 313.639 381.17 313.309 381.17 312.979H381.512C381.512 313.555 381.386 314.089 381.134 314.581C380.888 315.073 380.534 315.469 380.072 315.769C379.61 316.069 379.058 316.219 378.416 316.219Z"
    fill="white" />
  <path
    d="M392.056 316.003V310.945C392.056 310.123 391.858 309.499 391.462 309.073C391.072 308.641 390.538 308.425 389.86 308.425C389.344 308.425 388.897 308.566 388.519 308.848C388.141 309.13 387.85 309.535 387.646 310.063C387.442 310.585 387.34 311.209 387.34 311.935H386.8C386.8 310.933 386.932 310.078 387.196 309.37C387.46 308.662 387.844 308.122 388.348 307.75C388.858 307.372 389.476 307.183 390.202 307.183C390.88 307.183 391.459 307.336 391.939 307.642C392.425 307.942 392.797 308.374 393.055 308.938C393.313 309.502 393.442 310.171 393.442 310.945V316.003H392.056ZM385.936 316.003V307.399H387.142L387.34 309.379V316.003H385.936Z"
    fill="white" />
  <path
    d="M399.877 316.219C399.181 316.219 398.542 316.033 397.96 315.661C397.378 315.283 396.913 314.755 396.565 314.077C396.217 313.393 396.043 312.589 396.043 311.665C396.043 310.747 396.214 309.952 396.556 309.28C396.898 308.608 397.351 308.092 397.915 307.732C398.485 307.366 399.109 307.183 399.787 307.183C400.417 307.183 400.969 307.336 401.443 307.642C401.923 307.948 402.295 308.389 402.559 308.965C402.823 309.541 402.955 310.237 402.955 311.053H402.415C402.415 310.483 402.301 310.003 402.073 309.613C401.851 309.223 401.56 308.929 401.2 308.731C400.84 308.527 400.453 308.425 400.039 308.425C399.571 308.425 399.142 308.557 398.752 308.821C398.368 309.079 398.059 309.451 397.825 309.937C397.597 310.417 397.483 310.993 397.483 311.665C397.483 312.349 397.597 312.937 397.825 313.429C398.059 313.921 398.368 314.299 398.752 314.563C399.142 314.827 399.571 314.959 400.039 314.959C400.429 314.959 400.804 314.857 401.164 314.653C401.53 314.449 401.83 314.152 402.064 313.762C402.298 313.366 402.415 312.889 402.415 312.331H402.955C402.955 313.165 402.817 313.873 402.541 314.455C402.271 315.031 401.902 315.469 401.434 315.769C400.972 316.069 400.453 316.219 399.877 316.219ZM402.649 316.003L402.415 313.987V303.727H403.819V316.003H402.649Z"
    fill="white" />
  <path d="M406.677 317.299L411.195 302.845H412.635L408.081 317.299H406.677Z" fill="white" />
  <circle cx="168.506" cy="260.006" r="5.50135" stroke="#C4C4C4" />
  <circle cx="185.76" cy="260.006" r="5.50135" stroke="#C4C4C4" />
  <circle cx="203.014" cy="260.006" r="5.50135" stroke="#C4C4C4" />
  <path
    d="M456.889 139.999H446.659C445.191 139.999 444 141.19 444 142.658V152.888C444 154.357 445.191 155.548 446.659 155.548H456.889C458.358 155.548 459.548 154.357 459.548 152.888V142.658C459.548 141.19 458.358 139.999 456.889 139.999Z"
    fill="#3783A1" />
  <path
    d="M486.118 139.999H475.888C474.42 139.999 473.229 141.19 473.229 142.658V152.888C473.229 154.357 474.42 155.548 475.888 155.548H486.118C487.587 155.548 488.777 154.357 488.777 152.888V142.658C488.777 141.19 487.587 139.999 486.118 139.999Z"
    fill="#3783A1" />
  <path
    d="M515.352 139.999H505.122C503.654 139.999 502.463 141.19 502.463 142.658V152.888C502.463 154.357 503.654 155.548 505.122 155.548H515.352C516.821 155.548 518.011 154.357 518.011 152.888V142.658C518.011 141.19 516.821 139.999 515.352 139.999Z"
    fill="#3783A1" />
  <path
    d="M544.581 139.999H534.351C532.883 139.999 531.692 141.19 531.692 142.658V152.888C531.692 154.357 532.883 155.548 534.351 155.548H544.581C546.05 155.548 547.241 154.357 547.241 152.888V142.658C547.241 141.19 546.05 139.999 544.581 139.999Z"
    fill="#3783A1" />
  <path
    d="M523.317 198H511.209V200.066H516.034V213H518.538V200.066H523.317V198ZM538.111 198L534.424 212.102H534.014L530.373 198H525.229V213H527.778V199.976L527.596 198.898H528.006L531.647 213H536.837L540.433 198.898H540.888L540.66 199.976V213H543.209V198H538.111Z"
    fill="#287984" fill-opacity="0.25" />
  <path
    d="M453.219 193C455.569 193 457.864 193.606 460.103 194.818C462.342 196.018 464.086 197.744 465.335 199.995C466.585 202.234 467.209 204.572 467.209 207.009C467.209 209.421 466.591 211.741 465.354 213.968C464.129 216.194 462.404 217.926 460.177 219.163C457.963 220.388 455.643 221 453.219 221C450.794 221 448.468 220.388 446.242 219.163C444.028 217.926 442.302 216.194 441.065 213.968C439.828 211.741 439.209 209.421 439.209 207.009C439.209 204.572 439.834 202.234 441.083 199.995C442.345 197.744 444.096 196.018 446.335 194.818C448.574 193.606 450.868 193 453.219 193ZM453.219 195.319C451.252 195.319 449.334 195.827 447.467 196.841C445.611 197.843 444.157 199.284 443.106 201.164C442.055 203.032 441.529 204.981 441.529 207.009C441.529 209.026 442.042 210.962 443.069 212.817C444.108 214.66 445.555 216.101 447.411 217.14C449.266 218.167 451.202 218.681 453.219 218.681C455.235 218.681 457.171 218.167 459.026 217.14C460.882 216.101 462.323 214.66 463.35 212.817C464.377 210.962 464.89 209.026 464.89 207.009C464.89 204.981 464.364 203.032 463.313 201.164C462.274 199.284 460.82 197.843 458.952 196.841C457.084 195.827 455.173 195.319 453.219 195.319ZM447.077 214.747V199.68H452.254C454.023 199.68 455.303 199.822 456.095 200.107C456.886 200.379 457.517 200.861 457.987 201.554C458.457 202.247 458.692 202.983 458.692 203.762C458.692 204.863 458.297 205.822 457.505 206.638C456.726 207.455 455.687 207.912 454.388 208.011C454.92 208.234 455.346 208.5 455.668 208.809C456.274 209.403 457.016 210.399 457.895 211.797L459.732 214.747H456.763L455.427 212.372C454.375 210.504 453.528 209.335 452.885 208.865C452.439 208.518 451.79 208.345 450.936 208.345H449.508V214.747H447.077ZM449.508 206.267H452.458C453.868 206.267 454.827 206.057 455.334 205.636C455.854 205.216 456.113 204.659 456.113 203.966C456.113 203.521 455.99 203.125 455.742 202.779C455.495 202.42 455.148 202.154 454.703 201.981C454.27 201.808 453.46 201.721 452.272 201.721H449.508V206.267Z"
    fill="white" fill-opacity="0.25" />
  <path
    d="M489.219 193C491.569 193 493.864 193.606 496.103 194.818C498.342 196.018 500.086 197.744 501.335 199.995C502.585 202.234 503.209 204.572 503.209 207.009C503.209 209.421 502.591 211.741 501.354 213.968C500.129 216.194 498.404 217.926 496.177 219.163C493.963 220.388 491.643 221 489.219 221C486.794 221 484.468 220.388 482.242 219.163C480.028 217.926 478.302 216.194 477.065 213.968C475.828 211.741 475.209 209.421 475.209 207.009C475.209 204.572 475.834 202.234 477.083 199.995C478.345 197.744 480.096 196.018 482.335 194.818C484.574 193.606 486.868 193 489.219 193ZM489.219 195.319C487.252 195.319 485.334 195.827 483.467 196.841C481.611 197.843 480.157 199.284 479.106 201.164C478.055 203.032 477.529 204.981 477.529 207.009C477.529 209.026 478.042 210.962 479.069 212.817C480.108 214.66 481.555 216.101 483.411 217.14C485.266 218.167 487.202 218.681 489.219 218.681C491.235 218.681 493.171 218.167 495.026 217.14C496.882 216.101 498.323 214.66 499.35 212.817C500.377 210.962 500.89 209.026 500.89 207.009C500.89 204.981 500.364 203.032 499.313 201.164C498.274 199.284 496.82 197.843 494.952 196.841C493.084 195.827 491.173 195.319 489.219 195.319ZM493.709 209.273L495.991 209.941C495.62 211.487 494.829 212.724 493.616 213.652C492.416 214.567 490.957 215.025 489.237 215.025C487.06 215.025 485.291 214.32 483.93 212.91C482.57 211.5 481.889 209.545 481.889 207.046C481.889 205.414 482.199 203.997 482.817 202.797C483.436 201.585 484.314 200.676 485.452 200.07C486.602 199.451 487.914 199.142 489.386 199.142C491.031 199.142 492.398 199.538 493.486 200.329C494.575 201.109 495.317 202.173 495.713 203.521L493.505 204.059C493.134 203.144 492.583 202.445 491.854 201.962C491.136 201.467 490.289 201.22 489.311 201.22C487.889 201.22 486.714 201.727 485.786 202.742C484.871 203.756 484.413 205.209 484.413 207.102C484.413 208.995 484.846 210.43 485.712 211.407C486.59 212.372 487.722 212.854 489.107 212.854C490.221 212.854 491.198 212.533 492.039 211.889C492.88 211.246 493.437 210.374 493.709 209.273Z"
    fill="#2E598C" fill-opacity="0.69" />
  <path
    d="M395.364 221.143C395.364 221.313 395.296 221.477 395.175 221.597C395.055 221.718 394.891 221.785 394.721 221.785C394.551 221.785 394.387 221.718 394.267 221.597C394.146 221.477 394.078 221.313 394.078 221.143C394.172 217.063 394.742 213.007 395.775 209.059C393.215 210.206 390.519 211.024 387.754 211.495C387.583 211.522 387.409 211.481 387.269 211.38C387.129 211.278 387.035 211.126 387.008 210.955C386.981 210.785 387.022 210.61 387.124 210.471C387.225 210.331 387.378 210.237 387.548 210.21C390.544 209.702 393.454 208.776 396.193 207.459C396.718 205.559 397.342 203.688 398.063 201.854C400.801 194.964 404.092 191.48 407.287 193.633C410.481 195.787 409.061 199.778 404.459 203.731C402.272 205.571 399.864 207.132 397.292 208.378C396.129 212.538 395.481 216.825 395.364 221.143V221.143ZM403.623 202.741C407.672 199.257 408.765 196.166 406.58 194.681C404.394 193.196 401.714 196.153 399.252 202.342C398.712 203.705 398.211 205.177 397.755 206.687C399.85 205.592 401.818 204.268 403.623 202.741ZM404.793 211.334C404.731 211.397 404.658 211.446 404.577 211.479C404.496 211.513 404.409 211.529 404.321 211.527C404.233 211.525 404.147 211.506 404.067 211.469C403.988 211.433 403.916 211.381 403.857 211.316C403.799 211.251 403.754 211.174 403.726 211.092C403.697 211.009 403.686 210.921 403.693 210.833C403.7 210.746 403.725 210.661 403.766 210.584C403.807 210.506 403.863 210.438 403.931 210.383L409.568 205.312C409.822 205.085 410.155 204.968 410.495 204.986C410.834 205.004 411.153 205.156 411.381 205.408C411.522 205.563 411.621 205.751 411.67 205.955L412.48 209.168L416.336 206.597C416.616 206.414 416.957 206.346 417.286 206.41C417.615 206.473 417.906 206.663 418.097 206.938L419.422 208.821L428.645 206.81C428.811 206.773 428.985 206.804 429.128 206.896C429.272 206.987 429.373 207.132 429.41 207.298C429.428 207.381 429.429 207.466 429.414 207.549C429.399 207.633 429.367 207.712 429.321 207.783C429.275 207.854 429.216 207.916 429.146 207.964C429.076 208.012 428.998 208.045 428.915 208.063L419.698 210.113C419.45 210.166 419.193 210.145 418.957 210.053C418.722 209.96 418.519 209.8 418.374 209.593L417.05 207.703L413.193 210.274C413.07 210.351 412.936 210.41 412.795 210.447C412.464 210.529 412.115 210.476 411.823 210.3C411.531 210.124 411.321 209.84 411.239 209.509L410.43 206.295L404.793 211.334Z"
    fill="#3783A1" />
  <defs>
    <linearGradient id="paint0_linear_500_3" x1="374" y1="0" x2="374" y2="140" gradientUnits="userSpaceOnUse">
      <stop offset="0.578125" stop-color="#C4C4C4" />
      <stop offset="1" stop-color="#C4C4C4" stop-opacity="0" />
    </linearGradient>
  </defs>
</svg>