<svg width="176" height="170" viewBox="0 0 176 170" fill="none" xmlns="http://www.w3.org/2000/svg">
<path d="M42.4566 1H134.519V168.965H0.66626V42.7368L42.4566 1ZM42.4566 1V42.8975H0.66626L42.4566 1Z" fill="white" stroke="#0F1522" stroke-linejoin="round"/>
<path d="M68.3045 118.592C84.9053 118.592 98.363 105.134 98.363 88.5333C98.363 71.9325 84.9053 58.4749 68.3045 58.4749C51.7036 58.4749 38.246 71.9325 38.246 88.5333C38.246 105.134 51.7036 118.592 68.3045 118.592Z" stroke="#0F1522" stroke-width="1.5" stroke-miterlimit="10"/>
<path d="M68.3041 58.4766V118.592" stroke="#0F1522" stroke-width="1.5" stroke-miterlimit="10"/>
<path d="M38.246 88.5342H98.3611" stroke="#0F1522" stroke-width="1.5" stroke-miterlimit="10"/>
<path d="M91.118 68.7361C86.212 71.7828 77.8605 73.7882 68.38 73.7882C58.9407 73.7882 50.6184 71.8 45.6969 68.7739" stroke="#0F1522" stroke-width="1.5" stroke-miterlimit="10"/>
<path d="M46.0375 108.724C50.9882 105.802 59.1507 103.912 68.3769 103.912C77.5446 103.912 85.659 105.789 90.62 108.669" stroke="#0F1522" stroke-width="1.5" stroke-miterlimit="10"/>
<path d="M68.3048 118.439C75.192 118.439 80.7753 105.016 80.7753 88.4577C80.7753 71.8996 75.192 58.4766 68.3048 58.4766C61.4175 58.4766 55.8342 71.8996 55.8342 88.4577C55.8342 105.016 61.4175 118.439 68.3048 118.439Z" stroke="#0F1522" stroke-width="1.5" stroke-miterlimit="10"/>
<path d="M122.429 100.341L122.248 135.73V154.635H125.707L125.803 137.607C129.165 139.1 132.755 139.873 136.38 139.885C140.958 139.913 145.48 138.768 149.587 136.54C153.186 134.532 157.168 133.495 161.202 133.515C165.237 133.534 169.209 134.611 172.792 136.655L175.387 138.313L175.638 102.447L174.773 101.904C170.692 99.5545 166.162 98.3079 161.557 98.2664C156.953 98.225 152.405 99.39 148.29 101.665C144.821 103.565 141.012 104.586 137.139 104.656C133.267 104.725 129.429 103.84 125.906 102.066V100.35" fill="#0F95A7"/>
</svg>
