<svg width="35" height="35" viewBox="0 0 35 35" fill="none" xmlns="http://www.w3.org/2000/svg">
  <path
    d="M17.6058 34.2115C26.7769 34.2115 34.2115 26.7769 34.2115 17.6058C34.2115 8.4347 26.7769 1.00006 17.6058 1.00006C8.43473 1.00006 1.00009 8.4347 1.00009 17.6058C1.00009 26.7769 8.43473 34.2115 17.6058 34.2115Z"
    stroke="#999999" stroke-miterlimit="10" />
  <path d="M17.6055 1V34.2105" stroke="#999999" stroke-miterlimit="10" />
  <path d="M1 17.6058H34.2105" stroke="#999999" stroke-miterlimit="10" />
  <path
    d="M30.2089 6.66846C27.4986 8.35162 22.8848 9.4595 17.6474 9.4595C12.4327 9.4595 7.83507 8.36112 5.11618 6.68934"
    stroke="#999999" stroke-miterlimit="10" />
  <path
    d="M5.30435 28.7594C8.03938 27.1455 12.5487 26.1013 17.6457 26.1013C22.7104 26.1013 27.1931 27.1379 29.9339 28.729"
    stroke="#999999" stroke-miterlimit="10" />
  <path
    d="M17.6057 34.126C21.4105 34.126 24.495 26.7105 24.495 17.563C24.495 8.41551 21.4105 1 17.6057 1C13.8008 1 10.7164 8.41551 10.7164 17.563C10.7164 26.7105 13.8008 34.126 17.6057 34.126Z"
    stroke="#999999" stroke-miterlimit="10" />
</svg>