<svg width="302" height="546" viewBox="0 0 302 546" fill="none" xmlns="http://www.w3.org/2000/svg">
  <path d="M2.00085 282V319.992L74.7857 385.893H227.537L300.322 319.992V282" stroke="white" stroke-miterlimit="10" />
  <path d="M74.7848 351.265V385.893" stroke="#292323" stroke-miterlimit="10" />
  <path d="M227.532 351.265V385.893" stroke="white" stroke-miterlimit="10" />
  <path d="M2.00085 282L74.7857 351.265H227.537L300.322 282H2.00085Z" stroke="white" stroke-miterlimit="10" />
  <path d="M300.321 545.017V507.026L227.537 441.125H74.7848L2 507.026V545.017" stroke="white" stroke-miterlimit="10" />
  <path d="M227.536 475.752V441.125" stroke="white" stroke-miterlimit="10" />
  <path d="M74.7942 475.752V441.125" stroke="white" stroke-miterlimit="10" />
  <path d="M300.321 545.017L227.537 475.752H74.7848L2 545.017H300.321Z" stroke="white" stroke-miterlimit="10" />
  <path
    d="M152.395 261.516C224.334 261.516 282.652 203.198 282.652 131.258C282.652 59.3187 224.334 1.00024 152.395 1.00024C80.4551 1.00024 22.1367 59.3187 22.1367 131.258C22.1367 203.198 80.4551 261.516 152.395 261.516Z"
    stroke="white" stroke-miterlimit="10" />
  <path d="M152.392 1V261.508" stroke="white" stroke-miterlimit="10" />
  <path d="M22.136 131.259H282.644" stroke="white" stroke-miterlimit="10" />
  <path
    d="M251.255 45.4644C229.995 58.6674 193.804 67.3577 152.721 67.3577C111.816 67.3577 75.7513 58.7418 54.424 45.6282"
    stroke="white" stroke-miterlimit="10" />
  <path d="M55.9 218.749C77.354 206.089 112.726 197.898 152.707 197.898C192.436 197.898 227.599 206.03 249.098 218.511"
    stroke="white" stroke-miterlimit="10" />
  <path
    d="M152.393 260.846C182.239 260.846 206.434 202.677 206.434 130.923C206.434 59.1684 182.239 1 152.393 1C122.548 1 98.3527 59.1684 98.3527 130.923C98.3527 202.677 122.548 260.846 152.393 260.846Z"
    stroke="white" stroke-miterlimit="10" />
  <rect x="13.6644" y="100.011" width="274.08" height="61.1149" rx="4.5" fill="#000B18" stroke="white" />
  <path
    d="M31.3599 126.633H32.9799L35.4199 134.613H35.2199L37.5999 127.093H38.8999L41.2599 134.633H41.0799L43.5199 126.633H45.0799L41.9399 136.193H40.4199L38.0999 129.133H38.3399L36.0399 136.193H34.5199L31.3599 126.633Z"
    fill="white" />
  <path
    d="M45.8521 126.633H47.4721L49.9121 134.613H49.7121L52.0921 127.093H53.3921L55.7521 134.633H55.5721L58.0121 126.633H59.5721L56.4321 136.193H54.9121L52.5921 129.133H52.8321L50.5321 136.193H49.0121L45.8521 126.633Z"
    fill="white" />
  <path
    d="M60.3442 126.633H61.9642L64.4042 134.613H64.2042L66.5842 127.093H67.8842L70.2442 134.633H70.0642L72.5042 126.633H74.0642L70.9242 136.193H69.4042L67.0842 129.133H67.3242L65.0242 136.193H63.5042L60.3442 126.633Z"
    fill="white" />
  <path
    d="M75.0764 135.263C75.0764 134.949 75.1864 134.679 75.4064 134.453C75.6264 134.226 75.9031 134.113 76.2364 134.113C76.5698 134.113 76.8531 134.226 77.0864 134.453C77.3198 134.679 77.4364 134.949 77.4364 135.263C77.4364 135.576 77.3198 135.839 77.0864 136.053C76.8531 136.266 76.5698 136.373 76.2364 136.373C75.9031 136.373 75.6264 136.266 75.4064 136.053C75.1864 135.833 75.0764 135.569 75.0764 135.263Z"
    fill="white" />
  <g filter="url(#filter0_f_477_147)">
    <rect x="226.13" y="106.413" width="46.3397" height="46.3397" rx="10" fill="#6EDEE6" />
  </g>
  <rect x="226.13" y="106.413" width="46.3397" height="46.3397" rx="10" fill="#0F95A7" />
  <path
    d="M243.262 134.742C242.674 134.742 242.107 134.661 241.561 134.499C241.015 134.331 240.523 134.091 240.085 133.779C239.653 133.461 239.311 133.068 239.059 132.6C238.807 132.126 238.681 131.58 238.681 130.962H240.463C240.481 131.43 240.613 131.829 240.859 132.159C241.105 132.489 241.435 132.741 241.849 132.915C242.263 133.083 242.734 133.167 243.262 133.167C244.054 133.167 244.669 132.978 245.107 132.6C245.551 132.222 245.773 131.748 245.773 131.178C245.773 130.812 245.68 130.491 245.494 130.215C245.314 129.939 245.029 129.726 244.639 129.576C244.255 129.42 243.754 129.342 243.136 129.342H241.741V127.992H242.803C243.595 127.992 244.219 127.83 244.675 127.506C245.131 127.176 245.359 126.729 245.359 126.165C245.359 125.661 245.17 125.238 244.792 124.896C244.414 124.554 243.865 124.383 243.145 124.383C242.575 124.383 242.068 124.5 241.624 124.734C241.18 124.962 240.886 125.373 240.742 125.967H238.969C239.059 125.223 239.293 124.62 239.671 124.158C240.049 123.696 240.532 123.36 241.12 123.15C241.708 122.94 242.365 122.835 243.091 122.835C243.877 122.835 244.579 122.97 245.197 123.24C245.821 123.504 246.31 123.873 246.664 124.347C247.018 124.821 247.195 125.367 247.195 125.985C247.195 126.579 247.027 127.092 246.691 127.524C246.361 127.95 245.878 128.277 245.242 128.505C245.95 128.721 246.526 129.066 246.97 129.54C247.414 130.008 247.636 130.602 247.636 131.322C247.636 131.988 247.456 132.579 247.096 133.095C246.736 133.611 246.229 134.016 245.575 134.31C244.921 134.598 244.15 134.742 243.262 134.742Z"
    fill="white" />
  <path
    d="M249.148 133.5C249.148 133.164 249.262 132.879 249.49 132.645C249.724 132.411 250.018 132.294 250.372 132.294C250.726 132.294 251.026 132.411 251.272 132.645C251.518 132.879 251.641 133.164 251.641 133.5C251.641 133.83 251.518 134.109 251.272 134.337C251.026 134.559 250.726 134.67 250.372 134.67C250.018 134.67 249.724 134.556 249.49 134.328C249.262 134.1 249.148 133.824 249.148 133.5Z"
    fill="white" />
  <path
    d="M257.65 134.742C256.732 134.742 255.925 134.523 255.229 134.085C254.539 133.647 254.002 132.987 253.618 132.105C253.234 131.223 253.042 130.113 253.042 128.775C253.042 127.443 253.234 126.336 253.618 125.454C254.002 124.572 254.539 123.915 255.229 123.483C255.925 123.051 256.732 122.835 257.65 122.835C258.562 122.835 259.363 123.051 260.053 123.483C260.743 123.915 261.28 124.572 261.664 125.454C262.054 126.336 262.249 127.443 262.249 128.775C262.249 130.113 262.054 131.223 261.664 132.105C261.28 132.987 260.743 133.647 260.053 134.085C259.363 134.523 258.562 134.742 257.65 134.742ZM257.65 133.167C258.562 133.167 259.261 132.789 259.747 132.033C260.239 131.271 260.485 130.185 260.485 128.775C260.485 127.371 260.239 126.288 259.747 125.526C259.261 124.764 258.562 124.383 257.65 124.383C256.738 124.383 256.036 124.764 255.544 125.526C255.058 126.288 254.815 127.371 254.815 128.775C254.815 130.185 255.058 131.271 255.544 132.033C256.036 132.789 256.738 133.167 257.65 133.167Z"
    fill="white" />
  <path
    d="M255.641 166.074L260.922 177.401L262.995 176.53L257.936 165.317H267.54L248.807 144.865V172.068L255.641 166.074Z"
    fill="white" stroke="#001830" stroke-miterlimit="10" />
  <defs>
    <filter id="filter0_f_477_147" x="206.13" y="86.4126" width="86.3396" height="86.3397" filterUnits="userSpaceOnUse"
      color-interpolation-filters="sRGB">
      <feFlood flood-opacity="0" result="BackgroundImageFix" />
      <feBlend mode="normal" in="SourceGraphic" in2="BackgroundImageFix" result="shape" />
      <feGaussianBlur stdDeviation="10" result="effect1_foregroundBlur_477_147" />
    </filter>
  </defs>
</svg>