<svg width="222" height="238" viewBox="0 0 222 238" fill="none" xmlns="http://www.w3.org/2000/svg">
<path d="M19.751 153.229L126.609 91.1279C118.585 95.7882 113.595 105.702 113.551 119.815L6.71533 181.894C6.7593 167.803 11.7274 157.889 19.751 153.229Z" fill="#001020"/>
<path d="M19.751 153.228L126.609 91.127C123.451 92.986 120.789 95.5802 118.849 98.689L12.0132 160.79C13.9386 157.677 16.5947 155.081 19.751 153.228" fill="#001020"/>
<path d="M12.0135 160.79L118.849 98.689C118.236 99.6755 117.678 100.696 117.178 101.745L10.3208 163.846C10.8229 162.794 11.3882 161.773 12.0135 160.79Z" fill="#001020"/>
<path d="M10.3204 163.845L117.178 101.744C116.782 102.557 116.431 103.415 116.101 104.294L9.19922 166.395C9.50702 165.528 9.85916 164.676 10.2543 163.845" fill="#001020"/>
<path d="M9.19857 166.396L116.034 104.295C115.748 105.064 115.485 105.834 115.243 106.647L8.40723 168.748C8.64904 167.935 8.9128 167.143 9.19857 166.396Z" fill="#001020"/>
<path d="M8.47381 168.747L115.31 106.646C115.09 107.394 114.892 108.141 114.716 108.845L7.88037 170.924C8.05623 170.154 8.25398 169.385 8.47381 168.725" fill="#001020"/>
<path d="M7.88109 171.012L114.717 109.043C114.563 109.746 114.409 110.494 114.277 111.241L7.44141 173.342C7.5733 172.595 7.72721 171.869 7.88109 171.144" fill="#001020"/>
<path d="M7.4421 173.21L114.278 111.109C114.278 111.813 114.058 112.538 113.97 113.308L7.1123 175.387C7.22222 174.661 7.3102 173.958 7.4421 173.188" fill="#001020"/>
<path d="M7.11086 175.342L113.968 113.263C113.968 113.967 113.793 114.67 113.749 115.461L7.00098 177.496C7.00098 176.771 7.13282 176.046 7.22075 175.298" fill="#001020"/>
<path d="M7.00203 177.496L113.86 115.417C113.86 116.099 113.86 116.802 113.728 117.506L6.76025 179.607C6.76025 178.889 6.80421 178.156 6.89214 177.409" fill="#001020"/>
<path d="M6.76025 179.607L113.618 117.506C113.618 118.232 113.618 118.957 113.618 119.705L6.78226 181.784C6.78226 181.058 6.78226 180.333 6.78226 179.585" fill="#001020"/>
<path d="M6.71533 181.762L113.551 119.683V119.815L6.71533 181.893V181.762Z" fill="#001020"/>
<path d="M19.751 153.229L126.609 91.1279C118.585 95.7882 113.595 105.702 113.551 119.815L6.71533 181.894C6.7593 167.803 11.7274 157.889 19.751 153.229Z" stroke="white" stroke-linejoin="round"/>
<path d="M102.164 120.958L101.834 236.806L96.1188 233.509C96.1188 205.151 76.3345 170.594 51.5821 156.328C26.8296 142.061 6.80336 153.514 6.71543 181.893L1 178.596L1.32966 62.7256L102.164 120.958Z" fill="#001020" stroke="white" stroke-linejoin="round"/>
<path d="M102.164 120.935L209 58.8564L208.692 174.727L101.834 236.806L102.164 120.935Z" fill="#001020" stroke="white" stroke-linejoin="round"/>
<path d="M1.32983 62.7255L108.166 0.646484L209 58.8565L102.164 120.936L1.32983 62.7255Z" fill="#001020" stroke="white" stroke-linejoin="round"/>
<path d="M209.4 2.43213H211.08V13.4961H221.592V14.9361H211.08V26.0001H209.4V14.9361H198.864V13.4961H209.4V2.43213Z" fill="white"/>
</svg>
