<svg width="100%" viewBox="0 0 281 220" fill="none" xmlns="http://www.w3.org/2000/svg">
  <path
    d="M254.167 139.385L155.601 82.0632C162.257 77.8406 167.579 71.8163 170.949 64.6899L269.609 122.012C266.221 129.155 260.863 135.182 254.167 139.385V139.385Z"
    fill="#001020" />
  <path
    d="M254.167 139.385L155.601 82.0627C158.01 80.6236 160.232 78.892 162.216 76.9072L260.876 134.229C258.869 136.228 256.614 137.96 254.167 139.385"
    fill="#001020" />
  <path
    d="M254.167 139.385L155.601 82.0627C158.01 80.6236 160.232 78.892 162.216 76.9072L260.876 134.229C258.869 136.228 256.614 137.96 254.167 139.385"
    stroke="white" stroke-miterlimit="10" />
  <path
    d="M260.876 134.23L162.216 76.9078C162.946 76.178 163.675 75.4247 164.382 74.5537L263.042 131.899C262.336 132.7 261.606 133.477 260.876 134.254"
    fill="#001020" />
  <path
    d="M260.876 134.23L162.216 76.9078C162.946 76.178 163.675 75.4247 164.382 74.5537L263.042 131.899C262.336 132.7 261.606 133.477 260.876 134.254"
    stroke="white" stroke-miterlimit="10" />
  <path
    d="M263.042 131.946L164.381 74.6002C164.899 73.9881 165.441 73.3525 165.959 72.6934L264.619 130.016C264.101 130.675 263.559 131.334 263.042 131.946Z"
    fill="#001020" stroke="white" stroke-miterlimit="10" />
  <path
    d="M264.618 130.016L165.958 72.8116C166.405 72.223 166.829 71.6345 167.253 71.0225L265.937 128.25C265.513 128.839 265.089 129.451 264.642 130.016"
    fill="#001020" />
  <path
    d="M264.618 130.016L165.958 72.8116C166.405 72.223 166.829 71.6345 167.253 71.0225L265.937 128.25C265.513 128.839 265.089 129.451 264.642 130.016"
    stroke="white" stroke-miterlimit="10" />
  <path
    d="M265.937 128.251L167.254 70.9049C167.654 70.3635 168.03 69.7985 168.407 69.21L267.067 126.556L265.914 128.251"
    fill="#001020" />
  <path
    d="M265.937 128.251L167.254 70.9049C167.654 70.3635 168.03 69.7985 168.407 69.21L267.067 126.556L265.914 128.251"
    stroke="white" stroke-miterlimit="10" />
  <path
    d="M267.067 126.555L168.407 69.2095C168.76 68.668 169.09 68.1031 169.419 67.5381L268.079 124.884L267.067 126.555"
    fill="#001020" />
  <path
    d="M267.067 126.555L168.407 69.2095C168.76 68.668 169.09 68.1031 169.419 67.5381L268.079 124.884L267.067 126.555"
    stroke="white" stroke-miterlimit="10" />
  <path
    d="M268.08 124.884L169.42 67.5386C169.75 66.9972 170.056 66.4322 170.362 65.8672L268.998 123.213C268.716 123.778 268.41 124.319 268.08 124.884"
    fill="#001020" />
  <path
    d="M268.08 124.884L169.42 67.5386C169.75 66.9972 170.056 66.4322 170.362 65.8672L268.998 123.213C268.716 123.778 268.41 124.319 268.08 124.884"
    stroke="white" stroke-miterlimit="10" />
  <path
    d="M268.998 123.213L170.361 65.867L170.95 64.6899L269.61 122.012C269.421 122.412 269.209 122.813 268.998 123.213Z"
    fill="#001020" stroke="white" stroke-miterlimit="10" />
  <path
    d="M254.167 139.385L155.601 82.0632C162.257 77.8406 167.579 71.8163 170.949 64.6899L269.609 122.012C266.221 129.155 260.863 135.182 254.167 139.385V139.385Z"
    stroke="white" stroke-miterlimit="10" />
  <path
    d="M171.608 22.2466L270.268 79.5688C274.976 82.2524 277.683 87.9258 277.731 95.9062C277.37 105.172 274.568 114.178 269.609 122.013L170.949 64.6909C175.911 56.8486 178.713 47.8341 179.07 38.5605C179.023 30.6036 176.198 24.9067 171.608 22.2466Z"
    fill="#001020" />
  <path d="M269.609 122.013L170.949 64.6906L171.443 63.8667L270.103 121.212L269.609 122.013" fill="#001020" />
  <path d="M269.609 122.013L170.949 64.6906L171.443 63.8667L270.103 121.212L269.609 122.013" stroke="white"
    stroke-miterlimit="10" />
  <path
    d="M270.103 121.212L171.443 63.8661C171.867 63.1363 172.267 62.4065 172.667 61.6768L271.328 119.022C270.927 119.752 270.527 120.482 270.103 121.212"
    fill="#001020" />
  <path
    d="M270.103 121.212L171.443 63.8661C171.867 63.1363 172.267 62.4065 172.667 61.6768L271.328 119.022C270.927 119.752 270.527 120.482 270.103 121.212"
    stroke="white" stroke-miterlimit="10" />
  <path
    d="M271.327 119.023L172.667 61.6776C173.044 60.9478 173.42 60.2181 173.773 59.4883L272.434 116.834C272.08 117.564 271.704 118.294 271.327 119.023Z"
    fill="#001020" stroke="white" stroke-miterlimit="10" />
  <path
    d="M272.434 116.834L173.773 59.4883C174.127 58.7586 174.48 58.0053 174.786 57.252L273.446 114.598C273.14 115.327 272.787 116.081 272.434 116.952"
    fill="#001020" />
  <path
    d="M272.434 116.834L173.773 59.4883C174.127 58.7586 174.48 58.0053 174.786 57.252L273.446 114.598C273.14 115.327 272.787 116.081 272.434 116.952"
    stroke="white" stroke-miterlimit="10" />
  <path
    d="M273.446 114.598L174.786 57.252C175.139 56.4987 175.445 55.7219 175.727 54.8979L274.387 112.244C274.105 113.021 273.775 113.774 273.446 114.598Z"
    fill="#001020" stroke="white" stroke-miterlimit="10" />
  <path
    d="M274.388 112.29L175.728 54.9444C176.057 54.144 176.34 53.3436 176.599 52.5903L275.353 109.865C275.094 110.666 274.811 111.49 274.482 112.22"
    fill="#001020" />
  <path
    d="M274.388 112.29L175.728 54.9444C176.057 54.144 176.34 53.3436 176.599 52.5903L275.353 109.865C275.094 110.666 274.811 111.49 274.482 112.22"
    stroke="white" stroke-miterlimit="10" />
  <path
    d="M275.353 109.865L176.599 52.5432C176.905 51.6487 177.164 50.7776 177.399 49.9302L276.059 107.252C275.824 108.123 275.565 108.994 275.259 109.865"
    fill="#001020" />
  <path
    d="M275.353 109.865L176.599 52.5432C176.905 51.6487 177.164 50.7776 177.399 49.9302L276.059 107.252C275.824 108.123 275.565 108.994 275.259 109.865"
    stroke="white" stroke-miterlimit="10" />
  <path
    d="M276.059 107.253L177.399 49.9304C177.681 48.9417 177.917 47.953 178.129 46.9878L276.789 104.31C276.577 105.299 276.342 106.264 276.059 107.253Z"
    fill="#001020" stroke="white" stroke-miterlimit="10" />
  <path
    d="M276.789 104.31L178.129 46.9171C178.388 45.693 178.6 44.563 178.741 43.3389L277.401 100.661C277.26 101.838 277.048 103.015 276.789 104.239"
    fill="#001020" />
  <path
    d="M276.789 104.31L178.129 46.9171C178.388 45.693 178.6 44.563 178.741 43.3389L277.401 100.661C277.26 101.838 277.048 103.015 276.789 104.239"
    stroke="white" stroke-miterlimit="10" />
  <path
    d="M277.401 100.732L178.835 43.4094C179.047 41.8015 179.157 40.1818 179.165 38.56C179.165 30.6031 176.293 24.9062 171.702 22.2461L270.362 79.5683C275.071 82.2519 277.778 87.9253 277.825 95.9057C277.813 97.4804 277.702 99.0528 277.495 100.614"
    fill="#001020" />
  <path
    d="M277.401 100.732L178.835 43.4094C179.047 41.8015 179.157 40.1818 179.165 38.56C179.165 30.6031 176.293 24.9062 171.702 22.2461L270.362 79.5683C275.071 82.2519 277.778 87.9253 277.825 95.9057C277.813 97.4804 277.702 99.0528 277.495 100.614"
    stroke="white" stroke-miterlimit="10" />
  <path
    d="M171.608 22.2466L270.268 79.5688C274.976 82.2524 277.683 87.9258 277.731 95.9062C277.37 105.172 274.568 114.178 269.609 122.013L170.949 64.6909C175.911 56.8486 178.713 47.8341 179.07 38.5605C179.023 30.6036 176.198 24.9067 171.608 22.2466Z"
    stroke="white" stroke-miterlimit="10" />
  <path
    d="M156.495 22.4576C162.404 19.8681 167.654 19.9388 171.609 22.2458L270.269 79.568C266.314 77.2139 261.064 77.2139 255.155 79.8034C255.065 79.8508 254.964 79.8756 254.861 79.8756C254.759 79.8756 254.658 79.8508 254.567 79.8034L155.907 22.4812C155.998 22.5293 156.101 22.5525 156.204 22.5483C156.307 22.5442 156.408 22.5129 156.495 22.4576V22.4576Z"
    fill="#001020" />
  <path d="M254.566 79.8036L155.906 22.4814L254.566 79.8036Z" fill="#001020" stroke="white" stroke-miterlimit="10" />
  <path d="M254.566 79.8743L155.906 22.4814L254.613 79.8743" fill="#001020" />
  <path d="M254.566 79.8743L155.906 22.4814L254.613 79.8743" stroke="white" stroke-miterlimit="10" />
  <path d="M254.614 79.8742L155.954 22.5049L254.684 79.8742" fill="#001020" />
  <path d="M254.614 79.8742L155.954 22.5049L254.684 79.8742" stroke="white" stroke-miterlimit="10" />
  <path d="M254.685 79.8745L156.024 22.5288L254.732 79.8745" fill="#001020" />
  <path d="M254.685 79.8745L156.024 22.5288L254.732 79.8745" stroke="white" stroke-miterlimit="10" />
  <path d="M254.731 79.8745L156.071 22.5288L254.802 79.8745" fill="#001020" />
  <path d="M254.731 79.8745L156.071 22.5288L254.802 79.8745" stroke="white" stroke-miterlimit="10" />
  <path d="M254.802 79.8744L156.142 22.5522L254.849 79.8744" fill="#001020" />
  <path d="M254.802 79.8744L156.142 22.5522L254.849 79.8744" stroke="white" stroke-miterlimit="10" />
  <path d="M254.849 79.8744L156.188 22.5522L254.943 79.8744" fill="#001020" />
  <path d="M254.849 79.8744L156.188 22.5522L254.943 79.8744" stroke="white" stroke-miterlimit="10" />
  <path d="M254.943 79.8745L156.283 22.5288L255.013 79.8745" fill="#001020" />
  <path d="M254.943 79.8745L156.283 22.5288L255.013 79.8745" stroke="white" stroke-miterlimit="10" />
  <path d="M255.014 79.8742L156.354 22.5049L255.131 79.8742" fill="#001020" />
  <path d="M255.014 79.8742L156.354 22.5049L255.131 79.8742" stroke="white" stroke-miterlimit="10" />
  <path d="M255.132 79.8742L156.472 22.4814L156.99 22.2695L255.65 79.6153L255.132 79.8271" fill="#001020" />
  <path d="M255.132 79.8742L156.472 22.4814L156.99 22.2695L255.65 79.6153L255.132 79.8271" stroke="white"
    stroke-miterlimit="10" />
  <path
    d="M255.673 79.592L157.013 22.2463C157.987 21.8394 158.985 21.4934 160.002 21.2104L258.662 78.5326C257.637 78.8231 256.631 79.1769 255.649 79.592"
    fill="#001020" />
  <path
    d="M255.673 79.592L157.013 22.2463C157.987 21.8394 158.985 21.4934 160.002 21.2104L258.662 78.5326C257.637 78.8231 256.631 79.1769 255.649 79.592"
    stroke="white" stroke-miterlimit="10" />
  <path
    d="M258.686 78.5324L160.002 21.2102C160.777 21.0021 161.563 20.8371 162.357 20.7158L261.017 78.0616C260.287 78.1793 259.534 78.3441 258.663 78.5324"
    fill="#001020" />
  <path
    d="M258.686 78.5324L160.002 21.2102C160.777 21.0021 161.563 20.8371 162.357 20.7158L261.017 78.0616C260.287 78.1793 259.534 78.3441 258.663 78.5324"
    stroke="white" stroke-miterlimit="10" />
  <path
    d="M260.946 78.0614L162.357 20.7157C162.992 20.7157 163.628 20.5744 164.263 20.5273L262.924 77.8731C262.285 77.9008 261.648 77.9637 261.017 78.0614"
    fill="#001020" />
  <path
    d="M260.946 78.0614L162.357 20.7157C162.992 20.7157 163.628 20.5744 164.263 20.5273L262.924 77.8731C262.285 77.9008 261.648 77.9637 261.017 78.0614"
    stroke="white" stroke-miterlimit="10" />
  <path
    d="M262.853 77.8731L164.193 20.5273C164.758 20.5273 165.323 20.5273 165.864 20.5273L264.524 77.8966C263.968 77.8611 263.41 77.8611 262.853 77.8966"
    fill="#001020" />
  <path
    d="M262.853 77.8731L164.193 20.5273C164.758 20.5273 165.323 20.5273 165.864 20.5273L264.524 77.8966C263.968 77.8611 263.41 77.8611 262.853 77.8966"
    stroke="white" stroke-miterlimit="10" />
  <path
    d="M264.524 77.8965L165.864 20.5508C166.386 20.579 166.905 20.6419 167.418 20.7391L266.055 78.0613C265.549 77.9703 265.038 77.9152 264.524 77.8965"
    fill="#001020" />
  <path
    d="M264.524 77.8965L165.864 20.5508C166.386 20.579 166.905 20.6419 167.418 20.7391L266.055 78.0613C265.549 77.9703 265.038 77.9152 264.524 77.8965"
    stroke="white" stroke-miterlimit="10" />
  <path
    d="M266.055 78.0614L167.418 20.7393C167.897 20.8126 168.369 20.9228 168.83 21.0688L267.491 78.391C267.018 78.2563 266.539 78.1462 266.055 78.0614"
    fill="#001020" />
  <path
    d="M266.055 78.0614L167.418 20.7393C167.897 20.8126 168.369 20.9228 168.83 21.0688L267.491 78.391C267.018 78.2563 266.539 78.1462 266.055 78.0614"
    stroke="white" stroke-miterlimit="10" />
  <path
    d="M267.49 78.3908L168.83 21.0215C169.297 21.1432 169.753 21.3006 170.195 21.4923L268.832 78.8145C268.408 78.6497 267.961 78.4849 267.49 78.3437"
    fill="#001020" />
  <path
    d="M267.49 78.3908L168.83 21.0215C169.297 21.1432 169.753 21.3006 170.195 21.4923L268.832 78.8145C268.408 78.6497 267.961 78.4849 267.49 78.3437"
    stroke="white" stroke-miterlimit="10" />
  <path
    d="M268.833 78.8612L170.196 21.5391C170.62 21.7274 171.044 21.9393 171.468 22.1747L270.128 79.4969C269.708 79.2615 269.276 79.0493 268.833 78.8612"
    fill="#001020" />
  <path
    d="M268.833 78.8612L170.196 21.5391C170.62 21.7274 171.044 21.9393 171.468 22.1747L270.128 79.4969C269.708 79.2615 269.276 79.0493 268.833 78.8612"
    stroke="white" stroke-miterlimit="10" />
  <path d="M270.127 79.497L171.467 22.1748H171.608L270.268 79.497H270.127Z" fill="#001020" stroke="white"
    stroke-miterlimit="10" />
  <path
    d="M156.495 22.4576C162.404 19.8681 167.654 19.9388 171.609 22.2458L270.269 79.568C266.314 77.2139 261.064 77.2139 255.155 79.8034C255.065 79.8508 254.964 79.8756 254.861 79.8756C254.759 79.8756 254.658 79.8508 254.567 79.8034L155.907 22.4812C155.998 22.5293 156.101 22.5525 156.204 22.5483C156.307 22.5442 156.408 22.5129 156.495 22.4576V22.4576Z"
    stroke="white" stroke-miterlimit="10" />
  <path
    d="M173.02 19.8437L271.68 77.1659C267.584 74.8118 262.264 74.6235 256.167 77.1659L157.507 19.7496C163.557 17.2778 168.924 17.4661 173.02 19.8437Z"
    fill="#001020" />
  <path
    d="M256.167 77.073L157.507 19.7509C158.49 19.334 159.496 18.9724 160.52 18.668L259.18 76.0137C258.158 76.2943 257.152 76.6323 256.167 77.026"
    fill="#001020" />
  <path
    d="M256.167 77.073L157.507 19.7509C158.49 19.334 159.496 18.9724 160.52 18.668L259.18 76.0137C258.158 76.2943 257.152 76.6323 256.167 77.026"
    stroke="white" stroke-miterlimit="10" />
  <path
    d="M259.18 76.0601L160.52 18.6673C161.296 18.4553 162.081 18.2824 162.874 18.1494L261.534 75.4951C260.739 75.6173 259.953 75.7903 259.18 76.013"
    fill="#001020" />
  <path
    d="M259.18 76.0601L160.52 18.6673C161.296 18.4553 162.081 18.2824 162.874 18.1494L261.534 75.4951C260.739 75.6173 259.953 75.7903 259.18 76.013"
    stroke="white" stroke-miterlimit="10" />
  <path
    d="M261.629 75.543L162.969 18.1972C163.651 18.1972 164.358 18.0324 165.017 17.9854L263.583 75.3311C262.896 75.3563 262.212 75.4271 261.535 75.543"
    fill="#001020" />
  <path
    d="M261.629 75.543L162.969 18.1972C163.651 18.1972 164.358 18.0324 165.017 17.9854L263.583 75.3311C262.896 75.3563 262.212 75.4271 261.535 75.543"
    stroke="white" stroke-miterlimit="10" />
  <path
    d="M263.582 75.3308L165.016 17.9851C165.62 17.9496 166.225 17.9496 166.829 17.9851L265.489 75.3308C264.885 75.2954 264.28 75.2954 263.676 75.3308"
    fill="#001020" />
  <path
    d="M263.582 75.3308L165.016 17.9851C165.62 17.9496 166.225 17.9496 166.829 17.9851L265.489 75.3308C264.885 75.2954 264.28 75.2954 263.676 75.3308"
    stroke="white" stroke-miterlimit="10" />
  <path
    d="M265.489 75.354L166.829 18.0083C167.394 18.0083 167.959 18.0083 168.477 18.1966L267.137 75.5424C266.593 75.4421 266.042 75.3792 265.489 75.354"
    fill="#001020" />
  <path
    d="M265.489 75.354L166.829 18.0083C167.394 18.0083 167.959 18.0083 168.477 18.1966L267.137 75.5424C266.593 75.4421 266.042 75.3792 265.489 75.354"
    stroke="white" stroke-miterlimit="10" />
  <path
    d="M267.137 75.5425L168.477 18.1968C169 18.2869 169.519 18.4048 170.03 18.5499L268.69 75.8956C268.179 75.7505 267.66 75.6326 267.137 75.5425"
    fill="#001020" />
  <path
    d="M267.137 75.5425L168.477 18.1968C169 18.2869 169.519 18.4048 170.03 18.5499L268.69 75.8956C268.179 75.7505 267.66 75.6326 267.137 75.5425"
    stroke="white" stroke-miterlimit="10" />
  <path
    d="M268.691 75.896L170.031 18.668L171.49 19.1859L270.127 76.5316C269.663 76.3204 269.183 76.1472 268.691 76.0137"
    fill="#001020" />
  <path
    d="M268.691 75.896L170.031 18.668L171.49 19.1859L270.127 76.5316C269.663 76.3204 269.183 76.1472 268.691 76.0137"
    stroke="white" stroke-miterlimit="10" />
  <path
    d="M270.127 76.4131L171.49 19.0674C171.957 19.2712 172.413 19.4991 172.856 19.7501L271.516 77.0723C271.067 76.8244 270.603 76.6043 270.127 76.4131Z"
    fill="#001020" stroke="white" stroke-miterlimit="10" />
  <path d="M271.516 77.0722L172.855 19.75H173.02L271.68 77.0722H271.516" fill="#001020" />
  <path d="M271.516 77.0722L172.855 19.75H173.02L271.68 77.0722H271.516" stroke="white" stroke-miterlimit="10" />
  <path
    d="M173.02 19.8437L271.68 77.1659C267.584 74.8118 262.264 74.6235 256.167 77.1659L157.507 19.7496C163.557 17.2778 168.924 17.4661 173.02 19.8437Z"
    stroke="white" stroke-miterlimit="10" />
  <path
    d="M254.566 79.8741L155.906 22.4813C155.824 22.423 155.757 22.3453 155.712 22.2549C155.666 22.1645 155.644 22.0644 155.647 21.9634L254.307 79.2856C254.289 79.3982 254.303 79.5138 254.349 79.6183C254.395 79.7228 254.471 79.8117 254.566 79.8741V79.8741Z"
    fill="#001020" />
  <path
    d="M254.566 79.8741L155.906 22.4813C155.824 22.423 155.757 22.3453 155.712 22.2549C155.666 22.1645 155.644 22.0644 155.647 21.9634L254.307 79.2856C254.302 79.3869 254.323 79.4878 254.369 79.5786C254.414 79.6693 254.482 79.7468 254.566 79.8035"
    fill="#001020" />
  <path
    d="M254.566 79.8741L155.906 22.4813C155.824 22.423 155.757 22.3453 155.712 22.2549C155.666 22.1645 155.644 22.0644 155.647 21.9634L254.307 79.2856C254.302 79.3869 254.323 79.4878 254.369 79.5786C254.414 79.6693 254.482 79.7468 254.566 79.8035"
    stroke="white" stroke-miterlimit="10" />
  <path
    d="M254.566 79.8741L155.906 22.4813C155.824 22.423 155.757 22.3453 155.712 22.2549C155.666 22.1645 155.644 22.0644 155.647 21.9634L254.307 79.2856C254.289 79.3982 254.303 79.5138 254.349 79.6183C254.395 79.7228 254.471 79.8117 254.566 79.8741V79.8741Z"
    stroke="white" stroke-miterlimit="10" />
  <path
    d="M146.725 5.69678L245.385 63.0425C250.093 65.8439 253.483 71.3525 254.307 79.2858L155.647 21.9636C154.823 13.9596 151.551 8.49815 146.725 5.69678Z"
    fill="#001020" />
  <path
    d="M254.307 79.2858L155.647 21.9636C154.823 13.9596 151.551 8.49815 146.725 5.69678L245.385 63.0425C250.093 65.8439 253.483 71.3525 254.307 79.2858Z"
    fill="#001020" stroke="white" stroke-miterlimit="10" />
  <path
    d="M146.725 5.69678L245.385 63.0425C250.093 65.8439 253.483 71.3525 254.307 79.2858L155.647 21.9636C154.823 13.9596 151.551 8.49815 146.725 5.69678Z"
    stroke="white" stroke-miterlimit="10" />
  <path
    d="M145.311 4.9668C145.782 5.20221 146.276 5.43762 146.723 5.69657L245.384 63.0423C244.93 62.7666 244.458 62.5228 243.971 62.3125L145.311 4.9668Z"
    fill="#001020" />
  <path
    d="M243.643 62.1713L144.982 4.84912C145.526 5.06202 146.053 5.31378 146.56 5.60243L245.22 62.9482C244.708 62.6613 244.182 62.402 243.643 62.1713"
    fill="#001020" />
  <path
    d="M243.643 62.1713L144.982 4.84912C145.526 5.06202 146.053 5.31378 146.56 5.60243L245.22 62.9482C244.708 62.6613 244.182 62.402 243.643 62.1713"
    stroke="white" stroke-miterlimit="10" />
  <path d="M245.22 62.9483L146.56 5.60254H146.724L245.384 62.9483H245.22Z" fill="#001020" stroke="white"
    stroke-miterlimit="10" />
  <path
    d="M145.311 4.9668C145.782 5.20221 146.276 5.43762 146.723 5.69657L245.384 63.0423C244.93 62.7666 244.458 62.5228 243.971 62.3125L145.311 4.9668Z"
    stroke="white" stroke-miterlimit="10" />
  <path
    d="M124.477 7.83943C132.363 3.29603 139.708 2.4721 145.311 4.96744L243.971 62.3132C238.368 59.8178 231.023 60.6418 223.137 65.1852C222.054 65.8208 220.924 66.527 219.818 67.3038C213.952 71.5437 208.849 76.7497 204.728 82.6996V82.6996L106.091 25.3774C110.191 19.418 115.288 14.2098 121.158 9.98166C122.335 9.25189 123.394 8.47504 124.477 7.83943Z"
    fill="#001020" />
  <path
    d="M204.73 82.77L106.046 25.4478C106.689 24.5376 107.348 23.643 108.023 22.7642L206.754 80.0157C206.071 80.8868 205.412 81.7813 204.753 82.6994"
    fill="#001020" />
  <path
    d="M204.73 82.77L106.046 25.4478C106.689 24.5376 107.348 23.643 108.023 22.7642L206.754 80.0157C206.071 80.8868 205.412 81.7813 204.753 82.6994"
    stroke="white" stroke-miterlimit="10" />
  <path
    d="M206.754 80.0153L108.211 22.6931C109.012 21.6338 109.859 20.6215 110.707 19.6328L209.249 76.955C208.402 77.9437 207.554 78.956 206.754 80.0153"
    fill="#001020" />
  <path
    d="M206.754 80.0153L108.211 22.6931C109.012 21.6338 109.859 20.6215 110.707 19.6328L209.249 76.955C208.402 77.9437 207.554 78.956 206.754 80.0153"
    stroke="white" stroke-miterlimit="10" />
  <path
    d="M209.249 76.9554L110.565 19.6332C111.672 18.362 112.92 17.1379 113.979 15.9844L212.662 73.3301C211.509 74.4836 210.308 75.6842 209.249 76.9554Z"
    fill="#001020" stroke="white" stroke-miterlimit="10" />
  <path
    d="M212.663 73.3305L114.002 15.9848C116.191 13.7973 118.553 11.7899 121.065 9.98182C122.171 9.18143 123.419 8.4752 124.384 7.8396C125.8 7.03304 127.262 6.30989 128.763 5.67383L227.517 63.0196C226.012 63.646 224.549 64.3694 223.138 65.1853C222.055 65.8209 220.925 66.5272 219.819 67.304C217.302 69.1133 214.939 71.1291 212.757 73.3305"
    fill="#001020" />
  <path
    d="M212.663 73.3305L114.002 15.9848C116.191 13.7973 118.553 11.7899 121.065 9.98182C122.171 9.18143 123.419 8.4752 124.384 7.8396C125.8 7.03304 127.262 6.30989 128.763 5.67383L227.517 63.0196C226.012 63.646 224.549 64.3694 223.138 65.1853C222.055 65.8209 220.925 66.5272 219.819 67.304C217.302 69.1133 214.939 71.1291 212.757 73.3305"
    stroke="white" stroke-miterlimit="10" />
  <path
    d="M227.517 63.0192L128.857 5.67342C130.036 5.23138 131.238 4.85417 132.459 4.54346L231.119 61.7715C229.893 62.1101 228.69 62.5268 227.517 63.0192"
    fill="#001020" />
  <path
    d="M227.517 63.0192L128.857 5.67342C130.036 5.23138 131.238 4.85417 132.459 4.54346L231.119 61.7715C229.893 62.1101 228.69 62.5268 227.517 63.0192"
    stroke="white" stroke-miterlimit="10" />
  <path
    d="M231.119 61.7716L132.458 4.5436C133.4 4.30819 134.342 4.09632 135.236 3.95508L233.896 61.1831C232.96 61.3276 232.033 61.5241 231.119 61.7716"
    fill="#001020" />
  <path
    d="M231.119 61.7716L132.458 4.5436C133.4 4.30819 134.342 4.09632 135.236 3.95508L233.896 61.1831C232.96 61.3276 232.033 61.5241 231.119 61.7716"
    stroke="white" stroke-miterlimit="10" />
  <path
    d="M233.896 61.1827L135.236 3.83697C136.037 3.71927 136.837 3.64864 137.59 3.60156L236.251 61.0415C235.462 61.0756 234.676 61.1542 233.896 61.2769"
    fill="#001020" />
  <path
    d="M233.896 61.1827L135.236 3.83697C136.037 3.71927 136.837 3.64864 137.59 3.60156L236.251 61.0415C235.462 61.0756 234.676 61.1542 233.896 61.2769"
    stroke="white" stroke-miterlimit="10" />
  <path
    d="M236.25 61.0417L137.59 3.60179C138.288 3.56633 138.988 3.56633 139.685 3.60179L238.322 61.0417C237.632 60.9943 236.94 60.9943 236.25 61.0417"
    fill="#001020" />
  <path
    d="M236.25 61.0417L137.59 3.60179C138.288 3.56633 138.988 3.56633 139.685 3.60179L238.322 61.0417C237.632 60.9943 236.94 60.9943 236.25 61.0417"
    stroke="white" stroke-miterlimit="10" />
  <path
    d="M238.322 61.0414L139.686 3.625C140.321 3.625 140.957 3.625 141.569 3.83687L240.229 61.1826C239.6 61.063 238.962 60.9921 238.322 60.9707"
    fill="#001020" />
  <path
    d="M238.322 61.0414L139.686 3.625C140.321 3.625 140.957 3.625 141.569 3.83687L240.229 61.1826C239.6 61.063 238.962 60.9921 238.322 60.9707"
    stroke="white" stroke-miterlimit="10" />
  <path
    d="M240.229 61.1826L141.569 3.83691C142.181 3.94677 142.77 4.08802 143.335 4.26065L241.995 61.5828C241.416 61.4109 240.826 61.2772 240.229 61.1826Z"
    fill="#001020" stroke="white" stroke-miterlimit="10" />
  <path
    d="M241.995 61.5829L143.335 4.26074C143.896 4.42167 144.447 4.61824 144.983 4.84927L243.643 62.1715C243.101 61.9596 242.56 61.7477 241.995 61.5829Z"
    fill="#001020" stroke="white" stroke-miterlimit="10" />
  <path
    d="M243.643 62.1718L144.982 4.84961C145.526 5.06251 146.053 5.31427 146.56 5.60292L245.22 62.9487C244.708 62.6618 244.182 62.4025 243.643 62.1718"
    fill="#001020" />
  <path
    d="M243.643 62.1718L144.982 4.84961C145.526 5.06251 146.053 5.31427 146.56 5.60292L245.22 62.9487C244.708 62.6618 244.182 62.4025 243.643 62.1718"
    stroke="white" stroke-miterlimit="10" />
  <path
    d="M124.477 7.83943C132.363 3.29603 139.708 2.4721 145.311 4.96744L243.971 62.3132C238.368 59.8178 231.023 60.6418 223.137 65.1852C222.054 65.8208 220.924 66.527 219.818 67.3038C213.952 71.5437 208.849 76.7497 204.728 82.6996V82.6996L106.091 25.3774C110.191 19.418 115.288 14.2098 121.158 9.98166C122.335 9.25189 123.394 8.47504 124.477 7.83943Z"
    stroke="white" stroke-miterlimit="10" />
  <path
    d="M106.094 25.3774L204.73 82.6996C204.588 82.9306 204.384 83.1179 204.142 83.2411L105.505 25.8953C105.745 25.7796 105.949 25.6005 106.094 25.3774Z"
    fill="#001020" />
  <path
    d="M203.906 83.3583L105.246 26.0361C105.49 25.9256 105.713 25.7743 105.905 25.5889L204.565 82.9346C204.376 83.1184 204.152 83.2625 203.906 83.3583"
    fill="#001020" />
  <path
    d="M203.906 83.3583L105.246 26.0361C105.49 25.9256 105.713 25.7743 105.905 25.5889L204.565 82.9346C204.376 83.1184 204.152 83.2625 203.906 83.3583"
    stroke="white" stroke-miterlimit="10" />
  <path d="M204.566 82.9346L105.858 25.5889L204.73 82.8404" fill="#001020" />
  <path d="M204.566 82.9346L105.858 25.5889L204.73 82.8404" stroke="white" stroke-miterlimit="10" />
  <path d="M204.73 82.8403L106 25.5181L204.73 82.7696" fill="#001020" />
  <path d="M204.73 82.8403L106 25.5181L204.73 82.7696" stroke="white" stroke-miterlimit="10" />
  <path
    d="M204.73 82.77L106.047 25.4478C106.69 24.5376 107.349 23.643 108.024 22.7642L206.755 80.0157C206.072 80.8868 205.413 81.7813 204.754 82.6994"
    fill="#001020" />
  <path
    d="M204.73 82.77L106.047 25.4478C106.69 24.5376 107.349 23.643 108.024 22.7642L206.755 80.0157C206.072 80.8868 205.413 81.7813 204.754 82.6994"
    stroke="white" stroke-miterlimit="10" />
  <path
    d="M106.094 25.3774L204.73 82.6996C204.588 82.9306 204.384 83.1179 204.142 83.2411L105.505 25.8953C105.745 25.7796 105.949 25.6005 106.094 25.3774Z"
    stroke="white" stroke-miterlimit="10" />
  <path d="M105.505 25.8936L204.165 83.2393H203.906L105.246 26.0348L105.505 25.8936Z" fill="#001020" />
  <path
    d="M203.906 83.3583L105.246 26.0361C105.49 25.9256 105.713 25.7743 105.905 25.5889L204.566 82.9346C204.376 83.1184 204.152 83.2625 203.906 83.3583"
    fill="#001020" />
  <path
    d="M203.906 83.3583L105.246 26.0361C105.49 25.9256 105.713 25.7743 105.905 25.5889L204.566 82.9346C204.376 83.1184 204.152 83.2625 203.906 83.3583"
    stroke="white" stroke-miterlimit="10" />
  <path d="M105.505 25.8936L204.165 83.2393H203.906L105.246 26.0348L105.505 25.8936Z" stroke="white"
    stroke-miterlimit="10" />
  <path
    d="M203.482 83.335L104.822 25.9893C104.889 26.0191 104.961 26.0346 105.034 26.0346C105.107 26.0346 105.179 26.0191 105.246 25.9893L203.906 83.3585C203.838 83.3847 203.765 83.3962 203.692 83.3922C203.619 83.3881 203.547 83.3686 203.482 83.335V83.335Z"
    fill="#001020" />
  <path d="M203.482 83.3114L104.822 25.9893L203.482 83.335V83.3114Z" fill="#001020" stroke="white"
    stroke-miterlimit="10" />
  <path d="M203.482 83.335L104.822 25.9893L203.529 83.3585" fill="#001020" />
  <path d="M203.482 83.335L104.822 25.9893L203.529 83.3585" stroke="white" stroke-miterlimit="10" />
  <path d="M203.529 83.3584L104.869 26.0127L203.576 83.382" fill="#001020" />
  <path d="M203.529 83.3584L104.869 26.0127L203.576 83.382" stroke="white" stroke-miterlimit="10" />
  <path d="M203.576 83.3819L104.916 26.0361L203.647 83.3819" fill="#001020" />
  <path d="M203.576 83.3819L104.916 26.0361L203.647 83.3819" stroke="white" stroke-miterlimit="10" />
  <path d="M203.646 83.3818L104.986 26.0596L203.693 83.3818" fill="#001020" />
  <path d="M203.646 83.3818L104.986 26.0596L203.693 83.3818" stroke="white" stroke-miterlimit="10" />
  <path d="M203.694 83.3818L105.034 26.0596L203.741 83.3818" fill="#001020" />
  <path d="M203.694 83.3818L105.034 26.0596L203.741 83.3818" stroke="white" stroke-miterlimit="10" />
  <path d="M203.741 83.3818L105.081 26.0596L203.812 83.3818" fill="#001020" />
  <path d="M203.741 83.3818L105.081 26.0596L203.812 83.3818" stroke="white" stroke-miterlimit="10" />
  <path d="M203.811 83.3818L105.151 26.0596L203.787 83.3818" fill="#001020" />
  <path d="M203.811 83.3818L105.151 26.0596L203.787 83.3818" stroke="white" stroke-miterlimit="10" />
  <path d="M203.882 83.3583L105.222 26.0361H105.245L203.905 83.3583H203.882Z" fill="#001020" stroke="white"
    stroke-miterlimit="10" />
  <path
    d="M203.482 83.335L104.822 25.9893C104.889 26.0191 104.961 26.0346 105.034 26.0346C105.107 26.0346 105.179 26.0191 105.246 25.9893L203.906 83.3585C203.838 83.3847 203.765 83.3962 203.692 83.3922C203.619 83.3881 203.547 83.3686 203.482 83.335V83.335Z"
    stroke="white" stroke-miterlimit="10" />
  <path
    d="M203.435 83.288L104.775 25.9658C104.708 25.9059 104.652 25.8341 104.61 25.7539L203.27 83.0761C203.306 83.16 203.363 83.2331 203.435 83.288Z"
    fill="#001020" />
  <path
    d="M203.435 83.288L104.775 25.9658C104.708 25.9059 104.652 25.8341 104.61 25.7539L203.27 83.0761C203.306 83.16 203.363 83.2331 203.435 83.288"
    fill="#001020" />
  <path
    d="M203.435 83.288L104.775 25.9658C104.708 25.9059 104.652 25.8341 104.61 25.7539L203.27 83.0761C203.306 83.16 203.363 83.2331 203.435 83.288"
    stroke="white" stroke-miterlimit="10" />
  <path
    d="M203.435 83.288L104.775 25.9658C104.708 25.9059 104.652 25.8341 104.61 25.7539L203.27 83.0761C203.306 83.16 203.363 83.2331 203.435 83.288Z"
    stroke="white" stroke-miterlimit="10" />
  <path
    d="M148.232 3.27047L246.892 60.5927C240.795 57.0615 232.391 57.603 223.351 62.9468C222.174 63.6294 220.997 64.3828 219.773 65.3009C214.011 69.4635 208.949 74.5175 204.777 80.2729L105.858 22.7859C110.064 17.0359 115.148 11.9835 120.924 7.81387C122.125 6.9664 123.279 6.21309 124.503 5.45978C133.613 0.28077 142.017 -0.166508 148.232 3.27047Z"
    fill="#001020" />
  <path
    d="M204.589 80.1332L105.858 22.7875L106.941 21.375L205.672 78.6972C205.319 79.168 204.942 79.6388 204.589 80.1332"
    fill="#001020" />
  <path
    d="M204.589 80.1332L105.858 22.7875L106.941 21.375L205.672 78.6972C205.319 79.168 204.942 79.6388 204.589 80.1332"
    stroke="white" stroke-miterlimit="10" />
  <path
    d="M205.672 78.6969L107.012 21.3747C107.883 20.2448 108.777 19.1619 109.695 18.1025L208.355 75.4483C207.445 76.4841 206.551 77.567 205.672 78.6969Z"
    fill="#001020" stroke="white" stroke-miterlimit="10" />
  <path
    d="M208.355 75.4478L109.695 18.102C110.872 16.7602 112.049 15.4419 113.321 14.2178L211.981 71.5635C210.757 72.7876 209.627 74.0824 208.355 75.4478"
    fill="#001020" />
  <path
    d="M208.355 75.4478L109.695 18.102C110.872 16.7602 112.049 15.4419 113.321 14.2178L211.981 71.5635C210.757 72.7876 209.627 74.0824 208.355 75.4478"
    stroke="white" stroke-miterlimit="10" />
  <path
    d="M211.98 71.564L113.32 14.2183C115.681 11.886 118.224 9.74487 120.924 7.81512C122.125 6.96765 123.278 6.21434 124.502 5.46103C126.024 4.58458 127.596 3.79852 129.21 3.10693L227.8 60.5704C226.176 61.2419 224.603 62.0286 223.092 62.9245C221.915 63.6071 220.738 64.3605 219.513 65.2786C216.808 67.2012 214.265 69.3427 211.91 71.6817"
    fill="#001020" />
  <path
    d="M211.98 71.564L113.32 14.2183C115.681 11.886 118.224 9.74487 120.924 7.81512C122.125 6.96765 123.278 6.21434 124.502 5.46103C126.024 4.58458 127.596 3.79852 129.21 3.10693L227.8 60.5704C226.176 61.2419 224.603 62.0286 223.092 62.9245C221.915 63.6071 220.738 64.3605 219.513 65.2786C216.808 67.2012 214.265 69.3427 211.91 71.6817"
    stroke="white" stroke-miterlimit="10" />
  <path
    d="M227.8 60.5703L129.14 3.22454C130.393 2.71193 131.674 2.27177 132.977 1.90625L231.637 59.252C230.331 59.607 229.049 60.0473 227.8 60.5703"
    fill="#001020" />
  <path
    d="M227.8 60.5703L129.14 3.22454C130.393 2.71193 131.674 2.27177 132.977 1.90625L231.637 59.252C230.331 59.607 229.049 60.0473 227.8 60.5703"
    stroke="white" stroke-miterlimit="10" />
  <path
    d="M231.638 59.2518L132.978 1.90611C133.998 1.65501 134.986 1.44314 135.944 1.27051L234.604 58.6869C233.603 58.8358 232.612 59.0481 231.638 59.3225"
    fill="#001020" />
  <path
    d="M231.638 59.2518L132.978 1.90611C133.998 1.65501 134.986 1.44314 135.944 1.27051L234.604 58.6869C233.603 58.8358 232.612 59.0481 231.638 59.3225"
    stroke="white" stroke-miterlimit="10" />
  <path
    d="M234.603 58.6879L135.943 1.27154C136.77 1.14754 137.603 1.06895 138.439 1.03613L237.099 58.3583C236.263 58.3992 235.43 58.4856 234.603 58.6173"
    fill="#001020" />
  <path
    d="M234.603 58.6879L135.943 1.27154C136.77 1.14754 137.603 1.06895 138.439 1.03613L237.099 58.3583C236.263 58.3992 235.43 58.4856 234.603 58.6173"
    stroke="white" stroke-miterlimit="10" />
  <path
    d="M237.099 58.3576L138.439 1.03539C139.168 0.988205 139.9 0.988205 140.629 1.03539L239.289 58.3576C238.582 58.3576 237.829 58.3576 237.099 58.3576"
    fill="#001020" />
  <path
    d="M237.099 58.3576L138.439 1.03539C139.168 0.988205 139.9 0.988205 140.629 1.03539L239.289 58.3576C238.582 58.3576 237.829 58.3576 237.099 58.3576"
    stroke="white" stroke-miterlimit="10" />
  <path
    d="M239.288 58.3813L140.628 1.05908C141.307 1.10131 141.983 1.1799 142.653 1.29449L241.289 58.6873C240.627 58.5713 239.959 58.4927 239.288 58.4519"
    fill="#001020" />
  <path
    d="M239.288 58.3813L140.628 1.05908C141.307 1.10131 141.983 1.1799 142.653 1.29449L241.289 58.6873C240.627 58.5713 239.959 58.4927 239.288 58.4519"
    stroke="white" stroke-miterlimit="10" />
  <path
    d="M241.289 58.6868L142.652 1.29395C143.28 1.39917 143.901 1.54065 144.512 1.71768L243.172 59.0634C242.554 58.8757 241.925 58.7264 241.289 58.6161"
    fill="#001020" />
  <path
    d="M241.289 58.6868L142.652 1.29395C143.28 1.39917 143.901 1.54065 144.512 1.71768L243.172 59.0634C242.554 58.8757 241.925 58.7264 241.289 58.6161"
    stroke="white" stroke-miterlimit="10" />
  <path
    d="M243.173 59.0635L144.513 1.71777C145.112 1.8901 145.701 2.09442 146.278 2.32984L244.938 59.6756C244.361 59.4402 243.772 59.2358 243.173 59.0635"
    fill="#001020" />
  <path
    d="M243.173 59.0635L144.513 1.71777C145.112 1.8901 145.701 2.09442 146.278 2.32984L244.938 59.6756C244.361 59.4402 243.772 59.2358 243.173 59.0635"
    stroke="white" stroke-miterlimit="10" />
  <path
    d="M244.938 59.6758L146.278 2.33008C146.843 2.58903 147.408 2.84798 147.95 3.15401L246.61 60.4997C246.069 60.1923 245.511 59.9171 244.938 59.6758"
    fill="#001020" />
  <path
    d="M244.938 59.6758L146.278 2.33008C146.843 2.58903 147.408 2.84798 147.95 3.15401L246.61 60.4997C246.069 60.1923 245.511 59.9171 244.938 59.6758"
    stroke="white" stroke-miterlimit="10" />
  <path d="M246.609 60.5L147.949 3.1543L148.114 3.272L246.774 60.5942H246.609" fill="#001020" />
  <path d="M246.609 60.5L147.949 3.1543L148.114 3.272L246.774 60.5942H246.609" stroke="white" stroke-miterlimit="10" />
  <path
    d="M148.232 3.27047L246.892 60.5927C240.795 57.0615 232.391 57.603 223.351 62.9468C222.174 63.6294 220.997 64.3828 219.773 65.3009C214.011 69.4635 208.949 74.5175 204.777 80.2729L105.858 22.7859C110.064 17.0359 115.148 11.9835 120.924 7.81387C122.125 6.9664 123.279 6.21309 124.503 5.45978C133.613 0.28077 142.017 -0.166508 148.232 3.27047Z"
    stroke="white" stroke-miterlimit="10" />
  <path d="M125.162 213.916L26.502 156.594L155.6 82.04L254.261 139.386L125.162 213.916Z" fill="#001020" stroke="white"
    stroke-miterlimit="10" />
  <path
    d="M95.8535 15.7017L194.514 73.0474C198.414 75.3865 201.478 78.8956 203.271 83.0758L104.611 25.7301C102.809 21.5558 99.747 18.0494 95.8535 15.7017V15.7017Z"
    fill="#001020" />
  <path
    d="M203.271 83.0759L104.611 25.7302C102.813 21.5472 99.7507 18.0322 95.8535 15.6782L194.514 73.024C198.411 75.3779 201.473 78.893 203.271 83.0759"
    fill="#001020" />
  <path
    d="M203.271 83.0759L104.611 25.7302C102.813 21.5472 99.7507 18.0322 95.8535 15.6782L194.514 73.024C198.411 75.3779 201.473 78.893 203.271 83.0759"
    stroke="white" stroke-miterlimit="10" />
  <path
    d="M95.8535 15.7017L194.514 73.0474C198.414 75.3865 201.478 78.8956 203.271 83.0758L104.611 25.7301C102.809 21.5558 99.747 18.0494 95.8535 15.7017V15.7017Z"
    stroke="white" stroke-miterlimit="10" />
  <path
    d="M111.084 215.235L12.4238 157.889C16.1904 160.078 21.2281 159.607 26.5484 156.594L125.161 213.916C119.982 216.953 114.85 217.424 111.084 215.235Z"
    fill="#001020" />
  <path d="M111.084 215.234L12.4237 157.889L111.178 215.281" fill="#001020" />
  <path d="M111.084 215.234L12.4237 157.889L111.178 215.281" stroke="white" stroke-miterlimit="10" />
  <path
    d="M111.178 215.281L12.5175 157.959C12.851 158.147 13.1971 158.312 13.5533 158.453L112.213 215.799C111.86 215.634 111.507 215.469 111.178 215.281"
    fill="#001020" />
  <path
    d="M111.178 215.281L12.5175 157.959C12.851 158.147 13.1971 158.312 13.5533 158.453L112.213 215.799C111.86 215.634 111.507 215.469 111.178 215.281"
    stroke="white" stroke-miterlimit="10" />
  <path
    d="M112.214 215.799L13.5536 158.453C13.9001 158.596 14.2537 158.722 14.6129 158.83L113.273 216.152C112.911 216.062 112.557 215.944 112.214 215.799"
    fill="#001020" />
  <path
    d="M112.214 215.799L13.5536 158.453C13.9001 158.596 14.2537 158.722 14.6129 158.83L113.273 216.152C112.911 216.062 112.557 215.944 112.214 215.799"
    stroke="white" stroke-miterlimit="10" />
  <path
    d="M113.273 216.152L14.6127 158.83L15.7191 159.089L114.379 216.411C114.003 216.361 113.632 216.274 113.273 216.152"
    fill="#001020" />
  <path
    d="M113.273 216.152L14.6127 158.83L15.7191 159.089L114.379 216.411C114.003 216.361 113.632 216.274 113.273 216.152"
    stroke="white" stroke-miterlimit="10" />
  <path
    d="M114.379 216.411L15.7191 159.089C16.1162 159.159 16.5171 159.206 16.9197 159.23L115.58 216.552C115.177 216.528 114.776 216.481 114.379 216.411"
    fill="#001020" />
  <path
    d="M114.379 216.411L15.7191 159.089C16.1162 159.159 16.5171 159.206 16.9197 159.23L115.58 216.552C115.177 216.528 114.776 216.481 114.379 216.411"
    stroke="white" stroke-miterlimit="10" />
  <path
    d="M115.58 216.553L16.9198 159.23C17.3589 159.254 17.799 159.254 18.2381 159.23L116.898 216.576C116.459 216.612 116.019 216.612 115.58 216.576"
    fill="#001020" />
  <path
    d="M115.58 216.553L16.9198 159.23C17.3589 159.254 17.799 159.254 18.2381 159.23L116.898 216.576C116.459 216.612 116.019 216.612 115.58 216.576"
    stroke="white" stroke-miterlimit="10" />
  <path
    d="M116.898 216.576L18.2382 159.23C18.7404 159.23 19.2347 159.183 19.7212 159.089L118.381 216.411C117.879 216.411 117.385 216.458 116.898 216.552"
    fill="#001020" />
  <path
    d="M116.898 216.576L18.2382 159.23C18.7404 159.23 19.2347 159.183 19.7212 159.089L118.381 216.411C117.879 216.411 117.385 216.458 116.898 216.552"
    stroke="white" stroke-miterlimit="10" />
  <path
    d="M118.382 216.411L19.7216 159.089C20.309 158.997 20.8907 158.871 21.4636 158.712L120.124 216.058C119.551 216.217 118.969 216.343 118.382 216.434"
    fill="#001020" />
  <path
    d="M118.382 216.411L19.7216 159.089C20.309 158.997 20.8907 158.871 21.4636 158.712L120.124 216.058C119.551 216.217 118.969 216.343 118.382 216.434"
    stroke="white" stroke-miterlimit="10" />
  <path
    d="M120.124 216.058L21.4637 158.712C22.2653 158.508 23.0519 158.248 23.8178 157.936L122.454 215.258C121.689 215.578 120.902 215.845 120.1 216.058"
    fill="#001020" />
  <path
    d="M120.124 216.058L21.4637 158.712C22.2653 158.508 23.0519 158.248 23.8178 157.936L122.454 215.258C121.689 215.578 120.902 215.845 120.1 216.058"
    stroke="white" stroke-miterlimit="10" />
  <path
    d="M122.454 215.258L23.7938 157.936C24.7213 157.541 25.6252 157.093 26.501 156.594L125.161 213.916C124.285 214.415 123.381 214.863 122.454 215.258"
    fill="#001020" />
  <path
    d="M122.454 215.258L23.7938 157.936C24.7213 157.541 25.6252 157.093 26.501 156.594L125.161 213.916C124.285 214.415 123.381 214.863 122.454 215.258"
    stroke="white" stroke-miterlimit="10" />
  <path
    d="M111.084 215.235L12.4238 157.889C16.1904 160.078 21.2281 159.607 26.5484 156.594L125.161 213.916C119.982 216.953 114.85 217.424 111.084 215.235Z"
    stroke="white" stroke-miterlimit="10" />
  <path
    d="M109.766 217.707L11.1057 160.361L10.376 159.914L109.036 217.236C109.27 217.406 109.514 217.563 109.766 217.707Z"
    fill="#001020" />
  <path
    d="M109.766 217.707L11.1057 160.361L10.376 159.914L109.036 217.236C109.27 217.406 109.514 217.563 109.766 217.707Z"
    fill="#001020" stroke="white" stroke-miterlimit="10" />
  <path
    d="M109.766 217.707L11.1057 160.361L10.376 159.914L109.036 217.236C109.27 217.406 109.514 217.563 109.766 217.707Z"
    stroke="white" stroke-miterlimit="10" />
  <path
    d="M111.084 215.235L12.4241 157.889C12.1739 157.795 11.9302 157.685 11.6943 157.56L110.425 214.811L111.084 215.235Z"
    fill="#001020" />
  <path
    d="M111.084 215.235L12.4241 157.889C12.1739 157.795 11.9302 157.685 11.6943 157.56L110.425 214.811L111.084 215.235Z"
    fill="#001020" stroke="white" stroke-miterlimit="10" />
  <path
    d="M111.084 215.235L12.4241 157.889C12.1739 157.795 11.9302 157.685 11.6943 157.56L110.425 214.811L111.084 215.235Z"
    stroke="white" stroke-miterlimit="10" />
  <path
    d="M109.13 214.058L10.4702 156.83L11.6943 157.559L110.425 214.811C109.974 214.594 109.542 214.342 109.13 214.058V214.058Z"
    fill="#001020" />
  <path d="M109.13 214.058L10.4702 156.83H10.6115L109.272 214.246H109.13" fill="#001020" />
  <path d="M109.13 214.058L10.4702 156.83H10.6115L109.272 214.246H109.13" stroke="white" stroke-miterlimit="10" />
  <path
    d="M109.27 214.245L10.6104 156.899L11.6932 157.559L110.424 214.81C110.028 214.646 109.643 214.457 109.27 214.245"
    fill="#001020" />
  <path
    d="M109.27 214.245L10.6104 156.899L11.6932 157.559L110.424 214.81C110.028 214.646 109.643 214.457 109.27 214.245"
    stroke="white" stroke-miterlimit="10" />
  <path
    d="M109.13 214.058L10.4702 156.83L11.6943 157.559L110.425 214.811C109.974 214.594 109.542 214.342 109.13 214.058V214.058Z"
    stroke="white" stroke-miterlimit="10" />
  <path
    d="M9.33984 156.123L108.047 213.469C108.4 213.704 108.753 213.94 109.13 214.151L10.4698 156.829C10.0788 156.618 9.70141 156.382 9.33984 156.123V156.123Z"
    fill="#001020" />
  <path
    d="M109.13 214.057L10.4703 156.829C8.67997 155.765 7.17049 154.288 6.06811 152.521C3.28814 147.37 2.3497 141.423 3.40799 135.666L102.068 193.012C101.008 198.762 101.946 204.701 104.728 209.844C105.835 211.582 107.345 213.027 109.13 214.057Z"
    fill="#001020" stroke="white" stroke-miterlimit="10" />
  <path
    d="M9.33984 156.123L108.047 213.469C108.4 213.704 108.753 213.94 109.13 214.151L10.4698 156.829C10.0788 156.618 9.70141 156.382 9.33984 156.123V156.123Z"
    stroke="white" stroke-miterlimit="10" />
  <path
    d="M124.221 155.77L25.5604 98.4246C25.8655 98.2144 26.1027 97.92 26.2431 97.5771L124.903 154.923C124.756 155.262 124.52 155.555 124.221 155.77V155.77Z"
    fill="#001020" />
  <path d="M124.22 155.77L25.5596 98.4247L25.8185 98.2363L124.479 155.559L124.22 155.77" fill="#001020" />
  <path d="M124.22 155.77L25.5596 98.4247L25.8185 98.2363L124.479 155.559L124.22 155.77" stroke="white"
    stroke-miterlimit="10" />
  <path d="M124.478 155.559L25.8184 98.2363L124.549 155.464" fill="#001020" />
  <path d="M124.478 155.559L25.8184 98.2363L124.549 155.464" stroke="white" stroke-miterlimit="10" />
  <path d="M124.549 155.464L25.8184 98.1416L124.69 155.393" fill="#001020" />
  <path d="M124.549 155.464L25.8184 98.1416L124.69 155.393" stroke="white" stroke-miterlimit="10" />
  <path d="M124.69 155.394L25.9595 98.0479L124.69 155.323" fill="#001020" />
  <path d="M124.69 155.394L25.9595 98.0479L124.69 155.323" stroke="white" stroke-miterlimit="10" />
  <path d="M124.69 155.323L26.0303 97.9771L124.69 155.205" fill="#001020" />
  <path d="M124.69 155.323L26.0303 97.9771L124.69 155.205" stroke="white" stroke-miterlimit="10" />
  <path d="M124.69 155.205L26.0771 97.9067L124.69 155.205Z" fill="#001020" stroke="white" stroke-miterlimit="10" />
  <path d="M124.69 155.205L26.1245 97.8125L124.832 155.205" fill="#001020" />
  <path d="M124.69 155.205L26.1245 97.8125L124.832 155.205" stroke="white" stroke-miterlimit="10" />
  <path d="M124.831 155.205L26.1714 97.7417L124.879 154.993" fill="#001020" />
  <path d="M124.831 155.205L26.1714 97.7417L124.879 154.993" stroke="white" stroke-miterlimit="10" />
  <path d="M124.879 154.993L26.2188 97.6475L124.902 154.923" fill="#001020" />
  <path d="M124.879 154.993L26.2188 97.6475L124.902 154.923" stroke="white" stroke-miterlimit="10" />
  <path
    d="M124.221 155.77L25.5604 98.4246C25.8655 98.2144 26.1027 97.92 26.2431 97.5771L124.903 154.923C124.756 155.262 124.52 155.555 124.221 155.77V155.77Z"
    stroke="white" stroke-miterlimit="10" />
  <path
    d="M124.903 154.922L26.2424 97.5765C26.4131 97.2856 26.4796 96.9451 26.4308 96.6113L125.091 153.934C125.14 154.275 125.073 154.623 124.903 154.922Z"
    fill="#001020" />
  <path d="M124.902 154.922L26.2421 97.5762L124.926 154.875" fill="#001020" />
  <path d="M124.902 154.922L26.2421 97.5762L124.926 154.875" stroke="white" stroke-miterlimit="10" />
  <path d="M124.926 154.875L26.2655 97.5527L124.949 154.804" fill="#001020" />
  <path d="M124.926 154.875L26.2655 97.5527L124.949 154.804" stroke="white" stroke-miterlimit="10" />
  <path d="M124.949 154.805L26.2889 97.459L124.996 154.734" fill="#001020" />
  <path d="M124.949 154.805L26.2889 97.459L124.996 154.734" stroke="white" stroke-miterlimit="10" />
  <path d="M124.996 154.734L26.3363 97.3882L125.02 154.64" fill="#001020" />
  <path d="M124.996 154.734L26.3363 97.3882L125.02 154.64" stroke="white" stroke-miterlimit="10" />
  <path d="M125.02 154.64L26.3602 97.3174L125.044 154.545" fill="#001020" />
  <path d="M125.02 154.64L26.3602 97.3174L125.044 154.545" stroke="white" stroke-miterlimit="10" />
  <path d="M125.044 154.545L26.3837 97.2231L125.067 154.451" fill="#001020" />
  <path d="M125.044 154.545L26.3837 97.2231L125.067 154.451" stroke="white" stroke-miterlimit="10" />
  <path d="M125.067 154.451L26.4071 97.1055L125.091 154.31C125.102 154.356 125.102 154.405 125.091 154.451"
    fill="#001020" />
  <path d="M125.067 154.451L26.4071 97.1055L125.091 154.31C125.102 154.356 125.102 154.405 125.091 154.451"
    stroke="white" stroke-miterlimit="10" />
  <path
    d="M125.089 154.31L26.4288 96.988C26.4524 96.8635 26.4524 96.7358 26.4288 96.6113L125.089 153.934C125.112 154.058 125.112 154.186 125.089 154.31"
    fill="#001020" />
  <path
    d="M125.089 154.31L26.4288 96.988C26.4524 96.8635 26.4524 96.7358 26.4288 96.6113L125.089 153.934C125.112 154.058 125.112 154.186 125.089 154.31"
    stroke="white" stroke-miterlimit="10" />
  <path
    d="M124.903 154.922L26.2424 97.5765C26.4131 97.2856 26.4796 96.9451 26.4308 96.6113L125.091 153.934C125.14 154.275 125.073 154.623 124.903 154.922Z"
    stroke="white" stroke-miterlimit="10" />
  <path
    d="M121.136 158.218L22.4756 100.873C23.4878 100.002 24.5236 99.1777 25.5595 98.5186L124.22 155.77C123.148 156.529 122.118 157.347 121.136 158.218V158.218Z"
    fill="#001020" />
  <path
    d="M121.136 158.218L22.4756 100.873C23.4878 100.002 24.5236 99.1777 25.5595 98.5186L124.22 155.77C123.15 156.499 122.121 157.285 121.136 158.124"
    fill="#001020" />
  <path
    d="M121.136 158.218L22.4756 100.873C23.4878 100.002 24.5236 99.1777 25.5595 98.5186L124.22 155.77C123.15 156.499 122.121 157.285 121.136 158.124"
    stroke="white" stroke-miterlimit="10" />
  <path
    d="M121.136 158.218L22.4756 100.873C23.4878 100.002 24.5236 99.1777 25.5595 98.5186L124.22 155.77C123.148 156.529 122.118 157.347 121.136 158.218V158.218Z"
    stroke="white" stroke-miterlimit="10" />
  <path
    d="M120.689 156.241L22.0288 98.9183C22.7754 98.2517 23.5615 97.6306 24.3829 97.0586L122.996 154.381C122.196 154.969 121.419 155.605 120.689 156.241Z"
    fill="#001020" />
  <path
    d="M120.689 156.241L22.0288 98.9183C22.7754 98.2517 23.5615 97.6306 24.3829 97.0586L122.996 154.381C122.196 154.969 121.419 155.605 120.642 156.241"
    fill="#001020" />
  <path
    d="M120.689 156.241L22.0288 98.9183C22.7754 98.2517 23.5615 97.6306 24.3829 97.0586L122.996 154.381C122.196 154.969 121.419 155.605 120.642 156.241"
    stroke="white" stroke-miterlimit="10" />
  <path
    d="M120.689 156.241L22.0288 98.9183C22.7754 98.2517 23.5615 97.6306 24.3829 97.0586L122.996 154.381C122.196 154.969 121.419 155.605 120.689 156.241Z"
    stroke="white" stroke-miterlimit="10" />
  <path
    d="M115.274 164.151L16.5908 106.828C18.3341 104.639 20.3072 102.642 22.4761 100.873L121.136 158.218C118.97 159.974 117.004 161.964 115.274 164.151V164.151Z"
    fill="#001020" />
  <path
    d="M115.274 164.151L16.5908 106.829C16.9204 106.405 17.2735 105.982 17.6266 105.582L116.287 162.904C115.934 163.327 115.58 163.728 115.251 164.151"
    fill="#001020" />
  <path
    d="M115.274 164.151L16.5908 106.829C16.9204 106.405 17.2735 105.982 17.6266 105.582L116.287 162.904C115.934 163.327 115.58 163.728 115.251 164.151"
    stroke="white" stroke-miterlimit="10" />
  <path
    d="M116.287 162.904L17.6265 105.582C18.3092 104.805 18.9918 104.051 19.6981 103.228L118.358 160.691C117.652 161.397 116.969 162.127 116.287 162.904Z"
    fill="#001020" stroke="white" stroke-miterlimit="10" />
  <path
    d="M118.358 160.691L19.6984 103.416C20.5929 102.545 21.5346 101.721 22.4762 101.062L121.136 158.219C120.164 158.947 119.236 159.733 118.358 160.573"
    fill="#001020" />
  <path
    d="M118.358 160.691L19.6984 103.416C20.5929 102.545 21.5346 101.721 22.4762 101.062L121.136 158.219C120.164 158.947 119.236 159.733 118.358 160.573"
    stroke="white" stroke-miterlimit="10" />
  <path
    d="M115.274 164.151L16.5908 106.828C18.3341 104.639 20.3072 102.642 22.4761 100.873L121.136 158.218C118.97 159.974 117.004 161.964 115.274 164.151V164.151Z"
    stroke="white" stroke-miterlimit="10" />
  <path
    d="M66.6147 18.6677C77.6084 12.241 88.1312 11.2052 95.8526 15.7016L194.513 73.0238C186.791 68.551 176.221 69.5868 165.275 75.8958L66.6147 18.6677Z"
    fill="#001020" />
  <path
    d="M165.275 75.8962L66.6147 18.6682C68.4587 17.6043 70.3695 16.6607 72.3352 15.8433L170.995 73.0713C169.03 73.8888 167.119 74.8324 165.275 75.8962"
    fill="#001020" />
  <path
    d="M165.275 75.8962L66.6147 18.6682C68.4587 17.6043 70.3695 16.6607 72.3352 15.8433L170.995 73.0713C169.03 73.8888 167.119 74.8324 165.275 75.8962"
    stroke="white" stroke-miterlimit="10" />
  <path
    d="M170.995 73.0712L72.335 15.7255C73.9045 15.0678 75.5168 14.5173 77.1609 14.0776L175.821 71.3998C174.217 71.8529 172.644 72.4113 171.113 73.0712"
    fill="#001020" />
  <path
    d="M170.995 73.0712L72.335 15.7255C73.9045 15.0678 75.5168 14.5173 77.1609 14.0776L175.821 71.3998C174.217 71.8529 172.644 72.4113 171.113 73.0712"
    stroke="white" stroke-miterlimit="10" />
  <path
    d="M175.821 71.3994L77.1611 14.0772C78.3681 13.7369 79.5944 13.4696 80.8335 13.2769L179.494 70.6226C178.257 70.8185 177.031 71.0778 175.821 71.3994"
    fill="#001020" />
  <path
    d="M175.821 71.3994L77.1611 14.0772C78.3681 13.7369 79.5944 13.4696 80.8335 13.2769L179.494 70.6226C178.257 70.8185 177.031 71.0778 175.821 71.3994"
    stroke="white" stroke-miterlimit="10" />
  <path
    d="M179.494 70.6234L80.8335 13.2777C81.8551 13.1198 82.8846 13.0177 83.9174 12.9717L182.577 70.3174C181.545 70.3634 180.515 70.4655 179.494 70.6234"
    fill="#001020" />
  <path
    d="M179.494 70.6234L80.8335 13.2777C81.8551 13.1198 82.8846 13.0177 83.9174 12.9717L182.577 70.3174C181.545 70.3634 180.515 70.4655 179.494 70.6234"
    stroke="white" stroke-miterlimit="10" />
  <path
    d="M182.578 70.3167L83.9177 12.9709C84.8352 12.9238 85.7545 12.9238 86.672 12.9709L185.309 70.4579C184.399 70.3992 183.487 70.3992 182.578 70.4579"
    fill="#001020" />
  <path
    d="M182.578 70.3167L83.9177 12.9709C84.8352 12.9238 85.7545 12.9238 86.672 12.9709L185.309 70.4579C184.399 70.3992 183.487 70.3992 182.578 70.4579"
    stroke="white" stroke-miterlimit="10" />
  <path
    d="M185.308 70.4586L86.6719 12.9951C87.4616 13.0536 88.2475 13.1558 89.026 13.3011L187.804 70.6233C186.976 70.5193 186.143 70.4643 185.308 70.4586Z"
    fill="#001020" stroke="white" stroke-miterlimit="10" />
  <path
    d="M187.804 70.623L89.1436 13.3008C89.9383 13.424 90.7246 13.597 91.4976 13.8187L190.111 71.1644C189.338 70.935 188.552 70.7541 187.757 70.623"
    fill="#001020" />
  <path
    d="M187.804 70.623L89.1436 13.3008C89.9383 13.424 90.7246 13.597 91.4976 13.8187L190.111 71.1644C189.338 70.935 188.552 70.7541 187.757 70.623"
    stroke="white" stroke-miterlimit="10" />
  <path
    d="M190.11 71.1641L91.4502 13.8184C92.18 14.0302 92.8862 14.2892 93.5924 14.5717L192.253 71.9174C191.555 71.621 190.84 71.3693 190.11 71.1641"
    fill="#001020" />
  <path
    d="M190.11 71.1641L91.4502 13.8184C92.18 14.0302 92.8862 14.2892 93.5924 14.5717L192.253 71.9174C191.555 71.621 190.84 71.3693 190.11 71.1641"
    stroke="white" stroke-miterlimit="10" />
  <path
    d="M192.253 71.9175L93.5928 14.5718C94.2936 14.8712 94.9773 15.2092 95.6408 15.584L194.301 72.8121C193.642 72.4357 192.957 72.1054 192.253 71.8233"
    fill="#001020" />
  <path
    d="M192.253 71.9175L93.5928 14.5718C94.2936 14.8712 94.9773 15.2092 95.6408 15.584L194.301 72.8121C193.642 72.4357 192.957 72.1054 192.253 71.8233"
    stroke="white" stroke-miterlimit="10" />
  <path d="M194.301 72.812L95.6406 15.584H95.8525L194.513 73.0239L194.301 72.812Z" fill="#001020" stroke="white"
    stroke-miterlimit="10" />
  <path
    d="M66.6147 18.6677C77.6084 12.241 88.1312 11.2052 95.8526 15.7016L194.513 73.0238C186.791 68.551 176.221 69.5868 165.275 75.8958L66.6147 18.6677Z"
    stroke="white" stroke-miterlimit="10" />
  <path
    d="M114.262 162.716L15.6021 105.37C17.5083 102.997 19.6627 100.835 22.0287 98.9199L120.689 156.242C118.328 158.172 116.174 160.341 114.262 162.716V162.716Z"
    fill="#001020" />
  <path
    d="M114.262 162.715L15.6021 105.369L16.6849 104.098L115.274 161.443C114.898 161.844 114.545 162.267 114.192 162.715"
    fill="#001020" />
  <path
    d="M114.262 162.715L15.6021 105.369L16.6849 104.098L115.274 161.443C114.898 161.844 114.545 162.267 114.192 162.715"
    stroke="white" stroke-miterlimit="10" />
  <path
    d="M115.274 161.444L16.6846 104.098C17.4379 103.227 18.2147 102.379 19.0387 101.603L117.628 158.925C116.828 159.725 116.051 160.573 115.274 161.444"
    fill="#001020" />
  <path
    d="M115.274 161.444L16.6846 104.098C17.4379 103.227 18.2147 102.379 19.0387 101.603L117.628 158.925C116.828 159.725 116.051 160.573 115.274 161.444"
    stroke="white" stroke-miterlimit="10" />
  <path
    d="M117.629 158.925L19.0156 101.603C19.9739 100.658 20.9796 99.7618 22.0289 98.9189L120.689 156.241C119.624 157.083 118.602 157.978 117.629 158.925"
    fill="#001020" />
  <path
    d="M117.629 158.925L19.0156 101.603C19.9739 100.658 20.9796 99.7618 22.0289 98.9189L120.689 156.241C119.624 157.083 118.602 157.978 117.629 158.925"
    stroke="white" stroke-miterlimit="10" />
  <path
    d="M114.262 162.716L15.6021 105.37C17.5083 102.997 19.6627 100.835 22.0287 98.9199L120.689 156.242C118.328 158.172 116.174 160.341 114.262 162.716V162.716Z"
    stroke="white" stroke-miterlimit="10" />
  <path
    d="M6.06714 152.521C-0.524321 142.045 4.16033 121.565 16.5899 106.828L115.274 164.15C102.844 178.91 98.1593 199.462 104.751 209.843C105.637 211.236 106.76 212.463 108.07 213.469L9.33933 156.123C8.04068 155.129 6.93217 153.909 6.06714 152.521V152.521Z"
    fill="#001020" />
  <path
    d="M109.13 214.057L10.4703 156.829C8.67997 155.765 7.17049 154.288 6.06811 152.521C3.28814 147.37 2.3497 141.423 3.40799 135.666L102.068 193.012C101.008 198.762 101.946 204.701 104.728 209.844C105.835 211.582 107.345 213.027 109.13 214.057Z"
    fill="#001020" stroke="white" stroke-miterlimit="10" />
  <path
    d="M102.068 193.012L3.4082 135.666C3.54945 134.466 3.76132 133.312 4.02027 132.041L102.68 189.363C102.421 190.587 102.21 191.717 102.068 193.012Z"
    fill="#001020" stroke="white" stroke-miterlimit="10" />
  <path
    d="M102.68 189.363L4.02002 132.04C4.23189 131.052 4.49084 130.063 4.77333 129.051L103.504 186.397C103.245 187.385 102.986 188.374 102.774 189.363"
    fill="#001020" />
  <path
    d="M102.68 189.363L4.02002 132.04C4.23189 131.052 4.49084 130.063 4.77333 129.051L103.504 186.397C103.245 187.385 102.986 188.374 102.774 189.363"
    stroke="white" stroke-miterlimit="10" />
  <path
    d="M103.504 186.397L4.77344 129.051C5.00885 128.18 5.2678 127.309 5.57383 126.438L104.234 183.76C103.928 184.631 103.669 185.502 103.41 186.397"
    fill="#001020" />
  <path
    d="M103.504 186.397L4.77344 129.051C5.00885 128.18 5.2678 127.309 5.57383 126.438L104.234 183.76C103.928 184.631 103.669 185.502 103.41 186.397"
    stroke="white" stroke-miterlimit="10" />
  <path
    d="M104.234 183.76L5.57373 126.438C5.83268 125.614 6.11517 124.814 6.4212 124.084L105.081 181.359C104.767 182.159 104.485 182.944 104.234 183.713"
    fill="#001020" />
  <path
    d="M104.234 183.76L5.57373 126.438C5.83268 125.614 6.11517 124.814 6.4212 124.084L105.081 181.359C104.767 182.159 104.485 182.944 104.234 183.713"
    stroke="white" stroke-miterlimit="10" />
  <path
    d="M105.081 181.359L6.4209 124.013L7.36254 121.659L106.023 179.076C105.693 179.829 105.387 180.582 105.081 181.43"
    fill="#001020" />
  <path
    d="M105.081 181.359L6.4209 124.013L7.36254 121.659L106.023 179.076C105.693 179.829 105.387 180.582 105.081 181.43"
    stroke="white" stroke-miterlimit="10" />
  <path
    d="M106.022 179.075L7.3623 121.729C7.66834 121 8.02145 120.27 8.37456 119.54L107.035 176.886C106.682 177.616 106.328 178.345 106.022 179.075Z"
    fill="#001020" stroke="white" stroke-miterlimit="10" />
  <path
    d="M107.035 176.885L8.375 119.54C8.70457 118.833 9.08123 118.104 9.45788 117.397L108.212 174.743C107.835 175.449 107.459 176.156 107.129 176.885"
    fill="#001020" />
  <path
    d="M107.035 176.885L8.375 119.54C8.70457 118.833 9.08123 118.104 9.45788 117.397L108.212 174.743C107.835 175.449 107.459 176.156 107.129 176.885"
    stroke="white" stroke-miterlimit="10" />
  <path
    d="M108.212 174.744L9.45801 117.398C9.83466 116.692 10.2349 115.986 10.6351 115.279L109.295 172.601C108.895 173.308 108.495 174.014 108.118 174.744"
    fill="#001020" />
  <path
    d="M108.212 174.744L9.45801 117.398C9.83466 116.692 10.2349 115.986 10.6351 115.279L109.295 172.601C108.895 173.308 108.495 174.014 108.118 174.744"
    stroke="white" stroke-miterlimit="10" />
  <path
    d="M109.295 172.601L10.6353 115.185C11.059 114.478 11.4827 113.749 11.93 113.042L110.567 170.482C110.119 171.189 109.696 171.895 109.272 172.601"
    fill="#001020" />
  <path
    d="M109.295 172.601L10.6353 115.185C11.059 114.478 11.4827 113.749 11.93 113.042L110.567 170.482C110.119 171.189 109.696 171.895 109.272 172.601"
    stroke="white" stroke-miterlimit="10" />
  <path
    d="M110.566 170.483L11.9297 113.137C12.4005 112.408 12.8949 111.678 13.3892 110.972L112.049 168.294L110.59 170.483"
    fill="#001020" />
  <path
    d="M110.566 170.483L11.9297 113.137C12.4005 112.408 12.8949 111.678 13.3892 110.972L112.049 168.294L110.59 170.483"
    stroke="white" stroke-miterlimit="10" />
  <path
    d="M112.049 168.293L13.3887 110.971C13.9537 110.194 14.5186 109.418 15.1072 108.617L113.744 165.963L112.049 168.317"
    fill="#001020" />
  <path
    d="M112.049 168.293L13.3887 110.971C13.9537 110.194 14.5186 109.418 15.1072 108.617L113.744 165.963L112.049 168.317"
    stroke="white" stroke-miterlimit="10" />
  <path
    d="M113.744 166.01L15.1077 108.664C15.5785 108.052 16.0728 107.44 16.5907 106.828L115.274 164.15C114.756 164.762 114.262 165.374 113.768 166.01"
    fill="#001020" />
  <path
    d="M113.744 166.01L15.1077 108.664C15.5785 108.052 16.0728 107.44 16.5907 106.828L115.274 164.15C114.756 164.762 114.262 165.374 113.768 166.01"
    stroke="white" stroke-miterlimit="10" />
  <path
    d="M6.06714 152.521C-0.524321 142.045 4.16033 121.565 16.5899 106.828L115.274 164.15C102.844 178.91 98.1593 199.462 104.751 209.843C105.637 211.236 106.76 212.463 108.07 213.469L9.33933 156.123C8.04068 155.129 6.93217 153.909 6.06714 152.521V152.521Z"
    stroke="white" stroke-miterlimit="10" />
  <path
    d="M107.694 216.576L9.03387 159.23C7.10418 158.068 5.48787 156.452 4.32568 154.522C-2.7366 143.222 2.25408 121.141 15.6018 105.298L114.262 162.714C100.914 178.557 95.8764 200.639 102.986 211.938C104.171 213.831 105.783 215.42 107.694 216.576V216.576Z"
    fill="#001020" />
  <path
    d="M107.694 216.575L9.03429 159.229C7.1046 158.067 5.48829 156.451 4.32611 154.521C1.33022 148.975 0.317048 142.572 1.45411 136.371L100.114 193.74C98.9718 199.956 99.985 206.376 102.986 211.938C104.162 213.856 105.776 215.47 107.694 216.646"
    fill="#001020" />
  <path
    d="M107.694 216.575L9.03429 159.229C7.1046 158.067 5.48829 156.451 4.32611 154.521C1.33022 148.975 0.317048 142.572 1.45411 136.371L100.114 193.74C98.9718 199.956 99.985 206.376 102.986 211.938C104.162 213.856 105.776 215.47 107.694 216.646"
    stroke="white" stroke-miterlimit="10" />
  <path
    d="M100.114 193.741L1.4541 136.372C1.61889 135.077 1.83076 133.759 2.11325 132.44L100.773 189.833C100.491 191.152 100.279 192.446 100.114 193.741"
    fill="#001020" />
  <path
    d="M100.114 193.741L1.4541 136.372C1.61889 135.077 1.83076 133.759 2.11325 132.44L100.773 189.833C100.491 191.152 100.279 192.446 100.114 193.741"
    stroke="white" stroke-miterlimit="10" />
  <path
    d="M100.773 189.833L2.11328 132.487C2.34869 131.427 2.60764 130.345 2.91367 129.262L101.574 186.607C101.268 187.69 101.009 188.75 100.773 189.833"
    fill="#001020" />
  <path
    d="M100.773 189.833L2.11328 132.487C2.34869 131.427 2.60764 130.345 2.91367 129.262L101.574 186.607C101.268 187.69 101.009 188.75 100.773 189.833"
    stroke="white" stroke-miterlimit="10" />
  <path
    d="M101.574 186.608L2.91406 129.309C3.17301 128.391 3.4555 127.426 3.76154 126.484L102.422 183.783C102.108 184.725 101.825 185.666 101.574 186.608Z"
    fill="#001020" stroke="white" stroke-miterlimit="10" />
  <path
    d="M102.421 183.783L3.76074 126.437C4.06677 125.59 4.37281 124.719 4.70238 123.848L103.362 181.099C103.033 181.97 102.727 182.841 102.421 183.712"
    fill="#001020" />
  <path
    d="M102.421 183.783L3.76074 126.437C4.06677 125.59 4.37281 124.719 4.70238 123.848L103.362 181.099C103.033 181.97 102.727 182.841 102.421 183.712"
    stroke="white" stroke-miterlimit="10" />
  <path
    d="M103.363 181.1L4.63232 123.848C4.93836 123.024 5.29147 122.2 5.64458 121.494L104.375 178.746C104.022 179.57 103.669 180.394 103.363 181.1Z"
    fill="#001020" stroke="white" stroke-miterlimit="10" />
  <path
    d="M104.375 178.745L5.71484 121.4C6.04442 120.599 6.42107 119.822 6.79773 119.045L105.458 176.391C105.081 177.168 104.704 177.968 104.375 178.745Z"
    fill="#001020" stroke="white" stroke-miterlimit="10" />
  <path
    d="M105.458 176.391L6.79785 119.022C7.15097 118.269 7.55116 117.492 7.95136 116.668L106.611 174.037C106.211 174.791 105.811 175.567 105.458 176.391Z"
    fill="#001020" stroke="white" stroke-miterlimit="10" />
  <path d="M106.611 174.037L7.95117 116.715L9.22238 114.361L107.882 171.683L106.611 174.037Z" fill="#001020"
    stroke="white" stroke-miterlimit="10" />
  <path
    d="M107.883 171.683L9.34082 114.431C9.7881 113.678 10.2589 112.901 10.7533 112.077L109.296 169.47C108.801 170.247 108.33 171 107.883 171.824"
    fill="#001020" />
  <path
    d="M107.883 171.683L9.34082 114.431C9.7881 113.678 10.2589 112.901 10.7533 112.077L109.296 169.47C108.801 170.247 108.33 171 107.883 171.824"
    stroke="white" stroke-miterlimit="10" />
  <path
    d="M109.296 169.47L10.6357 112.148C11.1301 111.348 11.6715 110.571 12.213 109.794L110.873 167.14C110.332 167.917 109.79 168.693 109.296 169.494"
    fill="#001020" />
  <path
    d="M109.296 169.47L10.6357 112.148C11.1301 111.348 11.6715 110.571 12.213 109.794L110.873 167.14C110.332 167.917 109.79 168.693 109.296 169.494"
    stroke="white" stroke-miterlimit="10" />
  <path
    d="M110.872 167.14L12.2124 109.794C12.8009 108.97 13.3894 108.146 14.0251 107.322L112.685 164.621C112.05 165.421 111.461 166.245 110.872 166.975"
    fill="#001020" />
  <path
    d="M110.872 167.14L12.2124 109.794C12.8009 108.97 13.3894 108.146 14.0251 107.322L112.685 164.621C112.05 165.421 111.461 166.245 110.872 166.975"
    stroke="white" stroke-miterlimit="10" />
  <path
    d="M112.685 164.621L14.0487 107.322C14.5666 106.663 15.0845 106.004 15.6259 105.368L114.262 162.714C113.721 163.35 113.203 164.009 112.685 164.668"
    fill="#001020" />
  <path
    d="M112.685 164.621L14.0487 107.322C14.5666 106.663 15.0845 106.004 15.6259 105.368L114.262 162.714C113.721 163.35 113.203 164.009 112.685 164.668"
    stroke="white" stroke-miterlimit="10" />
  <path
    d="M107.694 216.576L9.03387 159.23C7.10418 158.068 5.48787 156.452 4.32568 154.522C-2.7366 143.222 2.25408 121.141 15.6018 105.298L114.262 162.714C100.914 178.557 95.8764 200.639 102.986 211.938C104.171 213.831 105.783 215.42 107.694 216.576V216.576Z"
    stroke="white" stroke-miterlimit="10" />
  <path
    d="M125.091 153.934L26.4308 96.6115C23.2528 76.6959 33.3518 49.8121 51.0311 31.1677C55.6004 26.2762 60.8487 22.0665 66.6152 18.6675L165.275 75.8955C159.507 79.3295 154.259 83.5706 149.691 88.4899C132.012 107.134 121.913 134.018 125.091 153.934Z"
    fill="#001020" />
  <path
    d="M125.091 153.934L26.4304 96.6121C25.7107 91.5054 25.7107 86.323 26.4304 81.2163L125.02 138.562C124.3 143.661 124.3 148.835 125.02 153.934"
    fill="#001020" />
  <path
    d="M125.091 153.934L26.4304 96.6121C25.7107 91.5054 25.7107 86.323 26.4304 81.2163L125.02 138.562C124.3 143.661 124.3 148.835 125.02 153.934"
    stroke="white" stroke-miterlimit="10" />
  <path
    d="M125.02 138.561L26.3599 81.2157C26.6188 79.3324 26.9484 77.402 27.3486 75.4717L126.009 132.794C125.608 134.748 125.279 136.655 125.02 138.561Z"
    fill="#001020" stroke="white" stroke-miterlimit="10" />
  <path
    d="M126.009 132.794L27.3486 75.4719C27.6782 73.8946 28.0784 72.3174 28.5021 70.7637L127.162 128.086C126.738 129.663 126.338 131.24 126.009 132.794"
    fill="#001020" />
  <path
    d="M126.009 132.794L27.3486 75.4719C27.6782 73.8946 28.0784 72.3174 28.5021 70.7637L127.162 128.086C126.738 129.663 126.338 131.24 126.009 132.794"
    stroke="white" stroke-miterlimit="10" />
  <path
    d="M127.162 128.087L28.502 70.7409C28.9021 69.3755 29.3259 67.9866 29.7732 66.5977L128.433 123.92C127.978 125.301 127.554 126.69 127.162 128.087"
    fill="#001020" />
  <path
    d="M127.162 128.087L28.502 70.7409C28.9021 69.3755 29.3259 67.9866 29.7732 66.5977L128.433 123.92C127.978 125.301 127.554 126.69 127.162 128.087"
    stroke="white" stroke-miterlimit="10" />
  <path
    d="M128.434 123.919L29.7734 66.5969C30.2207 65.3022 30.668 64.031 31.1624 62.7598L129.822 120.082C129.328 121.377 128.881 122.648 128.434 123.919"
    fill="#001020" />
  <path
    d="M128.434 123.919L29.7734 66.5969C30.2207 65.3022 30.668 64.031 31.1624 62.7598L129.822 120.082C129.328 121.377 128.881 122.648 128.434 123.919"
    stroke="white" stroke-miterlimit="10" />
  <path
    d="M129.822 120.082L31.1621 62.7597C31.6329 61.5356 32.1273 60.4056 32.6452 59.1108L131.305 116.457C130.787 117.657 130.293 118.811 129.822 120.082Z"
    fill="#001020" stroke="white" stroke-miterlimit="10" />
  <path
    d="M131.306 116.457L32.6455 59.1111C33.1634 57.9341 33.7049 56.757 34.2463 55.6035L132.906 112.949C132.365 114.103 131.823 115.303 131.306 116.457Z"
    fill="#001020" stroke="white" stroke-miterlimit="10" />
  <path
    d="M132.906 112.95L34.2461 55.604C34.8111 54.4505 35.3996 53.2499 36.0117 52.167L134.672 109.489C134.06 110.643 133.471 111.843 132.906 112.95Z"
    fill="#001020" stroke="white" stroke-miterlimit="10" />
  <path
    d="M134.672 109.489L36.0117 52.1664C36.6002 51.0129 37.2358 49.8123 37.895 48.7529L136.461 106.075C135.802 107.205 135.166 108.429 134.578 109.489"
    fill="#001020" />
  <path
    d="M134.672 109.489L36.0117 52.1664C36.6002 51.0129 37.2358 49.8123 37.895 48.7529L136.461 106.075C135.802 107.205 135.166 108.429 134.578 109.489"
    stroke="white" stroke-miterlimit="10" />
  <path
    d="M136.461 106.076L37.895 48.7534C38.5777 47.5999 39.2839 46.3993 40.0137 45.3164L138.674 102.639C137.944 103.769 137.238 104.993 136.555 106.076"
    fill="#001020" />
  <path
    d="M136.461 106.076L37.895 48.7534C38.5777 47.5999 39.2839 46.3993 40.0137 45.3164L138.674 102.639C137.944 103.769 137.238 104.993 136.555 106.076"
    stroke="white" stroke-miterlimit="10" />
  <path
    d="M138.674 102.638L39.9429 45.3163C40.6962 44.1157 41.473 42.9622 42.297 41.7852L141.028 99.1309C140.204 100.284 139.427 101.485 138.674 102.638Z"
    fill="#001020" stroke="white" stroke-miterlimit="10" />
  <path
    d="M141.028 99.1305L42.2969 41.7848C43.1679 40.5371 44.086 39.2895 45.0276 38.0889L143.758 95.4111C142.817 96.6352 141.899 97.7652 141.028 99.1305"
    fill="#001020" />
  <path
    d="M141.028 99.1305L42.2969 41.7848C43.1679 40.5371 44.086 39.2895 45.0276 38.0889L143.758 95.4111C142.817 96.6352 141.899 97.7652 141.028 99.1305"
    stroke="white" stroke-miterlimit="10" />
  <path
    d="M143.759 95.4112L45.0986 38.089C46.158 36.7001 47.2644 35.3582 48.3944 34.0635L147.054 91.3857C145.924 92.704 144.7 94.0458 143.759 95.4112Z"
    fill="#001020" stroke="white" stroke-miterlimit="10" />
  <path
    d="M147.055 91.3859L48.3945 34.0637C49.2655 33.075 50.1366 32.1098 51.0311 31.1682C51.9257 30.2265 52.3729 29.7793 53.0321 29.1201L151.692 86.4423C151.033 87.1015 150.35 87.7841 149.691 88.4904C149.032 89.1966 147.926 90.3972 147.055 91.3859"
    fill="#001020" />
  <path
    d="M147.055 91.3859L48.3945 34.0637C49.2655 33.075 50.1366 32.1098 51.0311 31.1682C51.9257 30.2265 52.3729 29.7793 53.0321 29.1201L151.692 86.4423C151.033 87.1015 150.35 87.7841 149.691 88.4904C149.032 89.1966 147.926 90.3972 147.055 91.3859"
    stroke="white" stroke-miterlimit="10" />
  <path
    d="M151.692 86.4423L53.032 29.1201C57.1053 25.0823 61.6685 21.5709 66.6151 18.668L165.275 75.896C160.322 78.8267 155.759 82.3701 151.692 86.4423"
    fill="#001020" />
  <path
    d="M151.692 86.4423L53.032 29.1201C57.1053 25.0823 61.6685 21.5709 66.6151 18.668L165.275 75.896C160.322 78.8267 155.759 82.3701 151.692 86.4423"
    stroke="white" stroke-miterlimit="10" />
  <path
    d="M125.091 153.934L26.4308 96.6115C23.2528 76.6959 33.3518 49.8121 51.0311 31.1677C55.6004 26.2762 60.8487 22.0665 66.6152 18.6675L165.275 75.8955C159.507 79.3295 154.259 83.5706 149.691 88.4899C132.012 107.134 121.913 134.018 125.091 153.934Z"
    stroke="white" stroke-miterlimit="10" />
  <path
    d="M97.2641 13.2763L195.924 70.6221C187.826 65.9139 176.738 66.9968 165.321 73.6118C159.242 77.2448 153.716 81.732 148.913 86.936C130.716 106.145 120.146 133.759 123.018 154.498L24.3342 97.0586C21.4858 76.2954 32.0557 48.6819 50.2293 29.4961C55.0558 24.3214 60.6063 19.8731 66.7079 16.2896C78.0782 9.67458 89.166 8.56816 97.2641 13.2763Z"
    fill="#001020" />
  <path
    d="M122.996 154.381L24.3356 97.0584C23.6655 92.0587 23.6655 86.9919 24.3356 81.9922L123.066 139.338C122.396 144.33 122.396 149.389 123.066 154.381"
    fill="#001020" />
  <path
    d="M122.996 154.381L24.3356 97.0584C23.6655 92.0587 23.6655 86.9919 24.3356 81.9922L123.066 139.338C122.396 144.33 122.396 149.389 123.066 154.381"
    stroke="white" stroke-miterlimit="10" />
  <path
    d="M123.066 139.338L24.4062 81.9925C24.6652 79.9915 25.0183 77.967 25.4421 75.9189L124.102 133.241C123.678 135.289 123.325 137.337 123.066 139.338"
    fill="#001020" />
  <path
    d="M123.066 139.338L24.4062 81.9925C24.6652 79.9915 25.0183 77.967 25.4421 75.9189L124.102 133.241C123.678 135.289 123.325 137.337 123.066 139.338"
    stroke="white" stroke-miterlimit="10" />
  <path
    d="M124.102 133.242L25.4424 75.9196C25.7955 74.2952 26.1957 72.6474 26.643 70.9995L125.303 128.345C124.856 129.97 124.456 131.617 124.102 133.242Z"
    fill="#001020" stroke="white" stroke-miterlimit="10" />
  <path
    d="M125.303 128.344L26.6426 70.9987C27.0663 69.5392 27.5136 68.0797 27.9844 66.6201L126.645 123.942C126.174 125.425 125.726 126.885 125.303 128.344"
    fill="#001020" />
  <path
    d="M125.303 128.344L26.6426 70.9987C27.0663 69.5392 27.5136 68.0797 27.9844 66.6201L126.645 123.942C126.174 125.425 125.726 126.885 125.303 128.344"
    stroke="white" stroke-miterlimit="10" />
  <path
    d="M126.644 123.942L27.9844 66.6202C28.4317 65.2784 28.926 63.9366 29.4439 62.5947L128.104 119.893C127.586 121.235 127.092 122.577 126.644 123.919"
    fill="#001020" />
  <path
    d="M126.644 123.942L27.9844 66.6202C28.4317 65.2784 28.926 63.9366 29.4439 62.5947L128.104 119.893C127.586 121.235 127.092 122.577 126.644 123.919"
    stroke="white" stroke-miterlimit="10" />
  <path
    d="M128.104 119.894L29.4443 62.5954C29.9465 61.3242 30.4644 60.0529 30.998 58.7817L129.658 116.104C129.125 117.375 128.607 118.646 128.104 119.918"
    fill="#001020" />
  <path
    d="M128.104 119.894L29.4443 62.5954C29.9465 61.3242 30.4644 60.0529 30.998 58.7817L129.658 116.104C129.125 117.375 128.607 118.646 128.104 119.918"
    stroke="white" stroke-miterlimit="10" />
  <path
    d="M129.658 116.103L30.998 58.6871C31.5395 57.4395 32.1045 56.2153 32.693 54.9912L131.353 112.431C130.772 113.655 130.207 114.879 129.658 116.103Z"
    fill="#001020" stroke="white" stroke-miterlimit="10" />
  <path
    d="M131.352 112.431L32.6924 55.0852C33.2574 53.8846 33.8694 52.7311 34.505 51.4834L133.165 108.829C132.53 110.006 131.917 111.183 131.352 112.431Z"
    fill="#001020" stroke="white" stroke-miterlimit="10" />
  <path
    d="M133.165 108.829L34.5049 51.4835C35.1405 50.2829 35.8232 49.1294 36.5059 47.9053L135.166 105.251C134.483 106.428 133.801 107.605 133.165 108.829"
    fill="#001020" />
  <path
    d="M133.165 108.829L34.5049 51.4835C35.1405 50.2829 35.8232 49.1294 36.5059 47.9053L135.166 105.251C134.483 106.428 133.801 107.605 133.165 108.829"
    stroke="white" stroke-miterlimit="10" />
  <path
    d="M135.166 105.251L36.5063 47.9055C37.2126 46.697 37.9423 45.4965 38.6957 44.3037L137.356 101.649C136.602 102.826 135.873 104.027 135.166 105.251Z"
    fill="#001020" stroke="white" stroke-miterlimit="10" />
  <path
    d="M137.355 101.65L38.6953 44.3042C39.4957 43.0487 40.3196 41.8246 41.1671 40.6318L139.827 97.954C138.98 99.1782 138.156 100.308 137.473 101.65"
    fill="#001020" />
  <path
    d="M137.355 101.65L38.6953 44.3042C39.4957 43.0487 40.3196 41.8246 41.1671 40.6318L139.827 97.954C138.98 99.1782 138.156 100.308 137.473 101.65"
    stroke="white" stroke-miterlimit="10" />
  <path
    d="M139.828 97.9535L41.1675 40.6313C42.1091 39.313 43.0508 38.0183 44.0395 36.7471L142.7 93.9986C141.711 95.2698 140.769 96.5646 139.828 97.8829"
    fill="#001020" />
  <path
    d="M139.828 97.9535L41.1675 40.6313C42.1091 39.313 43.0508 38.0183 44.0395 36.7471L142.7 93.9986C141.711 95.2698 140.769 96.5646 139.828 97.8829"
    stroke="white" stroke-miterlimit="10" />
  <path
    d="M142.699 93.9986L44.0391 36.747C45.1455 35.311 46.3932 33.8986 47.4996 32.5332L146.16 89.8554C144.959 91.2443 143.806 92.6332 142.699 94.0692"
    fill="#001020" />
  <path
    d="M142.699 93.9986L44.0391 36.747C45.1455 35.311 46.3932 33.8986 47.4996 32.5332L146.16 89.8554C144.959 91.2443 143.806 92.6332 142.699 94.0692"
    stroke="white" stroke-miterlimit="10" />
  <path
    d="M146.16 89.8554L47.5 32.5332C48.3946 31.4974 49.3127 30.4851 50.2543 29.4964C50.9134 28.7902 51.5961 28.1075 52.2788 27.4248L150.939 84.7705C150.256 85.4297 149.574 86.1124 148.914 86.8186C148.255 87.5248 147.055 88.8196 146.16 89.8554"
    fill="#001020" />
  <path
    d="M146.16 89.8554L47.5 32.5332C48.3946 31.4974 49.3127 30.4851 50.2543 29.4964C50.9134 28.7902 51.5961 28.1075 52.2788 27.4248L150.939 84.7705C150.256 85.4297 149.574 86.1124 148.914 86.8186C148.255 87.5248 147.055 88.8196 146.16 89.8554"
    stroke="white" stroke-miterlimit="10" />
  <path
    d="M150.938 84.7709L52.2783 27.4251C56.5628 23.1241 61.3808 19.3899 66.6148 16.3138C68.5375 15.1891 70.5353 14.198 72.5942 13.3477L171.254 70.6463C169.204 71.5159 167.208 72.5064 165.275 73.6125C160.044 76.7122 155.227 80.4615 150.938 84.7709"
    fill="#001020" />
  <path
    d="M150.938 84.7709L52.2783 27.4251C56.5628 23.1241 61.3808 19.3899 66.6148 16.3138C68.5375 15.1891 70.5353 14.198 72.5942 13.3477L171.254 70.6463C169.204 71.5159 167.208 72.5064 165.275 73.6125C160.044 76.7122 155.227 80.4615 150.938 84.7709"
    stroke="white" stroke-miterlimit="10" />
  <path
    d="M171.254 70.6461L72.5942 13.324C74.2279 12.6465 75.9027 12.0726 77.6085 11.6055L176.339 68.9041C174.609 69.3755 172.91 69.9574 171.254 70.6461"
    fill="#001020" />
  <path
    d="M171.254 70.6461L72.5942 13.324C74.2279 12.6465 75.9027 12.0726 77.6085 11.6055L176.339 68.9041C174.609 69.3755 172.91 69.9574 171.254 70.6461"
    stroke="white" stroke-miterlimit="10" />
  <path
    d="M176.34 68.9037L77.6089 11.6051C78.8714 11.2642 80.1526 10.997 81.4461 10.8047L180.177 68.1033C178.883 68.3038 177.602 68.5789 176.34 68.9273"
    fill="#001020" />
  <path
    d="M176.34 68.9037L77.6089 11.6051C78.8714 11.2642 80.1526 10.997 81.4461 10.8047L180.177 68.1033C178.883 68.3038 177.602 68.5789 176.34 68.9273"
    stroke="white" stroke-miterlimit="10" />
  <path
    d="M180.177 68.1035L81.5166 10.7578C82.5605 10.5843 83.6139 10.4743 84.6711 10.4282L183.543 67.7504C182.455 67.8043 181.371 67.9143 180.294 68.08"
    fill="#001020" />
  <path
    d="M180.177 68.1035L81.5166 10.7578C82.5605 10.5843 83.6139 10.4743 84.6711 10.4282L183.543 67.7504C182.455 67.8043 181.371 67.9143 180.294 68.08"
    stroke="white" stroke-miterlimit="10" />
  <path
    d="M183.543 67.7507L84.6714 10.4285C85.6278 10.3695 86.587 10.3695 87.5434 10.4285L186.298 67.7977C185.356 67.7977 184.391 67.7977 183.426 67.7977"
    fill="#001020" />
  <path
    d="M183.543 67.7507L84.6714 10.4285C85.6278 10.3695 86.587 10.3695 87.5434 10.4285L186.298 67.7977C185.356 67.7977 184.391 67.7977 183.426 67.7977"
    stroke="white" stroke-miterlimit="10" />
  <path
    d="M186.298 67.7979L87.6377 10.4521C88.506 10.5049 89.3705 10.6071 90.2272 10.7582L188.887 68.1039C188.03 67.9608 187.166 67.8664 186.298 67.8214"
    fill="#001020" />
  <path
    d="M186.298 67.7979L87.6377 10.4521C88.506 10.5049 89.3705 10.6071 90.2272 10.7582L188.887 68.1039C188.03 67.9608 187.166 67.8664 186.298 67.8214"
    stroke="white" stroke-miterlimit="10" />
  <path
    d="M188.887 68.1035L90.2266 10.7578C91.0505 10.8991 91.8509 11.0874 92.5807 11.2993L191.217 68.645C190.445 68.4089 189.659 68.2202 188.863 68.08"
    fill="#001020" />
  <path
    d="M188.887 68.1035L90.2266 10.7578C91.0505 10.8991 91.8509 11.0874 92.5807 11.2993L191.217 68.645C190.445 68.4089 189.659 68.2202 188.863 68.08"
    stroke="white" stroke-miterlimit="10" />
  <path
    d="M191.288 68.6446L92.6514 11.2988C93.4047 11.5342 94.158 11.7932 95.0055 12.0992L193.548 69.445C192.782 69.1253 191.996 68.8579 191.194 68.6446"
    fill="#001020" />
  <path
    d="M191.288 68.6446L92.6514 11.2988C93.4047 11.5342 94.158 11.7932 95.0055 12.0992L193.548 69.445C192.782 69.1253 191.996 68.8579 191.194 68.6446"
    stroke="white" stroke-miterlimit="10" />
  <path
    d="M193.548 69.4453L94.8882 12.0996C95.6248 12.4052 96.3404 12.759 97.0304 13.159L195.691 70.4576C194.995 70.0747 194.28 69.729 193.548 69.4218"
    fill="#001020" />
  <path
    d="M193.548 69.4453L94.8882 12.0996C95.6248 12.4052 96.3404 12.759 97.0304 13.159L195.691 70.4576C194.995 70.0747 194.28 69.729 193.548 69.4218"
    stroke="white" stroke-miterlimit="10" />
  <path d="M195.69 70.4578L97.0303 13.1592H97.2657L195.926 70.6226L195.69 70.4814" fill="#001020" />
  <path d="M195.69 70.4578L97.0303 13.1592H97.2657L195.926 70.6226L195.69 70.4814" stroke="white"
    stroke-miterlimit="10" />
  <path
    d="M97.2641 13.2763L195.924 70.6221C187.826 65.9139 176.738 66.9968 165.321 73.6118C159.242 77.2448 153.716 81.732 148.913 86.936C130.716 106.145 120.146 133.759 123.018 154.498L24.3342 97.0586C21.4858 76.2954 32.0557 48.6819 50.2293 29.4961C55.0558 24.3214 60.6063 19.8731 66.7079 16.2896C78.0782 9.67458 89.166 8.56816 97.2641 13.2763Z"
    stroke="white" stroke-miterlimit="10" />
  <path
    d="M256.167 77.0729C269.585 71.6349 279.708 79.1209 279.708 94.7521C279.339 104.679 276.359 114.334 271.068 122.742C267.354 130.479 261.527 137.008 254.26 141.575L125.162 216.2C119.041 219.731 113.156 220.108 109.036 217.236C106.521 216.137 104.408 214.286 102.986 211.939C95.9238 200.639 100.914 178.558 114.262 162.715C116.174 160.34 118.328 158.171 120.689 156.241C121.419 155.605 122.195 154.97 123.043 154.381C120.195 133.642 130.764 106.028 148.938 86.8188C153.735 81.66 159.244 77.2129 165.299 73.6123C181.778 64.196 197.479 66.0086 204.612 80.1332C208.784 74.3778 213.846 69.3238 219.608 65.1611C220.808 64.3137 221.962 63.5603 223.186 62.807C239.665 53.3436 253.931 59.2524 256.167 77.0729Z"
    fill="#001020" stroke="white" stroke-miterlimit="10" />
  <path d="M186 139.982V179.945L220.609 199.925L255.218 179.945V139.982L220.609 120L186 139.982Z" fill="#0F95A7" />
  <path d="M213.144 157.472H203.196V162.444H213.144V157.472Z" fill="white" />
  <path d="M208.17 142.552H203.196V147.526H208.17V142.552Z" fill="white" />
  <path d="M213.144 147.523H208.17V152.496H213.144V147.523Z" fill="white" />
  <path d="M223.092 167.426H218.118V177.374H223.092V167.426Z" fill="white" />
  <path d="M238.021 157.472H228.072V162.444H238.021V157.472Z" fill="white" />
  <path d="M223.092 142.551H218.118V152.498H223.092V142.551Z" fill="white" />
  <path d="M238.023 142.551H233.049V147.525H238.023V142.551Z" fill="white" />
  <path d="M233.046 147.523H228.072V152.496H233.046V147.523Z" fill="white" />
  <path d="M208.17 172.4H203.196V177.377H208.17V172.4Z" fill="white" />
  <path d="M213.144 167.426H208.17V172.398H213.144V167.426Z" fill="white" />
  <path d="M238.023 172.4H233.049V177.377H238.023V172.4Z" fill="white" />
  <path d="M233.046 167.426H228.072V172.398H233.046V167.426Z" fill="white" />
  <path d="M127.852 136.351L30 190.805V148.454L127.852 94V136.351Z" fill="#001020" stroke="white"
    stroke-linejoin="round" />
  <path d="M147.795 147.611L49.9426 202.065V159.714L147.795 105.263V147.611Z" fill="#001020" stroke="white"
    stroke-linejoin="round" />
  <path d="M49.9423 202.065L30 190.805" stroke="white" stroke-linejoin="round" />
  <path d="M49.9423 159.717L30 148.457" stroke="white" stroke-linejoin="round" />
  <path d="M147.778 105.263L127.836 94.0034" stroke="white" stroke-linejoin="round" />
  <path fill-rule="evenodd" clip-rule="evenodd"
    d="M68.4111 183.626V173.613L70.053 172.689V176.607C70.4938 175.776 71.1563 175.086 71.9654 174.617C73.2523 173.89 74.3527 173.828 74.3527 176.033V180.26L72.7154 181.188V177.319C72.7154 176.203 72.4891 175.728 71.4907 176.288C70.8893 176.621 70.3915 177.116 70.053 177.718V182.716L68.4111 183.626ZM78.8833 177.898C77.5521 178.642 76.4915 178.655 76.4915 177.292C76.4915 175.715 77.8849 174.513 79.2782 173.729C79.8652 173.397 80.4874 173.132 81.133 172.94V172.384C81.133 171.488 80.9821 170.892 79.7264 171.595C78.7723 172.129 78.2221 172.824 78.2221 173.63L76.6779 174.5C76.6779 172.626 78.1911 171.143 79.8284 170.219C81.6034 169.233 82.7704 169.323 82.7704 171.246V174.065C82.7704 174.325 82.868 174.366 83.1387 174.213C83.3635 174.08 83.5786 173.93 83.7821 173.765V174.881C83.3915 175.27 82.9548 175.609 82.482 175.889C81.6256 176.369 81.3771 176.046 81.3771 175.549V175.428C80.7949 176.474 79.9299 177.33 78.8833 177.898ZM79.2649 176.445C79.9908 176.041 80.6267 175.49 81.133 174.827V173.962C80.6114 174.15 80.1079 174.385 79.6287 174.666C78.7191 175.177 78.1334 175.679 78.1334 176.324C78.1334 176.844 78.5327 176.858 79.2826 176.436L79.2649 176.445ZM85.5615 174.016V167.154L86.9859 166.356V167.252C87.4508 166.312 88.1812 165.532 89.0847 165.011C90.376 164.289 91.5075 164.209 91.5075 166.41V170.636L89.8657 171.56V167.678C89.8657 166.562 89.635 166.087 88.641 166.647C88.0404 166.98 87.5416 167.473 87.1989 168.072V173.075L85.5615 174.016ZM96.4374 168.059C94.9376 168.906 93.6064 168.601 93.6064 166.078C93.5804 165.04 93.829 164.015 94.3267 163.107C94.8244 162.199 95.5531 161.442 96.4374 160.914C97.2006 160.466 97.9328 160.376 98.4608 160.645V156.759L100.103 155.836V165.849L98.6783 166.652V165.755C98.1684 166.717 97.3991 167.512 96.4596 168.05L96.4374 168.059ZM96.961 166.396C97.5736 166.042 98.0939 165.546 98.4786 164.948V161.757C98.228 161.679 97.9636 161.659 97.7043 161.697C97.445 161.735 97.1972 161.83 96.9788 161.977C95.8117 162.631 95.3281 163.769 95.3281 165.114C95.3281 166.459 95.8117 167.055 96.9788 166.401L96.961 166.396ZM105.667 162.891C103.843 163.913 102.37 164.124 102.326 162.465L103.941 161.569C104.003 162.259 104.735 162.16 105.76 161.569C106.692 161.044 107.433 160.488 107.433 159.852C107.433 159.216 106.404 159.641 105.041 160.161C103.679 160.681 102.45 160.99 102.45 159.552C102.45 158.113 103.888 156.737 105.556 155.8C107.225 154.863 108.662 154.518 108.773 156.159L107.167 157.055C107.06 156.369 106.257 156.67 105.574 157.055C104.638 157.584 104.118 158.059 104.118 158.525C104.118 159.144 104.926 158.794 106.541 158.153C107.797 157.647 109.11 157.328 109.11 158.736C109.11 160.381 107.575 161.806 105.68 162.869L105.667 162.891ZM111.32 159.565V149.529L112.958 148.61V152.528C113.399 151.697 114.062 151.006 114.87 150.533C116.157 149.812 117.262 149.749 117.262 151.95V156.177L115.62 157.095V153.232C115.62 152.111 115.394 151.636 114.395 152.196C113.795 152.53 113.297 153.025 112.958 153.626V158.624L111.32 159.565ZM121.788 153.837C120.457 154.576 119.401 154.594 119.401 153.227C119.401 151.649 120.798 150.448 122.192 149.664C122.777 149.331 123.398 149.067 124.042 148.875V148.319C124.042 147.423 123.887 146.827 122.631 147.53C121.686 148.064 121.136 148.758 121.136 149.565L119.591 150.417C119.591 148.543 121.105 147.06 122.746 146.136C124.521 145.15 125.688 145.24 125.688 147.163V149.982C125.688 150.242 125.777 150.282 126.057 150.13C126.279 149.995 126.493 149.846 126.696 149.682V150.798C126.306 151.188 125.869 151.527 125.396 151.806C124.539 152.286 124.295 151.963 124.295 151.466V151.345C123.714 152.384 122.856 153.238 121.819 153.81L121.788 153.837ZM122.178 152.38C122.902 151.974 123.536 151.424 124.042 150.762V149.892C123.523 150.084 123.021 150.321 122.542 150.601C121.633 151.112 121.042 151.609 121.042 152.259C121.042 152.775 121.446 152.792 122.201 152.367L122.178 152.38ZM128.466 149.915V139.897L130.108 138.978V144.733L133.072 140.489L135.246 139.265L132.318 143.42L135.424 146.015L133.427 147.122L131.151 144.98L130.126 146.392V148.974L128.466 149.915ZM140.096 143.537C138.14 144.639 136.524 144.567 136.524 142.004C136.524 139.243 138.348 137.373 140.003 136.446C141.658 135.518 143.526 135.33 143.526 138.037V138.409L138.202 141.399C138.246 142.564 138.832 142.963 140.145 142.223C141.033 141.712 141.681 140.991 141.8 140.265L143.487 139.314C143.163 141.255 141.583 142.698 140.114 143.528L140.096 143.537ZM138.228 140.224L141.814 138.212C141.641 137.315 140.7 137.167 139.706 137.898C138.947 138.464 138.421 139.292 138.228 140.224Z"
    fill="white" />
</svg>