<svg width="36" height="36" viewBox="0 0 36 36" fill="none" xmlns="http://www.w3.org/2000/svg">
<path d="M18.6258 13.6078C19.9987 13.6078 21.1116 12.4949 21.1116 11.122C21.1116 9.74916 19.9987 8.63623 18.6258 8.63623C17.2529 8.63623 16.14 9.74916 16.14 11.122C16.14 12.4949 17.2529 13.6078 18.6258 13.6078Z" stroke="white" stroke-miterlimit="10"/>
<path d="M26.2423 14.4622C26.0168 14.4295 25.7872 14.4834 25.5998 14.6131C25.4125 14.7428 25.2812 14.9387 25.2325 15.1614L24.0284 22.0361C23.9559 22.4374 23.7454 22.8007 23.4333 23.0632C23.1212 23.3256 22.7272 23.4707 22.3194 23.4732H18.7461C18.4474 23.4732 18.1609 23.5919 17.9497 23.8031C17.7384 24.0144 17.6198 24.3009 17.6198 24.5996V28.3283C17.6198 28.5549 17.7098 28.7723 17.87 28.9325C18.0303 29.0928 18.2476 29.1828 18.4742 29.1828C18.7009 29.1828 18.9182 29.0928 19.0785 28.9325C19.2387 28.7723 19.3287 28.5549 19.3287 28.3283V25.2211H22.2806C23.0878 25.2229 23.8697 24.9394 24.488 24.4205C25.1064 23.9017 25.5214 23.181 25.6597 22.3857L26.8638 15.5109C26.8994 15.4013 26.9113 15.2852 26.8986 15.1706C26.8859 15.0559 26.849 14.9453 26.7902 14.8461C26.7314 14.7469 26.6521 14.6613 26.5576 14.5951C26.4632 14.5289 26.3557 14.4836 26.2423 14.4622V14.4622Z" stroke="white" stroke-miterlimit="10"/>
<path d="M22.5139 21.8029C22.6815 21.6002 22.8003 21.3617 22.8609 21.1057C22.9215 20.8497 22.9224 20.5833 22.8634 20.3269L21.8536 15.5107C21.7419 15.0421 21.4664 14.6288 21.0768 14.3455C20.6619 14.081 20.1622 13.9839 19.6785 14.0736L17.9695 14.462C17.6588 14.5397 15.2895 15.7826 15.2895 15.7826L13.1922 15.7049C13.0262 15.6667 12.854 15.6653 12.6874 15.7008C12.5209 15.7363 12.3642 15.8079 12.2283 15.9105C12.0924 16.0131 11.9807 16.1442 11.901 16.2946C11.8212 16.4451 11.7754 16.6111 11.7668 16.7812C11.7581 16.9512 11.7868 17.1211 11.8509 17.2789C11.915 17.4366 12.0129 17.5784 12.1376 17.6942C12.2624 17.8101 12.411 17.8972 12.5731 17.9494C12.7352 18.0016 12.9067 18.0177 13.0756 17.9965L15.4837 18.113H15.5226C15.6974 18.1115 15.8697 18.0718 16.0275 17.9965L17.62 17.2197L18.2026 19.8997H15.9537C15.7138 19.8992 15.4762 19.946 15.2545 20.0376C15.0328 20.1292 14.8314 20.2636 14.6617 20.4332C14.4921 20.6028 14.3577 20.8043 14.2661 21.026C14.1746 21.2477 14.1277 21.4853 14.1282 21.7252V27.862C14.1282 28.2019 14.2632 28.5279 14.5036 28.7683C14.744 29.0087 15.07 29.1437 15.4099 29.1437C15.7499 29.1437 16.0759 29.0087 16.3163 28.7683C16.5566 28.5279 16.6917 28.2019 16.6917 27.862V22.9448C16.6895 22.883 16.7001 22.8214 16.7227 22.7639C16.7454 22.7063 16.7796 22.6541 16.8234 22.6104C16.8671 22.5667 16.9193 22.5324 16.9769 22.5097C17.0344 22.4871 17.096 22.4765 17.1578 22.4787H21.1195C21.3877 22.4779 21.6524 22.4168 21.8938 22.2998C22.1351 22.1828 22.3471 22.013 22.5139 21.8029V21.8029Z" stroke="white" stroke-miterlimit="10"/>
<path d="M18.1986 35.3971C27.6971 35.3971 35.3971 27.6971 35.3971 18.1986C35.3971 8.70006 27.6971 1 18.1986 1C8.70006 1 1 8.70006 1 18.1986C1 27.6971 8.70006 35.3971 18.1986 35.3971Z" stroke="white" stroke-miterlimit="10"/>
<path d="M5.05865 7.10547L29.3223 31.3691" stroke="white" stroke-miterlimit="10"/>
</svg>
