<svg width="39" height="38" viewBox="0 0 39 38" fill="none" xmlns="http://www.w3.org/2000/svg">
  <path
    d="M14.5146 14.2399L14.014 8.88403L25.2545 14.0448L26.4096 26.3659L22.857 24.6974L22.2153 17.8001L14.5146 14.2399ZM14.8098 7.15266L24.899 0L36.1407 5.16203L26.0489 12.3134L14.8098 7.15266ZM38.3906 19.0323L28.3052 26.1836L27.1578 13.8625L37.2483 6.70987L38.3906 19.0323Z"
    fill="#0F95A7" />
  <path
    d="M21.3668 15.9298L23.2343 16.8L24.383 29.1211L13.1374 23.9539L11.9823 11.6328L15.6696 13.3013L21.3668 15.9298ZM0 18.9677L10.0918 11.8138L11.2404 24.1349L1.14997 31.2824L0 18.9677ZM13.4903 38L2.24988 32.8379L12.3416 25.684L23.5821 30.846L13.4903 38Z"
    fill="#35C1D3" />
</svg>