<svg width="54" height="53" viewBox="0 0 54 53" fill="none" xmlns="http://www.w3.org/2000/svg">
  <path
    d="M42.4471 23.647L20.2988 10.7747C22.9168 9.28911 26.4632 7.3083 30.9382 4.83228L53.091 17.7046C48.607 20.1776 45.059 22.1584 42.4471 23.647Z"
    fill="#003A72" stroke="#EDF3FF" stroke-width="0.96" stroke-linejoin="round" />
  <path d="M41.7904 23.8965L19.6421 11.0242H19.6783L41.8357 23.8874H41.7995" fill="#003A72" />
  <path
    d="M41.8362 23.8875L19.6743 11.0152C19.816 10.9734 19.9551 10.9235 20.091 10.8657L42.2439 23.738C42.108 23.7958 41.9688 23.8457 41.8272 23.8875"
    fill="#003A72" />
  <path d="M42.2432 23.7375L20.0948 10.8652L20.3032 10.7747L42.447 23.647L42.2432 23.7375Z" fill="#003A72" />
  <path
    d="M28.9087 52.0006L6.75586 39.1283C8.37433 32.0566 9.37531 27.6269 9.75879 25.8394L31.9071 38.7116C31.5267 40.4992 30.5272 44.9289 28.9087 52.0006"
    fill="#003A72" />
  <path
    d="M28.9087 52.0006L6.75586 39.1283C8.37433 32.0566 9.37531 27.6269 9.75879 25.8394L31.9071 38.7116C31.5267 40.4992 30.5272 44.9289 28.9087 52.0006"
    stroke="#EDF3FF" stroke-width="0.96" stroke-linejoin="round" />
  <path
    d="M31.9071 38.7115L9.75879 25.8392C9.85843 25.3863 9.91732 25.0828 9.9309 24.9741L32.0837 37.8509C32.0837 37.9551 32.0113 38.2405 31.9071 38.7115"
    fill="#003A72" />
  <path
    d="M32.0834 37.851L9.93054 24.9742C9.93206 24.9622 9.93206 24.95 9.93054 24.938V24.938L32.0789 37.8103C32.0781 37.8239 32.0781 37.8375 32.0789 37.851"
    fill="#003A72" />
  <path
    d="M34.3304 28.2805L12.1776 15.4082C12.9265 12.4642 14.1478 7.66159 15.8418 1.00049L37.9947 13.8728C36.3098 20.5369 35.0883 25.3395 34.3304 28.2805"
    fill="#003A72" />
  <path
    d="M34.3304 28.2805L12.1776 15.4082C12.9265 12.4642 14.1478 7.66159 15.8418 1.00049L37.9947 13.8728C36.3098 20.5369 35.0883 25.3395 34.3304 28.2805"
    stroke="#EDF3FF" stroke-width="0.96" stroke-linejoin="round" />
  <path
    d="M28.8652 50.9142L29.756 51.3218C30.4356 50.3928 31.0755 49.5183 31.6754 48.6984C33.5221 46.1746 34.9904 44.1678 36.0769 42.68C37.2801 41.0324 38.0286 40.0029 38.2962 39.6208L47.0717 41.4787L47.6517 40.8379C47.2864 39.6907 46.7686 38.0604 46.0983 35.9468L46.0982 35.9466C45.3958 33.7344 44.8397 32.0077 44.4467 30.8202C48.4044 25.025 51.2078 20.9343 52.7953 18.6363L52.1422 17.9145C48.2214 20.0806 44.9182 21.9267 42.3004 23.4121C42.1902 23.465 42.0774 23.5122 41.9625 23.5535C40.9647 20.8544 39.8203 17.7842 38.5008 14.4106L37.5504 14.4701C36.0391 20.4392 34.846 25.1444 34.084 28.0994C33.9203 28.1975 33.6155 28.384 33.1771 28.6554L23.3054 34.6192L23.4234 35.527L29.7607 37.3829C29.7613 37.383 29.7619 37.3832 29.7626 37.3834C30.9014 37.7268 31.4835 37.9026 31.7855 38.0104C31.7399 38.2422 31.6482 38.6782 31.464 39.5122C31.0932 41.1918 30.3508 44.4714 28.8652 50.9142ZM38.3538 39.5235C38.3534 39.5238 38.353 39.5242 38.3526 39.5245L38.3551 39.5223C38.3547 39.5227 38.3543 39.5231 38.3538 39.5235ZM46.6126 40.8705C46.6422 40.9635 46.671 41.0538 46.6988 41.1413L47.1752 40.9896L47.2788 40.5004L47.0008 40.4416C46.6514 39.3429 46.1916 37.8951 45.6217 36.0979C44.8925 33.8016 44.3218 32.0306 43.9277 30.8439L46.6126 40.8705ZM31.8234 37.7972C31.8234 37.7971 31.8235 37.798 31.8236 37.7999C31.8235 37.8001 31.8235 37.8002 31.8235 37.8004C31.8234 37.7984 31.8234 37.7973 31.8234 37.7972Z"
    fill="#003A72" stroke="#EDF3FF" stroke-linejoin="bevel" />
  <path
    d="M38.0807 15.3041C39.3127 18.5108 40.4178 21.4458 41.3825 24.0502C41.4159 24.1315 41.4722 24.2013 41.5446 24.2512C41.617 24.301 41.7023 24.3288 41.7902 24.331H41.8853C42.1387 24.2596 42.3856 24.1672 42.6236 24.0547H42.6643C45.0875 22.6959 48.0995 20.9793 51.6822 19.0045C50.029 21.405 47.3794 25.2731 43.774 30.5497C43.7384 30.6056 43.7154 30.6687 43.7068 30.7344C43.6982 30.8001 43.7041 30.867 43.7242 30.9302C44.1092 32.0942 44.6799 33.8652 45.4181 36.1842C46.0221 38.0865 46.5022 39.5963 46.8585 40.7135L38.2528 38.9018C38.2228 38.8973 38.1922 38.8973 38.1622 38.9018C38.0568 38.9006 37.9548 38.9394 37.8769 39.0105C37.8367 39.0421 37.8042 39.0823 37.7817 39.1282C37.5734 39.4498 34.8921 43.1321 29.8102 50.0801C32.5278 38.1635 32.5278 37.9642 32.5278 37.851C32.5278 37.5203 32.3964 37.4796 31.6536 37.2576L29.9551 36.7503L24.1078 35.0337L33.5604 29.2996L34.5523 28.6972C34.603 28.6693 34.6473 28.6311 34.6824 28.5851C34.7175 28.5391 34.7426 28.4863 34.7562 28.43C35.4854 25.6037 36.6313 21.1016 38.0897 15.3448L38.0807 15.3041ZM38.0037 13.9136C36.3188 20.5777 35.0974 25.3803 34.3395 28.3213L33.334 28.9328L23.0298 35.1334C29.0689 36.8998 32.0884 37.7921 32.0884 37.8102C32.0884 38.0095 31.0316 42.7396 28.9179 52.0005C35.0808 43.576 38.1622 39.3486 38.1622 39.3185L47.5062 41.2887C47.1348 40.1352 46.5792 38.3869 45.8394 36.0438C45.0996 33.7006 44.5349 31.9478 44.1454 30.7852C48.6747 24.1694 51.6595 19.8153 53.0999 17.7227C48.6098 20.1836 45.0588 22.1584 42.4469 23.647C42.236 23.7498 42.0162 23.8332 41.7902 23.8962C40.7636 21.1242 39.4984 17.7831 37.9946 13.8728L38.0037 13.9136Z"
    fill="#F8FAFF" />
  <path d="M23.0226 34.5889L1.7923 22.2518L12.1804 15.948L33.4149 28.2895L23.0226 34.5889Z" fill="#003A72"
    stroke="#EDF3FF" stroke-width="0.5" />
  <path
    d="M12.1821 15.911L33.4699 28.2896L23.0162 34.6306L1.72847 22.2565L12.1821 15.9155V15.911ZM12.1821 15.4127L0.876953 22.261L23.0298 35.1333L34.3304 28.2805L12.1776 15.4082L12.1821 15.4127Z"
    fill="#F8FAFF" />
</svg>