<svg width="56" height="56" viewBox="0 0 56 56" fill="none" xmlns="http://www.w3.org/2000/svg">
  <mask id="path-1-outside-1_524_28" maskUnits="userSpaceOnUse" x="0" y="0.000244141" width="56" height="56"
    fill="black">
    <rect fill="white" y="0.000244141" width="56" height="56" />
    <path fill-rule="evenodd" clip-rule="evenodd"
      d="M27.9446 9.29326L26.4993 10.9494L36.6097 8.08374L38.1232 6.43382L27.9446 9.29326ZM1.918 17.9088L12.1215 15.0184L13.6597 13.3374L3.54311 16.2031L1.918 17.9088ZM8.07729 11.5635L17.8341 8.79705L18.5723 8.01551L8.90225 10.7757L8.07729 11.5635ZM19.8624 8.2202L30.2582 5.28011L30.8784 4.52338L20.5261 7.46347L19.8624 8.2202ZM32.212 4.72807L42.5954 1.78799L43.3273 1.00024L32.8571 3.95273L32.212 4.72807ZM43.5568 2.47029L46.4969 12.8536L47.8428 11.5138L44.878 1.04366L43.5568 2.47029ZM46.8752 14.1872L50.2929 26.2825L51.6637 25.0419L48.215 12.8474L46.8752 14.1872ZM50.6651 27.585L53.5555 37.7885L54.9015 36.4487L52.0111 26.2453L50.6651 27.585ZM52.6934 38.7995L49.7533 28.4162L47.7374 30.4259L50.7023 40.8961L52.6934 38.7995ZM49.3997 27.1757L45.982 15.1176L43.991 17.2203L47.3838 29.1978L49.3997 27.1757ZM45.6285 13.8771L42.6636 3.39449L40.6725 5.491L43.6374 15.9612L45.6285 13.8771ZM41.1191 3.33246L30.8288 6.26634L29.4394 7.72398L39.7297 4.80871L41.1191 3.33246ZM28.8191 6.8494L18.5226 9.76467L17.1146 11.2161L27.3739 8.29463L28.8191 6.8494ZM16.4509 10.3415L6.60105 13.1327L5.01935 14.6338L15.0429 11.793L16.4509 10.3415ZM44.2081 32.1937L46.379 30.0413L43.0357 18.219L40.8896 20.4581L44.2081 32.1937ZM46.7574 31.3749L44.5864 33.521L47.5761 44.0656L49.7223 41.8265L46.7574 31.3749ZM40.5174 19.1494L42.6574 16.9102L39.8103 6.50205L37.5712 8.76603L40.5174 19.1494ZM7.68652 43.0298L18.7832 39.885L15.3841 27.8952L4.29364 31.04L7.68652 43.0298ZM19.8438 39.5873L31.1141 36.3805L27.7213 24.4217L16.4509 27.5975L19.8438 39.5873ZM32.181 36.0828L43.2715 32.938L39.8786 20.9606L28.8191 24.0991L32.181 36.0828ZM43.5692 34.0048L32.4787 37.1434L35.5801 47.9671L46.6395 44.8286L43.5692 34.0048ZM31.4181 37.4474L20.1354 40.6417L23.2367 51.4655L34.507 48.2711L31.4181 37.4474ZM19.0809 40.9395L7.99045 44.0842L11.0546 54.908L22.1512 51.7632L19.0809 40.9395ZM4.00831 30.0041L15.0988 26.8655L12.0718 16.2713L1 19.4161L4.00831 30.0041ZM16.1656 26.5616L27.4297 23.3672L24.44 12.8226L13.1573 15.9736L16.1656 26.5616ZM28.4966 23.0695L39.5746 19.8937L36.5849 9.34909L25.4945 12.4753L28.4966 23.0695ZM24.4772 11.5262L26.0093 9.8453L15.7004 12.7606L14.1621 14.4415L24.4772 11.5262Z" />
  </mask>
  <path fill-rule="evenodd" clip-rule="evenodd"
    d="M27.9446 9.29326L26.4993 10.9494L36.6097 8.08374L38.1232 6.43382L27.9446 9.29326ZM1.918 17.9088L12.1215 15.0184L13.6597 13.3374L3.54311 16.2031L1.918 17.9088ZM8.07729 11.5635L17.8341 8.79705L18.5723 8.01551L8.90225 10.7757L8.07729 11.5635ZM19.8624 8.2202L30.2582 5.28011L30.8784 4.52338L20.5261 7.46347L19.8624 8.2202ZM32.212 4.72807L42.5954 1.78799L43.3273 1.00024L32.8571 3.95273L32.212 4.72807ZM43.5568 2.47029L46.4969 12.8536L47.8428 11.5138L44.878 1.04366L43.5568 2.47029ZM46.8752 14.1872L50.2929 26.2825L51.6637 25.0419L48.215 12.8474L46.8752 14.1872ZM50.6651 27.585L53.5555 37.7885L54.9015 36.4487L52.0111 26.2453L50.6651 27.585ZM52.6934 38.7995L49.7533 28.4162L47.7374 30.4259L50.7023 40.8961L52.6934 38.7995ZM49.3997 27.1757L45.982 15.1176L43.991 17.2203L47.3838 29.1978L49.3997 27.1757ZM45.6285 13.8771L42.6636 3.39449L40.6725 5.491L43.6374 15.9612L45.6285 13.8771ZM41.1191 3.33246L30.8288 6.26634L29.4394 7.72398L39.7297 4.80871L41.1191 3.33246ZM28.8191 6.8494L18.5226 9.76467L17.1146 11.2161L27.3739 8.29463L28.8191 6.8494ZM16.4509 10.3415L6.60105 13.1327L5.01935 14.6338L15.0429 11.793L16.4509 10.3415ZM44.2081 32.1937L46.379 30.0413L43.0357 18.219L40.8896 20.4581L44.2081 32.1937ZM46.7574 31.3749L44.5864 33.521L47.5761 44.0656L49.7223 41.8265L46.7574 31.3749ZM40.5174 19.1494L42.6574 16.9102L39.8103 6.50205L37.5712 8.76603L40.5174 19.1494ZM7.68652 43.0298L18.7832 39.885L15.3841 27.8952L4.29364 31.04L7.68652 43.0298ZM19.8438 39.5873L31.1141 36.3805L27.7213 24.4217L16.4509 27.5975L19.8438 39.5873ZM32.181 36.0828L43.2715 32.938L39.8786 20.9606L28.8191 24.0991L32.181 36.0828ZM43.5692 34.0048L32.4787 37.1434L35.5801 47.9671L46.6395 44.8286L43.5692 34.0048ZM31.4181 37.4474L20.1354 40.6417L23.2367 51.4655L34.507 48.2711L31.4181 37.4474ZM19.0809 40.9395L7.99045 44.0842L11.0546 54.908L22.1512 51.7632L19.0809 40.9395ZM4.00831 30.0041L15.0988 26.8655L12.0718 16.2713L1 19.4161L4.00831 30.0041ZM16.1656 26.5616L27.4297 23.3672L24.44 12.8226L13.1573 15.9736L16.1656 26.5616ZM28.4966 23.0695L39.5746 19.8937L36.5849 9.34909L25.4945 12.4753L28.4966 23.0695ZM24.4772 11.5262L26.0093 9.8453L15.7004 12.7606L14.1621 14.4415L24.4772 11.5262Z"
    fill="#003A72" />
  <path fill-rule="evenodd" clip-rule="evenodd"
    d="M27.9446 9.29326L26.4993 10.9494L36.6097 8.08374L38.1232 6.43382L27.9446 9.29326ZM1.918 17.9088L12.1215 15.0184L13.6597 13.3374L3.54311 16.2031L1.918 17.9088ZM8.07729 11.5635L17.8341 8.79705L18.5723 8.01551L8.90225 10.7757L8.07729 11.5635ZM19.8624 8.2202L30.2582 5.28011L30.8784 4.52338L20.5261 7.46347L19.8624 8.2202ZM32.212 4.72807L42.5954 1.78799L43.3273 1.00024L32.8571 3.95273L32.212 4.72807ZM43.5568 2.47029L46.4969 12.8536L47.8428 11.5138L44.878 1.04366L43.5568 2.47029ZM46.8752 14.1872L50.2929 26.2825L51.6637 25.0419L48.215 12.8474L46.8752 14.1872ZM50.6651 27.585L53.5555 37.7885L54.9015 36.4487L52.0111 26.2453L50.6651 27.585ZM52.6934 38.7995L49.7533 28.4162L47.7374 30.4259L50.7023 40.8961L52.6934 38.7995ZM49.3997 27.1757L45.982 15.1176L43.991 17.2203L47.3838 29.1978L49.3997 27.1757ZM45.6285 13.8771L42.6636 3.39449L40.6725 5.491L43.6374 15.9612L45.6285 13.8771ZM41.1191 3.33246L30.8288 6.26634L29.4394 7.72398L39.7297 4.80871L41.1191 3.33246ZM28.8191 6.8494L18.5226 9.76467L17.1146 11.2161L27.3739 8.29463L28.8191 6.8494ZM16.4509 10.3415L6.60105 13.1327L5.01935 14.6338L15.0429 11.793L16.4509 10.3415ZM44.2081 32.1937L46.379 30.0413L43.0357 18.219L40.8896 20.4581L44.2081 32.1937ZM46.7574 31.3749L44.5864 33.521L47.5761 44.0656L49.7223 41.8265L46.7574 31.3749ZM40.5174 19.1494L42.6574 16.9102L39.8103 6.50205L37.5712 8.76603L40.5174 19.1494ZM7.68652 43.0298L18.7832 39.885L15.3841 27.8952L4.29364 31.04L7.68652 43.0298ZM19.8438 39.5873L31.1141 36.3805L27.7213 24.4217L16.4509 27.5975L19.8438 39.5873ZM32.181 36.0828L43.2715 32.938L39.8786 20.9606L28.8191 24.0991L32.181 36.0828ZM43.5692 34.0048L32.4787 37.1434L35.5801 47.9671L46.6395 44.8286L43.5692 34.0048ZM31.4181 37.4474L20.1354 40.6417L23.2367 51.4655L34.507 48.2711L31.4181 37.4474ZM19.0809 40.9395L7.99045 44.0842L11.0546 54.908L22.1512 51.7632L19.0809 40.9395ZM4.00831 30.0041L15.0988 26.8655L12.0718 16.2713L1 19.4161L4.00831 30.0041ZM16.1656 26.5616L27.4297 23.3672L24.44 12.8226L13.1573 15.9736L16.1656 26.5616ZM28.4966 23.0695L39.5746 19.8937L36.5849 9.34909L25.4945 12.4753L28.4966 23.0695ZM24.4772 11.5262L26.0093 9.8453L15.7004 12.7606L14.1621 14.4415L24.4772 11.5262Z"
    stroke="#EDF3FF" stroke-miterlimit="10" mask="url(#path-1-outside-1_524_28)" />
</svg>