<svg width="20" height="33" viewBox="0 0 20 33" fill="none" xmlns="http://www.w3.org/2000/svg">
<path d="M4.47234 9.04422V6.56231C4.46401 5.82959 4.60219 5.1026 4.87876 4.42403C5.15532 3.74546 5.5647 3.129 6.08284 2.61086C6.60098 2.09271 7.21744 1.68334 7.89601 1.40677C8.57458 1.13021 9.30158 0.992028 10.0343 1.00036H10.2829C11.0118 0.998823 11.7338 1.14087 12.4078 1.41838C13.0818 1.6959 13.6945 2.10345 14.2109 2.61776C14.7274 3.13207 15.1375 3.74307 15.4179 4.41588C15.6982 5.08869 15.8433 5.81013 15.8448 6.53901V15.2432V15.4424M15.8448 15.4424C15.6416 15.2785 15.4308 15.1229 15.213 14.9763C13.7187 13.9702 11.96 13.4292 10.1586 13.4215C8.95682 13.418 7.76617 13.6516 6.6549 14.1092C5.54364 14.5667 4.53362 15.2391 3.68275 16.0878C2.83189 16.9365 2.15693 17.9448 1.69656 19.0549C1.2362 20.165 0.999484 21.355 1 22.5568C1.00309 24.3582 1.53959 26.1183 2.54184 27.6152C3.54409 29.112 4.96718 30.2785 6.6316 30.9675C8.29603 31.6565 10.1272 31.8372 11.8942 31.4866C13.6612 31.1361 15.2847 30.2702 16.5601 28.998C17.8355 27.7259 18.7056 26.1045 19.0606 24.3384C19.4156 22.5724 19.2397 20.7407 18.5549 19.0746C17.97 17.6512 17.0361 16.4031 15.8448 15.4424ZM10.1586 19.1932C10.3374 19.1937 10.5143 19.2298 10.6789 19.2995C10.8436 19.3693 10.9927 19.4711 11.1175 19.5992C11.2423 19.7272 11.3403 19.8789 11.4057 20.0453C11.4711 20.2117 11.5027 20.3894 11.4986 20.5682C11.5001 20.7855 11.4502 21.0002 11.353 21.1945C11.2558 21.3889 11.1141 21.5576 10.9393 21.6868C10.82 21.7734 10.729 21.8934 10.6778 22.0316C10.6266 22.1699 10.6176 22.3202 10.6519 22.4636L11.3743 25.9049H8.9623L9.68861 22.4636C9.7214 22.3198 9.71128 22.1696 9.6595 22.0315C9.60772 21.8934 9.51656 21.7736 9.39731 21.6868C9.22252 21.5576 9.08074 21.3889 8.98354 21.1945C8.88634 21.0002 8.83647 20.7855 8.83801 20.5682C8.83389 20.3911 8.86483 20.2149 8.92907 20.0497C8.9933 19.8846 9.08955 19.7338 9.21229 19.606C9.33502 19.4782 9.48181 19.376 9.64422 19.3051C9.80662 19.2343 9.98143 19.1963 10.1586 19.1932Z" stroke="white" stroke-miterlimit="10"/>
</svg>
