<svg width="39" height="33" viewBox="0 0 39 33" fill="none" xmlns="http://www.w3.org/2000/svg">
<path d="M2.94635 17.0994V29.9167C2.95246 30.3749 3.13823 30.8123 3.46367 31.1349C3.78912 31.4574 4.22821 31.6392 4.6864 31.6412H24.7669V19.8959H29.8628V31.6412H34.3489C34.5842 31.6428 34.8174 31.5978 35.0353 31.509C35.2531 31.4201 35.4513 31.2891 35.6184 31.1234C35.7855 30.9578 35.9182 30.7608 36.009 30.5437C36.0997 30.3266 36.1467 30.0937 36.1472 29.8585V17.1266M16.3813 25.2831H8.68309V19.8959H16.3657L16.3813 25.2831Z" stroke="white" stroke-miterlimit="10"/>
<path d="M6.35654 16.2682C6.80992 15.8609 7.39783 15.6357 8.00726 15.6357C8.61668 15.6357 9.2046 15.8609 9.65798 16.2682C10.2694 16.8043 11.0548 17.1 11.868 17.1C12.6812 17.1 13.4666 16.8043 14.078 16.2682C14.5314 15.8609 15.1193 15.6357 15.7287 15.6357C16.3382 15.6357 16.9261 15.8609 17.3795 16.2682C17.9909 16.8043 18.7763 17.1 19.5895 17.1C20.4027 17.1 21.1881 16.8043 21.7995 16.2682C22.2529 15.8609 22.8408 15.6357 23.4502 15.6357C24.0597 15.6357 24.6476 15.8609 25.1009 16.2682C25.7123 16.8043 26.4978 17.1 27.311 17.1C28.1242 17.1 28.9096 16.8043 29.521 16.2682C29.9744 15.8609 30.5623 15.6357 31.1717 15.6357C31.7811 15.6357 32.3691 15.8609 32.8224 16.2682C33.4293 16.8118 34.2178 17.1083 35.0325 17.0994C35.5574 17.1023 36.0768 16.9921 36.5554 16.7763C37.0339 16.5605 37.4604 16.2441 37.8057 15.8487C37.9617 15.6714 38.0737 15.4597 38.1324 15.2309C38.1912 15.002 38.195 14.7626 38.1436 14.532C37.5882 12.287 34.3955 5.3346 32.6787 2.60023C32.3874 2.13803 32.135 1.73409 31.9408 1.43501C31.8595 1.30196 31.7453 1.19206 31.6093 1.11588C31.4732 1.03969 31.3199 0.999788 31.1639 1H7.92181C7.76559 1.00057 7.61213 1.04122 7.47612 1.11806C7.34011 1.19491 7.2261 1.30538 7.145 1.4389L6.39538 2.63518C4.7097 5.36179 1.57916 12.2987 1.03539 14.5281C0.984056 14.7605 0.988624 15.0017 1.04872 15.232C1.10882 15.4623 1.22273 15.675 1.38107 15.8526C1.72573 16.2465 2.15104 16.5617 2.62818 16.7768C3.10532 16.9919 3.62313 17.1019 4.14651 17.0994C4.96119 17.1083 5.74967 16.8118 6.35654 16.2682Z" stroke="white" stroke-miterlimit="10"/>
</svg>
