<svg width="33" height="33" viewBox="0 0 33 33" fill="none" xmlns="http://www.w3.org/2000/svg">
<path d="M25.6054 24.3316C24.5217 24.3316 23.4824 24.7621 22.7161 25.5284C21.9498 26.2947 21.5193 27.334 21.5193 28.4177C21.5153 29.1514 21.7142 29.8719 22.0942 30.4995C22.1487 30.5932 22.227 30.6709 22.3211 30.7247C22.4152 30.7786 22.5218 30.8068 22.6302 30.8064C22.7153 30.8033 22.7992 30.7862 22.8788 30.7559C25.0902 29.7679 27.043 28.2817 28.5844 26.4135C28.6813 26.2949 28.7315 26.145 28.7258 25.992C28.7201 25.839 28.6588 25.6934 28.5534 25.5823C28.1735 25.1835 27.7159 24.8668 27.2089 24.6517C26.7018 24.4366 26.1561 24.3277 25.6054 24.3316V24.3316Z" stroke="white" stroke-miterlimit="10"/>
<path d="M25.6053 9.11373C26.2114 9.11728 26.8106 8.98518 27.359 8.72711C27.9074 8.46904 28.3911 8.09153 28.7747 7.62226C28.8643 7.51265 28.9133 7.37543 28.9133 7.23386C28.9133 7.09228 28.8643 6.95506 28.7747 6.84545C27.2617 4.92527 25.3177 3.38842 23.1001 2.35938C22.9719 2.30103 22.8277 2.28769 22.6909 2.32153C22.5542 2.35537 22.4329 2.4344 22.3466 2.54581C21.8064 3.25421 21.5156 4.12132 21.5193 5.01218C21.5178 5.54993 21.6223 6.0827 21.8269 6.58C22.0315 7.0773 22.3322 7.52937 22.7117 7.91034C23.0913 8.29131 23.5422 8.59369 24.0387 8.80018C24.5352 9.00668 25.0676 9.11323 25.6053 9.11373V9.11373Z" stroke="white" stroke-miterlimit="10"/>
<path d="M10.5196 14.9283C11.3298 14.9298 12.1222 14.6909 12.7965 14.2419C13.4708 13.7928 13.9968 13.1538 14.3077 12.4056C14.6186 11.6575 14.7006 10.8339 14.5432 10.0392C14.3858 9.24445 13.9961 8.51429 13.4235 7.94114C12.8509 7.36799 12.1211 6.97763 11.3265 6.81948C10.5319 6.66133 9.70829 6.7425 8.95986 7.05272C8.21144 7.36293 7.57188 7.88824 7.12218 8.56214C6.67247 9.23604 6.43283 10.0282 6.4336 10.8384C6.43462 11.9221 6.86532 12.9612 7.63126 13.7279C8.39721 14.4946 9.43589 14.9262 10.5196 14.9283Z" stroke="white" stroke-miterlimit="10"/>
<path d="M15.9575 4.02179C15.9603 3.98425 15.9695 3.94747 15.9847 3.91304C15.9972 3.87467 16.017 3.83906 16.0429 3.80817C16.064 3.77206 16.0887 3.73822 16.1167 3.70718C16.2048 3.62132 16.3163 3.56336 16.4372 3.54056C16.5581 3.51776 16.6831 3.53114 16.7964 3.57901C16.8713 3.61069 16.9408 3.65394 17.0023 3.70718C17.1156 3.8269 17.1795 3.9851 17.1809 4.14996C17.1819 4.2317 17.1646 4.31263 17.1305 4.38689C17.1039 4.46434 17.0601 4.53473 17.0023 4.59274C16.9411 4.64736 16.8716 4.69193 16.7964 4.7248C16.7222 4.75898 16.6412 4.77623 16.5595 4.77529C16.3953 4.77633 16.2375 4.71238 16.1203 4.5974C16.0031 4.48242 15.9362 4.32576 15.9342 4.16161V4.16161C15.9575 4.09947 15.9575 4.06063 15.9575 4.02179ZM7.63396 18.0859C7.60387 18.1612 7.55743 18.2289 7.49802 18.284C7.47266 18.3161 7.44092 18.3425 7.4048 18.3617L7.29993 18.4238L7.17953 18.4549C7.08183 18.4719 6.98149 18.4652 6.88689 18.4355C6.7923 18.4057 6.70619 18.3538 6.63576 18.284C6.57529 18.2283 6.52738 18.1603 6.49524 18.0847C6.46309 18.009 6.44744 17.9273 6.44933 17.8451C6.44902 17.7638 6.46486 17.6833 6.49593 17.6082C6.52974 17.5328 6.57714 17.4644 6.63576 17.4062C6.69163 17.3476 6.75909 17.3013 6.83385 17.2703C6.94817 17.2249 7.07319 17.2136 7.19381 17.2377C7.31443 17.2618 7.42548 17.3203 7.51355 17.4062C7.57305 17.4628 7.61945 17.5318 7.6495 17.6082C7.68368 17.6824 7.70092 17.7634 7.69999 17.8451C7.69369 17.9289 7.67127 18.0107 7.63396 18.0859V18.0859ZM22.3001 14.7456C22.1812 14.8582 22.025 14.9232 21.8612 14.9282C21.7787 14.9249 21.6973 14.9078 21.6204 14.8777C21.5447 14.8482 21.4759 14.8032 21.4184 14.7456C21.3459 14.6729 21.2924 14.5834 21.2626 14.485C21.2329 14.3867 21.2279 14.2825 21.248 14.1817C21.2681 14.081 21.3127 13.9867 21.3779 13.9073C21.4431 13.8279 21.5268 13.7658 21.6218 13.7264C21.7167 13.6871 21.8198 13.6717 21.9221 13.6817C22.0243 13.6917 22.1226 13.7268 22.2081 13.7837C22.2936 13.8407 22.3637 13.9179 22.4123 14.0085C22.4608 14.099 22.4864 14.2001 22.4866 14.3029C22.4838 14.469 22.417 14.6276 22.3001 14.7456V14.7456ZM23.8537 19.7444C23.8243 19.8213 23.7793 19.8914 23.7217 19.9503C23.6034 20.066 23.4444 20.1309 23.2789 20.1309C23.1134 20.1309 22.9544 20.066 22.8361 19.9503C22.779 19.8902 22.733 19.8205 22.7002 19.7444C22.6685 19.6696 22.6539 19.5887 22.6575 19.5075C22.6564 19.4257 22.6716 19.3446 22.7022 19.2688C22.7328 19.1929 22.7781 19.1239 22.8356 19.0658C22.893 19.0076 22.9614 18.9614 23.0369 18.9299C23.1123 18.8984 23.1933 18.8821 23.275 18.8822C23.3584 18.8791 23.4415 18.8934 23.5191 18.9241C23.5966 18.9549 23.6669 19.0014 23.7256 19.0608C23.7789 19.123 23.8233 19.1923 23.8576 19.2667C23.8904 19.3414 23.9073 19.422 23.9073 19.5036C23.9073 19.5852 23.8904 19.6658 23.8576 19.7405L23.8537 19.7444ZM32.1578 16.5789C32.1578 19.6603 31.244 22.6725 29.532 25.2345C27.82 27.7965 25.3867 29.7933 22.5398 30.9723C19.6929 32.1513 16.5603 32.4596 13.5382 31.8582C10.5161 31.2568 7.74019 29.7726 5.56159 27.5935C3.383 25.4144 1.89956 22.6381 1.29888 19.6158C0.698201 16.5936 1.00727 13.461 2.187 10.6144C3.36672 7.76782 5.36412 5.335 7.92657 3.62363C10.489 1.91227 13.5014 0.999232 16.5828 1C20.7146 1 24.6771 2.64135 27.5988 5.56296C30.5204 8.48457 32.1617 12.4471 32.1617 16.5789H32.1578Z" stroke="white" stroke-miterlimit="10"/>
<path d="M13.2074 20.1912C12.5527 20.1912 11.9128 20.3853 11.3685 20.7491C10.8242 21.1129 10.4001 21.63 10.1497 22.2349C9.89937 22.8398 9.83406 23.5054 9.96207 24.1474C10.0901 24.7894 10.4056 25.3791 10.8688 25.8417C11.332 26.3044 11.922 26.6192 12.5642 26.7465C13.2064 26.8737 13.8719 26.8076 14.4765 26.5566C15.0811 26.3055 15.5976 25.8807 15.9608 25.336C16.3239 24.7913 16.5174 24.1512 16.5166 23.4965C16.5156 22.6195 16.1665 21.7788 15.546 21.159C14.9255 20.5393 14.0844 20.1912 13.2074 20.1912V20.1912Z" stroke="white" stroke-miterlimit="10"/>
</svg>
