<svg width="152" height="171" viewBox="0 0 152 171" fill="none" xmlns="http://www.w3.org/2000/svg">
  <path
    d="M0.311279 26.9714V103.936C0.499994 121.612 7.65418 138.5 20.2203 150.933C32.7864 163.365 49.7498 170.339 67.4269 170.339C85.104 170.339 102.067 163.365 114.633 150.933C127.2 138.5 134.354 121.612 134.543 103.936V26.9714L67.4307 0.128174L0.311279 26.9714Z"
    fill="#0F95A7" />
  <path
    d="M149.628 111.602H146.232V100.387C145.967 96.6018 144.407 93.0232 141.814 90.2524C139.222 87.4816 135.755 85.6875 131.996 85.1715L131.606 85.1257C131.368 85.1257 131.131 85.0568 130.886 85.0415H130.512H129.708H128.898H128.523C128.278 85.0415 128.048 85.1027 127.804 85.1257L127.413 85.1715C123.654 85.6864 120.188 87.4804 117.596 90.2516C115.005 93.0227 113.447 96.602 113.185 100.387V111.602H109.781C109.152 111.602 108.548 111.851 108.104 112.296C107.659 112.741 107.409 113.344 107.409 113.973V141.757C107.409 142.386 107.659 142.989 108.104 143.434C108.548 143.879 109.152 144.129 109.781 144.129H149.628C150.257 144.129 150.861 143.879 151.305 143.434C151.75 142.989 152 142.386 152 141.757V113.935C151.99 113.313 151.736 112.719 151.292 112.283C150.848 111.846 150.251 111.602 149.628 111.602ZM117.928 111.602V100.387H118.004C118.232 97.6265 119.425 95.0343 121.373 93.0659C123.322 91.0975 125.902 89.8788 128.66 89.6237H128.959C129.211 89.6237 129.456 89.6237 129.724 89.6237H130.489H130.787C133.535 89.8909 136.101 91.1152 138.038 93.0826C139.974 95.05 141.158 97.6354 141.382 100.387H141.458V111.602H117.928Z"
    fill="#EDF3FF" />
  <path
    d="M130.205 126.634C132.96 126.634 135.193 124.4 135.193 121.646C135.193 118.891 132.96 116.658 130.205 116.658C127.451 116.658 125.218 118.891 125.218 121.646C125.218 124.4 127.451 126.634 130.205 126.634Z"
    fill="black" />
  <path d="M136.287 139.417H124.124L127.268 128.478H133.143L136.287 139.417Z" fill="black" />
  <path
    d="M66.9667 115.729C66.5312 115.731 66.1139 115.904 65.8063 116.213C65.4987 116.521 65.3259 116.939 65.3259 117.374V129.186C65.3466 129.608 65.5286 130.005 65.8345 130.296C66.1403 130.588 66.5464 130.75 66.9687 130.75C67.391 130.75 67.7971 130.588 68.103 130.296C68.4088 130.005 68.5909 129.608 68.6115 129.186V117.374C68.6115 116.938 68.4382 116.52 68.1297 116.211C67.8213 115.903 67.403 115.729 66.9667 115.729Z"
    fill="white" />
  <path
    d="M66.9668 101.689C63.7411 101.694 60.6489 102.978 58.368 105.259C56.087 107.54 54.8033 110.632 54.7981 113.857V127.322C54.7981 127.758 54.9714 128.176 55.2798 128.485C55.5883 128.793 56.0066 128.966 56.4428 128.966C56.879 128.966 57.2974 128.793 57.6058 128.485C57.9143 128.176 58.0876 127.758 58.0876 127.322V113.857C58.0627 112.674 58.2743 111.498 58.7098 110.398C59.1453 109.298 59.7961 108.296 60.624 107.45C61.4519 106.605 62.4402 105.933 63.5311 105.474C64.6219 105.016 65.7933 104.78 66.9766 104.78C68.1599 104.78 69.3313 105.016 70.4222 105.474C71.513 105.933 72.5013 106.605 73.3292 107.45C74.1571 108.296 74.8079 109.298 75.2434 110.398C75.679 111.498 75.8905 112.674 75.8657 113.857V127.322C75.8548 127.544 75.8892 127.766 75.9669 127.975C76.0445 128.184 76.1638 128.375 76.3174 128.536C76.471 128.697 76.6558 128.826 76.8605 128.914C77.0653 129.001 77.2857 129.047 77.5084 129.047C77.7312 129.047 77.9516 129.001 78.1564 128.914C78.3611 128.826 78.5459 128.697 78.6995 128.536C78.8531 128.375 78.9724 128.184 79.05 127.975C79.1277 127.766 79.1621 127.544 79.1512 127.322V113.857C79.1512 112.258 78.836 110.674 78.2234 109.197C77.6109 107.72 76.7132 106.377 75.5815 105.247C74.4499 104.117 73.1066 103.221 71.6284 102.611C70.1502 102 68.5661 101.687 66.9668 101.689Z"
    fill="white" />
  <path
    d="M66.9676 90.1948C61.2006 90.2021 55.6719 92.4965 51.5943 96.5749C47.5167 100.653 45.2233 106.182 45.217 111.949V121.955C45.2377 122.377 45.4197 122.775 45.7256 123.066C46.0314 123.357 46.4375 123.52 46.8598 123.52C47.2821 123.52 47.6882 123.357 47.9941 123.066C48.2999 122.775 48.482 122.377 48.5026 121.955V111.945C48.5026 109.521 48.9802 107.119 49.9082 104.879C50.8361 102.639 52.1962 100.603 53.9109 98.8887C55.6255 97.174 57.6611 95.8139 59.9014 94.8859C62.1417 93.958 64.5428 93.4804 66.9676 93.4804C69.3925 93.4804 71.7936 93.958 74.0339 94.8859C76.2742 95.8139 78.3098 97.174 80.0244 98.8887C81.739 100.603 83.0992 102.639 84.0271 104.879C84.9551 107.119 85.4327 109.521 85.4327 111.945V121.955C85.4327 122.391 85.606 122.81 85.9144 123.118C86.2229 123.427 86.6412 123.6 87.0774 123.6C87.5136 123.6 87.932 123.427 88.2404 123.118C88.5489 122.81 88.7222 122.391 88.7222 121.955V111.945C88.7149 106.178 86.4204 100.65 82.3421 96.5721C78.2638 92.4945 72.7347 90.2011 66.9676 90.1948Z"
    fill="white" />
  <path
    d="M66.9672 78.7056C58.9152 78.7149 51.1958 81.9177 45.5022 87.6113C39.8086 93.3049 36.6058 101.024 36.5964 109.076C36.5964 109.513 36.7697 109.931 37.0782 110.239C37.3866 110.548 37.805 110.721 38.2412 110.721C38.6774 110.721 39.0957 110.548 39.4042 110.239C39.7126 109.931 39.8859 109.513 39.8859 109.076C39.8859 105.519 40.5865 101.997 41.9477 98.7113C43.3088 95.4251 45.3039 92.4393 47.819 89.9242C50.3341 87.4091 53.3199 85.414 56.6061 84.0529C59.8922 82.6917 63.4142 81.9911 66.9711 81.9911C70.528 81.9911 74.0501 82.6917 77.3362 84.0529C80.6223 85.414 83.6082 87.4091 86.1233 89.9242C88.6384 92.4393 90.6334 95.4251 91.9946 98.7113C93.3558 101.997 94.0563 105.519 94.0563 109.076C94.077 109.498 94.259 109.896 94.5649 110.187C94.8707 110.478 95.2768 110.641 95.6991 110.641C96.1214 110.641 96.5275 110.478 96.8334 110.187C97.1392 109.896 97.3213 109.498 97.3419 109.076C97.3336 101.023 94.1306 93.3027 88.4359 87.6088C82.7413 81.9148 75.0202 78.7128 66.9672 78.7056Z"
    fill="white" />
  <path
    d="M66.967 67.2161C58.7488 67.2424 50.7318 69.7605 43.9745 74.4378C37.2171 79.1151 32.0371 85.7317 29.1183 93.4141C29.041 93.6162 29.0042 93.8315 29.0101 94.0478C29.016 94.2641 29.0645 94.4771 29.1527 94.6747C29.2409 94.8722 29.3671 95.0505 29.5242 95.1992C29.6813 95.348 29.8662 95.4644 30.0683 95.5417C30.2703 95.619 30.4857 95.6558 30.7019 95.6499C30.9182 95.644 31.1312 95.5956 31.3288 95.5074C31.5264 95.4191 31.7046 95.2929 31.8534 95.1358C32.0021 94.9787 32.1185 94.7938 32.1958 94.5917C34.8571 87.5201 39.6111 81.4279 45.824 77.1277C52.0368 72.8275 59.4131 70.5238 66.9689 70.5238C74.5248 70.5238 81.901 72.8275 88.1139 77.1277C94.3267 81.4279 99.0808 87.5201 101.742 94.5917C101.859 94.9051 102.07 95.1752 102.345 95.366C102.62 95.5568 102.946 95.6592 103.281 95.6595C103.478 95.6586 103.673 95.6227 103.858 95.5535C104.06 95.4772 104.245 95.3618 104.402 95.214C104.56 95.0662 104.687 94.8888 104.776 94.692C104.865 94.4951 104.914 94.2827 104.921 94.0668C104.928 93.851 104.892 93.6358 104.816 93.4338C101.901 85.747 96.7224 79.1256 89.9646 74.4445C83.2068 69.7634 75.1877 67.2429 66.967 67.2161Z"
    fill="white" />
  <path
    d="M31.5247 75.8325C35.8157 70.5773 41.2218 66.3422 47.3513 63.4339C53.4809 60.5255 60.1805 59.0167 66.9651 59.0167C73.7496 59.0167 80.4492 60.5255 86.5788 63.4339C92.7084 66.3422 98.1144 70.5773 102.405 75.8325C102.538 76.0107 102.706 76.1602 102.898 76.2719C103.09 76.3836 103.303 76.4552 103.523 76.4823C103.744 76.5095 103.968 76.4916 104.181 76.4299C104.395 76.3681 104.594 76.2638 104.766 76.123C104.938 75.9823 105.08 75.8082 105.182 75.6112C105.285 75.4142 105.347 75.1983 105.364 74.9767C105.381 74.7551 105.353 74.5324 105.282 74.3219C105.211 74.1114 105.097 73.9175 104.949 73.752C100.35 68.1228 94.5573 63.5864 87.9896 60.4712C81.422 57.3561 74.2439 55.74 66.9749 55.74C59.7059 55.74 52.5278 57.3561 45.9601 60.4712C39.3925 63.5864 33.5996 68.1228 29.0006 73.752C28.8523 73.9175 28.739 74.1114 28.6676 74.3219C28.5963 74.5324 28.5683 74.7551 28.5855 74.9767C28.6026 75.1983 28.6645 75.4142 28.7674 75.6112C28.8702 75.8082 29.012 75.9823 29.184 76.123C29.3561 76.2638 29.5548 76.3681 29.7683 76.4299C29.9819 76.4916 30.2057 76.5095 30.4263 76.4823C30.6469 76.4552 30.8597 76.3836 31.0518 76.2719C31.244 76.1602 31.4115 76.0107 31.5443 75.8325H31.5247Z"
    fill="white" />
  <path
    d="M39.5989 54.474C48.0008 49.9094 57.4108 47.5183 66.9726 47.5183C76.5344 47.5183 85.9444 49.9094 94.3463 54.474C94.5366 54.5911 94.7487 54.6683 94.9697 54.7008C95.1908 54.7333 95.4161 54.7204 95.632 54.6629C95.8479 54.6054 96.0498 54.5046 96.2255 54.3665C96.4011 54.2284 96.5467 54.056 96.6535 53.8597C96.7603 53.6635 96.826 53.4476 96.8466 53.2251C96.8672 53.0026 96.8423 52.7783 96.7733 52.5658C96.7043 52.3533 96.5928 52.1571 96.4455 51.9891C96.2982 51.8211 96.1182 51.6849 95.9165 51.5888C87.0308 46.7614 77.079 44.2327 66.9667 44.2327C56.8544 44.2327 46.9026 46.7614 38.017 51.5888C37.8153 51.6849 37.6353 51.8211 37.488 51.9891C37.3407 52.1571 37.2291 52.3533 37.1602 52.5658C37.0912 52.7783 37.0662 53.0026 37.0868 53.2251C37.1074 53.4476 37.1731 53.6635 37.2799 53.8597C37.3867 54.056 37.5324 54.2284 37.708 54.3665C37.8836 54.5046 38.0856 54.6054 38.3015 54.6629C38.5174 54.7204 38.7427 54.7333 38.9637 54.7008C39.1848 54.6683 39.3969 54.5911 39.5871 54.474H39.5989Z"
    fill="white" />
</svg>