<svg width="36" height="33" viewBox="0 0 36 33" fill="none" xmlns="http://www.w3.org/2000/svg">
<path d="M7.56404 18.5947C8.79096 18.3443 9.89384 17.6781 10.6864 16.7086C11.479 15.7391 11.9126 14.5258 11.9142 13.2736V7.83592H10.2829V2.04869C10.2829 1.77056 10.1724 1.50382 9.97572 1.30715C9.77905 1.11049 9.51231 1 9.23418 1C8.95605 1 8.68931 1.11049 8.49264 1.30715C8.29597 1.50382 8.18549 1.77056 8.18549 2.04869V7.79708H4.72869V2.04869C4.72869 1.77056 4.6182 1.50382 4.42153 1.30715C4.22486 1.11049 3.95812 1 3.67999 1C3.40186 1 3.13512 1.11049 2.93845 1.30715C2.74179 1.50382 2.6313 1.77056 2.6313 2.04869V7.79708H1V13.2347C1.00153 14.487 1.43521 15.7003 2.22777 16.6698C3.02034 17.6392 4.12322 18.3055 5.35013 18.5559L7.56404 18.5947Z" stroke="white" stroke-miterlimit="10"/>
<path d="M34.7524 8.22413C33.2895 7.22174 31.554 6.69296 29.7808 6.70935C27.331 6.71551 24.9833 7.6914 23.251 9.42367C21.5188 11.1559 20.5429 13.5036 20.5367 15.9534V25.1197C20.5367 26.9945 19.792 28.7926 18.4663 30.1183C17.1406 31.4439 15.3426 32.1887 13.4678 32.1887C11.593 32.1887 9.79494 31.4439 8.46926 30.1183C7.14357 28.7926 6.3988 26.9945 6.3988 25.1197V18.5945" stroke="white" stroke-miterlimit="10"/>
</svg>
