<svg width="52" height="52" viewBox="0 0 52 52" fill="none" xmlns="http://www.w3.org/2000/svg">
  <path d="M48.3243 34.0424L31.6884 24.3776L33.2888 23.4531L49.9207 33.1213L48.3243 34.0424Z" fill="#003A72"
    stroke="#EDF3FF" stroke-miterlimit="10" />
  <mask id="path-2-inside-1_524_31" fill="white">
    <path d="M48.1008 35.0049L30.4683 24.7573V24.6328L48.1008 34.8767V35.0049Z" />
  </mask>
  <path d="M48.1008 35.0049L30.4683 24.7573V24.6328L48.1008 34.8767V35.0049Z" fill="#003A72" />
  <path
    d="M48.1008 35.0049L47.5983 35.8695L49.1008 36.7427V35.0049H48.1008ZM30.4683 24.7573H29.4683V25.3327L29.9658 25.6219L30.4683 24.7573ZM30.4683 24.6328L30.9706 23.7681L29.4683 22.8953V24.6328H30.4683ZM48.1008 34.8767H49.1008V34.3011L48.6031 34.012L48.1008 34.8767ZM48.6033 34.1403L30.9707 23.8927L29.9658 25.6219L47.5983 35.8695L48.6033 34.1403ZM31.4683 24.7573V24.6328H29.4683V24.7573H31.4683ZM29.9659 25.4975L47.5985 35.7413L48.6031 34.012L30.9706 23.7681L29.9659 25.4975ZM47.1008 34.8767V35.0049H49.1008V34.8767H47.1008Z"
    fill="#EDF3FF" mask="url(#path-2-inside-1_524_31)" />
  <path d="M50.3589 10.9168L50.4161 32.2525L33.7889 22.587L33.7281 1.25495L50.3589 10.9168Z" fill="#003A72"
    stroke="#EDF3FF" stroke-miterlimit="10" />
  <path
    d="M26.6133 16.1729L44.2458 26.4167C46.6182 27.7971 48.0891 30.7239 48.1005 34.8803L30.4679 24.6327C30.4566 20.4763 28.9857 17.5495 26.6133 16.1729Z"
    fill="#003A72" />
  <path
    d="M30.9655 24.3436C30.9268 21.9878 30.413 19.9867 29.507 18.4322L43.9944 26.8489C45.9987 28.0152 47.3718 30.4333 47.5745 33.9963L30.9655 24.3436Z"
    fill="#003A72" stroke="#EDF3FF" stroke-miterlimit="10" />
  <path
    d="M30.9648 24.3432C30.9203 21.9842 30.4078 19.9837 29.5038 18.4304L43.9944 26.8489C45.9987 28.0152 47.3718 30.4333 47.5745 33.9963L30.9648 24.3432Z"
    fill="#003A72" stroke="#EDF3FF" stroke-miterlimit="10" />
  <path d="M18.8825 51.0411L2.25112 41.3733L3.85055 40.4517L20.483 50.1166L18.8825 51.0411Z" fill="#003A72"
    stroke="#EDF3FF" stroke-miterlimit="10" />
  <path
    d="M26.7724 15.9013L44.4049 26.149C41.9609 24.7308 38.5815 24.9269 34.8588 27.0768C27.4966 31.3274 21.5185 41.6392 21.4807 50.1179L3.84821 39.874C3.88592 31.3916 9.86401 21.0798 17.2263 16.8292C20.9527 14.6793 24.3208 14.4832 26.7724 15.9013Z"
    fill="#003A72" />
  <mask id="path-10-inside-2_524_31" fill="white">
    <path
      d="M21.4806 50.1178L3.84808 39.874C3.85482 39.0453 3.9115 38.2178 4.01781 37.396L21.6504 47.6436C21.5422 48.464 21.4855 49.2904 21.4806 50.1178" />
  </mask>
  <path
    d="M21.4806 50.1178L3.84808 39.874C3.85482 39.0453 3.9115 38.2178 4.01781 37.396L21.6504 47.6436C21.5422 48.464 21.4855 49.2904 21.4806 50.1178"
    fill="#003A72" />
  <path
    d="M3.84808 39.874L2.84812 39.8659L2.84339 40.4468L3.34574 40.7387L3.84808 39.874ZM4.01781 37.396L4.52029 36.5314L3.21914 35.7752L3.02608 37.2677L4.01781 37.396ZM21.6504 47.6436L22.6418 47.7744L22.7289 47.1138L22.1528 46.779L21.6504 47.6436ZM21.983 49.2532L4.35042 39.0093L3.34574 40.7387L20.9783 50.9825L21.983 49.2532ZM4.84805 39.8821C4.85446 39.0936 4.9084 38.3063 5.00955 37.5243L3.02608 37.2677C2.91461 38.1294 2.85518 38.997 2.84812 39.8659L4.84805 39.8821ZM3.51533 38.2606L21.1479 48.5082L22.1528 46.779L4.52029 36.5314L3.51533 38.2606ZM20.6589 47.5129C20.5453 48.3747 20.4857 49.2427 20.4806 50.112L22.4806 50.1237C22.4852 49.338 22.539 48.5534 22.6418 47.7744L20.6589 47.5129Z"
    fill="#EDF3FF" mask="url(#path-10-inside-2_524_31)" />
  <mask id="path-12-inside-3_524_31" fill="white">
    <path
      d="M21.6501 47.6437L4.01752 37.3961C4.10049 36.7775 4.20609 36.1514 4.34187 35.5103L21.9706 45.7541C21.8386 46.384 21.7293 47.0063 21.6501 47.6399" />
  </mask>
  <path
    d="M21.6501 47.6437L4.01752 37.3961C4.10049 36.7775 4.20609 36.1514 4.34187 35.5103L21.9706 45.7541C21.8386 46.384 21.7293 47.0063 21.6501 47.6399"
    fill="#003A72" />
  <path
    d="M4.01752 37.3961L3.0264 37.2631L2.9376 37.9251L3.51504 38.2607L4.01752 37.3961ZM4.34187 35.5103L4.8443 34.6456L3.64978 33.9515L3.36357 35.3031L4.34187 35.5103ZM21.9706 45.7541L22.9494 45.9592L23.0975 45.2524L22.4731 44.8895L21.9706 45.7541ZM22.1525 46.7791L4.52 36.5315L3.51504 38.2607L21.1476 48.5083L22.1525 46.7791ZM5.00864 37.529C5.08855 36.9334 5.19001 36.3321 5.32018 35.7174L3.36357 35.3031C3.22218 35.9707 3.11244 36.6217 3.0264 37.2631L5.00864 37.529ZM3.83945 36.3749L21.4682 46.6187L22.4731 44.8895L4.8443 34.6456L3.83945 36.3749ZM20.9919 45.549C20.8555 46.1998 20.7411 46.8497 20.6578 47.5159L22.6423 47.764C22.7175 47.1629 22.8218 46.5682 22.9494 45.9592L20.9919 45.549Z"
    fill="#EDF3FF" mask="url(#path-12-inside-3_524_31)" />
  <mask id="path-14-inside-4_524_31" fill="white">
    <path
      d="M21.9711 45.769L4.33099 35.5252C4.4366 35.0122 4.56484 34.4993 4.70816 33.9863L22.3407 44.2339C22.1974 44.7469 22.0729 45.2598 21.9635 45.769" />
  </mask>
  <path
    d="M21.9711 45.769L4.33099 35.5252C4.4366 35.0122 4.56484 34.4993 4.70816 33.9863L22.3407 44.2339C22.1974 44.7469 22.0729 45.2598 21.9635 45.769"
    fill="#003A72" />
  <path
    d="M4.33099 35.5252L3.35154 35.3235L3.2064 36.0285L3.82881 36.3899L4.33099 35.5252ZM4.70816 33.9863L5.21064 33.1217L4.09294 32.4722L3.74505 33.7172L4.70816 33.9863ZM22.3407 44.2339L23.3038 44.503L23.512 43.758L22.8432 43.3693L22.3407 44.2339ZM22.4733 44.9042L4.83317 34.6604L3.82881 36.3899L21.4689 46.6338L22.4733 44.9042ZM5.31045 35.7268C5.41043 35.2412 5.53275 34.7512 5.67127 34.2554L3.74505 33.7172C3.59692 34.2474 3.46277 34.7833 3.35154 35.3235L5.31045 35.7268ZM4.20568 34.8509L21.8382 45.0985L22.8432 43.3693L5.21064 33.1217L4.20568 34.8509ZM21.3776 43.9648C21.2282 44.4996 21.099 45.0324 20.9858 45.559L22.9412 45.979C23.0469 45.4872 23.1666 44.9942 23.3038 44.503L21.3776 43.9648Z"
    fill="#EDF3FF" mask="url(#path-14-inside-4_524_31)" />
  <mask id="path-16-inside-5_524_31" fill="white">
    <path
      d="M22.348 44.234L4.70795 33.9864C4.83618 33.5301 4.97573 33.0737 5.1266 32.6211L22.7591 42.8649C22.6083 43.3226 22.4687 43.7789 22.3405 44.234" />
  </mask>
  <path
    d="M22.348 44.234L4.70795 33.9864C4.83618 33.5301 4.97573 33.0737 5.1266 32.6211L22.7591 42.8649C22.6083 43.3226 22.4687 43.7789 22.3405 44.234"
    fill="#003A72" />
  <path
    d="M4.70795 33.9864L3.74523 33.7159L3.53562 34.4619L4.20563 34.8511L4.70795 33.9864ZM5.1266 32.6211L5.62894 31.7564L4.56648 31.1392L4.17791 32.3049L5.1266 32.6211ZM22.7591 42.8649L23.7089 43.178L23.9628 42.4077L23.2615 42.0003L22.7591 42.8649ZM22.8504 43.3694L5.21026 33.1218L4.20563 34.8511L21.8457 45.0987L22.8504 43.3694ZM5.67066 34.257C5.79477 33.8153 5.92967 33.3742 6.07528 32.9373L4.17791 32.3049C4.02179 32.7732 3.87759 33.2449 3.74523 33.7159L5.67066 34.257ZM4.62426 33.4858L22.2568 43.7296L23.2615 42.0003L5.62894 31.7564L4.62426 33.4858ZM21.8094 42.5518C21.6541 43.0231 21.5102 43.4934 21.378 43.9628L23.303 44.5053C23.4272 44.0644 23.5625 43.622 23.7089 43.178L21.8094 42.5518Z"
    fill="#EDF3FF" mask="url(#path-16-inside-5_524_31)" />
  <mask id="path-18-inside-6_524_31" fill="white">
    <path
      d="M22.7668 42.865L5.13422 32.6211C5.27754 32.1949 5.4284 31.7725 5.59058 31.3501L23.2231 41.5977C23.061 42.0201 22.9063 42.4426 22.7668 42.865" />
  </mask>
  <path
    d="M22.7668 42.865L5.13422 32.6211C5.27754 32.1949 5.4284 31.7725 5.59058 31.3501L23.2231 41.5977C23.061 42.0201 22.9063 42.4426 22.7668 42.865"
    fill="#003A72" />
  <path
    d="M5.13422 32.6211L4.18638 32.3024L3.92627 33.0759L4.63188 33.4858L5.13422 32.6211ZM5.59058 31.3501L6.09306 30.4855L5.07788 29.8955L4.65702 30.9917L5.59058 31.3501ZM23.2231 41.5977L24.1567 41.9561L24.4619 41.1611L23.7256 40.7331L23.2231 41.5977ZM23.2691 42.0003L5.63656 31.7565L4.63188 33.4858L22.2644 43.7297L23.2691 42.0003ZM6.08206 32.9399C6.22142 32.5255 6.36756 32.1164 6.52414 31.7085L4.65702 30.9917C4.48925 31.4287 4.33366 31.8644 4.18638 32.3024L6.08206 32.9399ZM5.08811 32.2147L22.7207 42.4623L23.7256 40.7331L6.09306 30.4855L5.08811 32.2147ZM22.2896 41.2393C22.1239 41.6709 21.9633 42.109 21.8172 42.5513L23.7163 43.1787C23.8493 42.7761 23.998 42.3694 24.1567 41.9561L22.2896 41.2393Z"
    fill="#EDF3FF" mask="url(#path-18-inside-6_524_31)" />
  <path
    d="M23.0813 40.6015C23.0439 40.6918 23.0071 40.7821 22.9707 40.8725L6.21287 31.1333C6.24938 31.0423 6.28642 30.9513 6.32396 30.8604L23.0813 40.6015Z"
    fill="#003A72" stroke="#EDF3FF" stroke-miterlimit="10" />
  <path
    d="M23.5973 39.4209C23.5575 39.5049 23.5177 39.5899 23.4785 39.6756L6.72352 29.9359C6.76135 29.8518 6.79948 29.768 6.83791 29.6843L23.5973 39.4209Z"
    fill="#003A72" stroke="#EDF3FF" stroke-miterlimit="10" />
  <mask id="path-22-inside-7_524_31" fill="white">
    <path
      d="M24.2492 39.2215L6.61664 28.9777C6.80145 28.6005 6.99381 28.2234 7.19748 27.8462L24.83 38.09C24.6263 38.4672 24.434 38.8444 24.2492 39.2215" />
  </mask>
  <path
    d="M24.2492 39.2215L6.61664 28.9777C6.80145 28.6005 6.99381 28.2234 7.19748 27.8462L24.83 38.09C24.6263 38.4672 24.434 38.8444 24.2492 39.2215"
    fill="#003A72" />
  <path
    d="M6.61664 28.9777L5.71865 28.5377L5.30869 29.3743L6.1143 29.8424L6.61664 28.9777ZM7.19748 27.8462L7.69982 26.9815L6.80777 26.4633L6.31757 27.371L7.19748 27.8462ZM24.83 38.09L25.7099 38.5652L26.1705 37.7123L25.3323 37.2254L24.83 38.09ZM24.7515 38.3569L7.11898 28.113L6.1143 29.8424L23.7468 40.0862L24.7515 38.3569ZM7.51463 29.4177C7.69473 29.0501 7.88105 28.6849 8.07738 28.3213L6.31757 27.371C6.10657 27.7618 5.90817 28.1509 5.71865 28.5377L7.51463 29.4177ZM6.69514 28.7109L24.3277 38.9547L25.3323 37.2254L7.69982 26.9815L6.69514 28.7109ZM23.9501 37.6149C23.7391 38.0056 23.5407 38.3948 23.3512 38.7815L25.1472 39.6616C25.3273 39.294 25.5136 38.9288 25.7099 38.5652L23.9501 37.6149Z"
    fill="#EDF3FF" mask="url(#path-22-inside-7_524_31)" />
  <mask id="path-24-inside-8_524_31" fill="white">
    <path
      d="M24.8297 38.0901L7.1972 27.8312C7.40087 27.454 7.61208 27.0769 7.82707 26.6997L25.4521 36.9586C25.2333 37.3358 25.0259 37.713 24.8222 38.0901" />
  </mask>
  <path
    d="M24.8297 38.0901L7.1972 27.8312C7.40087 27.454 7.61208 27.0769 7.82707 26.6997L25.4521 36.9586C25.2333 37.3358 25.0259 37.713 24.8222 38.0901"
    fill="#003A72" />
  <path
    d="M7.1972 27.8312L6.3173 27.3561L5.85703 28.2084L6.69431 28.6956L7.1972 27.8312ZM7.82707 26.6997L8.33012 25.8355L7.458 25.3278L6.95829 26.2045L7.82707 26.6997ZM25.4521 36.9586L26.3171 37.4604L26.818 36.5967L25.9551 36.0944L25.4521 36.9586ZM25.3326 37.2258L7.7001 26.9669L6.69431 28.6956L24.3268 38.9545L25.3326 37.2258ZM8.07711 28.3064C8.276 27.938 8.48323 27.5679 8.69584 27.1949L6.95829 26.2045C6.74094 26.5858 6.52575 26.97 6.3173 27.3561L8.07711 28.3064ZM7.32401 27.564L24.949 37.8229L25.9551 36.0944L8.33012 25.8355L7.32401 27.564ZM24.587 36.4569C24.361 36.8466 24.1482 37.2338 23.9423 37.615L25.7021 38.5653C25.9036 38.1922 26.1056 37.825 26.3171 37.4604L24.587 36.4569Z"
    fill="#EDF3FF" mask="url(#path-24-inside-8_524_31)" />
  <mask id="path-26-inside-9_524_31" fill="white">
    <path
      d="M25.4521 36.9586L7.82709 26.6996C8.05339 26.3224 8.28346 25.9453 8.52485 25.5681L26.1574 35.8271C25.916 36.2042 25.6859 36.5814 25.4596 36.9586" />
  </mask>
  <path
    d="M25.4521 36.9586L7.82709 26.6996C8.05339 26.3224 8.28346 25.9453 8.52485 25.5681L26.1574 35.8271C25.916 36.2042 25.6859 36.5814 25.4596 36.9586"
    fill="#003A72" />
  <path
    d="M7.82709 26.6996L6.96959 26.1851L6.44822 27.0541L7.32403 27.5639L7.82709 26.6996ZM8.52485 25.5681L9.02774 24.7038L8.19926 24.2217L7.68258 25.0291L8.52485 25.5681ZM26.1574 35.8271L26.9997 36.3661L27.562 35.4874L26.6603 34.9627L26.1574 35.8271ZM25.9551 36.0943L8.33014 25.8354L7.32403 27.5639L24.949 37.8228L25.9551 36.0943ZM8.68458 27.2141C8.90861 26.8407 9.13313 26.4728 9.36712 26.1072L7.68258 25.0291C7.43379 25.4178 7.19817 25.8042 6.96959 26.1851L8.68458 27.2141ZM8.02195 26.4325L25.6545 36.6914L26.6603 34.9627L9.02774 24.7038L8.02195 26.4325ZM25.3151 35.288C25.0663 35.6767 24.8307 36.0631 24.6021 36.4441L26.3171 37.473C26.5412 37.0997 26.7657 36.7317 26.9997 36.3661L25.3151 35.288Z"
    fill="#EDF3FF" mask="url(#path-26-inside-9_524_31)" />
  <path
    d="M26.214 34.8213C26.1398 34.9304 26.0661 35.0407 25.9927 35.1531L9.23026 25.4112C9.30399 25.2997 9.37845 25.1888 9.45364 25.0785L26.214 34.8213Z"
    fill="#003A72" stroke="#EDF3FF" stroke-miterlimit="10" />
  <path
    d="M27.0892 33.5807C26.99 33.7139 26.8914 33.8478 26.7935 33.9824L10.0314 24.2386C10.1292 24.1043 10.2283 23.9707 10.3286 23.8377L27.0892 33.5807Z"
    fill="#003A72" stroke="#EDF3FF" stroke-miterlimit="10" />
  <path
    d="M28.1491 32.2355C27.9988 32.4153 27.8503 32.5972 27.7037 32.7811L10.9487 23.0414C11.0963 22.8583 11.2463 22.6773 11.3981 22.4981L28.1491 32.2355Z"
    fill="#003A72" stroke="#EDF3FF" stroke-miterlimit="10" />
  <mask id="path-31-inside-10_524_31" fill="white">
    <path
      d="M28.9183 32.1044L11.2895 21.8719C11.7622 21.3237 12.2513 20.802 12.7567 20.3066L30.3892 30.5467C29.8838 31.0408 29.3935 31.5651 28.9183 32.112" />
  </mask>
  <path
    d="M28.9183 32.1044L11.2895 21.8719C11.7622 21.3237 12.2513 20.802 12.7567 20.3066L30.3892 30.5467C29.8838 31.0408 29.3935 31.5651 28.9183 32.112"
    fill="#003A72" />
  <path
    d="M11.2895 21.8719L10.5322 21.2188L9.74499 22.1316L10.7875 22.7367L11.2895 21.8719ZM12.7567 20.3066L13.2589 19.4419L12.6005 19.0595L12.0567 19.5925L12.7567 20.3066ZM30.3892 30.5467L31.0883 31.2618L32.0287 30.3424L30.8914 29.682L30.3892 30.5467ZM29.4203 31.2395L11.7915 21.007L10.7875 22.7367L28.4162 32.9693L29.4203 31.2395ZM12.0468 22.525C12.5017 21.9975 12.9716 21.4962 13.4566 21.0208L12.0567 19.5925C11.5309 20.1078 11.0227 20.65 10.5322 21.2188L12.0468 22.525ZM12.2545 21.1714L29.887 31.4115L30.8914 29.682L13.2589 19.4419L12.2545 21.1714ZM29.6902 29.8316C29.1632 30.3468 28.6544 30.8911 28.1634 31.456L29.6731 32.7679C30.1326 32.2391 30.6044 31.7348 31.0883 31.2618L29.6902 29.8316Z"
    fill="#EDF3FF" mask="url(#path-31-inside-10_524_31)" />
  <mask id="path-33-inside-11_524_31" fill="white">
    <path
      d="M30.3893 30.5466L12.7568 20.299C14.0954 18.9619 15.597 17.7986 17.2262 16.8366C17.8349 16.4873 18.4647 16.1761 19.112 15.905L36.7446 26.1527C36.0955 26.4198 35.4654 26.7311 34.8587 27.0843C33.2274 28.0431 31.7254 29.2067 30.3893 30.5466" />
  </mask>
  <path
    d="M30.3893 30.5466L12.7568 20.299C14.0954 18.9619 15.597 17.7986 17.2262 16.8366C17.8349 16.4873 18.4647 16.1761 19.112 15.905L36.7446 26.1527C36.0955 26.4198 35.4654 26.7311 34.8587 27.0843C33.2274 28.0431 31.7254 29.2067 30.3893 30.5466"
    fill="#003A72" />
  <path
    d="M12.7568 20.299L12.05 19.5915L11.1303 20.5103L12.2543 21.1636L12.7568 20.299ZM17.2262 16.8366L16.7283 15.9693L16.7178 15.9755L17.2262 16.8366ZM19.112 15.905L19.6145 15.0404L19.1845 14.7905L18.7258 14.9826L19.112 15.905ZM36.7446 26.1527L37.1252 27.0774L38.9988 26.3061L37.2471 25.2881L36.7446 26.1527ZM34.8587 27.0843L34.3556 26.22L34.352 26.2221L34.8587 27.0843ZM30.8918 29.6821L13.2593 19.4344L12.2543 21.1636L29.8868 31.4112L30.8918 29.6821ZM13.4635 21.0065C14.7427 19.7287 16.1777 18.617 17.7346 17.6977L16.7178 15.9755C15.0163 16.9802 13.448 18.1951 12.05 19.5915L13.4635 21.0065ZM17.724 17.7039C18.2967 17.3752 18.8893 17.0825 19.4983 16.8274L18.7258 14.9826C18.0401 15.2698 17.373 15.5993 16.7284 15.9694L17.724 17.7039ZM18.6096 16.7696L36.2421 27.0172L37.2471 25.2881L19.6145 15.0404L18.6096 16.7696ZM36.3639 25.2279C35.6727 25.5125 35.0017 25.8439 34.3556 26.22L35.3618 27.9485C35.9291 27.6183 36.5183 27.3272 37.1252 27.0774L36.3639 25.2279ZM34.352 26.2221C32.6472 27.2242 31.0775 28.4402 29.6812 29.8406L31.0975 31.2527C32.3733 29.9731 33.8076 28.862 35.3655 27.9464L34.352 26.2221Z"
    fill="#EDF3FF" mask="url(#path-33-inside-11_524_31)" />
  <mask id="path-35-inside-12_524_31" fill="white">
    <path
      d="M36.7297 26.1452L19.0971 15.8976C19.6107 15.6837 20.1373 15.5023 20.6737 15.3545L38.3062 25.6021C37.7697 25.7493 37.2431 25.9307 36.7297 26.1452" />
  </mask>
  <path
    d="M36.7297 26.1452L19.0971 15.8976C19.6107 15.6837 20.1373 15.5023 20.6737 15.3545L38.3062 25.6021C37.7697 25.7493 37.2431 25.9307 36.7297 26.1452"
    fill="#003A72" />
  <path
    d="M19.0971 15.8976L18.7126 14.9745L16.8519 15.7494L18.5946 16.7622L19.0971 15.8976ZM20.6737 15.3545L21.1761 14.4899L20.813 14.2788L20.408 14.3904L20.6737 15.3545ZM38.3062 25.6021L38.5708 26.5665L40.8701 25.9355L38.8087 24.7375L38.3062 25.6021ZM37.2321 25.2806L19.5996 15.033L18.5946 16.7622L36.2272 27.0098L37.2321 25.2806ZM19.4816 16.8208C19.9565 16.623 20.4434 16.4552 20.9393 16.3186L20.408 14.3904C19.8312 14.5494 19.265 14.7445 18.7126 14.9745L19.4816 16.8208ZM20.1712 16.2191L37.8037 26.4667L38.8087 24.7375L21.1761 14.4899L20.1712 16.2191ZM38.0416 24.6378C37.4639 24.7963 36.897 24.9916 36.3442 25.2225L37.1151 27.0679C37.5892 26.8699 38.0754 26.7024 38.5708 26.5665L38.0416 24.6378Z"
    fill="#EDF3FF" mask="url(#path-35-inside-12_524_31)" />
  <mask id="path-37-inside-13_524_31" fill="white">
    <path
      d="M38.3058 25.6021L20.6733 15.3545C21.0618 15.2484 21.4559 15.1641 21.8538 15.1018L39.4864 25.3494C39.0885 25.4117 38.6943 25.4961 38.3058 25.6021" />
  </mask>
  <path
    d="M38.3058 25.6021L20.6733 15.3545C21.0618 15.2484 21.4559 15.1641 21.8538 15.1018L39.4864 25.3494C39.0885 25.4117 38.6943 25.4961 38.3058 25.6021"
    fill="#003A72" />
  <path
    d="M20.6733 15.3545L20.4099 14.3898L18.1057 15.0189L20.1708 16.2191L20.6733 15.3545ZM21.8538 15.1018L22.3563 14.2372L22.0496 14.059L21.6992 14.1138L21.8538 15.1018ZM39.4864 25.3494L39.641 26.3374L42.4264 25.9015L39.9888 24.4848L39.4864 25.3494ZM38.8083 24.7375L21.1758 14.4899L20.1708 16.2191L37.8034 26.4667L38.8083 24.7375ZM20.9366 16.3192C21.2894 16.2229 21.6472 16.1463 22.0084 16.0898L21.6992 14.1138C21.2646 14.1818 20.8342 14.274 20.4099 14.3898L20.9366 16.3192ZM21.3513 15.9664L38.9839 26.214L39.9888 24.4848L22.3563 14.2372L21.3513 15.9664ZM39.3318 24.3615C38.8972 24.4295 38.4668 24.5216 38.0425 24.6374L38.5692 26.5668C38.9219 26.4705 39.2797 26.3939 39.641 26.3374L39.3318 24.3615Z"
    fill="#EDF3FF" mask="url(#path-37-inside-13_524_31)" />
  <mask id="path-39-inside-14_524_31" fill="white">
    <path
      d="M39.4868 25.3493L21.8542 15.1017C22.1854 15.0511 22.5191 15.0184 22.8537 15.0037L40.4863 25.2664C40.1515 25.2822 39.8179 25.3162 39.4868 25.3682" />
  </mask>
  <path
    d="M39.4868 25.3493L21.8542 15.1017C22.1854 15.0511 22.5191 15.0184 22.8537 15.0037L40.4863 25.2664C40.1515 25.2822 39.8179 25.3162 39.4868 25.3682"
    fill="#003A72" />
  <path
    d="M21.8542 15.1017L21.7032 14.1132L18.9003 14.5416L21.3518 15.9663L21.8542 15.1017ZM22.8537 15.0037L23.3568 14.1394L23.1031 13.9917L22.8098 14.0046L22.8537 15.0037ZM40.4863 25.2664L40.5335 26.2652L43.9157 26.1054L40.9893 24.4021L40.4863 25.2664ZM39.9893 24.4848L22.3567 14.2371L21.3518 15.9663L38.9843 26.2139L39.9893 24.4848ZM22.0053 16.0902C22.301 16.0451 22.5988 16.0158 22.8977 16.0027L22.8098 14.0046C22.4393 14.0209 22.0698 14.0572 21.7032 14.1132L22.0053 16.0902ZM22.3507 15.8679L39.9832 26.1306L40.9893 24.4021L23.3568 14.1394L22.3507 15.8679ZM40.4391 24.2675C40.0681 24.285 39.6984 24.3227 39.3316 24.3803L39.642 26.3561C39.9373 26.3097 40.2349 26.2794 40.5335 26.2652L40.4391 24.2675Z"
    fill="#EDF3FF" mask="url(#path-39-inside-14_524_31)" />
  <mask id="path-41-inside-15_524_31" fill="white">
    <path
      d="M40.4865 25.2664L22.8539 15.0225C23.1504 15.0055 23.4476 15.0055 23.7441 15.0225L41.3766 25.2664C41.0801 25.2513 40.783 25.2513 40.4865 25.2664" />
  </mask>
  <path
    d="M40.4865 25.2664L22.8539 15.0225C23.1504 15.0055 23.4476 15.0055 23.7441 15.0225L41.3766 25.2664C41.0801 25.2513 40.783 25.2513 40.4865 25.2664"
    fill="#003A72" />
  <path
    d="M22.8539 15.0225L22.7966 14.0242L19.4735 14.2151L22.3516 15.8872L22.8539 15.0225ZM23.7441 15.0225L24.2464 14.1579L24.0399 14.0379L23.8014 14.0242L23.7441 15.0225ZM41.3766 25.2664L41.3256 26.2651L45.4485 26.4755L41.8789 24.4017L41.3766 25.2664ZM40.9888 24.4017L23.3563 14.1579L22.3516 15.8872L39.9841 26.1311L40.9888 24.4017ZM22.9113 16.0209C23.1696 16.0061 23.4284 16.0061 23.6867 16.0209L23.8014 14.0242C23.4667 14.005 23.1312 14.005 22.7966 14.0242L22.9113 16.0209ZM23.2417 15.8872L40.8742 26.1311L41.8789 24.4017L24.2464 14.1579L23.2417 15.8872ZM41.4276 24.2677C41.0971 24.2508 40.766 24.2508 40.4355 24.2677L40.5375 26.2651C40.8 26.2517 41.0631 26.2517 41.3256 26.2651L41.4276 24.2677Z"
    fill="#EDF3FF" mask="url(#path-41-inside-15_524_31)" />
  <mask id="path-43-inside-16_524_31" fill="white">
    <path
      d="M41.3761 25.2663L23.7436 15.0225C24.0155 15.0381 24.2863 15.0696 24.5545 15.1168L42.187 25.3606C41.9185 25.3155 41.6479 25.284 41.3761 25.2663" />
  </mask>
  <path
    d="M41.3761 25.2663L23.7436 15.0225C24.0155 15.0381 24.2863 15.0696 24.5545 15.1168L42.187 25.3606C41.9185 25.3155 41.6479 25.284 41.3761 25.2663"
    fill="#003A72" />
  <path
    d="M23.7436 15.0225L23.8011 14.0241L19.6201 13.7834L23.2413 15.8871L23.7436 15.0225ZM24.5545 15.1168L25.0568 14.2521L24.9029 14.1627L24.7276 14.1319L24.5545 15.1168ZM42.187 25.3606L42.0215 26.3468L47.4415 27.2567L42.6894 24.4959L42.187 25.3606ZM41.8785 24.4016L24.2459 14.1578L23.2413 15.8871L40.8738 26.131L41.8785 24.4016ZM23.6861 16.0208C23.9192 16.0342 24.1514 16.0612 24.3814 16.1017L24.7276 14.1319C24.4211 14.078 24.1118 14.042 23.8011 14.0241L23.6861 16.0208ZM24.0522 15.9814L41.6847 26.2253L42.6894 24.4959L25.0568 14.2521L24.0522 15.9814ZM42.3526 24.3744C42.0508 24.3237 41.7466 24.2884 41.4413 24.2684L41.311 26.2642C41.5491 26.2797 41.7862 26.3073 42.0215 26.3468L42.3526 24.3744Z"
    fill="#EDF3FF" mask="url(#path-43-inside-16_524_31)" />
  <mask id="path-45-inside-17_524_31" fill="white">
    <path
      d="M42.1872 25.3493L24.5546 15.1055C24.8091 15.1492 25.0609 15.2071 25.309 15.279L42.9377 25.5266C42.6898 25.4534 42.438 25.3942 42.1834 25.3493" />
  </mask>
  <path
    d="M42.1872 25.3493L24.5546 15.1055C24.8091 15.1492 25.0609 15.2071 25.309 15.279L42.9377 25.5266C42.6898 25.4534 42.438 25.3942 42.1834 25.3493"
    fill="#003A72" />
  <path
    d="M24.5546 15.1055L24.724 14.1199L19.2473 13.1786L24.0523 15.9701L24.5546 15.1055ZM25.309 15.279L25.8115 14.4144L25.7052 14.3526L25.5872 14.3184L25.309 15.279ZM42.9377 25.5266L42.6544 26.4856L50.6303 28.8416L43.4403 24.662L42.9377 25.5266ZM42.6895 24.4846L25.057 14.2408L24.0523 15.9701L41.6848 26.214L42.6895 24.4846ZM24.3852 16.091C24.603 16.1284 24.8185 16.178 25.0308 16.2395L25.5872 14.3184C25.3034 14.2362 25.0152 14.17 24.724 14.1199L24.3852 16.091ZM24.8064 16.1435L42.4352 26.3911L43.4403 24.662L25.8115 14.4144L24.8064 16.1435ZM43.221 24.5675C42.937 24.4837 42.6485 24.4159 42.3569 24.3645L42.0099 26.3341C42.2274 26.3725 42.4426 26.423 42.6544 26.4856L43.221 24.5675Z"
    fill="#EDF3FF" mask="url(#path-45-inside-17_524_31)" />
  <mask id="path-47-inside-18_524_31" fill="white">
    <path
      d="M42.9412 25.5267L25.3124 15.2791C25.5528 15.3501 25.7895 15.4332 26.0215 15.528L43.6541 25.7756C43.4216 25.6786 43.1835 25.5955 42.9412 25.5267" />
  </mask>
  <path
    d="M42.9412 25.5267L25.3124 15.2791C25.5528 15.3501 25.7895 15.4332 26.0215 15.528L43.6541 25.7756C43.4216 25.6786 43.1835 25.5955 42.9412 25.5267"
    fill="#003A72" />
  <path
    d="M25.3124 15.2791L25.596 14.3201L17.6102 11.9584L24.8099 16.1436L25.3124 15.2791ZM26.0215 15.528L26.524 14.6634L26.4639 14.6285L26.3996 14.6022L26.0215 15.528ZM43.6541 25.7756L43.2689 26.6985L44.1565 24.911L43.6541 25.7756ZM43.4438 24.6621L25.815 14.4145L24.8099 16.1436L42.4386 26.3912L43.4438 24.6621ZM25.0288 16.238C25.2372 16.2996 25.4423 16.3716 25.6434 16.4538L26.3996 14.6022C26.1366 14.4948 25.8684 14.4007 25.596 14.3201L25.0288 16.238ZM25.519 16.3926L43.1516 26.6402L44.1565 24.911L26.524 14.6634L25.519 16.3926ZM44.0392 24.8527C43.7702 24.7405 43.4947 24.6443 43.2143 24.5647L42.6681 26.4887C42.8724 26.5466 43.073 26.6167 43.2689 26.6985L44.0392 24.8527Z"
    fill="#EDF3FF" mask="url(#path-47-inside-18_524_31)" />
  <mask id="path-49-inside-19_524_31" fill="white">
    <path
      d="M43.6545 25.7755L26.0219 15.5278C26.2538 15.624 26.4793 15.7349 26.697 15.8597L44.3296 26.1074C44.1114 25.9832 43.886 25.8724 43.6545 25.7755" />
  </mask>
  <path
    d="M43.6545 25.7755L26.0219 15.5278C26.2538 15.624 26.4793 15.7349 26.697 15.8597L44.3296 26.1074C44.1114 25.9832 43.886 25.8724 43.6545 25.7755"
    fill="#003A72" />
  <path
    d="M26.0219 15.5278L26.405 14.6041L25.5194 16.3924L26.0219 15.5278ZM26.697 15.8597L27.1995 14.9951L27.1945 14.9923L26.697 15.8597ZM44.3296 26.1074L43.8349 26.9765L44.832 25.2428L44.3296 26.1074ZM44.1569 24.9109L26.5244 14.6632L25.5194 16.3924L43.152 26.64L44.1569 24.9109ZM25.6388 16.4516C25.8314 16.5314 26.0187 16.6235 26.1995 16.7272L27.1945 14.9923C26.9399 14.8462 26.6762 14.7166 26.405 14.6041L25.6388 16.4516ZM26.1946 16.7243L43.8271 26.972L44.832 25.2428L27.1995 14.9952L26.1946 16.7243ZM44.8242 25.2383C44.571 25.0942 44.3093 24.9655 44.0406 24.853L43.2683 26.6979C43.4626 26.7792 43.6518 26.8723 43.8349 26.9765L44.8242 25.2383Z"
    fill="#EDF3FF" mask="url(#path-49-inside-19_524_31)" />
  <mask id="path-51-inside-20_524_31" fill="white">
    <path d="M44.3293 26.1075L26.6967 15.8599L26.7722 15.9014L44.4047 26.149L44.3293 26.1075Z" />
  </mask>
  <path d="M44.3293 26.1075L26.6967 15.8599L26.7722 15.9014L44.4047 26.149L44.3293 26.1075Z" fill="#003A72" />
  <path
    d="M44.3293 26.1075L43.8268 26.9721L43.837 26.978L43.8474 26.9837L44.3293 26.1075ZM26.6967 15.8599L27.1787 14.9837L26.1942 16.7245L26.6967 15.8599ZM26.7722 15.9014L27.2746 15.0368L27.2644 15.0308L27.2541 15.0252L26.7722 15.9014ZM44.4047 26.149L43.9228 27.0252L44.9072 25.2844L44.4047 26.149ZM44.8317 25.2429L27.1992 14.9953L26.1942 16.7245L43.8268 26.9721L44.8317 25.2429ZM26.2148 16.7361L26.2902 16.7776L27.2541 15.0252L27.1787 14.9837L26.2148 16.7361ZM26.2697 16.7659L43.9022 27.0136L44.9072 25.2844L27.2746 15.0368L26.2697 16.7659ZM44.8865 25.2727L44.8111 25.2312L43.8474 26.9837L43.9228 27.0252L44.8865 25.2727Z"
    fill="#EDF3FF" mask="url(#path-51-inside-20_524_31)" />
  <path
    d="M26.522 16.3341L40.9889 24.7419C39.04 24.716 36.8656 25.3405 34.6088 26.6438C30.8342 28.8231 27.4424 32.5362 24.9906 36.7609C22.6983 40.7108 21.204 45.1488 21.0036 49.2625L4.3518 39.5884C4.43511 35.5296 5.891 31.0344 8.223 27.0156C10.6102 22.9017 13.8885 19.3336 17.4762 17.2623C21.1104 15.1656 24.2789 15.0366 26.522 16.3341Z"
    fill="#003A72" stroke="#EDF3FF" stroke-miterlimit="10" />
  <path d="M18.0996 29.2848L18.1605 51.1299L1.52963 41.4679L1.46874 19.6193L18.0996 29.2848Z" fill="#003A72"
    stroke="#EDF3FF" stroke-miterlimit="10" />
  <path d="M18.5998 28.4187L1.96406 18.7504L33.4435 0.577793L50.0792 10.2425L18.5998 28.4187Z" fill="#003A72"
    stroke="#EDF3FF" stroke-miterlimit="10" />
  <mask id="path-56-inside-21_524_31" fill="white">
    <path
      d="M18.5991 28.9965L51.0769 10.2476L51.1411 33.2547L48.1011 35.0085V34.8841C48.0785 26.5185 42.1381 23.1316 34.8588 27.3408C27.5795 31.5499 21.6579 41.7674 21.6994 50.1329V50.2574L18.6632 51.9999L18.5991 28.9965ZM50.9185 33.1227L50.8544 10.6323L18.8217 29.1134L18.882 51.6039L21.4807 50.0952C21.5184 41.6165 27.4965 31.3048 34.8588 27.0541C42.2211 22.8034 48.2369 26.1904 48.3236 34.5974L50.9185 33.0888" />
  </mask>
  <path
    d="M18.5991 28.9965L51.0769 10.2476L51.1411 33.2547L48.1011 35.0085V34.8841C48.0785 26.5185 42.1381 23.1316 34.8588 27.3408C27.5795 31.5499 21.6579 41.7674 21.6994 50.1329V50.2574L18.6632 51.9999L18.5991 28.9965ZM50.9185 33.1227L50.8544 10.6323L18.8217 29.1134L18.882 51.6039L21.4807 50.0952C21.5184 41.6165 27.4965 31.3048 34.8588 27.0541C42.2211 22.8034 48.2369 26.1904 48.3236 34.5974L50.9185 33.0888"
    fill="#003A72" />
  <path
    d="M18.5991 28.9965L18.0992 28.1305L17.5975 28.4201L17.5991 28.9993L18.5991 28.9965ZM51.0769 10.2476L52.0769 10.2448L52.0721 8.51839L50.577 9.38151L51.0769 10.2476ZM51.1411 33.2547L51.6408 34.1209L52.1427 33.8314L52.1411 33.2519L51.1411 33.2547ZM48.1011 35.0085H47.1011V36.74L48.6008 35.8747L48.1011 35.0085ZM48.1011 34.8841L49.1011 34.8841L49.1011 34.8814L48.1011 34.8841ZM21.6994 50.1329L22.6994 50.1329L22.6994 50.128L21.6994 50.1329ZM21.6994 50.2574L22.1972 51.1247L22.6994 50.8365V50.2574H21.6994ZM18.6632 51.9999L17.6632 52.0027L17.668 53.7241L19.161 52.8672L18.6632 51.9999ZM50.8544 10.6323L51.8544 10.6294L51.8495 8.90367L50.3547 9.7661L50.8544 10.6323ZM18.8217 29.1134L18.3219 28.2473L17.8201 28.5368L17.8217 29.1161L18.8217 29.1134ZM18.882 51.6039L17.882 51.6066L17.8866 53.338L19.3841 52.4687L18.882 51.6039ZM21.4807 50.0952L21.9828 50.96L22.4781 50.6725L22.4807 50.0997L21.4807 50.0952ZM48.3236 34.5974L47.3237 34.6078L47.3414 36.3252L48.8263 35.4619L48.3236 34.5974ZM19.0991 29.8626L51.5769 11.1136L50.577 9.38151L18.0992 28.1305L19.0991 29.8626ZM50.0769 10.2503L50.1411 33.2575L52.1411 33.2519L52.0769 10.2448L50.0769 10.2503ZM50.6413 32.3885L47.6014 34.1424L48.6008 35.8747L51.6408 34.1209L50.6413 32.3885ZM49.1011 35.0085V34.8841H47.1011V35.0085H49.1011ZM49.1011 34.8814C49.0892 30.4841 47.513 27.133 44.6963 25.528C41.8818 23.9244 38.1805 24.2649 34.3582 26.4751L35.3594 28.2064C38.8164 26.2075 41.7249 26.1369 43.7061 27.2657C45.6851 28.3934 47.0904 30.9185 47.1011 34.8868L49.1011 34.8814ZM34.3582 26.4751C30.5317 28.6877 27.1179 32.4395 24.668 36.6778C22.2185 40.9155 20.6776 45.7347 20.6994 50.1379L22.6994 50.128C22.6798 46.1656 24.0789 41.6933 26.3996 37.6786C28.7199 33.6645 31.9065 30.203 35.3594 28.2064L34.3582 26.4751ZM20.6994 50.1329V50.2574H22.6994V50.1329H20.6994ZM21.2017 49.3901L18.1655 51.1326L19.161 52.8672L22.1972 51.1247L21.2017 49.3901ZM19.6632 51.9971L19.5991 28.9937L17.5991 28.9993L17.6632 52.0027L19.6632 51.9971ZM51.9185 33.1199L51.8544 10.6294L49.8544 10.6351L49.9185 33.1256L51.9185 33.1199ZM50.3547 9.7661L18.3219 28.2473L19.3214 29.9796L51.3541 11.4985L50.3547 9.7661ZM17.8217 29.1161L17.882 51.6066L19.882 51.6012L19.8217 29.1108L17.8217 29.1161ZM19.3841 52.4687L21.9828 50.96L20.9786 49.2304L18.3799 50.7391L19.3841 52.4687ZM22.4807 50.0997C22.4986 46.0763 23.9328 41.5491 26.2879 37.4911C28.6429 33.4331 31.8646 29.9375 35.3588 27.9201L34.3588 26.1881C30.4907 28.4213 27.0421 32.207 24.5581 36.4872C22.0741 40.7674 20.5005 45.6355 20.4807 50.0908L22.4807 50.0997ZM35.3588 27.9201C38.858 25.8998 41.8098 25.8176 43.8302 26.9512C45.8468 28.0827 47.2825 30.6208 47.3237 34.6078L49.3236 34.5871C49.278 30.167 47.6624 26.8081 44.8089 25.207C41.9591 23.6081 38.2219 23.9577 34.3588 26.1881L35.3588 27.9201ZM48.8263 35.4619L51.4212 33.9533L50.4159 32.2243L47.821 33.7329L48.8263 35.4619Z"
    fill="#EDF3FF" mask="url(#path-56-inside-21_524_31)" />
</svg>