<svg width="43" height="35" viewBox="0 0 43 35" fill="none" xmlns="http://www.w3.org/2000/svg">
<path d="M22.1959 1.49354L22.6879 1.00151L29.9874 8.2998L29.4943 8.79284L28.8704 8.16803L28.8701 8.16779L22.8198 2.11752L22.1959 1.49354ZM8.58322 15.1071L9.07537 14.6144L9.69915 15.239L9.69942 15.2393L15.7494 21.288L15.7497 21.2883L16.3739 21.9133L15.8816 22.4055L8.58322 15.1071ZM24.9573 13.8578L25.0719 13.9721L24.4473 14.5958L24.4471 14.596L21.5539 17.4892L21.4399 17.3752L24.9573 13.8578ZM3.52514 30.9889C3.52514 30.9208 3.55218 30.8554 3.60033 30.8072C3.64848 30.759 3.7138 30.7318 3.78196 30.7317H12.8556C12.9238 30.7318 12.9891 30.759 13.0373 30.8072C13.0854 30.8554 13.1125 30.9208 13.1125 30.9889V31.2449H3.52514V30.9889ZM16.1376 34.2687H0.5V34.0128C0.5 33.9446 0.527044 33.8793 0.575197 33.831C0.623345 33.7828 0.688667 33.7556 0.756814 33.7555H15.8808C15.9489 33.7556 16.0143 33.7828 16.0624 33.831C16.1106 33.8793 16.1376 33.9446 16.1376 34.0128V34.2687ZM16.6376 18.6231L12.3645 14.35L21.9319 4.7814L26.2051 9.05568L16.6376 18.6231ZM41.7449 34.1682C41.6796 34.2329 41.5914 34.2692 41.4995 34.2692C41.4072 34.2692 41.3186 34.2325 41.2532 34.1673L24.8431 17.7597L25.3351 17.2677L41.7447 33.6748C41.7447 33.6748 41.7447 33.6748 41.7447 33.6748C41.81 33.7403 41.8466 33.8291 41.8466 33.9215C41.8466 34.014 41.81 34.1026 41.7449 34.1682Z" stroke="white"/>
</svg>
