<svg width="100%" viewBox="0 0 252 120" fill="none" xmlns="http://www.w3.org/2000/svg">
  <path d="M1.43896 3.95806V19.9102L32.0003 47.5811H96.1386L126.7 19.9102V3.95806" fill="#0F95A7" />
  <path d="M1.43896 3.95806V19.9102L32.0003 47.5811H96.1386L126.7 19.9102V3.95806" stroke="black"
    stroke-miterlimit="10" />
  <path d="M32.0002 33.0415V47.5812" stroke="black" stroke-miterlimit="10" />
  <path d="M96.1367 33.0415V47.5812" stroke="black" stroke-miterlimit="10" />
  <path d="M1.43896 3.95806L32.0003 33.0414H96.1386L126.7 3.95806H1.43896Z" fill="#0F95A7" stroke="black"
    stroke-miterlimit="10" />
  <path d="M126.7 114.395V98.4432L96.1386 70.7723H32.0003L1.43896 98.4432V114.395" fill="#0F95A7" />
  <path d="M126.7 114.395V98.4432L96.1386 70.7723H32.0003L1.43896 98.4432V114.395" stroke="black"
    stroke-miterlimit="10" />
  <path d="M96.1392 85.312V70.7723" stroke="black" stroke-miterlimit="10" />
  <path d="M32.0044 85.312V70.7723" stroke="black" stroke-miterlimit="10" />
  <path d="M126.7 114.395L96.1386 85.3119H32.0003L1.43896 114.395H126.7Z" fill="#0F95A7" stroke="black"
    stroke-miterlimit="10" />
  <path
    d="M184.162 119C216.747 119 243.162 92.5848 243.162 60.0001C243.162 27.4153 216.747 1.00013 184.162 1.00013C151.577 1.00013 125.162 27.4153 125.162 60.0001C125.162 92.5848 151.577 119 184.162 119Z"
    fill="#0F95A7" stroke="black" stroke-miterlimit="10" />
  <path d="M184.162 1V118.996" stroke="black" stroke-miterlimit="10" />
  <path d="M125.162 60.0003H243.159" stroke="black" stroke-miterlimit="10" />
  <path
    d="M228.942 21.14C219.312 27.1203 202.919 31.0565 184.311 31.0565C165.783 31.0565 149.448 27.154 139.788 21.2142"
    stroke="black" stroke-miterlimit="10" />
  <path
    d="M140.457 99.6287C150.174 93.8947 166.196 90.1844 184.305 90.1844C202.3 90.1844 218.227 93.8677 227.965 99.5208"
    stroke="black" stroke-miterlimit="10" />
  <path
    d="M184.162 118.696C197.681 118.696 208.64 92.3491 208.64 59.8482C208.64 27.3472 197.681 1 184.162 1C170.644 1 159.685 27.3472 159.685 59.8482C159.685 92.3491 170.644 118.696 184.162 118.696Z"
    stroke="black" stroke-miterlimit="10" />
  <rect x="116.24" y="46.0096" width="134.464" height="27.0604" fill="#0F95A7" stroke="black" />
  <rect x="199.29" y="36.819" width="46.7222" height="44.9918" rx="4" fill="#235887" />
  <path
    d="M217.726 62.2232C217.334 62.2232 216.956 62.1692 216.592 62.0612C216.228 61.9492 215.9 61.7892 215.608 61.5812C215.32 61.3692 215.092 61.1072 214.924 60.7952C214.756 60.4792 214.672 60.1152 214.672 59.7032H215.86C215.872 60.0152 215.96 60.2812 216.124 60.5012C216.288 60.7212 216.508 60.8892 216.784 61.0052C217.06 61.1172 217.374 61.1732 217.726 61.1732C218.254 61.1732 218.664 61.0472 218.956 60.7952C219.252 60.5432 219.4 60.2272 219.4 59.8472C219.4 59.6032 219.338 59.3892 219.214 59.2052C219.094 59.0212 218.904 58.8792 218.644 58.7792C218.388 58.6752 218.054 58.6232 217.642 58.6232H216.712V57.7232H217.42C217.948 57.7232 218.364 57.6152 218.668 57.3992C218.972 57.1792 219.124 56.8812 219.124 56.5052C219.124 56.1692 218.998 55.8872 218.746 55.6592C218.494 55.4312 218.128 55.3172 217.648 55.3172C217.268 55.3172 216.93 55.3952 216.634 55.5512C216.338 55.7032 216.142 55.9772 216.046 56.3732H214.864C214.924 55.8772 215.08 55.4752 215.332 55.1672C215.584 54.8592 215.906 54.6352 216.298 54.4952C216.69 54.3552 217.128 54.2852 217.612 54.2852C218.136 54.2852 218.604 54.3752 219.016 54.5552C219.432 54.7312 219.758 54.9772 219.994 55.2932C220.23 55.6092 220.348 55.9732 220.348 56.3852C220.348 56.7812 220.236 57.1232 220.012 57.4112C219.792 57.6952 219.47 57.9132 219.046 58.0652C219.518 58.2092 219.902 58.4392 220.198 58.7552C220.494 59.0672 220.642 59.4632 220.642 59.9432C220.642 60.3872 220.522 60.7812 220.282 61.1252C220.042 61.4692 219.704 61.7392 219.268 61.9352C218.832 62.1272 218.318 62.2232 217.726 62.2232Z"
    fill="white" />
  <path
    d="M221.651 61.3952C221.651 61.1712 221.727 60.9812 221.879 60.8252C222.035 60.6692 222.231 60.5912 222.467 60.5912C222.703 60.5912 222.903 60.6692 223.067 60.8252C223.231 60.9812 223.313 61.1712 223.313 61.3952C223.313 61.6152 223.231 61.8012 223.067 61.9532C222.903 62.1012 222.703 62.1752 222.467 62.1752C222.231 62.1752 222.035 62.0992 221.879 61.9472C221.727 61.7952 221.651 61.6112 221.651 61.3952Z"
    fill="white" />
  <path
    d="M227.319 62.2232C226.707 62.2232 226.169 62.0772 225.705 61.7852C225.245 61.4932 224.887 61.0532 224.631 60.4652C224.375 59.8772 224.247 59.1372 224.247 58.2452C224.247 57.3572 224.375 56.6192 224.631 56.0312C224.887 55.4432 225.245 55.0052 225.705 54.7172C226.169 54.4292 226.707 54.2852 227.319 54.2852C227.927 54.2852 228.461 54.4292 228.921 54.7172C229.381 55.0052 229.739 55.4432 229.995 56.0312C230.255 56.6192 230.385 57.3572 230.385 58.2452C230.385 59.1372 230.255 59.8772 229.995 60.4652C229.739 61.0532 229.381 61.4932 228.921 61.7852C228.461 62.0772 227.927 62.2232 227.319 62.2232ZM227.319 61.1732C227.927 61.1732 228.393 60.9212 228.717 60.4172C229.045 59.9092 229.209 59.1852 229.209 58.2452C229.209 57.3092 229.045 56.5872 228.717 56.0792C228.393 55.5712 227.927 55.3172 227.319 55.3172C226.711 55.3172 226.243 55.5712 225.915 56.0792C225.591 56.5872 225.429 57.3092 225.429 58.2452C225.429 59.1852 225.591 59.9092 225.915 60.4172C226.243 60.9212 226.711 61.1732 227.319 61.1732Z"
    fill="white" />
  <path
    d="M131.352 57.3579H132.738L134.341 62.7619H134.194L135.741 57.7009H136.896L138.436 62.7759H138.296L139.899 57.3579H141.229L139.017 64.0919H137.715L136.189 59.3319H136.392L134.887 64.0919H133.585L131.352 57.3579Z"
    fill="white" />
  <path
    d="M141.688 57.3579H143.074L144.677 62.7619H144.53L146.077 57.7009H147.232L148.772 62.7759H148.632L150.235 57.3579H151.565L149.353 64.0919H148.051L146.525 59.3319H146.728L145.223 64.0919H143.921L141.688 57.3579Z"
    fill="white" />
  <path
    d="M152.024 57.3579H153.41L155.013 62.7619H154.866L156.413 57.7009H157.568L159.108 62.7759H158.968L160.571 57.3579H161.901L159.689 64.0919H158.387L156.861 59.3319H157.064L155.559 64.0919H154.257L152.024 57.3579Z"
    fill="white" />
  <path
    d="M223.237 89.6789L227.213 86.1812L230.392 93.0195L230.595 93.4568L231.039 93.2695L232.397 92.6971L232.869 92.4983L232.659 92.0313L229.662 85.3667H235.181H236.314L235.55 84.5296L223.276 71.0884L222.407 70.1365V71.4256V89.3035V90.4093L223.237 89.6789Z"
    fill="white" stroke="#001830" stroke-miterlimit="10" />
</svg>