<svg width="55" height="16" viewBox="0 0 55 16" fill="none" xmlns="http://www.w3.org/2000/svg">
<path d="M3.59508 12.5098C2.99216 12.5172 2.39377 12.4048 1.83458 12.1793C1.31469 11.9704 0.864393 11.6188 0.535564 11.1652C0.185643 10.664 -0.00135916 10.0672 7.43712e-06 9.45596H1.64086C1.62832 9.76589 1.72066 10.071 1.90294 10.322C2.08652 10.5536 2.33123 10.7292 2.60942 10.829C2.91981 10.9415 3.24785 10.9975 3.57798 10.9943C3.8873 10.9991 4.19529 10.9529 4.48957 10.8575C4.73344 10.7855 4.95371 10.6498 5.12768 10.4644C5.27884 10.302 5.36238 10.088 5.36127 9.86617C5.36745 9.7328 5.34582 9.5996 5.29776 9.47504C5.2497 9.35047 5.17626 9.23726 5.0821 9.1426C4.8194 8.92418 4.51509 8.76136 4.18761 8.66402L2.36443 7.94045C1.76391 7.72569 1.21059 7.39679 0.734974 6.97189C0.540871 6.77088 0.390141 6.53213 0.292134 6.27045C0.194127 6.00877 0.150933 5.72974 0.165232 5.45068C0.156578 5.09944 0.232864 4.7513 0.387605 4.43587C0.542346 4.12044 0.770966 3.84703 1.05403 3.6389C1.77485 3.1365 2.64393 2.89163 3.52101 2.94382C4.37707 2.88921 5.22427 3.14397 5.90823 3.66169C6.18814 3.91659 6.41444 4.22473 6.57389 4.56809C6.73335 4.91146 6.82276 5.28316 6.83691 5.66148H5.21884C5.17335 5.31748 4.99553 5.00477 4.72316 4.78978C4.3729 4.54355 3.94792 4.42673 3.52101 4.45933C3.11918 4.43273 2.71951 4.53664 2.38153 4.75559C2.26089 4.83618 2.16227 4.94561 2.09462 5.07395C2.02697 5.20229 1.99242 5.34549 1.9941 5.49056C1.99186 5.60718 2.01637 5.72277 2.06575 5.82845C2.11513 5.93413 2.18807 6.02708 2.27897 6.10018C2.51928 6.28592 2.78885 6.43034 3.07661 6.52749L5.06501 7.30234C5.65494 7.51059 6.18908 7.85173 6.6261 8.29939C7.00298 8.71074 7.20701 9.25141 7.19584 9.8092C7.20934 10.3175 7.06396 10.8174 6.77993 11.2393C6.4743 11.6652 6.05036 11.9921 5.56068 12.1793C4.93404 12.4193 4.26575 12.5317 3.59508 12.5098Z" fill="#505B68"/>
<path d="M12.9275 12.5098C12.1711 12.5263 11.4239 12.3415 10.7625 11.9742C10.1229 11.5994 9.61224 11.0391 9.29825 10.3675C8.91495 9.53648 8.73154 8.62722 8.7627 7.71255C8.7291 6.79401 8.91258 5.88049 9.29825 5.04616C9.61283 4.38668 10.1245 3.84119 10.7625 3.48507C11.427 3.12674 12.1727 2.94619 12.9275 2.96091C13.6843 2.94442 14.4324 3.12505 15.0982 3.48507C15.7376 3.8568 16.2499 4.41279 16.5682 5.08034C16.9435 5.9056 17.1229 6.80647 17.0923 7.71255C17.1234 8.63397 16.9421 9.55019 16.5625 10.3903C16.2475 11.0601 15.7344 11.617 15.0925 11.9856C14.4274 12.3422 13.6821 12.5227 12.9275 12.5098ZM12.9275 10.9943C13.2712 11.0072 13.6129 10.9367 13.9234 10.7889C14.234 10.6411 14.5041 10.4203 14.7108 10.1453C15.1998 9.42775 15.4363 8.5679 15.3831 7.70115C15.4342 6.85052 15.2018 6.00695 14.7222 5.30254C14.5158 5.02694 14.2459 4.8053 13.9354 4.6565C13.6249 4.5077 13.283 4.43615 12.9389 4.44793C12.5941 4.43533 12.2514 4.50712 11.9406 4.65705C11.6298 4.80697 11.3604 5.03051 11.1556 5.30824C10.6712 6.01276 10.4365 6.85916 10.489 7.71255C10.4323 8.57705 10.667 9.43561 11.1556 10.151C11.3621 10.4229 11.6307 10.6414 11.939 10.7881C12.2473 10.9348 12.5863 11.0055 12.9275 10.9943Z" fill="#505B68"/>
<path d="M22.4081 12.5098C21.6687 12.5366 20.9386 12.3379 20.3148 11.94C19.691 11.5422 19.203 10.9639 18.9156 10.2821C18.5659 9.46767 18.3968 8.58717 18.4199 7.70116C18.3918 6.80197 18.5671 5.90805 18.9327 5.08604C19.2366 4.4237 19.7304 3.86651 20.3513 3.48507C20.9713 3.10913 21.6831 2.91195 22.4081 2.91533C23.3125 2.86238 24.2054 3.13976 24.9207 3.69587C25.5175 4.22244 25.919 4.93514 26.0601 5.71846L24.2768 6.04321C24.146 5.60905 23.9045 5.21637 23.5761 4.90372C23.2525 4.60941 22.8283 4.45036 22.391 4.45933C21.9934 4.45603 21.6055 4.582 21.2857 4.81826C20.9315 5.09743 20.663 5.47057 20.5109 5.89507C20.3009 6.47339 20.2024 7.08619 20.2203 7.70116C20.2075 8.29628 20.2942 8.88936 20.4767 9.45596C20.6122 9.89897 20.8711 10.2942 21.223 10.5954C21.558 10.8652 21.9782 11.0067 22.4081 10.9943C22.6608 11.0105 22.9143 10.9766 23.1538 10.8944C23.3934 10.8123 23.6144 10.6836 23.804 10.5157C23.9655 10.3574 24.0925 10.1673 24.1768 9.95744C24.2611 9.74758 24.301 9.5225 24.2939 9.29643H26.0772C26.0958 9.90343 25.9438 10.5035 25.6385 11.0284C25.3351 11.5121 24.8949 11.8949 24.3737 12.128C23.7549 12.3994 23.0835 12.5298 22.4081 12.5098Z" fill="#505B68"/>
<path d="M27.5701 12.3104V10.7436C27.5554 10.2952 27.635 9.84883 27.8037 9.43317C27.9538 9.07812 28.1885 8.76517 28.4873 8.52158C28.8338 8.25406 29.2177 8.03905 29.6268 7.88347L31.5127 7.1599C31.8812 7.04693 32.2134 6.83859 32.4755 6.55598C32.675 6.30116 32.7797 5.98497 32.7718 5.66148C32.774 5.49349 32.7406 5.32694 32.6738 5.17277C32.607 5.01861 32.5084 4.88032 32.3844 4.76699C32.08 4.50572 31.685 4.37473 31.2848 4.40235C30.878 4.39037 30.4783 4.51029 30.1453 4.7442C29.9823 4.86294 29.847 5.01559 29.7486 5.19165C29.6503 5.3677 29.5912 5.56298 29.5756 5.76403H27.7239C27.7176 5.20489 27.8892 4.65822 28.2139 4.20294C28.5329 3.77956 28.9656 3.45551 29.4616 3.26857C30.0278 3.05615 30.6288 2.9518 31.2335 2.96091C31.8111 2.9538 32.383 3.07443 32.9085 3.31415C33.3853 3.52673 33.7965 3.86314 34.0993 4.2884C34.4016 4.72003 34.5573 5.23727 34.5437 5.76403C34.5527 6.19205 34.465 6.61658 34.2873 7.00607C34.1034 7.37728 33.8339 7.69949 33.5011 7.94614C33.0932 8.22802 32.6484 8.45233 32.1793 8.61274L30.282 9.34771C29.987 9.44731 29.7156 9.60631 29.4844 9.8149C29.3164 9.99969 29.2284 10.2434 29.2394 10.4929V10.7607H34.4867V12.2876L27.5701 12.3104Z" fill="#505B68"/>
<path d="M54.9003 6.43063C54.6473 4.64639 53.7588 3.01343 52.398 1.83198C51.0373 0.650527 49.2957 0 47.4937 0C45.6916 0 43.95 0.650527 42.5893 1.83198C41.2285 3.01343 40.34 4.64639 40.087 6.43063C40.0585 6.63004 40.0357 6.82945 40.0186 7.03456C40.0016 7.23967 40.0186 7.3821 40.0186 7.55302C39.991 8.55391 40.1643 9.55017 40.5283 10.4829C40.8922 11.4157 41.4395 12.2661 42.1376 12.9838C42.8358 13.7015 43.6708 14.2719 44.5931 14.6615C45.5155 15.051 46.5066 15.2517 47.5079 15.2517C48.5092 15.2517 49.5003 15.051 50.4227 14.6615C51.345 14.2719 52.18 13.7015 52.8782 12.9838C53.5763 12.2661 54.1236 11.4157 54.4875 10.4829C54.8515 9.55017 55.0248 8.55391 54.9971 7.55302C54.9971 7.3821 54.9971 7.20548 54.9971 7.03456C54.9971 6.86364 54.9288 6.63004 54.9003 6.43063Z" fill="#505B68"/>
<path d="M53.8806 2.85837L50.5647 6.24833L49.9266 6.92632L46.2802 10.7892L43.2378 7.91767" stroke="#0E1421" stroke-width="2" stroke-miterlimit="10"/>
</svg>
