<svg width="100%" viewBox="0 0 748 503" fill="none" xmlns="http://www.w3.org/2000/svg">
  <path
    d="M721.1 356.201C735.515 356.201 747.2 344.516 747.2 330.101C747.2 315.687 735.515 304.001 721.1 304.001C706.685 304.001 695 315.687 695 330.101C695 344.516 706.685 356.201 721.1 356.201Z"
    fill="#0F95A7" />
  <path
    d="M224.345 39.2665L227.558 19.4958C228.661 12.7089 224.053 6.31296 217.266 5.21008L197.495 1.9973C190.708 0.894415 184.313 5.50224 183.21 12.2892L179.997 32.0598C178.894 38.8467 183.502 45.2427 190.289 46.3456L210.059 49.5583C216.846 50.6612 223.242 46.0534 224.345 39.2665Z"
    fill="#025373" />
  <path d="M45.9999 478.182L-6.10352e-05 502.002L2.25609 450.002L45.9999 478.182Z" fill="#92C0E9" />
</svg>